<svg xmlns="http://www.w3.org/2000/svg" xmlns:xlink="http://www.w3.org/1999/xlink" viewBox="0 0 375 395"><defs><path id="a" d="M0 .1h418.9V419H0z"/><path id="c" d="M.3.2h1.5V5H.3z"/></defs><g fill="none" fill-rule="evenodd" opacity=".1"><path fill="#010202" d="M206.2 403.3c3 5.9-3 15.7-8.6 11 .9-5.4 4-8.8 8.6-11m5-17.5c1.9 2.2-2 5.1-4.1 6 .3-3 1.4-5.9 4.2-6m-13 25c-.8 1.4-1.6 2.4-1.2 3.5.4 1.2 3.3 2 4.9 1.6.4-.1 2.2-1.1 2.6-1.4 3.2-2.5 4.5-8.8 4.3-12.9 1.1-.2 2-.6 3.2-1l.4-.2.5-.5c-1.3.5-2.9.5-4.1 1.3-.7-2.8-1.2-6-1.8-8.6 1.3-1.5 5.2-2.8 5.3-5.4 0-1.1-.8-2-1.8-2.2-3.5-.3-5.3 4.8-5.8 7.3-1 0-1.7-.6-2.2-1.3-1-1.4-.7-3.4-1.6-4.7 0 3.5 1.4 5.6 3.8 6.5-.5 4 1 6.5 1.3 10-1.6 1-3.3 1.8-4.8 3.1s-2 3-3 5M56.4 150.8L61 152h.3c.2 0 .4 0 .6-.2 0-.2 0-.5-.4-.6L57 150c-.3 0-.7 0-.9.2 0 .2 0 .5.4.6M146.2 347h.2c.1 0 .3-.1.4-.4l1.2-4.7c0-.3 0-.7-.2-.9-.2 0-.5 0-.6.4L146 346c0 .3 0 .7.2.9M178.2 264.4L177 269c0 .3 0 .7.2.9h.2c.1 0 .3-.1.4-.4l1.2-4.7c0-.3 0-.7-.2-.8-.2-.2-.5 0-.6.3M141.2 356h.2c.1 0 .3-.1.4-.4l1.2-4.7c0-.3 0-.7-.2-.9-.2 0-.5 0-.6.4L141 355c0 .3 0 .7.2.9M67.1 264l-4.7 1.2c-.3.1-.5.4-.3.6l.5.2h.3l4.7-1.2c.3-.1.5-.4.4-.6-.2-.2-.6-.3-.9-.2M62.4 152.8L67 154h.3c.2 0 .5 0 .6-.2 0-.2 0-.5-.4-.6L63 152c-.3 0-.7 0-.9.2 0 .2 0 .5.4.6M281.2 267.6c-.2-1.1.3-1.4.6-2 .4.3 1 .5.9 1.4-.4.3-.6.9-1.5.6m-.3-3.2c-6 2.7 3.8 9.3 4.1 2.9 0-2.2-1.5-4.1-4-3M235.6 291h.2c.2-.2.3-.6.2-.9l-1.2-4.7c-.1-.3-.4-.5-.6-.4-.2.2-.3.6-.2.9l1.2 4.7c.1.3.2.4.4.4M287.4 243.8l4.7 1.2h.3c.2 0 .4 0 .6-.2 0-.2 0-.5-.4-.6L288 243c-.3 0-.7 0-.9.2 0 .2 0 .5.4.6M300.4 252.8l4.7 1.2h.3c.2 0 .4 0 .6-.2 0-.2 0-.5-.4-.6L301 252c-.3 0-.7 0-.9.2 0 .2 0 .5.4.6M200.2 204.6c.1.3.2.4.4.4h.2c.2-.2.3-.6.2-.9l-1.2-4.7c-.1-.3-.4-.5-.6-.4-.2.2-.3.6-.2.9l1.2 4.7zM373.5 374.1c1.3 1 .2 4.2 2.5 3.9 4.2-7.6-6.4-4.3-8.7-8.1.1-1.5 2-2.4.8-3.9-7 2.3-.7 9.4 5.4 8.1"/><path fill="#010202" d="M366.8 378c2 0 3-.9 4 .8.6 2.1-1.2 3.1-.4 4.2 2.6.3 2.7-2 3.6-3.4-3.8-1.7-8-13-12-6.7 4-.8 5.6.9 4.8 5M135.8 364c-.2 0-.5 0-.6.4L134 369c0 .3 0 .7.2.9h.2c.1 0 .3-.1.4-.4l1.2-4.7c0-.3 0-.7-.2-.8M199.2 215h.2c.1 0 .3-.1.4-.4l1.2-4.7c0-.3 0-.7-.2-.8-.2-.2-.5 0-.6.3L199 214c0 .3 0 .7.2.9M125.8 391c-.2 0-.5 0-.6.4L124 396c0 .3 0 .7.2.8l.2.1c.2 0 .3-.1.4-.4l1.2-4.7c0-.3 0-.7-.2-.9M293.6 249.6h-1.3c-.5-1 0-1.5.7-2 .9 0 1.3 1.3.6 2m-1.3-3.5c-4 1-2.4 6.8 1.6 5.8 3.3-1 2.6-6.8-1.6-5.8M133.8 371c-.2 0-.5 0-.6.4L132 376c0 .3 0 .7.2.9h.2c.1 0 .3-.1.4-.4l1.2-4.7c0-.3 0-.7-.2-.9M131.8 377c-.2 0-.5 0-.6.4L130 382c0 .3 0 .7.2.9h.2c.1 0 .3-.1.4-.4l1.2-4.7c0-.3 0-.7-.2-.8M31.3 373.6c0 1.2-1.8 2-.7 3.2 2 .2 2.8-2.3 4.7-1.1-.6 1.6-2.5 1.8-2.2 4.3a29 29 0 007.9-10c-2.4-.6-4 2.7-6.8 2.8.6-2.6 2.5-4 3.2-6.4-.5-.1-.7-.5-1.4-.4-2.6 3.2-7 4.5-9 8.3 1.4 1.1 2.5-2.3 4.3-.7M351.1 150l-4.7 1.2c-.3.1-.5.4-.4.6l.6.2h.3l4.7-1.2c.3-.1.5-.4.4-.6-.2-.2-.6-.3-.9-.2"/><path fill="#010202" d="M295.4 247.8l4.7 1.2h.3c.2 0 .4 0 .6-.2 0-.2 0-.5-.4-.6L296 247c-.3 0-.7 0-.9.2 0 .2 0 .5.4.6M297.2 229.6c.4-.2 1-.4 1.8-.3.6 1.6-2.1 1.9-1.8.3m1.4 3.4c3.8-.3 3-7.5-1.8-5.7-3.6 1.4-1.2 6 1.8 5.7M364.6 277.2l-4.7-1.2c-.3 0-.7 0-.9.2 0 .2 0 .5.4.6l4.7 1.2h.3c.2 0 .4 0 .6-.2 0-.2 0-.5-.4-.6M254.8 338.4c-.1-.3-.4-.5-.6-.4-.2.2-.3.6-.2.9l1.2 4.7c.1.3.2.4.4.4h.2c.2-.2.3-.6.2-.9l-1.2-4.7zM342.1 150l-4.7 1.2c-.3.1-.5.4-.4.6l.6.2h.3l4.7-1.2c.3-.1.5-.4.4-.6-.2-.2-.6-.3-.9-.2M260.8 346.4c-.1-.3-.4-.5-.6-.4-.2.2-.3.6-.2.9l1.2 4.7c.1.3.2.4.4.4h.2c.2-.2.3-.6.2-.9l-1.2-4.7zM315.6 163h.3l4.7-1.2c.3-.1.5-.4.4-.6-.2-.2-.6-.3-.9-.2l-4.7 1.2c-.3.1-.5.4-.4.6l.6.2M37.1 382.1c-.8 1-3.2.4-3.1 2.3 1.9 1.5 4.4-.3 5.3-1.3-.2-3.9-1-8.2 1.8-9.7 2.7 0 2.3.6 4.9 1-2-7.8-11.7-.7-8.9 7.7M264.1 183l-4.7 1.2c-.3.1-.5.4-.4.6l.6.2h.3l4.7-1.2c.3-.1.5-.4.4-.6-.2-.2-.6-.3-.9-.2M300.6 168h.3l4.7-1.2c.3-.1.5-.4.4-.6-.2-.2-.6-.3-.9-.2l-4.7 1.2c-.3.1-.5.4-.4.6l.6.2M301 185a3 3 0 00-3.8-2.9c-6.7 1.9 4 10.4 3.8 2.8M293.6 172h.3l4.7-1.2c.3-.1.5-.4.4-.6-.2-.2-.6-.3-.9-.2l-4.7 1.2c-.3.1-.5.4-.4.6l.6.2M284.1 176l-4.7 1.2c-.3.1-.5.4-.3.6l.5.2h.3l4.7-1.2c.3-.1.5-.4.4-.6-.2-.2-.6-.3-.9-.2M242.6 193h.3l4.7-1.2c.3-.1.5-.4.4-.6-.2-.2-.6-.3-.9-.2l-4.7 1.2c-.3.1-.5.4-.4.6l.6.2M4.6 291H5l4.7-1.2c.3-.1.5-.4.4-.6-.2-.2-.6-.3-.9-.2l-4.7 1.2c-.3.1-.5.4-.4.6l.6.2M121.6 243h.3l4.7-1.2c.3-.1.5-.4.4-.6-.2-.2-.6-.3-.9-.2l-4.7 1.2c-.3.1-.5.4-.4.6l.6.2M148 233.2c-.2-.2-.6-.3-.9-.2l-4.7 1.2c-.3.1-.5.4-.4.6l.6.2h.3l4.7-1.2c.3-.1.5-.4.4-.6M90.1 256l-4.7 1.2c-.3.1-.5.4-.4.6l.6.2h.3l4.7-1.2c.3-.1.5-.4.4-.6-.2-.2-.6-.3-.9-.2M169.2 291h.2c.1 0 .3-.1.4-.4l1.2-4.7c0-.3 0-.7-.2-.9-.2 0-.5 0-.6.4l-1.2 4.7c0 .3 0 .7.2.9M104.1 250l-4.7 1.2c-.3.1-.5.4-.3.6l.5.2h.3l4.7-1.2c.3-.1.5-.4.4-.6-.2-.2-.6-.3-.9-.2M125.2 269.3c-.4.5-1.4 1-2 .3v-1.3c.6-.8 1.6-.2 2 .3v.7zm1.8 0c0-2-1.7-4-4.1-3-6 2.3 4 9.6 4.1 3zM170.6 194.2L166 193c-.3 0-.7 0-.9.2 0 .2 0 .5.4.6l4.7 1.2h.3c.2 0 .4 0 .6-.2 0-.2 0-.5-.4-.6M106.4 168c.2 0 .5 0 .5-.2.2-.2 0-.5-.3-.6l-4.7-1.2c-.3 0-.7 0-.9.2 0 .2 0 .5.4.6l4.7 1.2h.3M111.6 171.2l-4.7-1.2c-.3 0-.7 0-.9.2 0 .2 0 .5.4.6l4.7 1.2h.3c.2 0 .5 0 .6-.2 0-.2 0-.5-.4-.6M107.4 185.6c-1.1.3-1.1-1.1-.6-1.6 1-.3 1.1 1.1.6 1.6m-1.6-3.3c-6 2.7 5 10 4.2 2.3a3 3 0 00-4.2-2.3M106.5 232.7v-1c.6-.6 1.3 0 1.7.4-.1.2-.3.4-.3.9-.6 0-1.1 0-1.4-.3m3.5-.3c.1-2-1.3-4.2-4.1-3.1-5.8 2.3 3.6 9.6 4 3M112 252.2c-1.5-.6-1.3-3.6.8-3.3.8 1.2.7 3.2-.8 3.3m-2-3.7c-4 4.5 4.9 8.4 5 2.4 0-2.4-1.7-3.7-5-2.4M112 247.2c-.2-.2-.6-.3-.9-.2l-4.7 1.2c-.3.1-.5.4-.4.6l.6.2h.3l4.7-1.2c.3-.1.5-.4.4-.6M147.2 74.6c.1.3.2.4.4.4h.2c.2-.2.3-.6.2-.9l-1.2-4.7c-.1-.3-.4-.5-.6-.4-.2.2-.3.6-.2.9l1.2 4.7zM112.2 164.1H111c-.5-.9-.2-1.7 1.2-1.6.4.3.4 1.3 0 1.6m-.6 1.9c2 0 3-2.2 3.4-4.3-4.2-5.5-9.1 4.2-3.4 4.3M177.8 141.4c-.1-.3-.4-.5-.6-.4-.2.2-.3.6-.2.9l1.2 4.7c.1.3.2.4.4.4h.2c.2-.2.3-.6.2-.9l-1.2-4.7zM142.2 68.6c.1.3.2.4.4.4h.2c.2-.2.3-.6.2-.9l-1.2-4.7c-.1-.3-.4-.5-.6-.4-.2.2-.3.6-.2.9l1.2 4.7zM18.6 134.2l-4.7-1.2c-.3 0-.7 0-.8.2-.2.2 0 .5.3.6L18 135h.3c.2 0 .4 0 .6-.2 0-.2 0-.5-.4-.6M125.2 25.6c.1.3.2.4.4.4h.2c.2-.2.3-.6.2-.9l-1.2-4.7c-.1-.3-.4-.5-.6-.4-.2.2-.3.6-.2.9l1.2 4.7zM131.2 40.6c.1.3.2.4.4.4h.2c.2-.2.3-.6.2-.9l-1.2-4.7c-.1-.3-.4-.5-.6-.4-.2.2-.3.6-.2.9l1.2 4.7zM122.2 18.6c.1.3.2.4.4.4h.2c.2-.2.3-.6.2-.9l-1.2-4.7c-.1-.3-.4-.5-.6-.3-.2 0-.3.5-.2.8l1.2 4.7zM28 41c.4 2.6 3.6 2.4 3.5 5.5-3 .2-5.7-1.6-7.5-.7.2 2.4 2.7 4 4.3 5.5 1.6 1.5 3.4 3.8 5.4 3.7-.6-3.4-5.3-4.4-5.4-7 2.7-.5 7.5 1.8 9.7 1.8-2.9-3.4-5.4-7.2-10-8.8M37.4 29.4c0 1.3 2.4 2.3 1 4-1.1-.2-2-1.9-3.2-.8-.1 1.8 2.4 2.9 1.1 4.7-1.2-.5-3-3.4-4.3-1.5 3.3 2.5 6.2 5.3 10 7.2 1-2.4-3.2-4.6-2.5-6.8 2.4.5 4.3 3.3 6.5 2.9-.8-3.6-5.3-6.5-7.2-10.1-.6 0-1 0-1.4.4M198.6 207.2L194 206c-.3 0-.7 0-.9.2 0 .2 0 .5.4.6l4.7 1.2h.3c.2 0 .4 0 .6-.2 0-.2 0-.5-.4-.6M199 211.2c-.2-.2-.6-.3-.9-.2l-4.7 1.2c-.3.1-.5.4-.4.6l.6.2h.3l4.7-1.2c.3-.1.5-.4.4-.6M42.4 141.8L47 143h.3c.2 0 .5 0 .6-.2 0-.2 0-.5-.4-.6L43 141c-.3 0-.7 0-.9.2 0 .2 0 .5.4.6M135.2 54.6c.1.3.2.4.4.4h.2c.2-.2.3-.6.2-.9l-1.2-4.7c-.1-.3-.4-.5-.6-.4-.2.2-.3.6-.2.9l1.2 4.7zM133.2 46.6c.1.3.2.4.4.4h.2c.2-.2.3-.6.2-.9l-1.2-4.7c-.1-.3-.4-.5-.6-.4-.2.2-.3.6-.2.9l1.2 4.7zM41.6 278h.3l4.7-1.2c.3-.1.5-.4.3-.6 0-.2-.5-.3-.8-.2l-4.7 1.2c-.3.1-.5.4-.4.6l.6.2M34.6 280h.3l4.7-1.2c.3-.1.5-.4.4-.6-.2-.2-.6-.3-.9-.2l-4.7 1.2c-.3.1-.5.4-.4.6l.6.2M28.6 280h.3l4.7-1.2c.3-.1.5-.4.4-.6-.2-.2-.6-.3-.9-.2l-4.7 1.2c-.3.1-.5.4-.4.6l.6.2M21.6 285h.3l4.7-1.2c.3-.1.5-.4.4-.6-.2-.2-.6-.3-.9-.2l-4.7 1.2c-.3.1-.5.4-.4.6l.6.2M13.6 288h.3l4.7-1.2c.3-.1.5-.4.4-.6-.2-.2-.6-.3-.9-.2l-4.7 1.2c-.3.1-.5.4-.4.6l.6.2M33.6 140.2L29 139c-.3 0-.7 0-.9.2 0 .2 0 .5.4.6l4.7 1.2h.3c.2 0 .5 0 .6-.2 0-.2 0-.5-.4-.6M11.6 128.2L7 127c-.3 0-.7 0-.9.2 0 .2 0 .5.4.6L11 129h.3c.2 0 .4 0 .6-.2 0-.2 0-.5-.4-.6M36.4 141.8L41 143h.3c.2 0 .5 0 .6-.2 0-.2 0-.5-.4-.6l-4.7-1.2c-.3 0-.7 0-.9.2 0 .2 0 .5.4.6M26.6 134.2L22 133c-.3 0-.7 0-.9.2 0 .2 0 .5.4.6l4.7 1.2h.3c.2 0 .4 0 .6-.2 0-.2 0-.5-.4-.6M160.8 119c-.4 0-.5-.5-1-.6.1-.5.6-.7 1.3-.6 0 .6-.2.8-.3 1.2m-3.7-.3c.3 2.2 3.6 3.2 5.5 1.2 2.3-6.4-6.4-6.2-5.5-1.2M172.2 140.6c.1.3.2.4.4.4h.2c.2-.2.3-.6.2-.9l-1.2-4.7c-.1-.3-.4-.5-.6-.4-.2.2-.3.6-.2.9l1.2 4.7zM141.4 133c3 .2 4.7-1.2 4.6-3.3-.2-5.6-9.5-1.5-4.6 3.3M122 147.6c0 1-.3 1.6-1.1 1.6-.2-.3-.3-.6-.6-.6 0-1.1 1-1.7 1.7-1m2-.7c-1.5-3.4-6.2-1.8-6 1.3.3 3.8 6.3 4.1 6-1.3M160.8 105.4c-.1-.3-.4-.5-.6-.4-.2.2-.3.6-.2.9l1.2 4.7c.1.3.2.4.4.4h.2c.2-.2.3-.6.2-.9l-1.2-4.7z"/><path fill="#010202" d="M163.8 113.4c-.1-.3-.4-.5-.6-.4-.2.2-.3.6-.2.9l1.2 4.7c.1.3.2.4.4.4h.2c.2-.2.3-.6.2-.9l-1.2-4.7zM87.4 161.8L92 163h.3c.2 0 .4 0 .6-.2 0-.2 0-.5-.4-.6L88 161c-.3 0-.7 0-.9.2 0 .2 0 .5.4.6M120.6 177.2L116 176c-.3 0-.7 0-.9.2 0 .2 0 .5.4.6l4.7 1.2h.3c.2 0 .4 0 .6-.2 0-.2 0-.5-.4-.6M170.2 134.6c.1.3.2.4.4.4h.2c.2-.2.3-.6.2-.9l-1.2-4.7c-.1-.3-.4-.5-.6-.4-.2.2-.3.6-.2.9l1.2 4.7zM142.6 184.2L138 183c-.3 0-.7 0-.9.2 0 .2 0 .5.4.6l4.7 1.2h.3c.2 0 .4 0 .6-.2 0-.2 0-.5-.4-.6M175.4 114c2.3.2 4.5-2.1 3.2-5-4.8-3.8-8 4.5-3.2 5M159.6 297.1c-.4-.4-.4-1.5 0-1.9 1 0 1.5.5 1.4 1.6-.3.3-.7.4-1.4.3m-2.5.4c1.5 2.3 5.7 2 5.9-1 .2-3.7-7-6-5.9 1M180.4 305.3c-1.3 0-1.5-1.5-.6-2.2.2.2.5.4 1 .4 0 .8-.1 1.4-.4 1.8m-1.3-4c-6.7 3 4.8 9.9 3.8 2.2-.1-1.7-1.2-3.2-3.8-2.1M164.8 298c-.2 0-.5 0-.6.4L163 303c0 .3 0 .7.2.8l.2.1c.1 0 .3-.1.4-.4l1.2-4.7c0-.3 0-.7-.2-.8M151.8 85.4c-.1-.3-.4-.5-.6-.4-.2.2-.3.6-.2.9l1.2 4.7c.1.3.2.4.4.4h.2c.2-.2.3-.6.2-.9l-1.2-4.7zM154.8 91.4c-.1-.3-.4-.5-.6-.4-.2.2-.3.6-.2.9l1.2 4.7c.1.3.2.4.4.4h.2c.2-.2.3-.6.2-.9l-1.2-4.7zM142 285.2c-3.3 1.2-2.2 5.8 1 5.8 4.3 0 4-7.4-1-5.8M161.8 305c-.2 0-.5 0-.6.4L160 310c0 .3 0 .7.2.9h.2c.2 0 .3-.1.4-.4l1.2-4.7c0-.3 0-.7-.2-.9M290.2 167c0 .7-.2 1-.3 1.3-.7 0-1-.4-1.1-1.2a1 1 0 011.4 0m-1.7 2.8c2.9.5 4.7-1.1 4.5-3.4-.6-5.3-9.4-1-4.5 3.4M283 147.7c-.1-2.2-1.9-3.3-4-2.4-6.2 2.4 4.3 10 4 2.4M245.4 295c.1 1.3-.8 1.6-1.5.8 0-.8 1-1.4 1.5-.8m.4 4c3.4-.5 3-7.4-1.9-5.7-3.7 1.3-1.3 6.1 1.9 5.7M370.1 141l-4.7 1.2c-.3.1-.5.4-.4.6l.6.2h.3l4.7-1.2c.3-.1.5-.4.4-.6-.2-.2-.6-.3-.9-.2M371 53c.3-1.1-.4-4.4 1.3-5.2 1.6-.6 2 .3 3.4-.5.2-4.1 2.8-6.2 7.3-4.8 0-1.8-.7-3-2.6-3.5-2-.4-16.7 12.5-9.4 14M244.2 312.6c.1.3.2.4.4.4h.2c.2-.2.3-.6.2-.9l-1.2-4.7c-.1-.3-.4-.5-.6-.4-.2.2-.3.6-.2.9l1.2 4.7zM364.1 141l-4.7 1.2c-.3.1-.5.4-.4.6l.6.2h.3l4.7-1.2c.3-.1.5-.4.4-.6-.2-.2-.6-.3-.9-.2M241.2 306.6c.1.3.2.4.4.4h.2c.2-.2.3-.6.2-.9l-1.2-4.7c-.1-.3-.4-.5-.6-.4-.2.2-.3.6-.2.9l1.2 4.7zM365.8 33c.7 3.4-1.1 7.2-2.1 10 1.9.1 3.6-2.2 5-3.7 1.5-1.6 3.6-3.4 4.3-5.5-2.2-.8-2.9 2.9-5 3.3-1.3-2.6 1.2-6 .3-8.1a22.2 22.2 0 00-9.3 9.6c2.9.2 4.2-4.3 6.8-5.5M228.6 304c3.7.3 5.1-6.6.3-6-4.2.6-3.4 5.8-.3 6M250.2 326.6c.1.3.2.4.4.4h.2c.2-.2.3-.6.2-.9l-1.2-4.7c-.1-.3-.4-.5-.6-.4-.2.2-.3.6-.2.9l1.2 4.7zM378.1 136l-4.7 1.2c-.3.1-.5.4-.4.6l.6.2h.3l4.7-1.2c.3-.1.5-.4.4-.6-.2-.2-.6-.3-.9-.2M207.2 226.6c.1.3.2.4.4.4h.2c.2-.2.3-.6.2-.9l-1.2-4.7c-.1-.3-.4-.5-.6-.4-.2.2-.3.6-.2.9l1.2 4.7zM271.2 44h.2c.1 0 .3-.1.4-.4l1.2-4.7c0-.3 0-.7-.2-.9-.2 0-.5 0-.6.4l-1.2 4.7c0 .3 0 .7.2.9M279.2 26h.2c.2 0 .3-.1.4-.4L281 21c0-.3 0-.7-.2-.8-.2-.2-.5 0-.6.3L279 25c0 .3 0 .7.2.8"/><path fill="#010202" d="M279.2 29h.2c.2 0 .3-.1.4-.4l1.2-4.7c0-.3 0-.7-.2-.9-.2 0-.5 0-.6.4L279 28c0 .3 0 .7.2.8M220.2 257.6c.1.3.2.4.4.4h.2c.2-.2.3-.6.2-.9l-1.2-4.7c-.1-.3-.4-.5-.6-.4-.2.2-.3.6-.2.9l1.2 4.7zM337.4 266.8l4.7 1.2h.3c.2 0 .4 0 .6-.2 0-.2 0-.5-.4-.6L338 266c-.3 0-.7 0-.9.2 0 .2 0 .5.4.6M346.4 269.8l4.7 1.2h.3c.2 0 .5 0 .6-.2 0-.2 0-.5-.4-.6L347 269c-.3 0-.7 0-.9.2 0 .2 0 .5.4.6M332.4 264.8l4.7 1.2h.3c.2 0 .4 0 .6-.2 0-.2 0-.5-.4-.6L333 264c-.3 0-.7 0-.8.2-.2.2 0 .5.3.6M259.4 233.8l4.7 1.2h.3c.2 0 .4 0 .6-.2 0-.2 0-.5-.4-.6L260 233c-.3 0-.7 0-.9.2 0 .2 0 .5.4.6M263.2 66h.2c.1 0 .3-.1.4-.4L265 61c0-.3 0-.7-.2-.9-.2 0-.5 0-.6.4l-1.2 4.7c0 .3 0 .7.2.8M260.2 75h.2c.1 0 .3-.1.4-.4L262 70c0-.3 0-.7-.2-.9-.2 0-.5 0-.6.4l-1.2 4.7c0 .3 0 .7.2.9M226.8 113c1.3-.2 1.3 1.2.7 1.7-1.3.2-1.3-1.2-.7-1.7m.3 4c3.4-.2 4.7-7.6-1-5.7-3.7 1.2-1.9 5.9 1 5.7M227.2 151h.2c.2 0 .3-.1.4-.4l1.2-4.7c0-.3 0-.7-.2-.8-.2-.2-.5 0-.6.3L227 150c0 .3 0 .7.2.8M263.8 290.7c4.4-5.7-4.9-8-4.8-2.7 0 2 2 3.8 4.8 2.7M223.4 218c.2 0 .4 0 .6-.2 0-.2 0-.5-.4-.6l-4.7-1.2c-.3 0-.7 0-.9.2 0 .2 0 .5.4.6l4.7 1.2h.3M228.2 271.6c.1.3.2.4.4.4h.2c.2-.2.3-.6.2-.9l-1.2-4.7c-.1-.3-.4-.5-.6-.3-.2 0-.3.5-.2.8l1.2 4.7zM261.3 129c1 0 1.5 1.2.9 2-1.3 0-1.9-1.3-1-2m2.2 4c5.6-5.2-5.5-9.2-4.3-2.3.3 1.7 1.8 2.4 4.3 2.3M243.2 111h.2c.1 0 .3-.1.4-.4l1.2-4.7c0-.3 0-.7-.2-.8-.2-.2-.5 0-.6.3L243 110c0 .3 0 .7.2.9M245.7 118.2c-.7.6-2 .2-1.9-1 .3-.1.5-.3.6-.6 1 0 1.4.4 1.3 1.6m-3.7-.4c0 2 2.3 2.7 4.2 3.2 5.8-4.4-4.4-9.2-4.2-3.2M240.2 117h.2c.1 0 .3-.1.4-.4l1.2-4.7c0-.3 0-.7-.2-.9-.2 0-.5 0-.6.4L240 116c0 .3 0 .7.2.8M238.2 125h.2c.1 0 .3-.1.4-.4l1.2-4.7c0-.3 0-.7-.2-.9-.2 0-.5 0-.6.4L238 124c0 .3 0 .7.2.9M269.2 49h.2c.1 0 .3-.1.4-.4L271 44c0-.3 0-.7-.2-.8-.2-.2-.5 0-.6.3L269 48c0 .3 0 .7.2.9M270.2 370.6c.1.3.2.4.4.4h.2c.2-.2.3-.6.2-.9l-1.2-4.7c-.1-.3-.4-.5-.6-.3-.2 0-.3.5-.2.8l1.2 4.7z"/><g transform="translate(-7)"><mask id="b" fill="#fff"><use xlink:href="#a"/></mask><path fill="#010202" d="M409 179.7l.1-2.5c1.6.7 3 1.7 4 2.6l.1.2c-1.3-.2-2.7-.3-4.2-.3zm-.6-94.4c0 1.5-.7 3 0 4.3-.6 4.3-.1 17.5-.2 26.6v.7a219.6 219.6 0 00-43.4-62l.3-.3c3.2 3.5 7.3 5.6 12.2 5.2 1.7-.1 3.4-.9 5-1.3 5-2.4 8.9-6.5 11-11a15.4 15.4 0 00-4-17.1l18-18 1-.1V19c.1 16.2-.7 34.4-.3 51.7 0 .3.5 1.4.5 1.2 0 .5-.6 1-.6 1.4-.4 3.7.5 8.3.5 11.9zm-.4 64.2c-3.6-5.1-2.7-5.7-7.7-10.5-5.8-5.5-14.1-10.1-14.8-21.6-.6-11.5 1.1-8-4.3-13-5.4-5.2-8.2-.2-7.6-11 .7-11 1-15.9-3-24-2.2-4.8-3.7-9.5-6-13.3 18 18.2 32.8 39.5 43.6 63.1l-.2 30.3zm-9.2 31l.6-1.9c1.1-3.3 5.2-3.1 8.7-1.8v3c-3 0-6.2.2-9.3.7zm-1.7-2.6l-1 3.5-1.4.6h-.7c-1-.3-1.8-.4-2.7-.4-.8 0-2 .1-3 1a4 4 0 00-1.2 3l.2 1.8a33 33 0 00-9 20v1l-5-1.4c-.3-21-4.6-41.1-12.1-59.5l2.6-1.1a.5.5 0 00-.3-1l-2.7 1.1A164 164 0 00325.7 94l36.8-36.8 1 1.9c1.6 3.1 3 7.1 5 11.3 2.4 5.3 3 8.8 3.1 14a144.5 144.5 0 01-.5 11.7c0 2 .2 3.4.7 4.7a5 5 0 002 2.3c2.4 1.2 3.4.8 5.7 3l3 2.6.3.4v2.1l.3 6.3a23.3 23.3 0 008 16.6l-2.4 1c-.2 0-.3.3-.2.6a.5.5 0 00.6.2l2.7-1.1c2.4 2.2 4.8 4.1 6.8 6 2.8 2.6 3.4 3.6 4.3 5.1 1 1.6 2 3.7 5 7.5l.1.2.1 20.6c-1.4-.4-2.9-.7-4.3-.7-1.3 0-2.7.2-4 1a6 6 0 00-2.7 3.4zm-7.5 7.5c0-1 .6-1.4 1.8-1.4l-1.8 1.4zm-3 47c2.3 1.8 5.3 3 7.7 4.4 1.7.6 3.4 1 5.1 1.4a51 51 0 00-2.2 15.5l.1 1.2c0 .9-.2 2-.7 2.8-.5 1-1.2 1.7-2.6 2.3-3.4 1.6-5.5 4.8-7.9 7.7-2.3 3-4.7 5.8-7 6.8-3 1.4-4.5 2-6 3-.7.5-1.4 1.3-1.8 2.2a10.7 10.7 0 00-.8 3.6c0 .9.4 2.2 1.4 2.9 1 .6 1.8.6 2.3.6h1.6v2.7a2.5 2.5 0 002.4 1.6c1 0 1.4-.4 1.6-.5l1-1.2 1.2-1.7a43 43 0 013.2-4l-.4 1c-1.3 3.2-2.8 5-4.3 6a9 9 0 01-5 1.3 24 24 0 01-4.7-.6l-1.8-.2c-1.4 0-3 .6-3.8 1.7-1.1 1.5-1.2 2.8-1.7 4-.4 1.2-1 2.3-2.4 3.5-1.7 1.5-2.5 2-3 2.3l-1 .8a3 3 0 00-.9 2.1c0 .9.2 1 .2 2.4v1.8c0 .3.1.7.5 1.3.3.7 1.5 1.3 2.2 1.3 1-.1 1.2-.3 1.4-.4.7-.3 1-.5 2.4-.5a9.8 9.8 0 013.1.5c-.7 1.2-2.4 3.3-3.8 5.9-.6 1-1 1.3-1.4 1.5-.3.2-.8.3-1.6.3-1.7 0-4.4-.6-7.7-.7l-2.1.1a8 8 0 00-5 2c-2 1.9-2 4-2 5.7-.2 1.6-.4 3-1 4-1 1.7-2.6 3.7-4 6L325.6 325a164.1 164.1 0 0035-52.3l.2.2 3.6 1.5h.2c.2 0 .4 0 .5-.2 0-.3 0-.6-.3-.7l-3.6-1.5h-.3a163.3 163.3 0 0012.3-60.9c.6 0 1.1-.2 1.7-.3l3-.5c-.5 8.4 2 16.3 8.7 22zm8.9 42.8l.4-.4v.2l-.4.2zm6.3-36.5c2 .3 4 .4 6 .4l.3 12.8c-.2.4-.4 0-.7.5.8 11.3.2 22.7.4 34.1v5l-3.2-1.4a.5.5 0 00-.6.3c-.2.2 0 .5.2.6l3.6 1.5v8.2a218.6 218.6 0 01-43.7 62.8l-25-25 4.3-6.4c2.8-4.5-.8-9.9 6.2-10.5 7-.7 11.7 3 14.7-2.5s7.5-8.4 1-9.8c-6.5-1.3-6.5 3-6.5-1.3 0-4.4-1.2-1.2 4-5.7 5-4.6 2-9.6 7.5-8.5 5.5 1.1 12.9 1.8 16.7-8.2 4-10 12.5-6.2 11.3-11.2-1.2-5-1.7-3-7.4 1.2-3.2 2.5-5.3 4.1-7 6l-1-.5a.5.5 0 00-.6.3c-.1.3 0 .5.3.6l.6.3-3.2 4c-3.2 4.6-1 1.7-2-1-1.2-2.5-5.6.9-5-2.6.4-2.1.7-2.8 2.3-3.7l3.7 1.5h.2a.5.5 0 00.1-.9l-2.9-1.2 3.8-1.7c6-2.8 10-12.3 14.8-14.4 4.8-2.1 5-7 4.5-9.2-.4-2 .5-8.8 2.3-14.4zm6.7 145.1c-.8.1-.6 1-1 1.5.8 8 .2 12.5.5 20.6h-1.6L390 389.3l8.3-5.8.7-.5.2-1c.3-1.5.8-3.3 2.3-6.5 2.8-6.2 3.3-7.2 3.9-8.2l2.4-4V379c0 1.5 0 3.4.8 4.8zm.5 23.5l-.5.6-1.2-1.2c.5.2.8.7 1.7.6zm-7-1.8l-1.6.2c-5.6.2-16.8-.1-19.6.5-6.5-.7-12.8.5-18.9 0h-2.1c10.2-4.8 20-10.3 29.2-16.4l16.1 16.1c-1.3 0-2.3 0-3.1-.4zm-48 .8c-.7-.1-1.4-.2-2 0-.2 0-1.4.3-.6.6-3.2-1.3-8.8.2-13.4-.7-10.2.7-19.3.2-29 .4h-3.4c20.5-10 39.2-23.1 55.5-38.7l-1 1.2c-2.4 6.6-1.6 12.1 3.2 18.5 3.3 4.5 8 7.3 13.6 6.8h.1c-7.4 4.3-15 8.3-23 11.9zm17.1-45.3c2.8-.9 9.3-.6 11.9 1 4.2 2.5 6.9 5.8 9.3 10.3 0 3.2.7 6.9-.8 10.1-.4.8-1.4 1.6-2.1 2.6-.6.9-1 2-1.6 2.6a29.6 29.6 0 01-5.8 4.4c-3 1.4-10.2 1.8-13.4-.6l-2-2c-4.3-4.2-6.2-7.2-6.6-12a17 17 0 0111.1-16.4zm36.8-49.3c.2 5.8 0 28.7-.1 46.6-6.5 11.2-3.2 4.5-8.6 16.2a26.9 26.9 0 00-2.5 7c-2 1.5-4 3-6.1 4.3.9-1.1 1.6-2.4 2.2-3.6 2.3-5 1.2-12-3.2-16.5a19.4 19.4 0 00-18.2-6c-1.4.4-2.7 1-4 1.8 16.5-17 30.1-36.8 40.4-58.4v8.6zm-144.1 86l.3-1.1c.8-2.5 1.2-2.6 2.3-3.7 1.3-1.1 3.2-2.9 5.1-6.7l.8-1.3 1.6 1c1 .7 2.5 1.5 4.4 1.5 1 0 2.2-.3 3.4-.8l3.4-1.7-2.7 1.9a85.7 85.7 0 01-10.4 5.8c-2 .9-3.5 1.8-4.5 2.7a7.8 7.8 0 00-1.8 2.3h-1.9zm39.5 9h-12l-1.4-3.4a.5.5 0 00-.6-.3c-.3.1-.4.4-.3.6l1.3 3.2-39.2.2c3.5-3.8 6.6-7.3 11.6-7 8.3.5 1.7-1.3 10.3-5.2 3.2-1.5 6.9-3.5 10-5.6l1.6 3.6a.5.5 0 00.6.3c.2-.1.4-.4.3-.7l-1.5-3.6h-.1c5-3.3 8.6-6.5 7-7.3-2.4-1.2-4-.1-9 2.3l-1-2.2a.5.5 0 00-.5-.3c-.3.1-.4.4-.3.7l1 2.2-.5.2c-6 2.8-7.7-6.3-11.3.7-3.6 7-6 5.2-7.5 10.8-1.6 5.7-13.3 8.4-18.7 5.8a16 16 0 01-6-5 35 35 0 01-4.1-8.2l.1.2a57.9 57.9 0 01-3-16.5 163 163 0 0041.4-11l1.1 2.7a.5.5 0 101-.3l-1.2-2.7a163.6 163.6 0 0031.6-17.5c1.5-.1 2.8 0 4 .7 5 2.7 7.1-4.5 10.5 0 3.4 4.4 16.3 10.5 16.7 4.2.3-3.2 1.7-6.2 3.4-9l24.8 25a218.7 218.7 0 01-60.1 42.3zm-55.5.4h-8.6c-.1-1.9-.4-3.7-.8-5.5a14.4 14.4 0 0011.1 3.5l-1.7 2zm-5.6 4.9c-1.5 1-2.6 1.5-3.3 1.8a23.5 23.5 0 00.3-6 42 42 0 014-.2c.6 0 1.4.5 2.2.5.6 0 1.3-.6 1.9-.6a28.4 28.4 0 01-5 4.5zm-6.4-52c5.8 2.4 8.5-.1 17.1-2.1 5.7-1.3 11-3.6 15.3-4.6l1.5 3.4a.5.5 0 00.6.3c.2-.1.4-.4.3-.7l-1.4-3.2a12 12 0 015-.2c3.5.9 5.6 2.7 9 2-3.6 1.8-7.4 3.5-11.1 5a.5.5 0 00-1 .4c-13 5.4-26.7 9-41.1 10.9-.2-7.7 1.6-13 5.8-11.2zm-11.6 20.3a27.7 27.7 0 00-14.4-3.4h.1v-.6l.9-2.9c5.6 0 11.3-.4 16.8-1a65.3 65.3 0 001.7 11.8 27.2 27.2 0 00-5-4zM210 256.6l.1-17c.3-1.5 2.8-.6 4.2-.8 3.3 3.6 8.4 7.8 12.8 11.9 1.8 1.6 5.7 3.6 3.2 6.6-5.9-3.2-9.6-8.6-15.2-12.2 0 2.2 3 3.8 4.8 5 1.6 3.9 12.3 7 9.3 13-5.2-2.5-9.4-8.4-14.9-11.6.4 1.9 3 3.7 5.4 5.6 2.1 1.8 4 4 5.8 5.5 1.7 1.5 5.7 3.3 2.6 6.1-4-2-6-6.3-10.6-8 .5 1.9 2.7 3.5 5 5.4 2.7 2.1 7.3 4.2 4.8 8.2-4-.8-6-6-10.6-7.2 2 3.6 7.4 6 10.4 9.6-.1 1.3.3 3.1-.6 3.7-4.6-1.5-6.5-5.6-10.8-7.4.9 2.3 3.2 3.8 5 5.3 1.9 1.5 4 2.7 5.6 4.5.2 1.9-.3 3-1.3 3.7-4-2-6.3-5.7-10.4-7.7.5 2.3 3.1 3.5 5 5l5.6 4.8c.1 1.7-.2 3-1 3.7-3.8-1.8-6-5-9.9-6.9.4 1.6 2.9 3.5 4.6 4.8 1.8 1.5 4 2.6 5.3 4.3 0 1.3 0 2.7-.6 3.4-3.8-.8-5.2-4.1-8.5-5.6-.2 2 2.3 2.9 3.8 4 1.5 1.3 3 2.5 4.2 4 0 1.4-.2 2.7-.8 3.4-3.3-.7-4.2-4-7.4-4.7 1 4 10.3 5.4 6 10.3-2.3-1-3.6-3-5.8-4.2-.2 3.7 9.1 4.9 5 9.8-2.7-.5-3.3-3.2-6-3.7 1.2 2.7 4.3 3.6 6 5.8-.2 1.2 0 3-.7 3.7-2.7-.5-3.4-3-5.8-3.7.2 2.9 7.5 4.6 4.7 8.8-1.7-.2-1.9-1.9-3.7-1.9 0 2 5.7 3.5 3 6.6-2 .4-2.8-2.5-4.8-2.9 0 2.6 7.5 4.6 3.4 8-1.7-.2-1.8-2-3.7-2.1.4 2.7 6 3.6 3.4 6.9-1.5 0-1.7-1.3-2.9-1.6-1 2.5 4 2.6 2.7 5.5-1.3 1-1.8-.6-3-.5-.1 2.2 2.6 1.6 2.2 4-.9 1-1.1.3-2.7.2 1 2.1 3.3 4.6-.2 5.6 0 1.1 1 1.3 1 2.4.1 1.4-1 1.6-1.3 2.7 0 .7.6.8.5 1.5-1.6 1.3.1 4.4-1.8 5l-.4-21.4v-87.2zm0-24.4a33 33 0 008-1l1 2.8a.5.5 0 00.7.2c.3 0 .4-.4.3-.6l-1.1-2.7 1.8-.6c2-.7 3.9-1.9 5.6-3.3l2.7 2.7c-4.6 4-11.6 6.6-19 6.8v-4.3zm0-9.3c3.4 0 6.8-1 9.4-2.8l5.4 5.4c-1.6 1.6-3.5 3-5.7 3.7-1.2.4-3 .2-4.8.5-1.4.3-3 1-4.2 1.1v-8zm0-3.5c1 0 2-.3 2.8-.6l.3.7a.5.5 0 00.7.3c.2-.1.3-.4.2-.7l-.2-.6 2.6-1.4 1.5 1.4a19.1 19.1 0 01-7.9 2.7v-1.8zm0-7.4l.1.3a.5.5 0 101-.4l-.2-.3 4.6 4.6-2.3 1-.7-1.7a.5.5 0 00-.9.4l.7 1.6-2.3.3V212zm0-13.8l3.6.2v.1l-1.4 3.5a.5.5 0 10.9.3l1.3-3.1 2.6 2.2-6 6 .6-1.5a.5.5 0 00-1-.3l-.6 1.5v-9zm0-3.3c3.4 0 6.3.7 8.6 3l.9 1-1.5 1.5c-2-2.3-5-3.6-8-3.7v-1.8zm0-10.4c3 0 6 .5 8.8 1.6l-.6 1.4a.5.5 0 00.4.7c.2 0 .4-.1.5-.3l.5-1.4.6.3c1.8.9 4.1 2.9 6.2 5.2l-5.6 5.6a14.4 14.4 0 00-4.4-3.3l1.2-2.8a.5.5 0 10-1-.4l-1 2.8c-1.7-.7-3.6-1.1-5.6-1.2v-8.2zm0-5.4c9.3.4 14.9 4.6 20.5 8.8l-2.9 2.9a23 23 0 00-7.3-5.9l.3-.6c0-.3 0-.5-.3-.6a.5.5 0 00-.6.2l-.3.6c-2.9-1.1-6-1.5-9.4-1.5v-4zm0-19.3c.3-28.8 0-59.4.1-88.4 0-.8.2-1.3.3-2.1.4-5.9-.7-13.4.2-18 2.7 4.8 1.3 11.7 3.2 16.6-1.6 2.3 1.3 4.6.3 6.1.2.7 1 .9 1.3 1.4.2 1.2-.7 1.4-1 2 1.5 1.3 1 1.9 0 3.3 1 .4 2-.3 2.6 1 0 2-1.8 2-2.4 3.2.3 1.3 2-.4 2.7.5 0 1.7-2 1.5-2.2 3 .5 1.3 1.6-1.2 2.7 0 1.2 2.5-2.1 2.7-2.7 4.5 1 1 2-.9 3 0 .4 1.5-2.2 2-2.4 3.7 1.3 1 2-1.7 3.4-.5.1 2-2.1 1.7-2.4 3.4.9.6 1.5-1 3-.5.2 2.1-2.2 1.7-2.4 3.4.6 1.4 1.6-1.3 2.9-.2 1 2-1.6 2.5-2.1 4 .7.6 2.4-1.2 3.1.2.3 2.5-2.3 2.2-2.9 4 .8 1.2 2.4-1.3 3.5.2.2 2.8-4 2.7-3.7 4.3.3 1.6 3-1.9 4.2 0-.3 3.2-4 3.1-5 5.6 2 .8 3.3-2.7 5-2.2 2.5 2.3-2.4 3.2-3 5 1.4 1.6 3-2.3 4.6-.5-.3 2.1-2.7 2.1-3.5 3.8 1.4.9 1.9-1.1 3.2-1.1 2.2 2-1.1 3.3-1.8 4.8.6 1.4 1.6-1.5 2.9-.3.8 2.8-3.4 2.8-3.7 5.3 1.5.7 2.6-2.5 4-1.8 2.2 2.7-3.2 4-4.3 6 2.2 1.1 3.5-3.1 5.6-1.3.8 2.3-5.6 3.6-5.3 5.3.3 1.8 5.4-4.3 6.3-1.3-1.2 3-5 3.6-6.6 6.4 2.5 1.2 3.5-3.1 6.4-3.2 1.7 4-4.8 4.1-5.3 7.7 2.6.4 3.4-3 6-3.5.6.5.7 1.4.6 2.4-2.3 1.6-5 2.8-6.4 5.3 3 .6 4.3-4 7-3.7-.7 4-5.9 4.8-6.2 8.2 2.5 0 3.5-3.8 6.4-4.2 1.5 4.3-5.3 4.7-6.1 8.5 3 .2 3.4-4.6 7.2-4.5.1 2-.8 3.2-2 4.3l1.3-3.2c0-.3 0-.6-.3-.7a.5.5 0 00-.6.3l-1.5 3.6c-.1.2 0 .5.2.6-1.7 1.3-3.6 2.4-4.3 4.4 1-.1 1.7-.6 2.5-1.2l-1.4 3.4c-.1.2 0 .5.2.6-.7.8-1.3 1.6-1.6 2.7h.3c-.2 0-.4.1-.4.3l-1.4 3.2c-3.6-1.3-8.4-1.5-11.3-3.6v-16.5zm98.2 147.7c6-5.9 11.4-12.3 16.5-19.7 3.5-5 6.6-10.3 9.8-15.9a104.3 104.3 0 0013.3-38.2c.2-1.5 0-3.4.2-5.3.3-1.5 1-3 1.1-4.5.3-2.5-.7-5.8 0-7.4 1-2.2 4-1.6 6.9-2.1 3.6-.7 8.1-1.7 12.7-2.4l3.7-.6c-.4 44-18.4 84-47.3 113l-16.9-16.9zm16.9 18.3l11.8 11.8a23.7 23.7 0 00-4 10.9h-.9c-1.3 0-4-.7-6.2-2a17.8 17.8 0 01-5.3-4c-1-1.3-2.6-2.4-4.3-2.4-1.9 0-3 1-3.9 1.4-.9.6-1.5.8-2 .8a2 2 0 01-1-.3c-.7-.4-1.4-.7-2-.8 6.2-4.7 12.2-9.9 17.8-15.4zm-100.4 16.4c5.9-.8 10.7-1.2 15.9-2.4 2.3-.5 4.8-1 6.9-1.6 1.5-.4 2.8-1.4 4.2-1.8 1-.3 2.2 0 3.2-.3 1.8-.4 3.7-1.1 5.6-2l.3 1a.5.5 0 001-.4l-.4-.9 6.3-3c4-2 8.5-4 11.9-6.1 9.4-5.7 17.6-12.2 25.2-19.2l1.6 1.6a87.2 87.2 0 01-7 6.5c-3.4 2.8-7.7 5.4-11.6 8.2a103.5 103.5 0 01-25.7 13.8c-4.9 1.7-9.8 4-14.6 5-1.5.3-2.5 0-3.7.3-2.8.6-5.2 1.7-9 2.4-2.8.5-5.8 1.3-8.8 1.6-3 .2-6.3 1-9-.3 1-2.8 5.1-2 7.7-2.4zm19.6-5.3c-1.6.1-1.1-3-.8-4 1 .6 2.3 3.4.8 4zm3-.8c-1.5.2-1.7-1.6-.9-2.1.7.3 1.5 1.3.8 2.1zm-7-14.6c4.7-.9 9-2.7 13.2-4.2l1.4 3.3a.5.5 0 00.6.3c.2-.1.4-.4.3-.7l-1.4-3.2c1.7-.5 3.3-1 5-1.3 2.3 3.6 1.8 10.1 3.2 14.6-.5.6-1 1.4-2 1.6l-.4-.8a.5.5 0 00-.6-.3c-.3.1-.4.4-.3.6l.1.3c-1-1-1-3-2.3-3.6-1.5 1.3.5 3.1.5 4.6-2.2 2.7-3.7-1-4.8-2.4-1.8.8.4 2.2 0 4-.5 1-1.7 1.2-3.2 1.3-3-3-3.4-8.4-6.6-11.2-2.9 3-.2 9.3-1.3 13.3-1.6.6-3.2 1.1-5 1.3-2-.6-1.4-3.6-3-4.5-1.5.5-.4 2.5 0 3.5-.3 1.5-1.9 1.8-3.4 2-1.4-.5-.8-3-1.9-3.9-1.5 0-.5 2.5-.8 3.7-1.6 1.7-6.4 1.6-9.3 1 .2-4.9.8-11.7 2.7-15.8 6.7-1.2 13-2.2 19.3-3.5zm-9.5-27c5 1 7.9 4.1 12 6a8.4 8.4 0 002.3-3.5l.8 2a.5.5 0 101-.4l-1.3-3c.9-2.5 1.6-5.2 3.5-6.7 4.3.5 7.3 2.4 11.1 3.4 1.8-3.2 1-9 3.2-11.9 4.2-.3 8-1.4 11.4-.8 2.9.5 6 3.8 8.2 5.6 1.6 1.2 3.4 2.2 4.8 3.3l2.2 2.1.5 1c-3.2 3.3-7.4 6.4-12.5 10.3a98.7 98.7 0 01-10.3 6.6c-1.3.7-3 2-3.8 1.9-2.2-.2-2.8-3.6-4.7-4-1.4 1.8.7 3.6.2 5.6-.5 2.3-5.4 3-8.7 4.2-5.4 2-13.7 4.7-20 6.1-3.2-1-6 1.8-9.2.8-.8-3 .4-6.2 1-9.5.8-3.3.7-7.1 1.7-10.1 1.2-3.8 5-6.3 6.6-9zm-1.6-8c3.4 4.4-.4 9.7-3.4 11.1.2-3.4.1-10.7 3.4-11.1zm2.3-23.4h.2c.2-.1.3-.4.2-.6l-.4-1.2 2.2-11.1c.1-.4.5-.5.5-.8 4 2.3 9.9 6.6 14.6 10.3 1.2.9 4.2 2.8 4.3 3.7 0 1.4-3.4 3.4-4.8 4.3a49.1 49.1 0 01-5.8 3.2c-2.1 1-4 2-6 2.7l-.1-.3a.5.5 0 00-1 .4l.2.3a20 20 0 01-5.9 1.4c.1-4.1.7-8.3 1.4-12.4l.4.1zm1.7-20.9c0 1.6 0 3-1 3.5-4.2-2.3-7.2-5.7-10.4-8.8 4.1-5.2 8.1 3.1 11.4 5.3zm.5-2.4c-3.5-1-5.3-3.7-7.2-6.3.6-.3 1-1 1.6-1.1 1.9 2.3 6.3 3.4 5.6 7.4zm-1.6-20.4l2.7 1.2h.2c.2 0 .4-.1.4-.3.1-.2 0-.5-.2-.6l-2.7-1.2a21 21 0 001.7-8.1v-.4h4.3c0 1.9-.3 3.8-.8 5.7-1 3.8-5.2 10.6-8 13.2l-2.7-2.6c2-1.9 3.8-4.2 5-6.9zm-10.3-1.3c1.5-1.8 2.6-5 2.9-7.5v-.6h7.5c-.2 3.2-1 6.3-2 9.7l-4.7 5.1-5.3-5.3 1.6-1.4zm-2.4-4l1 .5h.2l.4-.3c.1-.2 0-.5-.3-.6l-.8-.4c.7-1 1-2.1 1.2-3.3h1.6c0 2.5-.8 5-2.5 6.7-.4.5-1 .9-1.5 1.3l-1.5-1.5c.8-.7 1.6-1.5 2.2-2.3zm-6.2-2.5a.5.5 0 00.6-.3c.1-.2 0-.5-.3-.6l-1.5-.7h7.5c0 .3 0 .6.2 1l-.9 1.9-1.7-.7a.5.5 0 00-.6.2c-.1.3 0 .6.3.7l1.5.6c-.6.7-1.2 1.4-2 2l-4.7-4.8 1.6.7zm6.1-6.6h-.2l-3.6 1.5a.5.5 0 00.2 1h.2l3.6-1.5.2-.1-.2 3.2H212l.3-.2c.2 0 .4-.3.3-.6a.5.5 0 00-.7-.3l-.3.2 6-6 .5.5c.4.7.5 1.8 1.2 2.3zm3.5 4H221a6 6 0 00-1.3-3.3v-.4h.4c-.2-1.6-.8-3-1.6-4.1l1.4-1.4a19 19 0 012.8 9.3zm8.5-9.2v.2l-1.3.6a.5.5 0 10.3.9l1.3-.5c.6 2.7.8 5.4.7 8h-7.5c0-1.7-.2-3.4-.6-5l2.5-1c.3-.1.4-.4.3-.7a.5.5 0 00-.6-.2l-2.5 1c-.6-1.7-1.4-3.3-2.5-4.7l5.7-5.7c2 2.4 3.7 5 4.2 7zm-.1-11.2a37.6 37.6 0 017.3 20.5h-4.3c0-3-.6-6-1.4-8.6l1.2-.5c.2-.1.3-.4.2-.6a.5.5 0 00-.6-.3l-1 .4c-1-3-2.5-5.6-4.3-8l2.9-3zm4.2-5.6l-3.9 3.9-.7-1.2c.4-1.7 2.8-3.4 4.6-2.7zm-2.5-3.4c-.4 2.6-2.4 3.6-4 5-3.2-.6 2.5-5.5 4-5zm-1.3-4.5c1.1 3.3-3.7 5-5 7.7-1 0-1.2-.8-2-1 1.7-3 4.3-4.9 7-6.7zm-2.4-35.5c2.7.8 5.2 1.8 7.7 2.8l-.7 1.8a.5.5 0 10.9.4l.7-1.8c4.7 2.1 9 4.6 12.6 7.9a112 112 0 01-17.8 13.5l-1.4-5.5 1.4-3.3c0-.2 0-.5-.3-.6a.5.5 0 00-.6.3l-.8 1.9c-1-5.5-1.5-11.4-2.8-16.6.6-.1.6-.8 1.1-.8zm-2.1-7.7c1.6-1.5 6.3.2 7.4 1.8-.2 2-.6 3.9-1.9 4.8a11 11 0 01-4.5-1.3c-.5-1.4-1.8-3.5-1-5.3zm-2.7-17.5c1 2.2 5.4 5 5.9 8 .3 1.9-.9 6.4-2.4 6.5-2.8.3-2.3-5.4-3-9.2-.3-2-1.9-3.8-.5-5.3zm-4-21.5c.2-.3.5-.4.8-.6a94 94 0 0133.5 9.6c.4 3.2-2.5 6.5-.3 9 3.4-1 4-4.9 6.9-6.4a83.3 83.3 0 0120.4 13c1 1 5.6 3.8 5.6 5.3 0 2.2-7.1 6-8.8 7.2-5.2 4.1-9.2 6-17.2 6.6-2.3-2.8.4-9.7-1.9-13-4.7.3-8.5 3-12.4 3.2-3.3-2.4-1.7-9.8-5-12.2-4.5.9-6.7 4-10.4 5.6-3-1-4.4-5.4-6.6-8.5-.7-1-2-1.8-2.4-3-.8-2-.9-5.2-1.4-7.9-.4-2.6-1.1-5.6-.8-8zM239 81.5c-1.2-.3-1-3.4-.3-4 .9-.1.8.7 1.4.8.2 1.6-.5 2.3-1 3.2zm4.3-2.2c-.4 1.2-.8 2.2-1.9 2.7-.7-1.3.8-2.3 1.3-3.2.3.1.5.2.6.5zm-23.4-9c5.4-.1 12 2 18 2.7 1.4.1 2.6-.2 3.8 0 1.5.2 3.5 1 5 1.6 3.4 1 6.9 1.6 9 3.7a102 102 0 0128.1 13.2c.8.6 1.2 1.5 1.9 1.9.8.5 1.8.5 2.7 1 2.9 2 5.7 5 8.7 7.5 3.5 2.9 6.9 6 10.1 9.3l-1.5 1.5a153 153 0 00-26.1-20.4c-3-1.8-5.7-4.2-9.3-4.7-1-1.6-3.2-1.8-4.2-3.2-1 0-1.8 0-2.4-.3l-1.2-.7c.2-.3 0-.6-.2-.7a.5.5 0 00-.6.2c-7-3.8-16.4-5.2-24-8.3-3.6-.3-9.3-.6-12.7-1.9-2.8.4-6.4.2-8.3-1 .2-1.4 2.3-1.3 3.2-1.4zM275.5 85l-11.3-5.8 1.2-3c.2-.3 0-.5-.2-.6a.5.5 0 00-.7.2l-1.2 3c-7-3.1-14.3-5.6-23-7.6-5-1-10.8-1.6-16-2.1-2-.2-6.4.6-8-.5-1-.8-1.4-4.7-1.8-7.2-.8-5-1.6-10-2.5-14.6 43.8.6 83.4 18.6 112.3 47.3l-16 16c-9.3-9.9-20-18-32.8-25zm70 116c-3.4-1.3-2.3-5.8-2.6-8.3-.4-3.2-.5-6.6-1-9.5-1.8-8.8-4.2-17-7.2-24.7l.2-.1a.5.5 0 00-.3-1l-.2.2c-5.3-13.3-12.2-25.1-19.9-35.5-2.6-3-5.3-5.8-8.2-8.6l1.5-1.5a136 136 0 0129.5 46.2c.8 2 1.2 4.1 1.9 6.1 1.2 3.5 1.6 6.1 2.6 10.4 2 8.3 5 17 3.7 26.2zm-106.7-3l2.3-.9a.5.5 0 00-.4-.9l-1.4.6c1-1.9 3.3-3.6 5-5.2 2.7-2.6 4.6-6.7 8.4-5-.5 2.8-3.1 4.3-4.8 6.1l-.7.8-2.9 1.2c-.2.1-.4.4-.3.7a.5.5 0 00.7.2l1.2-.5c-1.8 2.3-3.6 4.7-6.2 6.4-1-1.2-1.2-2.4-.9-3.4zm7.8-12.2a40.4 40.4 0 01-9 10c-.8-.8-1-2.2-1.9-3 3.1-2.5 5.2-9.8 11-7zm-6.1-1c-1 3-3.7 4.2-5.6 6.3-.7-.3-1-1-1.6-1.6 2.3-1.4 3.8-7 7.2-4.8zm-4.4-1.1l.4.5c-.5 2-2.3 2.6-3.7 3.7-.2 0-.5-.1-.7-.3l4-4zm62.2 8.7c-3.2-.3-9-.4-11.4-2.6 3.2-5 10.5-.6 11.4 2.6zm-13.2-9.8c.4-1.8 2.2-1.6 4.2-2.4 2.6-.9 6-3.5 8-2.3-1.4 5.2-3.8 9.5-10.6 9.2-1-1.3-2-3-1.6-4.5zm-.8-2.9l-.2-.3.3-.2c.2 0 .4-.4.3-.6a.5.5 0 00-.7-.3l-.4.2a18 18 0 01-1.7-4.9c1.5-1.7 4-2.3 6.4-3.2 2 1.4 4.9 2 7 3.3l-.4.2a.5.5 0 10.3.9l1.1-.5.4.4c-3 2.8-8.3 3.3-12.4 5zm-1.6 3c1.7 1.1 2.5 4.6 2.1 7-1.8.8-3.8-.2-5.6-.4-.8-1.1-1.3-2.6-1.6-4.3 1-1.4 3.2-1.8 5-2.4zM263 165.7c2-2 3.9 1.9 5.3 4 2.3 3.6 4.6 7.9 6.1 12.3l-1.3.6c-.3.1-.4.4-.3.6a.5.5 0 00.7.3l1.2-.5c.6 1.7 1 3.5 1.3 5.3-8.5-.7-18.2-2.4-26-4.5 3.6-5.5 8.5-13.4 13-18zm7.4 3.2c-2.2-3.3-7.3-7.6-1.6-10.9 2.7 2.3 10.5 10.1 1.6 10.9zm19.6-9.3c.5 6.8-3.7 10.2-9.3 12a8.5 8.5 0 01-2.4-4.8c3.7-2.6 7.2-5.4 11.7-7.2zm-12.5 5.6c-1.4-1.3-2.9-2.6-3.1-5 2-3.5 9.2-4.7 13.2-2-2.4 3.4-6.5 4.9-10 7zm-.4-22.8l1.7-1.7c.1.2.2.5 0 .9-.2.6-1 .7-1.7.8zm.7 3.4c.4.1.4.5.8.6 1.3 6-.7 10.4-5 12.2-7.1-2.3 2.3-9.2 4.2-12.8zm-30.8 35.6c-3.4-.6-6.7 1.5-9.6.6l38.5-38.4c.2.4.5.7.3 1.4-.7.8-2.4.4-2.9 1.4.2.6 1 1.2.5 1.8-.5 1-2.7.2-3.2 1 0 1 1.2.9.8 2.2-.7.6-2.7-.1-3.1.8 0 1.1 1.3.8 1 2.1-1 .4-2.5.3-3.2 1 0 1 .7 1 .6 2-1 .6-3.5-.3-3.7 1-.3 1.6 1.6 1 1.5 2.4-.6 1-3.5 0-4.2 1-.2 1.2 1 .8 1 1.6-.4.4-2.6-.2-3.1.8 0 1.4 1.9.8 2.4 1.6-.3 2.3-4.4-.3-5.6 1.3.2 1.7 3.6.2 3.4 2.2-1.5 1.7-5.6-1.2-6.6.8 0 2 3.6.7 4.5 1.8-.8 2.4-5.8-.3-7.1 1 .1 2.1 3.7.7 4.7 2-.4 2.6-4.8 0-6.9 1.3-.1 2.2 3.4.8 4.3 2-1.3 3-6.2-.8-8.2 1.1.3 1.7 3.2.9 4 2.2zm30.3 0a.5.5 0 00-.6-.3l-.5.2c-2-2.3-2.7-8.4-4.5-10 .5-2 2.3-2.7 4.3-3.2 2.8 2.7 4 7.1 5.8 11l-1.5.5a.5.5 0 00.4 1l1-.5c-1 1.3-3 2.3-4.2 2a2 2 0 01-.4 0c.2-.2.3-.5.2-.7zm11.5-50.7l3-3c1.3.7 4.6 3.8 5.9 5.4 3.1 4 7.2 10.2 10.3 15.4 1.2 1.8 3 4.3 3 5.5-.2 2.3-3.5 2.7-3.8 4.6 1.3 1.2 3.8-.4 5.6-.3a61.2 61.2 0 013.7 7.3 110 110 0 017 30.6c-3.5 1.2-7.8-1-12-1.6-5.6-.8-8.4-1.1-12.2-4-1.4-1-4-2.8-4.2-4-.4-2 2-4.4 2.9-6 1.3-2.3 2-4 3.2-5.9-.8-.6-1.7-1-2.7-1.5l.2-.1c.3-.1.4-.4.3-.7a.5.5 0 00-.6-.2l-1.2.4c-2.7-1-5.8-1.8-7.7-3.7.5-4.4 2.4-7.5 3.4-11.4-3.4-1.8-9.7-.7-12.2-3.5-.1-3.9-.7-7.4-.5-11.6 2.8-4 5.5-8 8.6-11.7zm-1-1.9c.1 1.2-.5 1.8-1.5 1.9-.1-.2-.2-.5-.5-.5 0-1.1 1-2.1 2-1.4zm35.6 21.3c-2 1-3.2 2-5.5 2 1.1-2.2 4.8-6.5 7.1-7.9 1-.6 3 2 3 2.7-.1 1.9-3 2.4-4.6 3.2zm3.7 4c-3 .7-8.2 2.1-11 2 1.8-2 8.7-4.8 11.6-6.3 1-.6 2.7 1.4 2.6 2.4-.1 1.9-1.5 1.4-3.2 1.8zm10.4 19.3c0 1.5-2 1.6-3.2 1-.2-1.6 2.4-2 3.2-1zm-3.2-1.6c.2-1 1-1.4 2.4-1.3.2 1.3-1.6 1.8-2.4 1.3zm-3.7-12.4c-.7.3-1.5.6-1.9 1.3 1.5 1.8 4-1.4 5.3.2 1.3 2.8-2.2 2.6-2.9 4.3.9 1.3 2.2-.6 4 0 .6.9 1.2 1.8 1 3.4-3.4 2.5-8.4 3.4-11.3 6.4 1.8 3.4 9.2-.3 13.5 1.3.7 1.4 1 3.3 1.3 5-.6 1.9-3.5 1.3-4.5 2.7.5 2.2 2.4 0 4 .3 1 .5 1.7 2.6 1 4-.6 1-3.4 0-3.7 1.3.3 1.7 2.4.2 3.7.5 2 1.6 1.9 6.4 1.4 9.6-4.8-.4-11.7-.9-15.7-3-1.3-11.7-4-22.1-7.3-31.8l2-.8c.2 0 .3-.4.2-.6a.5.5 0 00-.7-.3l-1.9.8-2-5.4c1.3-1.8 5.9-1.7 9.5-2.2 3-.4 6.5-2.4 7.1 1.4l-.1.3-1.7.7c-.3 0-.4.3-.3.6zM318.2 131c-.6 1.8-3 1.8-4.7 2.4.7-1.5 3.5-4 4.7-2.4zm-7.9 2.2c.1-1.5 4-4.5 4.7-5.4.4 0 .9.8 1.3.9-.5 1-5 4.8-6 4.5zm-2.7-15.2c4.5 1.3 1.4 4.3-.3 6.3 1.5 1.3 2.3-1.6 4-1.6 1.4 0 3 1.8 3 3 0 2.9-7.4 7.2-7.2 10 2 1.8 13.8-5 14-.8.2 2.4-3 1-2.9 3.8 1.7.8 2.2-1.5 4-1.4.2.4.4.7.8.8.1 2.3-2.6 1.9-3 3.7 1.4 1.6 3-2.2 4.9-.2-2.7 4.7-7.7 7.2-11.7 10.6-4.6-7-10.9-17.8-16.7-23.6-.9-.9-2.4-1.7-3-2.6l11.8-11.7c.4.6.7 1.2.7 1.8 0 1.8-2 1.6-2.4 3.7 1.5 1.3 2.6-1.4 4-1.8zm-21-19.1c0 1.6-1.7 3-2.9 2.6.3-1.5 1.5-4 3-2.6zm-6.4 5.2c-.4-1.5 2.3-5.6 2.7-6.6.4 0 1 .5 1.4.4 0 1.2-3 6.1-4 6.2zm-9-13.7c1-1 3.8-.1 4 1.6.4 2-1.5 1.8-1.3 4.2 2-.6 3-5.6 5.3-2.1 0 1.8-2 2.8-1.6 4.2 2 .8 1.7-2.8 4-2.6-.2 4.6-4.1 6.8-3.2 11.7 2.6.3 8-7.1 10.4-7.2 1 0 3 1.4 3.2 2.7.2 1.8-2.1 2.2-1.6 4 1.5.2 1.6-2 3.2-2.2 1.6-.2 2.7 1 2.9 2.1.2 1.9-2.3 2.7-1.6 4.3 1.3.3 2-2 3.2-2.7 1.2 1.1 4.6 3.1 6.5 5.2L293.3 125c.4-1.6 2.7-3.5 3.4-4.5 1.4-2 2.3-3.5 3.2-5.3-3.7-1-6.5 6-10 6-1.5 0-3.4-2.4-4.8-3.7-1.7-1.4-3.6-2.5-4.8-3.4-6-4.2-11.6-7.9-17.5-11.7 1.2-2.3 6-9.2 8.5-12zm-4.7-4c1.6.4 2.7 1.2 4 1.9-.7 3.6-3.8 5.9-5.9 8.4-2 2.6-3.7 6-6.6 7.7 2-5.7 5-13 8.5-18zm-7.3 3.4a.5.5 0 00-.7.2l-.4 1.1c.4-2 .7-4 .7-6.3.6-.8 1.4-1 2.3-.9l-1 2.5a.5.5 0 00.8.4l1.1-2.6a7 7 0 012.4 1.7c-2 6.4-5 11.8-7.7 17.5-.6-3 0-6 .7-9h.1c.2 0 .4-.2.5-.4l1.4-3.6c.2-.2 0-.5-.2-.6zm21.4 40.6c.3.1.4.5.8.6-.2.7-.6 1.2-1.4 1.3-.6-.7 0-1.6.6-1.9zm-4 4c.1-.2.3-.4.2-.8.6 0 .7.2 1.1.3-.1.2-.3.4-.3.8-.5 0-.7-.2-1-.3zm-4.3 6.1c-.4.5-.7 1-1.6 1-2.1-2.4 1.8-5.1 1.6-1zm-21 20.7c-1.6-.7-2.1-6.1-.7-7.4 1 1.7 2.7 6.1.8 7.4zm3.3-3c-1.6-.7-2-5.6-.3-6.5 1.4 1.1 2.4 5.8.3 6.6zm-4.5-17.2c2.8 1 4.7 2.7 6.6 4.6-.8 1.2-2 3.2-3.7 3.4-1.9.2-5.5-2.7-5.6-3.7-.2-1.6 1.7-2.9 2.7-4.3zm-15.2-10c-2-.2-3.6-.8-4.7-1.9a13 13 0 019.8-12 39.6 39.6 0 01-5 13.9zm14.9 6c-2.9.2-4.3-1.1-5.6-2.6.8-5.6 6.1-8 11.4-8.2-.8 3.7-4 7.4-5.8 10.9zm4.8 3.8a8.2 8.2 0 01-3.5-2.4c1.5-4.3 4.2-7.5 6.1-11.4h.8c1.1 4.7 1 12.2-3.4 13.8zm3.4 13.8c-1.8-.9-3.1-6.8.5-6.4.3 2.4 1.6 5.2-.5 6.4zm3.5-3.5c-1.5.2-2-3.9-.8-5.3 1.7.5 2 5.2.8 5.3zm2.9-2.9c-1.8-.4-2.6-5.3.2-5 .6 1.4 2 4.5-.2 5zm4-7.7c.3 1.2.6 3.8-.6 4.3-2-.2-2.4-5 .6-4.3zm-4.8.5c-1.5 1.2-2.7 2.4-4.3 3.2-5.6-3.5 3.8-6.8 8.3-6.9-.4 2-2.7 2.7-4 3.7zm-21.3-10.6a.5.5 0 00.7-.3l1.5-3.6.5 2c-.8 1.9-1.4 4-2.9 5.1h-.6a.5.5 0 00-1-.3 6.5 6.5 0 01-3.2-2c1.2-5 2.9-9.3 4.5-13.6 1.9 1.8 2 5.2 2.6 8.3l-.2-.1a.5.5 0 00-.6.2l-1.5 3.6c-.1.3 0 .6.2.7zm-4.1 9.9a.5.5 0 00-.6.2l-.1.2c-1-.6-2-1.2-2.8-2 .1-4.1 2.4-4.5 5.1-3.6l-.7 1.8a.5.5 0 00.4.7c.2 0 .4-.1.5-.3l.7-1.8c3 1.2 6 3.6 7.2 4.5-.6 1.6-1.3 3-2.6 4-2.4-1-4.8-1.7-7-2.8l.2-.3c0-.2 0-.5-.3-.6zm7.9 16.7c2.6-3.5 4.5 6.8 1.8 8-1.3-2-1.1-5.5-1.8-8zm-1.6 1.8c.2 2.7 3 8.5-.3 9.6-.8-2-3.2-9.8.3-9.6zm-4.3 3c.6 2.5 4 8.6.6 10.3-1.3-2-3.8-9-.6-10.4zm-3.1 13.7c-.6-3-2.6-8.3-.8-11.1.8-.1.7.7 1.3.8-.7 3.6 3.2 8.6-.5 10.3zm-2.2 2.4c-2-1.9-2.1-8.4-1.8-10.9.4 0 .4.3.8.3.3 3.3 2.8 7.9 1 10.6zm49.1-46.7c.8 0 1.1.5 1.3 1 .1 1.4-1.6 1-2 1.7v1l-1.7 1.7-.5.2c-.2.1-.2.3-.2.5l-2 2-.2.2-.1.1-42 42a5 5 0 01-1.1-.8c15-17.7 33.1-32.3 48.5-49.6zm23 172c11.4-10.9 18.9-25 26.6-37.7.1-1.4.5-2.5.9-3.6l1.2.6h.2c.2 0 .3-.1.4-.3.1-.3 0-.5-.2-.7l-1.3-.5c1-2 2.2-3.6 3-5.6.5-6.5 4.2-12 5.4-18.3 1.1-6.5 1.2-13.6 2.6-20.7 0-.3.5-.2.5-.6.3 0 .3.2.3.3.2 0 .3.3.5.3.4 5-.4 11.7-1.3 16.7-1.1 6.3-2.2 14-4.8 20.1-.4 1.2-1.4 2-1.8 3-1.3 3-2 5.8-3.5 8.7-1.3 2.8-2.3 5.7-3.7 8.5-1.2 2.6-3.2 4.9-4.8 7.4-1.5 2.5-3 5-4.7 7.2-3.5 4.5-6.8 9.5-10.9 13.5-1.6 1.5-3 3.2-4.6 4.8l-1.6-1.6 1.7-1.6zm12.3-17.6c-1.5.6-3-.8-3-2.6 1.5.3 3.6 1 3 2.6zm-5-6c1.4-.4 5.5 2.4 6.6 2.7 0 .4-.5 1.1-.5 1.5-1.1-.1-6-3-6.1-4.1zM294 293.5c3 1.8 5.3 4.3 8.6 5.8.5-3.6-4.8-6.5-6.1-10a253 253 0 0018.8-27.1c2 .5 4 2.3 7 4.5 1.8 1.5 5.3 3.8 5.5 5 .1 1.4-.9 2.8-2.1 3-1.7.2-2.8-2.3-4.3-1.4.2 2.1 2.7 1.8 3.5 3.2 0 1.3-.8 1.6-1.4 2.1-1.7-.1-2.6-2.4-4.5-1.5 0 2.3 3 1.5 3 4-4.6-.5-6.4-3.7-11.5-3.5.5 5.3 10.9 9.5 4.3 13.8-1.6-.3-2.2-1.6-3.7-1.9-.8 1.8 1.8 2.2 2 3.7-.2 1.5-1.4 2-2.3 3-1.7-.2-2.3-2.6-4-1.9-.6 1.6 2.1 2 2.4 3.4-.7.7-2.9 4-4.9 6.1L294 293.4zm37.2-27.8c-.2 1.8-1.2 3-2.1 4.2-3-1-5.3-3.6-8-5.8-2.6-2.2-6.8-4.3-7.6-6.7 5.7 1.9 12.5 5 17.7 8.3zm.9-4.5l1.3.5c-.6.8-1.4 1.5-2 2-5.6-2.5-12-4.3-16.6-7.9.2 0 .2-.2.5-.2 1.2 0 3 .3 5 .7l1 .4h.1l.4-.1 3 .7a.5.5 0 000 .9l3.7 1.5a.5.5 0 00.6-.3c.1-.3 0-.5-.3-.7l-3.2-1.3 3 .6c2.6.3 4.8-.3 5.3 1.5v1.3l-1.4-.6a.5.5 0 00-.4 1zm6.6-18.9c-.7.3-2.3-.4-2.4-1.6.6-.2 2.4.3 2.4 1.6zm-1.9-4.5c.8-.4 3.3-.6 3.4.5 0 1.8-3.7 1.3-3.4-.5zm-8.8-18.6c4.5-.8 11-3.5 15.4-1.8 0 2-.1 4.1-1 5.3-.6.7-2.8-.3-3 .8.1 1.7 3.3.5 3.8 1.8-.1 2-.7 3.4-1.6 4.5-1.4.3-2.4-.5-3.2 0-.2 2 2.3 1.3 3.2 2.2.6 1.2 0 2.5-.6 3.4-3 1.6-9.3 0-12.2 1.9 2 3.9 6.8 4.9 9.3 8.2-.1 1.6-.3 3.2-1.6 3.7-1.5 0-2.1-1.4-3.7-.5-.2 2.8 3.8 1.4 3.5 4.2-1.4 1.7-3.6-1.2-4.8.3.2 1.8 2.9 1.2 3.4 2.6-1.6 1.2-4.8.9-7.4.6-3-.4-6.3-1.5-8.2-2.4 2.3-7.5 5.7-16 6.9-25.5.4-.2.5-1 .8-1.3-.1-3.1.2-5.8 1-8zm-42.4 60.2c.8-.8 2.2.6 1.3 1.4-.8 0-1.2-.5-1.3-1.4zm-2.7-2.9c.6-.5 1.7-.3 1.4.8-.8 0-1.5 0-1.4-.8zM234.7 226c.2-1 .6-2 1.3-2.6.4-.1.5.2.8.2 1.4 2.9 5.7 4.2 5.6 7.7-3.1-.2-4.5-4.4-7.7-5.3zm15.9 7c-2.9.6-9 3.5-10.9 1 .8-1.7 3.5-.8 5.6-1 1.9-.3 4.8-2.3 5.3 0zm-5.2-8h.1l3.6 1.6h.2c.2 0 .3 0 .4-.2 1 1 2 2.2 2 3.6-2.9-.1-4.5-2.8-6.3-5zm-3 11.9c.3-.9 1.2-1.2 2.6-1 2.3-.3 7.4-2.5 8.5.2-2.9.8-8.4 3.3-11.1.8zm13.8 1.9c-1.2 1.5-9.3 4.9-10.7 1 2.7-.9 7.9-2.8 10.7-1zm27.3-2.4l-1 3-.5-.2a.5.5 0 10-.4.9l.4.1c-1 2.5-2.3 4.8-3.8 6.8-2.3 0-3.4-1.2-4.5-2.4l2.8-6.7 1.5.7h.2c.2 0 .3-.1.4-.3.1-.2 0-.5-.2-.6l-1.5-.6c.6-1.2 1.3-2.2 2-3.1 2 .4 3.6 1 4.6 2.4zm.5-2.7c-8.2.6-3.2-10.7 2.7-7.1-.4 2.9-.6 6-2.7 7.1zm-3.4 15.1c.1-2.4 1.2-4 2.6-5.3 2.5.7 4.6 1.9 6.4 3.2.5 2.9 2.2 5.9 2.1 8.5-4.2-1.7-7.7-4-11.1-6.4zm-3.8 5c1.6-5.5 5-2.5 8.8-.2 2.3 1.4 5 2.1 5.3 3.7-4.8 1.2-12.4.9-14-3.4zm0 9.1c-.8-1.2-5.7-6-1.5-6.6 3-.5 5 8 5 10.6-1.8.2-2.2-2.3-3.5-4zm2.7 7.2c0 2-3.3 2-3.2 0 .7-.8 2.7-1.3 3.2 0zm-2.4-3c-.2 1.4-3.7 1-4 0 0-2.3 4.7-1.7 4 0zm-2.6-3.1c-1.4.6-4.6 2-5-.3.4-1.5 5.3-2.7 5 .3zm-2.7-3.8c-.3 1.5-4.8 2-5 .3.6-1.3 4.3-2 5-.3zm-3.2-8c1.2-1.5 2-5.2 4-5.5 1.5-.2 2.6 1.7 4 2.7-.9 2.8-2.5 5-4.5 6.6-1.8-.6-2.4-2.4-3.5-3.7zm1 5.1c-1.4 1-5.7 2.3-6.3-.2 1.2-1.4 6.1-2.8 6.4.2zm-3.4-3.7c-1 1.5-6 2.6-6.6 0 1.2-1 5.6-2 6.6 0zm-2-4c-1.5 1.5-5.8 2.2-7.5 1.6.3-3 5.3-2.1 7.4-1.6zm-14.7-5.5c1.4-2 8-3 9.8-1.1-1.4 1.8-8 3-9.8 1zm12.5 2.4c-1.2 1.7-8.1 3.4-9 .5 2.6-.3 7.1-2.8 9-.5zm38.5-5c-2 .8-4.8 1.8-7.7 2.2l-3.6-1.5a.5.5 0 00-.7.2c0 .3 0 .6.3.7l2 .8c-2.8 0-5.4-.6-6.8-2.5l.1-.3 1 .5h.3c.2 0 .4-.1.4-.3.1-.3 0-.5-.2-.6l-1.2-.5a10 10 0 011.7-3.6c5.2 1.2 10 2.8 14.4 4.8zM288.8 227c1-2.8 6-2.8 9-2.7 1.4-.5 4.1-1.9 5.6-.8-1.3.9-5.6 5.5-7.7 5.9-2.3.4-5.5-.7-7-2.4zm6.4 4c2 2.3 5.1 4.8 5.3 8.2a69 69 0 01-13.6-4.5c-.2-2.6.6-4 1.6-5.3 2.7 0 3.9 1.6 6.7 1.6zm-35.3 0l3.7 1.5h.1c.2 0 .4-.1.5-.3 0-.2 0-.5-.3-.6l-3.6-1.5c5.5-.8 12-1.2 16-3.1.5-.2 1.3.4 1.9.8-.8 3.2-1.6 5.8-2.9 8.5l-.6-.2a.5.5 0 00-.6.2c-.1.3 0 .6.3.7l.5.2a71 71 0 01-2.3 4.4c-1 1.8-3.3 7.5-5.3 7.7-2.3.1-6.1-7.2-7.2-8.5-2.6-3.4-5-5.4-6.6-9 1.7-.8 3.9-1.3 6.3-1.7l-.1.2c-.1.3 0 .6.2.7zm-25.8-4.8c1.2 2 4.3 3.4 4.3 5.8-2.7-.5-6.7-3.4-4.3-5.8zm.4 9l-.6.5c-1.5-.8-4-2.3-4-4 0-.3 0-.7.2-1l4.4 4.5zm-3.8-5.2c1.6-.9 5 1.8 4.2 4.3l-4.2-4.3zm40.8 42.6c-1-.2-.9.9-2 .5-.5-.8 0-2.6-.9-3.1-1 0-1.3 1.5-2.1.8-1-.7.2-2.1-.5-3.2-1.7-.5-1.1 1.4-2.4 1.3-.9-.7-.2-3-1.3-3.4-1.1-.3-.8.7-1.9.5-.7-.9.4-3.6-1-3.7-1.6-.4-1.3 2.1-2.4 1.3-.8-.9.3-3.5-.8-4-1.6-.4-.7 1.7-1.9 1.6-.9-1.2.9-3.5-.8-4-1.2.1-.4 2.3-1.3 2.7-2.5-.2.4-4.5-1.3-5.6-1.7.3-.5 3.5-2.4 3.5-1.4-1.6.5-4.9-.3-6.7-2.7-.5-.8 3.7-2.1 4.5-2.5-1 .2-5.8-1.3-7.4-2 .4-.6 4-1.9 5-2.4-.7.1-5.5-1.3-6.8-2 0-1 2.9-1.6 4.2-3.6-.2.5-6.2-1.6-8.2-1 .6-1.2 2.2-1.3 3.7-1.5-1.5.2-5.2-1.9-6.4l.7-3 38.5 38.4c-.6.2-.9.6-1.8.4-.7-.6-.3-2.3-1-2.9zm-12.4-.3c.9-1 1.7-2.1 3.4-2.3 3.1 2.5 7.1 4.2 9.3 7.7-5.6 1.6-11.8-.5-12.7-5.4zm-6.4 5c.5-2 3-3.5 4.8-3.4 4 1.8 4.6 9.4 1.8 13.3-3-2.5-4.3-6.6-6.6-9.8zm-6.4 3c.3-1.5 2.7-2.1 4.8-2.6 2.3 3.8 6 7.5 7 11.9-2.6 0-6-1.3-8.3-2.4 0-2.3-3.8-4.9-3.5-6.9zm-6.9 6.4c-.3-1-1.1-2-1-2.7 0-.5.4-.9.8-1.2l.7 1.6a.5.5 0 00.9-.4l-.7-1.7c1.2-.5 3-.8 3.9-1.2 5.5 3.3 2.3 11.5-1.1 15.1-1.6-2.3-2.4-6.4-3.5-9.5zm-3.1-2.1c1.2 3.7 4 7.4 4 11.6-3.1.2-5.7-2.5-8.3-3.7-.3-2.3-.9-4.2-1.3-6.4.9-1.4 3.5-2.2 5.6-1.5zM249 270c.2-1.3 5-4.3 6.4-4.5.8-.2 4 .5 4.2 2.6 0 1.3-6.3 6.3-8 6.1-1.6-.2-2.8-3.3-2.6-4.2zm-11.2 6.8l-.6-1.4c2.7-1.6 7-3.3 9.1-4.4 1.5-.7 2.6 2.5 3.5 3.7-2.3 3.2-6.4 4.6-10.4 6l-.1-.3a.5.5 0 00-.7-.2c-.2 0-.3.3-.2.6l.1.3-.6.3c-1.5-1-1.8-3-2.4-4.8l.9-.7.5 1.3a.5.5 0 00.6.2c.3 0 .4-.3.3-.6zm39.5 1.2c-.3.1-.6.3-1.2.2-.5-.4-.5-1.2-.6-2l1.8 1.8zm2 2h-.3l-.2-.5.6.5zm-43-44.4l.5-.7h.8c1.5 1.6 3.7 2.5 4.8 4.6 13.8 13 26.7 26.8 40 40.3 1.8.9 3.3 2 4 4-.5 0-.2.8-.8.8h-.4l-1-1c0-.4 0-.8-.2-1.2h-.9l-2-2-.3-.4-44.5-44.4zm52.8 51.3c-1.5.2-2.4-1-1.4-1.8 1.1 0 1.8.9 1.4 1.8zm-.3-8c-4-5-7.7-10.1-7.4-19 2.8-1.9 9.7.1 12.7-1.6-.3-4.9-2.6-7.9-3.2-12.5 3.2-2.6 9.8-1.7 12.5-4.8-.4-2.5-1.7-3.7-2.7-5.3-.7-1.2-3-3.6-2.9-5 0-1.6 2.5-3 4.5-4.5 3.4-2.5 4.5-4.2 9-5 4.4-.9 9.5-1.5 12.5-1.9 2.8-.4 1 6.5.5 9-1.8 9.6-4.4 18.1-8.2 25.2-3 1.2-6.6-1.9-9.3-.3.8 3.7 5 4 6.4 7a77.5 77.5 0 01-18 26.2c-2.9-1.4-4.3-4.7-6.4-7.4zM268 328.2c-.7 1-1.7 1.8-2.7 1.6-2.3-.3-3.4-11.3-3.7-14.5 2.7 3.7 4.7 8.2 6.4 13zm-2.7-9.8c-.2-.7.6-.5.6-1a39 39 0 017.7 7.4c-3.4 7.4-6.5-3.1-8.3-6.4zm21.3-.5c-1.4-.4-2.7-3-1.1-4 1.4.7 3 3 1 4zM285 310c1.5.1 4.5 4 5.4 4.7-.1.4-.9.9-1 1.3-1-.5-4.7-5-4.4-6zm12.4-.4c-2.3.1-1.5-3-4.2-3-.8 1.5 1.5 2 1.6 3.5 0 1.4-1.2 3-2.4 3.2-3.4.3-7.3-7.4-10.6-7.4-.4 4.6 2 8.7 2.6 13.2-1.6 3-3.6-.2-4.7-1.6-2.2 1.2 1.4 2.8.2 4.6-2.3 1.1-2-2-3.7-2.4-1.6 1.3 1.8 3 0 4.5-5-2.3-7-7.8-10.6-11.4 4-4 9.6-6 14-9.3 4.5-3.3 8.3-7.1 12.4-10.6l11.5 11.5c-.7.6-1.3 1-1.8 1-1.8 0-1.7-2.3-4-2.4-.4 1.1 4.1 6.4-.3 6.6zm71.7-99.6c-1.8 1.2-5.4.1-7.2 1.7-1 .2-1-.6-1.9-.5-3.1 1.8-7.3-.4-10.3 2.1-2-2.4-4.4 1.4-6.1 0-.7.3-.9 1-1.3 1.6-1-.1-1.5-.9-2.2-1.3-1 1.4-2 .8-3.1 0-.3.8.3 2.3-1.1 2.6-2.1.1-1.8-2.2-3.4-2.6-.8 1 1 2-.3 2.9-1.7 0-1.2-2-2.7-2.1-1.2.2.8 1.7-.2 2.6-2.5 1-2.6-2.1-4.3-2.6-1.4.5.9 2-.2 3.1-1.8-.2-1.8-2.2-3.5-2.6-1.5 1 1.7 2 .5 3.4-2.3.3-2.2-2.9-3.4-2.6-1.6.3 1.3 2 .3 3.2-2.1.2-1.6-2.2-3.2-2.4-1.5.6 1.3 2.3-.3 3.2-2.2 0-2.1-2.2-3.7-2.7-1.4.6 1.5 1.9.3 3.2-2.5 1-2.7-2.2-4.6-2.7-1 1.1 1.3 2.1.3 3.2-2.5 1.3-3.5-4-4.8-3.7-1.2.2.9 2.6.8 4-3.3 1.7-3.7-3.7-6.3-4.5-.9 2 4.4 4.2 1.3 6-2.3-.4-2.1-3.3-4.2-3.9-1 1.8 2.2 2.3 1 4.2-2.4 1-2.2-2.6-4.2-2.9-.9 1.2 1.4 1.4 1 3-.3 0-.6.4-.8.7-2.4.3-2.2-2.2-4-2.6-.7 1 1.4 1.2.9 3-3.3 1-3.1-3.3-5.6-3.8-1 1.8 2.7 2.4 1.6 4.5-3.4.8-3.5-3.8-6.1-4.5-.6 1.7 2 2.6 2 4.5-3.2 1.7-3.6-3.6-6-4.5-.8 2.2 3.9 4 1.3 6.4-3-1.5-3.7-5.1-6.3-7-1.5 2.8 3.3 3.5 3.1 6.7-.2.1-.4.2-.5.5-3.6-.5-3.7-4.6-6.6-5.8-1.3 2 3 4 2.9 5.8-3.7 2.4-4.4-4.7-7.4-5.5-.8 3 3.7 4.2 3.4 6.6-3.4 0-4.8-5.8-8.2-5.8.3 2.3 4 3.3 4.2 6.6-4.1.2-5-5-8.2-6.6-.5 3.1 3.5 3.7 4.4 6.4l-3.2-1.3a.5.5 0 10-.4.9l3.1 1.3c-4.3.8-5.3-6.8-9-7 .2 1 1 2 2 3l-3-1.2a.5.5 0 00-.5.2v.5c-1-1.3-2.2-2.3-3.8-2.6l-2.8-1.1a.5.5 0 00-.4.9l3.3 1.4c1.1 2.3 4.8 4 4.7 6.8-4-.9-6.3-5.7-9.2-8.5 1.2-3.8 2.5-7.5 3.3-11.8h128.8zm-3.8-3v.5c-.2 0-.2 0-.2.2h-.5c0-.2-.2-.2-.3-.2v-.6c.2 0 .2 0 .3-.2h.5c0 .2 0 .2.2.2zm-16.4-1.1c1.7-1.2 4.6-3.2 5.6 0 .8-.3 1-1 2-1 1.7 2.2 5.3-.7 6 2.6-38.4.5-80.7.3-122.1 0-.4-1.2-.3-3-.5-4.3 5.2-5.1 9.7-11 14.8-16.2 1.1.1 2.6-.2 3 .6-2.1 5.9-9 9.5-12 15.6 4.2-2.4 8.7-9.9 12.5-13.5l.3-.3a.5.5 0 00.5.2l3.6-1.5c.5.1 1 .4 1.4.8-3.4 5.4-8.5 9-11.7 14.6 3.1-1.8 5.4-5 8-8 2.2-2.5 4.4-7.4 8.8-6-1.6 5-6.4 6.8-8.3 11.6 2-.5 3.6-3 5.6-5.3 2.3-2.6 4.1-7.2 8.5-5.3-1.3 4.8-6 6.1-7.4 10.9 4-.3 7.3-13.4 13.5-9.9-1.5 4.6-5.6 6.5-7.4 10.7 4-1.8 6.1-7.5 9.8-10.4 1.6-.1 2.9.1 3.4 1-1.4 4.4-6.3 6.6-7.1 10.7 4-2.9 6.2-7.6 9.8-10.9 1.5 0 2.7.5 3.4 1.3-1.9 3.7-5.2 6-6.9 9.8 3.5-1.8 6-7 9-10 1.8-.1 3 .2 3.8 1-1.6 3.1-4.3 5-5.9 8.3 3.2-.9 4.8-6.1 7.7-8.3 1.2.3 3 0 3.7.8-.7 3.2-3.4 4.5-4.7 7.2 4 0 4.7-9.4 10.3-6.1-.5 3-3.4 3.6-4.2 6.4 3.5-.1 5-9.1 10-5-.7 2.3-3.1 3-3.7 5.5 2.7-1 3.5-4 5.6-5.6 1.3 0 2.8-.1 3.4.5 0 3-2.6 3.4-3.1 5.9 2.7-.3 3.9-7.2 8.5-4.8-.3 2-2 2.5-2.4 4.2 2.3.2 4-6 7.4-3.1-.4 2.1-2.8 2.3-3.2 4.5 2.6.2 4.3-7.3 8-3.5.2 2-2.5 2.2-1.9 3.7 2 0 3.1-5.5 6.4-3.4.8 1.2-1.2 1.7-1 3.2 1.9.3 2.4-4.1 5.5-2.7.4 1.5-1.2 1.8-.5 2.7 1.8-.1 1.6-2.3 4-1.9 1.1.7-.5 1.8.2 2.7zM223.3 75.6c.5.7 0 2.6.8 3 1.3-.6.6-3.1 1.8-3.8 2.1 0 3.5.6 4.5 1.6.3 1.4-.7 2.3 0 3.2 2.4-.5 1.1-3.1 3.2-3.4 5.4-.9 1.7 10.5 4.5 13.2 3.7-2.1 4.9-6.8 8-9.5 1.5.2 2.8.5 3.7 1.3 0 1.3-1.1 2.5-.3 3.7 2.4 0 1.3-3.7 4-3.4 1.5 1.2-.6 3.4.3 4.7 2 .1 1-2.7 2.6-3.1 1.5.8.6 2.8.6 4.2-.3 3.9-.8 8.8-2.4 11.4-4-.8-7.5-3.1-11.7-4.2-6.5-1.8-14.5-2.7-22-3.8 0-.2-.3-.2-.6-.2a20.8 20.8 0 01-2-11.4c-3.7-4.2 1.7-6.2 5-3.5zm2.9 93.6h-.2c1.4-1.3 2.6-2.8 4.4-3.4.2 3.7-2.8 5-5.2 7.1l1.3-3c0-.3 0-.6-.3-.7zm-3 7.2h-.2c3-.2 4.6-5 8-4.7-.8 3.8-5.7 5.7-8 9l-.8-.4 1.3-3.2c0-.3 0-.6-.3-.7zm.3 68.4l.7 1.8-4.6-4.7a7 7 0 01-4-3.4c1.8-1.5 3.6-1.1 5.2-.1l1.2 2.8a.5.5 0 00.9-.4l-.6-1.3.4.3c3 2.5 6.7 7.2 9 9 0 1.2.4 2.8-.5 3.2a22.5 22.5 0 01-5.3-4l-1.5-3.6a.5.5 0 00-.7-.3c-.2.2-.3.4-.2.7zm4.8 34.3c1.1-1.1 3.2-2.4 5.3-1.6.5 1.6 1.6 2.6 1.6 4.8-1.4 1.3-5.7 2.8-7.4 1.3.1-1.5.6-2.8.5-4.5zm73 65c-4 2.7-8 5.2-12 7.5 4.2-3.2 8.3-6.2 12-7.5zm-5.1-.2a91 91 0 00-8.9 6c-2.9 2.3-4.5 2.7-5.6 2.7-.8 0-1.7-.2-2.8-.7-1-.4-2.4-1-4-1.4-1-.2-1.8-.2-2.6-.2-3 0-6.2 1-9.5 2-3.3 1.1-6.8 2.4-10.4 3.2-6.4 1.5-9.6 3.1-12 3a9 9 0 01-3.7-.8c-.8-.3-1.6-.5-2.5-.5-1.3 0-2.6.6-3.5 1.4-1.4 1.3-2 3-2.5 4.9a28.5 28.5 0 00-.6 8c-5.5.6-11 .9-16.6 1 1.3-5.1 2.3-10.7 3.2-15.4.7-3.4.9-7.2 3-9.6 1-.7 2 .2 3.4 0 4-1.7 7.8-.8 12-1.6 1.7-.3 3.3-1.2 5-1.6 1.9-.4 3.9-.3 6-.8 3.5-.7 7-2.3 10.4-3.4a142.2 142.2 0 0053.4-31.9l16.9 16.9c-5.8 5.7-12 11-18.6 15.9h-.7c-3 0-5.9 1.2-8.8 2.9zm63.4-196.3a.5.5 0 00.6.2 162.4 162.4 0 0112.1 59c-5.4-1.4-11-2.6-16.1-3.6-2.8-.5-6-.5-8-2.4-.6-8.3-2-14.8-3.2-21.5-1.6-8.3-4.1-15.6-6.7-22.5h.3l3.6-1.5c.2-.1.3-.4.2-.6a.5.5 0 00-.6-.3l-3.6 1.5h-.2l-1-2.6c-1.8-5-4-8.8-6.3-12.7-1.1-2-1.8-4.3-3-6-.9-1.7-2.5-3.2-3.6-4.9-4.7-7-9.7-13.2-15.1-19l16-16a163.2 163.2 0 0134.9 52.2c-.3.1-.4.4-.3.7zM223 40.6a24 24 0 0010-7.3l3.5 1.1c2 .6 3.5 1.3 3.8 1.5 1.1.7 2.3 1.2 3.6 1.3 1.2 0 2.4-.6 3-1.3 1-1 1.5-2 2.1-3a13.2 13.2 0 012-2.8c.2 0 .3.2.6.4 1.1 1 2.9 4 4.3 7.2a7.9 7.9 0 002.4 3c1 .8 2.3 1.2 3.4 1.2 2.4 0 4.3-1.2 6.2-2.6 1.8-1.3 3.6-3.1 5.4-5 1.5-1.5 2.9-1.8 4.8-1.8l4.2.2L281 36a.5.5 0 00.5.7c.2 0 .4 0 .4-.3l1.5-3.6v-.1c.7 0 1.4-.2 2.2-.5 1-.4 2-1.2 2.8-2.3 1-1.7 1.7-2.3 2.7-2.7 1-.5 2.8-.8 6-.7h1.5c4.5 0 7.7-2.2 9.7-4.7 1.4-1.7 2.6-3.4 3.7-5l5.6 3.2.5 1c1 1.7 2.8 3 4.7 3 .5 0 .9 0 1.3-.2 5.2 3.2 10.2 6.6 15 10.2a47.8 47.8 0 01-.5 5.1c0 2.6 1 4.8 2.5 6.4 2.2 2.3 5.2 3.2 8.2 4.1 2.9.9 5.8 1.6 8 2.6 2 1 3.4 2.4 4.6 4.2l-37 37a164.2 164.2 0 00-52.2-35.1l.2-.2 1.5-3.6a.5.5 0 00-.9-.4l-1.5 3.6v.3c-18.6-7.7-38.9-12-60.2-12.3l-.6-2.9c4.2-.1 8.2-1 11.9-2.2zm16.3-24a41 41 0 00-.3-5.1l14.2-.5c2.3 0 5.3 1 8.2 0 .5-.2.5.1.3.2a698.6 698.6 0 0029.5.1l-1.3 3.1a.5.5 0 00.5.7c.2 0 .4-.1.4-.3l1.5-3.4 9 .2 8.4 4.1c-3 4-5.2 8.5-11.4 8.3-7.6 0-9.5.7-12 4.6-2.6 4-9.7-1.3-14.8 4-5.1 5.5-10.6 10-13.4 4-2.8-5.8-5.9-11.3-9-8-3.3 3.5-3.1 8-7.5 5.2a38.9 38.9 0 00-7.1-2.6c3-4.2 4.8-9.4 4.8-14.7zm77.5 1.8l-4.3-2.3a17 17 0 011.7-1.9c.3.2 1 1 1.6 2.2l1 2zm22.3 13.2v1.2c-4.5-3.3-9.2-6.4-14-9.4 1.1-.5 2-1.2 2.8-2 1.4-1.5 2.5-3.5 3-5.8l.4-.9c.3 0 1.1.4 2 1.3 1 1 2 2.4 2.7 4 1.9 4.2 3 6.6 3.1 11.6zm19.3 18.5h-.2c-7-3.5-18.5-2.9-17.1-12.4l.2-2c6 4.5 11.6 9.3 17 14.4zm34.2-12.5c0 3.3.8 7-.8 10.2-.4.8-1.4 1.6-2 2.6-.7.8-1 2-1.6 2.6a29.7 29.7 0 01-6 4.3c-2.9 1.5-10 1.9-13.2-.5-.6-.4-1.4-1.4-2.1-2-4.3-4.2-6.2-7.2-6.5-12a17 17 0 0111-16.4c2.8-1 9.3-.7 12 1 4.2 2.4 6.8 5.8 9.2 10.2zM311.6 11c.4 0 0 .8.5.8 2.1-1.2 2.8.2 4.6-.8 2 1 5 .8 7.7.6.6 0 1.7.3 1.5-.2.3-.9.3.8 1 .4 4.8-1 7.2 1.2 11.3-.6.8 0-.6 1 .5.7 2-.6 6.5.4 9 .2 1-.1 2-1.3 1.6 0 5.7-.3 11.6 0 16.7-.3.2-.8.8 1 1 .3.2-1.1.1.1.5.2 1.3.3 3.3-.1 5 0l14.1.5c7 .3 13-.2 19.3-.4l-17.3 17.3a19 19 0 00-16.8-4.6c-4.6 1.2-8.3 5.2-11.2 9.4-2.4 6.6-1.7 12 3.1 18.5l.7.9-.3.3c-7-7-14.6-13.6-22.6-19.6.6-7.4-1-10.8-3.2-15.6-2.4-5.5-8.1-9.7-9.6-4-1.1 4.3-4.3 7.2-6.7 6.4l-1-.5-.7-1.1c-2.1-3.9-4.3-11-8.4-6.7l-1.5 1.8-6.7-3.3a67 67 0 007.9-.6zm65.9 0c0 .2.2.4-.1.5V11zM209 183c-2.8 0-5.6.4-8.3.9-3.9 1.8-7 4-9.4 6.8l-2.9-2.9c3-2 5.7-4.2 9.1-5.9l.6 1.5a.5.5 0 00.7.3c.2-.1.3-.4.2-.7l-.6-1.5c2.2-1 4.7-1.8 7.6-2.2 0-.2.1-.2.3-.2h2.7v3.9zm0 9.8a16.7 16.7 0 00-5.5 1.1.5.5 0 10-.9.3c-1.7.9-3.2 2-4.5 3.3l-5.7-5.7c1.9-2 4.3-3.7 7.2-5v.2l1.5 3.6a.5.5 0 00.6.3c.3-.1.4-.4.3-.6l-1.5-3.7-.1-.1a26 26 0 018.6-2v8.3zm0 3.9c-1.4 0-2.8.2-4 .7l-.8-1.8a18.9 18.9 0 014.8-.7v1.8zm0 11.3h-.2v.1l-6.9-6.8c.8-.9 1.6-1.8 2.8-2.3 1.2-.6 2.7-.8 4.3-.8v9.8zm0 9.8c-2 0-4-.6-5.6-1.5l5.6-5.6v7zm0 3.5c-1.2 0-2.4-.3-3.6-.7v-.2a.5.5 0 10-.8-.4l-.1.3c-1.2-.5-2.3-1-3.4-1.8l1.4-1.3c2 1.3 4.2 2 6.5 2.2v1.9zm0 9.5c-2-.1-5.1-.6-7.4-1l.9-2.2c0-.3 0-.6-.3-.7a.5.5 0 00-.6.3l-1 2.3-1-.3a20 20 0 01-5.6-3.5l5.7-5.7c1.2.8 2.6 1.5 4 2l-.6 1.6a.5.5 0 00.4.7c.2 0 .4-.1.5-.3l.7-1.8c1.4.4 2.8.6 4.3.7v7.9zm0 5.7c-3.2 0-6.5-.5-9.6-1.5v-.2c.2-.3 0-.5-.2-.6a.5.5 0 00-.6.2l-.1.3c-3.4-1.2-6.1-3-8.4-5.1l2.5-2.5c1.8 1.3 4 2.2 5.7 3.2l1.8.5a.5.5 0 00.4.7c.2 0 .4-.1.5-.3v-.1c2.6.7 5.3 1 8 1v4.4zm-2 124.8c-1.8-3.3.1-8.8-2.3-12.5 2-2-1.3-4.5 0-6.3-.2-.9-1.4-.8-1.6-1.6-.3-1.4.8-1.4 1-2.1.3-1-.9-.7-1.3-1.1 0-1.1 1.6-.8 1.4-2.1-.8-.3-2.4.2-2.7-1 0-1.9 2-1.8 2.4-3.3-.4-1.3-1.6.7-2.4-.2-.2-2.1 2.2-1.6 2.4-3.2-1-1.3-1.7 1-3 .2-1.8-2.5 2.8-3.4 2.7-4.2 0-1.8-2.5.2-3.1-.3-.7-1.8 2.5-1.8 2.3-4-1-.9-2 1.8-3.4.6 0-1.9 2.4-1.5 2.6-3.2-.8-1.4-1.8 1.2-2.9.3.3-1.8 2-2.1 2.7-3.5-1.2-1-2 1.3-3.2.3-1.2-2.4 2.1-2.4 2.4-4.3-1.2-1-1.5 1.2-3 .8-1.9-2.4 2-3 2.5-4.7-1-1.2-1.5.7-3 .5-1.8-2.7 2.6-3.3 3.5-5-1-1.6-3.4 1.8-4.8 0 .4-3.2 4.3-2.8 5-5.6-2.5-1.1-2.5 2.6-5 2.4-2-2.9 2.6-3.3 3.2-5.3-1.8-1-2.3 2.2-4.3 1-.8-2.2 2.3-2.4 2.7-4.2-1-.7-2 1.7-3.2.8-1-2.5 2.2-2.8 2.4-4.8-1.1-.7-1.7 1.8-3.2.8-.5-2.7 3.2-3.1 4-5.3-2-1-2.2 2-4.2 1.9-.1-.6-.8-.6-.8-1.1.7-2.6 3.7-3 5-5-1.7-1.5-2.6 2-5 1.5-1.9-2.8 5.3-4 5-5.8-.2-1.4-4 2.4-5.6 2.4-.1-.4-.4-.6-.8-.8 1-3.6 5.4-3.6 6.7-6.9-2.9-.5-3.8 3.2-6.4 3.7-.2-.4-.4-.6-.8-.8.6-3.5 4.5-3.7 5.8-6.6-3-1-3 3-6 3-.7-.6-.7-1.7-.3-2.5 2.4-1.1 4.4-2.8 6-4.8-2.5-1.4-4 3.8-6.6 3.2.7-4 5.3-4.3 6.1-8.2-2 .5-3.9 3.3-6.3 4.3l.9-2.3c0-.2 0-.5-.3-.6h-.1c1.5-2 5.2-3.1 6.1-5.6-1.9-.3-3 1-4 2.3l1.3-3.3c0-.2 0-.5-.3-.6h-.1c1-.9 2-1.7 2.6-3l-.8.1 1.6-3.7a.5.5 0 10-1-.4l-1.4 3.6c-.1.3 0 .6.2.7-2.2.8-3.4 4-6.3 4.5-.7-4.7 8-6.3 7.1-10.8-2.7 1.3-4.4 5.3-7.6 5.3 1.6-4.2 5.3-6.4 8.4-9l1.8.6-.6 1.5a.5.5 0 00.9.4l.6-1.6c3 1 6.3 1.8 9.5 2.5.3 42 .2 74.9-.2 118 0 1.2.6 3.2-.8 4zm-8 16.7c-11.1 5.1-17 12.8-19 26.6a36 36 0 00-.2 2.7v-.2h-11.4c-3.6 0-7.2.4-10.8.3h-.1a5 5 0 00-.5-1.4c-.7-1.3-1.7-2-2.7-2.7l-4.2-2.8-1.4 2 1.4-2a24 24 0 01-6.8-8v-.1c-.2-.5-1-2-2.3-3.7-1.5-1.8-4.3-4-8-4h-.2c-.5 0-1.9-.3-3.4-1l-8.5-4.8c-3-1.6-5.7-3-8.7-3.2-.9 0-1.9.2-2.8.8-.9.5-1.6 1.4-2 2.4-.8 2.1-1.5 3.7-1.6 5.7 0 2 1.1 3.8 2.6 5a47 47 0 006.8 4.5c4.7 2.8 7 3.8 9 4.8 1.3.7 2.6 1.4 4.8 2.8l-.9 2.2a.5.5 0 001 .4l.8-2 2.1 1.5 5.8 3.5h-10.4-10.2a218.4 218.4 0 01-43-26.5l1-1.2c2-3 3.2-7.3 3.9-12 .7-4.8 1-10.1 1-15.1v-.8c0-5.6-.4-8.9-.6-11.5l14.4-14.4a164.2 164.2 0 0052.2 35 .5.5 0 00.5.5c.1 0 .3 0 .4-.2 18.6 7.7 38.9 12 60.2 12.3.2 1.3.4 2.5.8 3.6-3 .1-6.1.5-9 1zm-18.8 37.5l-3-1c-4.5-3.6-3.7-4.9 2.5-3.3 0 1.4.2 2.9.5 4.3zm-25-6c-.2 1.8-4.2 1-9.2-1h9.2v1zm-12-2.2a69.3 69.3 0 01-9.8-5.5c-8.5-6-7.6-4.3-17-9.8-9.4-5.5-9.1-6-6.7-12.2 2.5-6.2 17.4 7.4 23.2 7.4.7 0 1.4.1 2 .3l-.8 2a.5.5 0 00.5.7c.2 0 .3-.1.4-.3l.9-2c3.6 1.5 5.1 5.5 5.1 5.5s2.3 5 7.7 9c3.9 3 5.7 3.6 6.3 5h-11.8zm-18 3.6a211 211 0 01-5.2-2.2h6.1l-.9 2.2zm-18.4-3.6c-12-.1-25.2.2-35.1.2-5.5 0-11.8.4-16.2 0-.6-.1-.7.4-.7.4-.4 0-.1-.8-.5-.7l-.3.7-.2-.7c-.9 0-2 .3-3.1.3-1.8 0-5.5 0-6.6.6-4.2-.5-10-.2-16.2-.3h-4.6c-.7 0-1.2.7-1.9.8-.5 0-3.9-.7-5-.7-1.8 0-3 .6-5 .3l19.1-19c3.2 3.3 7.3 5.4 12 5 1.7-.2 3.4-.9 5-1.3 5-2.4 9-6.6 11-11l.7-1.9a53 53 0 006.7 2.7 7.3 7.3 0 007.4-1.3 219.3 219.3 0 0041.6 26h-8.1zm-95.6-47.8c1.1-.2 1.9-.5 3.2-.5l1.7.1 3.8.6.5.1c.3 0 1.5 2.2 5 6.9l1 1.3-.5.9c-2.5 6.5-1.7 12 3.1 18.5l.8 1-18.6 18.7v-47.6zm44.3 4.7l21.7-21.7c.2 2.4.4 5.4.4 10 0 10.6-1.1 22.6-5.4 26.7-5.8-4.7-11.4-9.7-16.7-15zm-28.2 1c-6.9-9.2-3.5-7.2-10.8-8.5-2.5-.4-4 0-5.3.3v-53.6a219.7 219.7 0 0042.9 60.8 19 19 0 00-17-4.7c-3.6.9-6.6 3.5-9 6.5l-.8-.8zm9.5-4.4c2.8-1 9.3-.7 11.9.9 4.2 2.5 6.9 5.9 9.3 10.3 0 3.3.7 7-.8 10.2-.4.8-1.4 1.6-2.1 2.6-.6.8-1 2-1.6 2.6a29.6 29.6 0 01-5.8 4.3c-3 1.4-10.2 1.9-13.4-.5l-2-2.1c-4.3-4.2-6.2-7.1-6.6-12a17 17 0 0111.1-16.3zm18.5 4.7l-.5-.6a221 221 0 0016.6 15 5.1 5.1 0 01-4.7.5 49.9 49.9 0 01-7.1-3c.3-4.1-1.1-8.7-4.3-12zm-29-128.7c2.8-1 5.5-2.7 7.8-5 .5 8 1.8 16.6 6.1 18.6 3 1.3 8.3 5.2 13.4 9.9 1.2 3.8 2.6 7.6 4.1 11.3l-1.1.5c-.3.1-.4.4-.3.7a.5.5 0 00.6.2l1.2-.5c2.5 6 5.4 12 8.6 17.6-.4 6-.7 11.8 1.7 14.1 4 4 11.3 11 9.3 22.9-1.3 7.3-1 9.9-.6 14.1l-22.3 22.3c-18-18-32.7-39.1-43.5-62.4v-62c5.2.2 10.5-.6 15-2.3zm16.4-24c0-1.1 0-2.3-.2-3.4v.6h3c.1 16 2.4 31.3 6.7 45.8a56.5 56.5 0 00-11-7.7c-.7-.3-1.7-1.4-2.5-3.4a42.4 42.4 0 01-2.3-15.3 26.8 26.8 0 006.3-16.6zm-31.7-57c2.8-1 4-.6 1.8 1.8l-1.8 1.8v-3.6zm27.7 39.3l.3-1c.4-1 1.2-2.6.3-3.2a12 12 0 01-.9 3.8c-2.6-5-6.2-9-10.8-11.7l-.6-.3a12 12 0 00-2.2-4.2 6 6 0 00-4.6-2.2c-2.6 0-4.7 1.5-6.8 3.1l-.3.3H11v-17.1a35 35 0 003.7-3.4l-1.7-1.5 1.7 1.5c.4-.5.8-1 1-1.5.4-.5.7-1 .7-2 0-.7-.5-1.9-1.3-2.3-.7-.5-1.4-.6-1.9-.6-.8 0-1.5.2-2.2.4l-.3-25.7.4.1a.5.5 0 10.3-.9l-.7-.3v-7c8.1-18 18.7-34.8 31.3-49.8a8 8 0 013.7 2c1.7 1.2 3.7 3.1 6.4 4.8 2.9 1.7 6.3 2.3 10.1 2.3 4.2 0 8.9-.7 13.9-1.8L93.2 94a164.1 164.1 0 00-35 52.2c-.2 0-.4 0-.5.3 0 .2 0 .4.2.6-7.4 18-11.8 37.5-12.3 58l-.9.2-2.6.4c-.6-3.8-1.8-7.3-3.4-10.6zM17 180c2.6-1.7 5-1.8 6.8 1.4-2.2-.8-4.5-1.2-6.8-1.4zm-6.4-63.4a1293.3 1293.3 0 01.4-40.2h.2c1.4 0 2.5-.5 3.8-1l5.4-2.9c1.6-.9 3.1-1.4 3.7-1.4h.1c.7 0 1.3.2 2.4.7 1.1.4 2.6 1 4.6 1 2 0 4.2-.6 7-2 1-.7 1.8-1 2.5-1-12 14.3-22 30.2-30 47.4v-.6zm0-69c5.4-4.2 10.6-8.1 15-11.1-1.9 6-1 11.3 3.6 17.4 3.3 4.4 8 7.2 13.5 6.8 1.7-.2 3.4-.9 5-1.3a23.6 23.6 0 006.3-4.5c-3.9 4-7.7 8.2-11.3 12.4-1.6-.3-3.5 0-5.7 1.3-7.4 4-9 0-12.7 0-3.7 0-10.7 5.7-13.4 5.4-.1-8.8-.5-17.5-.3-26.5zm.1-36l19.1 19.1-.4.4a165.7 165.7 0 00-18.7 13.3l.1-4c.6-9 .2-19 0-28.8zm34.1-.4h13L48 19.4a60.5 60.5 0 01-7.9 6 15.5 15.5 0 00-9.7 4.5L11.5 11c10.9-.5 22 0 33.3.1zm8.9 42.7a29.6 29.6 0 01-5.9 4.3c-3 1.4-10.1 1.8-13.3-.5l-2-2.1c-4.3-4.2-6.2-7.1-6.6-12A17 17 0 0137 27.2c2.8-1 9.2-.7 11.9.9 4.2 2.5 6.9 5.8 9.2 10.3.1 3.2.8 7-.7 10.2-.4.8-1.4 1.6-2.1 2.6-.6.8-1 2-1.6 2.6zM61.8 11c18.2 0 37-.3 54.8-.2-23 10.8-44 25.5-61.8 43.3h-.1c1.7-1.9 3-3.9 4-5.9 2.2-5 1.1-12-3.2-16.4a21.5 21.5 0 00-11.3-6.2C50.1 21.5 55 16.2 61.8 11zM74 74.8c-8.7 1.8-16.1 2.2-20.6-.5-4-2.4-6.5-5.7-9.7-6.8 3.6-4.1 7.2-8 11-12L74 74.9zM119 11l11.4.1c7.3.2 14 0 20.8 0-.2 3.4 1.9 7.9-5.5 11-9.4 4.2-16.6 5.5-14.5 13.4 2.2 7.8 2 14.2-4.2 19.2-6.3 5-1.4 3.4-8.5 12.7l2 1.5c3.6-4.7 4.5-7.2 4.9-8.7l.6-1.2c.3-.4 1-1.2 2.5-2.4 4.6-3.5 6.5-8.3 6.4-13.2 0-2.8-.5-5.7-1.3-8.6l-.3-1.9c0-1 .2-1.5.7-2l.8-.9.7 1.9a.5.5 0 00.7.2c.2 0 .3-.4.2-.6l-.8-2.1c.7-.5 1.7-1 2.8-1.5l8.3-3.5c2.7-1.2 4.6-2.6 5.7-4.4a9.2 9.2 0 001.4-5l-.2-3.5V11a487.9 487.9 0 0126.5.4c-1.2 9.4 1 18.5 8.4 24.7 2.2 1.9 5.2 3 7.7 4.5 3.6 1.2 7.4 2 11.1 2.2l-.6 2.9c-21 .3-41 4.6-59.3 12.1l-.5-1.1a.5.5 0 10-.9.4l.4 1.1c-10.7 4.5-21 10.1-30.4 16.7l.3-.4c1-1.5 2.3-3.3 4.2-5.7l-2-1.5c-7.1 9.2-5.6 11-14.7 8-9-3-4-7.3-17.8-3.5l-10.8 2.8-19.7-19.7a218.7 218.7 0 0163.4-44zm6.7-3l.8 2h-5.3l4.5-2zm70.2 168.5c.2-.2.2-.4.2-.6l-1.5-3.6a.5.5 0 00-.7-.3c-.2.1-.3.4-.2.7l1.1 2.8-3.1-3c-2.6-2.4-6.8-4.6-4.5-8.4l4.3 3.3.7 1.7a.5.5 0 00.6.2c.2 0 .4-.3.3-.6 3.4 3 6.6 6 9.5 9.4-.7.6-2 .5-2.7 1-1.4-.7-2.7-1.6-4-2.6zm-10.8-2.6c.1-1.3.2-2.6.8-3.5h.5a48.4 48.4 0 0110.2 9.5c-.4 1-2 .8-2.5 1.7-3.7-1.9-6.1-5-9-7.7zm0 32l-.3 3.3h-4.4c0-3.4.7-6.8 1.5-9.6l.2-.8 2.1.9h.2a.5.5 0 00.2-1l-2.1-.8c1.3-3.6 3.3-6.3 5.2-9.3l3 3a29.2 29.2 0 00-5.6 14.4zm8.9 3.3h-7.3c0-3.2.2-5.9.8-8.3l.3.3 3.6 1.5h.2c.2 0 .4 0 .5-.3 0-.2 0-.5-.3-.6l-3.6-1.5h-.5c.7-2.7 2-5.1 4.1-7.6l5.7 5.7A16.4 16.4 0 00194 209zm6.1-8.2c-.7 1-1.2 2.3-1.4 3.7l-2-.9c.6-1.5 1.3-3 2.1-4.1l1.3 1.3zm.6-.7l-1.3-1.4.8-.9c.9-.9 2-1.5 3.1-2l.8 1.9a9.8 9.8 0 00-3.4 2.4zM199 209c.1-1.3.3-2.7-.4-3.5a9.6 9.6 0 00-.8 3.5h-2c0-1.5.2-3 .6-4.4l2.2.9h.2c.2 0 .4-.1.5-.3l-.1-.5c.8-.7 1.5-1.7 2.1-2.7l7 7H199zm.1 1.5v-.6h8.8v.2h.1l-5.4 5.5a8.7 8.7 0 01-3.5-5zm-1.6 4.4l.2-.1a.5.5 0 10-.3-.9l-.4.2a8.8 8.8 0 01-1.2-4.2h2c.3 2.7 1.8 5 3.9 6.6l-1.4 1.4-2.8-3zm-9.5 4l2.5-1.1a.5.5 0 10-.3-1l-2.6 1.1c-.5-1-.8-2-1-2.8v-4.3-.9h7.4v1a12 12 0 001.2 3.9l-1.4.6c-.3.1-.4.4-.3.6a.5.5 0 00.6.3l1.5-.6c.9 1.4 2 2.6 3.3 3.6l-5.7 5.7c-2-1.8-4-4-5.2-6.2zm1.4 9.9a32.7 32.7 0 01-4.6-6l-1.3-2.2v-.5c0-.2-.3-.3-.5-.3-.8-1.4-1.6-2.8-2-4-.4-1.8-.6-3.8-.6-5.9h4.4c0 3 .5 6 1.5 8.7v.4c0 .2.2.3.3.3 1.2 2.6 2.9 5 5.2 7l-2.4 2.5zm-3.5 8c.4-2.5 3.7-7.2 5.3-3.7-2.1.9-2.8 3.2-5.3 3.7zm.8 4.2c-.3-3.4 4-4.6 5-7.6 1.3-.2 1.9.5 2.4 1.3-2 2.6-4 5.1-7.4 6.3zm5 43.8c-2.7.6-5.7-.6-7.4-1.8-1-5.4 3.9-6 6.6-3.5.1 1.8 1.6 3.5.8 5.3zm-6.1 37.7c-2.6-.6-6.9-2.7-9.3-3.5-2.4-.7-4.4-.8-6.9-1.8l-3.6-1.6.7-1.6c.1-.2 0-.5-.3-.6a.5.5 0 00-.6.3l-.6 1.4c-.6-.3-1-.7-1.2-1.1-.8-3 3.6-6.3.3-8.8-3 1.3-3.8 4.7-6.4 6.4a76.5 76.5 0 01-26.5-18c1.3-2.5 4.4-4.1 7.2-6.1 2.5-1.9 4.8-4.4 7.7-5.6 3.1-1.3 7.2-1.9 10.3-2.4 3.9-.6 0 11.4 3 13.3 4.6-.8 7.9-2.9 12.7-3.5 1 .6 1.3 2.5 1.7 4.7l-.7 1.6c-.1.3 0 .6.3.7a.5.5 0 00.6-.3v-.2c.6 3 1.2 5.7 3.1 6 2.8.4 7.4-5.7 10-5.6 2.4.2 5.2 6.2 6.7 8.2.6.8 1.7 1.6 2.1 2.7 2 4.8 1.4 11.6 2.4 16.4-3.4.7-8.5 0-12.7-1zm16 18.5c-1.1 1.5-4.4.7-6 .3-.8-.6-.3-2.7-1-3.4-1.7.2-.6 3.2-2.1 3.7-2-.2-3.5-.8-4.5-1.9-.1-1.3 1.1-2.3 0-3.2-2 .7-1 3.2-2.7 3.8-5.5 1.6-2.3-10.5-4.7-13-3.7 2.1-4.8 6.9-8 9.5-2 0-3.2-.7-4-1.9.4-1 1.6-3 0-3.7-2 .3-.8 4-3.7 3.5-1.7-1.4 1.4-3.4-.3-4.8-2-.2-1 2.6-2.3 3.2-1.7-.8-.6-3-.6-4.3l.3-4 1.5-3.6c.1-.2 0-.5-.3-.6l-.5.1 1.1-3 .5.2h.2c8 3 17.3 5 26.1 7.2 2.5-.2 7.2-.6 8.5 1.6 1.4 2.3.8 7.1 1.4 10.4.2 1.5 1.2 2.6 1 4zm-22.1-5.8c1.3.1 1.5 3.2.3 3.5-1.8 0-1.1-3-.3-3.5zm-4 1.6c0-1.3 1.2-1.3 1.3-2.4.5 0 .5.3.8.3-.6.8-.6 2.1-2 2.1zm18.3 8.8c-3.5-.4-7.8-.6-10.9-1.4-5.6-1.4-12.3-2.6-18-5l-7.5-3.3.1-.2c.1-.3 0-.6-.3-.7a.5.5 0 00-.6.3l-.1.3-4.6-2c-.8-.3-1.9-.2-2.6-.5-1.8-.8-3-2.7-5.6-3-1.8-1-3.7-2-4.8-3.6-7.9-3-12.2-9.4-19.3-13l-6.7-6.8 1.7-1.8c9 9 19 16.6 30.7 23.1 1.1.7 2.5 1 3.7 1.6 1.1.7 1.9 1.7 3 2.2.8.4 2 .3 3 .8 2.6 1 5 2.9 7.5 3.7 2 .6 4.4.7 6.7 1.3 4 1.1 7.7 3.3 11.6 4l7.2 1c2.7.4 5.2.2 8 .6 1 .1 1.9.8 2.9 1 .9.2 2.3-1 2.9.6-1.5 1.4-5.3 1-8 .8zM94 93.3L77.2 76.6l9.5-2.4c3.7-1 6-1.5 7.2-1.5.8 0 1 .2 1.3.3.4.1 1 .7 2.2 1.7 1.2 1 3 2 5.7 3 2.6.8 4.5 1.4 6.4 1.4h.8C104.5 83.3 99 88.1 94 93.2zm101-19.5c-8 .8-15.8 2.2-23.4 4-1.6.3-3 1.4-4.5 1.8-2.6.7-5.4 1-8 1.9l-1.7.6V82l-.6-1.5 4.8-1.6c3.2-1.1 6.5-2.7 9.5-3.4 3.3-.8 7-.7 10-2.4h2.2c4.1-1.8 10.7-2 16-1.9.1-.2.4-.4.7-.5.8 0 1 .6 1.3 1-.6 2.8-4.2 2-6.3 2.2zM173.7 79c1.8-.4 1.4 2.5 1 3.4-1.2-.1-1.6-2.3-1-3.4zm-2.4.8c1 0 1.6 1.6 1 2.4-1.2 0-1.7-1.5-1-2.4zM197 91.3c-14.2.6-26 5.7-38.2 9.3-1.8-4.2-1.8-10-3-14.9 2.2-3.7 4.2.6 5.4 2.4 1.9-1-.5-3-.3-4.8 2.4-2 3.8 1 4.5 2.7 1.9-.9-.2-2.6.3-4.5 6.5-3.6 5.5 8.5 10 10.3 1.9-3 .5-9.1.6-13 1.3-1 3.7-2 5-1.6 2.6.6 1.5 4 3.8 4.8 1.4-1.4-.7-2.8-.3-4.8.8-.7 2.3-.7 3.7-.8 1.3.6.3 3.4 1.6 4 1.9-.3-.2-3 .8-4.2 2-1.3 6.5-1.5 9.3-1.1-.4 5-.7 12.3-3.2 16.2zm-6.1 26.5c-.9 1.1-2.7 3.8-3.7 4-1.7.3-4.6-2-6.1-3-2.2-1.2-3.6-2.5-5.8-3.1-1.4 1.4-2 3.4-3 5.8-.6 1.6-1.2 5-2.9 5.6-1.7.5-3-.8-4.5-1.3-2.5-.9-4.9-1-7.2-1.9-.8 3.1-1 8.8-2.6 12-4.2 0-8 1.3-11.4.7-2-.3-6.4-4-8.2-5.3-2.9-2-5.7-4-7.2-6.3 2.7-4.4 7.1-7 11.4-9.8 1.7-1.5 4.4-3.9 6.6-5.4 2.6-1.6 6.8-4 8.3-4 2.2.3 2.1 3 4.5 3.8 1.3-1.4-.3-3.8-.3-5.6 1.6-1.3 3.3-2.3 5.2-3.2l1.3 3.2a.5.5 0 00.7.2c.2 0 .3-.3.2-.6l-1.3-3.1c5.3-2.2 11.7-3.2 17.8-4.7 4.7-1.2 9.6-3 14.6-1.9-1.6 5.6-1.1 13.4-3.2 19.1-.5 1.4-2 3.3-3.2 4.8zm-1.3 12.2c-4-4.4-.2-8.7 2.4-11.7.2.2.4.3.8.3-.8 4-.1 9.6-3.2 11.4zm-4.5 9c-1-1.3-1.6-3.1-2.2-5 1.6-1.4 5.8-3.2 7.7-1.6-.2 1.6-.7 3-.8 4.8-1.1 1-2.5 1.9-4.7 1.8zm-25.8 4.8c-.7 1-2.1 1.4-3.1 2.1-3.7-1.8-6.6-4.3-9.6-6.9 0-.6.4-.8.8-1 5.8-1 10.8 1.1 12 5.8zm1.4-1.3c-3.7-2.3-4.5-9.6-1.9-13.8 2.5 3 11.8 12.7 1.9 13.8zm11.4-6.7c-1 1.4-2.9 2-4.5 2.7-3-3.2-5-7.4-7.5-11.1 0-.5.3-.5.3-.8 6-.1 10.2 3.9 11.7 9.2zm-2.7 9.9c-.2 2.5-5.3 3.4-6.6 5.3-1.6-.8-3.8-1.4-4-3-.3-2.8 6-4.6 7.7-6.3 1.4.8 3 2.6 3 4zm-.8-5c3-2.8 7.3-4.3 11.4-6 1.9.7 2.2 2.8 2.7 4.9-3.2 2.4-7.6 3.7-11.4 5.5a7 7 0 01-2.7-4.5zm9.6-21c3 .3 6.3 2.5 8.5 4.5-.4 2.5.8 3.6.8 5.8-1 1.1-3.3 2.1-4.6 1.9-1.6-.4-1.4-1.9-2-3.8-1-2.5-3.6-6.2-3-8 0-.2 0-.4.3-.4zm-3 5.6l-1.5-3.5c.5-.8 1-1.4 1.8-1.9 1.9 3.9 3.1 8.3 4.5 12.5-1.5 1.3-3.6 2-5.8 2.6-1.9-1.2-2.2-4-3.5-5.8 1-2 1.5-4.3 2.4-6.3l1.2 2.7a.5.5 0 00.6.3c.3-.1.4-.4.3-.6zm6.3 55.6l-49.2-49.2c.9-.8 1.9.4 1.8 1.8.7.1 1.2.3 2.2.2.5.5.8 1.3 1 2.1.7.5 1.4-.3 2.1.3.5.4 0 1.7.6 2.1 1 .2 1.1-.4 2-.2 1.1.4.6 2.5 1.4 3.1 1 0 1.2-.7 2.1-.7.9.5.3 2.5 1.1 3.1 1.3.1 1.3-1.1 2.4-.5.4.7 0 2.3.5 3 .9.8 1.3-1.7 2.1-.9 1 .6.1 3 1.1 3.5 1.1 0 .8-1.3 2.1-1 .5.9.1 2.7 1 3.1 1 0 .9-1.1 2.2-.8.8 1.3-.7 3.3.8 4 1.2 0 1.2-1.3 1.9-1.9 2 0 .2 3.8 1.6 4.5 1 .1.8-1.1 1.8-1 .4.7-.5 2.5.5 3.2 1.1-.3.9-1.9 1.6-2.4 2.3.4-.6 5.4 1.4 5.5 1.5-.2.2-3.3 1.8-3.4 2 1-.3 4.8.8 6.6 2.2 0 .8-3.6 2.1-4.5 2.3.9 0 5 1 7.2 2.3 0 .7-3.8 2-4.8 3.1.3-.6 5.8 1.8 6.9 1.5-.5.3-3.8 1.6-4.5 3 .8-1 6 1 8.2 1.2-.3 1.2-2 1.7-3 1 1-.1 4.8 1.8 5.4-.7 1.6-.3 4.1-1.7 5zm-6 4.3c3.4-1.5 4.1 4.1 7.7 4.2-.3-2.4-2.7-2.7-3.4-4.8 1.8-1.5 4.4 2.4 5.8 3.8-.4.7-.6 1.5-1.9 1.3.1 1.5-.4 2.4-1.3 3-2.9-2-5.2-4.4-6.9-7.5zM112 112.8c-1 .9-2.1 1.8-3.3 3.1-5.9 6.7-13.2 15.1-17.8 23.4-1 1.7-1.7 3.8-2.7 5.6-1 1.9-2.6 3.5-3.1 5-.3.7 0 1.6-.3 2.4-.4 1.4-1.2 2.8-2 4l-2.2-.8c6.5-17.2 17.2-32 29.7-44.4l1.7 1.7zm37.3-26.6c-9.4 4.7-19 10-26.8 16.2-3 2.4-5.3 5.7-8 8.2l-1.7 1.6-1.8-1.8c6.6-6.4 13.6-12.2 20.7-17.3 6.5-3.5 12.3-7.5 20-10.8 1.2-.6 2.6-1.1 4-1.6l.7 1.6.1.2c-2.4 1.1-4.8 2.5-7.2 3.7zm2.3 5c-1-2-2.2-4.4 1.6-5a33.7 33.7 0 013.2 14.9c-1.5-1.8-3.4-6.7-4.8-9.8zm-2.9-2c1.2 3 3.6 6.1 3.7 9.2-1.7-.3-13.3-9.5-3.7-9.2zm-16.9 10c1.8.6 1.8 3 2.4 4.8-1.4-.7-4-3.6-2.4-4.8zm-.5 5.3c-1.5 0-1.8-1.4-2.7-2 .1-.4.5-.5.6-.9 1 .5 2.4 2 2 3zM121 120.4l-7.5-7.5c1-1.1 2-2 2.9-2 2 0 2 2 4.2 2.4.7-2-2-2.6-2.1-4.5 1.9-3.8 4-.8 6.4.5.7-1.5-1.6-2-1.6-3.4 0-1.6 1.2-2.3 2.6-3.2 3.8 2 6.5 5.2 10 7.4 2.3-3.6-3.6-10.8-.4-14.6 1.8.1 1.6 2.3 2.9 3 2.3-1.3-2.1-3.5.2-4.8 2 0 1.7 2.3 3.5 2.6 1.4-1-2.2-3.7.5-4.2.8-.2 3.9 3 4.8 4.2 2.2 2.7 3.6 5.9 5.3 7-4.2 3.7-9.4 6.1-14 9.5-4.6 3.2-8.6 7-12.8 10.6-1.9-.8-3.4-1.9-5-3zm-25.3 35.9c3.5 1.4 6.6 2.4 8 4.2-4.8 0-10.5-1.4-15-2.6-.8 0-3.3.4-4.2-.8.4-7.7 6.5-2.8 11.2-.8zm1.8-4c3.2 2.5 6 4.2 7.5 6.4a67.8 67.8 0 01-17.8-8.3c.4-8.2 7.7-.2 10.3 1.9zm1.6-22c1.8 0 2.6.8 2.7 2.4-1 .2-3.4-1-2.7-2.4zm5 6c-1.5.3-5.7-2.4-6.7-2.8 0-.3.5-1 .4-1.4 1.2.1 6.2 3 6.2 4.1zm-10.8 3.3c.1-1 .7-1.5 1.3-1.9 2 0 2.8 2.3 4.8 1.3-.2-2.2-3.3-1.5-3.5-3.7 4.2-.6 7.7 4.5 12 3 .2-3-7-7-7-10.4.1-3.3 4-3.3 6.4-1 .8-2.3-2.2-2-2.3-3.8-.2-1.4 1.2-2.8 2.3-3 1.9 0 2.5 2.8 4.3 1.7-.2-1.8-2.1-1.8-2.7-3.2.7-.6 2.3-3 4-5l3.7 3.8-.8-.4c-1.5 3.5 5.9 6.5 5.9 10 0 2.6-4.2 5-5.6 7-.6.8-.7 2-1.3 2.9l-3.2 3.7c-2.1 3-4.1 7-6.4 9.6a6.2 6.2 0 01-2.4 3.7c-2.2-.4-4-2.5-6.6-4.5-1.6-1.3-5.7-3.4-5.8-5-.1-1.2 1.1-2.9 2.4-3 1.6-.1 2.5 2.8 4.2 1.6.1-2.5-3.2-1.6-3.7-3.4zM79 175c0-1 0-1.1.5-2.1 3.3 1.2 6.6 2.4 8.5 5-3.2-.8-6.4-1.6-9-2.9zm2.6 3.2c-.8.3-1.7.5-2.9.5-.2-.5-.7-.7-.5-1.6 1.1-.6 3.4-.3 3.4 1zm-6.4 12.5c0-2 .6-3.6 1.6-4.6 1.4 0 2.6 1.2 3.5 0-1.6-1.5-6-2.4-3-5.5 3.6-1.3 10 .2 12.5-2.2-.7-1.5-3.7-3.8-6-5.5-2.5-1.8-5.4-3-1.7-5.9 1 .3 2.7 1 3.5 0-.4-2-3.6-1.3-3.5-4 1.3-1.4 3 1 4.6 0 .3-2-2-1.6-3-2.3v-.8c1.6-.2 3.2-.3 4.8-.2l2 .8h.1c.2 0 .4 0 .5-.3v-.3c2.9.4 5.6 1.1 8 2.1-1.7 6-4.7 12-5.8 18.8-.9 5.2-1.2 10.4-2.4 15.7-4.5 2.7-10.7 1.3-15.1 3.2-.3-.5-.6-.9-1-1 .3-1.6.3-3.5.7-4.9.7-.8 2.6-.4 3.5-1-.3-1.7-3.3-.7-3.8-2.1zm66.1-28.7c0 1-1.3 3.2-2.7 3.5-1.8.2-4-2-6-3.2-2.3-1.3-4.9-2-5.4-3.7 4.5-.9 13.7-.7 14.1 3.4zm.5-8.5c2 2.6 4.4 4.1 1.4 6.1-3.7-1.1-5.5-6.9-4.8-10.6 1.1.4 1.7 2.3 3.4 4.5zm-2.6-7.4c-.7-1.4 2.4-2.3 2.9-.5-.2 1-2.3 1.5-3 .5zm1.8 3.2c0-1.8 4.3-2 4.3 0-.5 1.4-3.8 1.4-4.3 0zm7.7 3.2c-.5 1.5-5 2.1-5-.3 1.4-.5 4.7-2 5 .3zm-1-3.8l-1.2-1.5 3.3 3.3a69 69 0 00-2.1-1.8zm-1 7.5c-.3-2.1 3.6-1.4 5-1-.2 2.1-3.6 1.4-5 1zm2 2.9c.7-1.6 5.9-2.5 6.4-.3-.6 1.6-5.9 2.5-6.4.3zm3.5 2.9c1.4-.9 5.7-1.8 6.6 0-.5 1.7-6.3 2.2-6.6 0zm2.1 4.5c1-1.4 6.3-3.2 7.4-1-.9 1.6-5.7 1.8-7.4 1zm11.1 3c-3.3-.5-8.1 3-9-.6 2.5-.5 8.4-3.4 9 .5zm-3.3-6.7l14.4 14.4c-5.3-4.4-9.8-9.4-14.4-14.4zm16.6 19.1a19.6 19.6 0 01-11.1 1.6c2.6-1.2 8.7-3.5 11.1-1.6zm-2.6-2.4c-2.7 1-8.6 2.5-11.2 1 .2-1.5 10.6-4.1 11.2-1zm-16.8-6.4c1-2.1 8.4-3 9.6-.8-1.9 1.3-7.2 2.6-9.6.8zm3 3.5c2.3-1 8.7-4 10.3-.5-2 1.2-9.2 3.4-10.3.5zm-20.7-10c1.3-1.7 2.2-6 4.5-6.2 1.2 0 3.3 1.9 3.4 3.2.2 1.7-2 5.3-3.7 5.6-1.9.2-3-1.7-4.2-2.7zm-8.3 16c1.5-1 3.8.5 5.3.9.6 2.2-.6 4.6-1.8 5.8-2-.1-3.5 1.6-5 .3-.6-2.4.8-5 1.5-7zm-4.5-13.2c-.6-2.7-2.2-5.8-2-8.5 4.2 1.6 7.7 3.9 11 6.4a9.3 9.3 0 01-2.6 5c-2.7-.4-4.4-1.7-6.4-2.9zm-10.8 5.3c1-1.2 3.4-1.3 5.5-1.8 4.2-1 8.4-1.3 10.6 1.6a7 7 0 01-.6 2.8l-3-1.2a.5.5 0 00-.4.9l2.9 1.2-1 1.3c-5-1.3-9.7-2.8-14-4.8zm11.6 14c-1 3.6-6.1 2.4-9.5 3-1.9.3-3.7 2-5 .8 2-2.6 5.3-3.8 7.6-6.1 2.4.7 5.9.4 7 2.4zm-12-11.8c4.5.4 9.4 2.7 13.6 4.2.8 2.1-.4 4-1.3 5.3-6.9-.2-11-4.6-12.2-9.5zm19.7 3l2.7 1.2-.6.8c-1.8-.4-3.5-.9-4.5-2.1-.2-2.2 2.3-5.2 3.2-7 1.2-2 .6-3.7 2.7-3.9 1.4-.2 2.5 1.4 3.7 2.4-1 3.3-2.3 6.3-4 9l-2.8-1.2a.5.5 0 10-.4.9zm14.4 6l1.1.5c-3.5.7-8.6 2-12.6 2.1 1.5-8.4 5.9-16 10.7-22 .3 0 .4 0 .5.3 3 2 4.7 5.6 6.9 8.5 2.2 2.8 5.2 5.3 6.3 9-3 1.3-6.5 1.3-10 1.8l-2.5-1a.5.5 0 00-.6.3c-.1.2 0 .5.2.6zM134 139.9c0-1 .5-1.1 1.3-.8.3 1.1-.8 1.3-1.3.8zm3.4 15.7c-3.2 2.5-9.7-.6-13.2 1.8.2 5 3 8.7 3.1 12.8-2.8 3-10.3 1.5-12.4 5.3 1.4 3.8 4.1 6.5 5.8 10-1 2.8-5 4-7.7 5.9-1.5 1-2.4 2.6-4 3.2-4.8 1.6-10.9 1.3-15.9 1.8-1-9 4.6-22.6 7.4-30 .3-.5.4-1 .6-1.6 0 .2 0 .3.2.4l3.7 1.5h.1c.2 0 .4 0 .5-.3 0-.2 0-.5-.3-.6l-3.6-1.5c-.2 0-.4 0-.6.2.3-1 .7-2 1.6-2.3 3-1 6.2 3.5 8.7.3-.3-2.9-5.6-3.9-6-6.7-.4-1.6 2-5 3.4-7.4 1.3-2.3 2.6-4.1 4.2-6.4 3.7-5.2 6.3-9.3 9.6-11.9.2-.2.4-.4.8-.5 6.5 6.8 12.7 13.9 14 26zm-7-24.5c-.6-.2-1-.5-1-1l1 1zm2.5 5.4c-.3 1-1.7.3-1.8-.3.2-1 1.7-.4 1.8.3zm-1.6-5.8l-1.8-1.7.2-.2c1 .1 1.6.7 1.6 1.8zm-51.7 27.8l.7-2 2 .8-2 3.6c.1 2.9-1 5.6-2 8.2-1.9 5-3.4 10.5-4 17l-.8 8.5c-.2 1.8-.4 4.4-1.9 5.5-.9-7.3.1-15.4 2.2-21.2-.4-6.6 3.8-14.8 5.8-20.4zm100.8 39.3c-1 2.7-2 5.2-2.1 8.7-42.8 1.4-88.3.3-130.8 0 2.7-1.5 7-.4 9-2.1 4.2.3 8.7.5 11.7-1.3 2.3 2 4.4-1.4 6.4-.3 1 0 .7-1.2 1.5-1.3 1 0 1.2.7 1.9 1 .8.1.8-.6 1-1 1.1 0 1.2 1.1 2.2 1.3 1-.8-.5-2 .8-2.7 2.5-.5 2 1.9 3.7 2.2 1.2-.3-.8-1.6.3-2.4 2-.4 1.3 2 2.9 2 1.2-.4-.6-1.2-.3-2.3.4-.3.8-.4 1-.8 2.5-.2 1.8 2.7 3.8 3 1-1-1-2.1 0-3 1.8-.5 2.1 2.8 3.4 2.4 1.7-.5-1.7-2.3 0-3.5 2.8 2.2 3.6 3.7 2.7-.2 2.4-.3 2.3 3 3.4 2.6 1.5-.3-1.4-2.3.3-3.4 2.4-.3 2 2.3 3.7 2.6.9-1.1-1.5-1.8-.5-3.1 2.6-1.3 2.7 2 4.5 2.3 1.5-.6-1-1.9 0-2.9 2.9-1 2.8 3 4.8 3.7.9-1.4-1.5-2.8-.3-4.5 2.5-1.1 4 5.4 5.6 5 1.6-.3-2.3-3.7-2.2-5.2 2.8-2 3 2.7 5.4 2.9.9-1.5-2.7-2.5-.8-4.3 1.8.3 2.2 2 3.4 3 1.5-.9-1-1.5-.5-3 2-1.6 3 1.5 4.5 2.2.8-1.1-1.6-2.4 0-3.5 2.8.3 2.6 3.6 5 4.3 1-1.9-3.2-3-1.3-5 3 .5 3.3 3.6 5.6 5 1.4-1.6-2.7-3-1.6-5 3-.6 3.1 4 5.8 4.7 0-2.6-2.5-2.7-2.4-5.3.6 0 .6-.7 1-.8 3 1.3 3.6 5 6.2 6.6 1.5-2.6-3-3.7-3.2-6.3 4-1.9 4.3 4.3 7.4 5 1-2.1-2.6-3.6-3.1-5.8 3.9-2.4 4.1 5 7.6 5.5.5-2.7-3.2-3.6-3.7-6.3 4-.6 4.5 6 8.5 5.5-1.3-2.2-3.6-3.4-4.5-6 1.8-.7 3 .2 4 1.4l-2.7-1.1a.5.5 0 10-.4.9l3.7 1.5H162.9c1 1.4 2 2.8 3.3 3.3 1-2.6-3.8-3.8-4.2-6.9.4-.1.6-.4.8-.8 2.9 1 4.3 4 6.2 6l-2.5-1a.5.5 0 00-.4.9l3.7 1.5h.2c.1 0 .3 0 .4-.2l1.1.5c-.6-2.6-4.2-4.6-5.3-7.7 5-.2 6.3 7 10.6 7.5-.1-2.9-5-4.7-4.7-8 4.2 1.8 6 6 9.3 8.8a32.3 32.3 0 01-1 3.2zm-.7 23.6l.7-.8h.8v.2l-1.5.6zm3 2.6c0 .5-5.5 7.4-7.3 7.7-1.6.3-2.5-.4-3.2-.8 1.7-3.5 4.5-6 7-8.8a.5.5 0 00.6.4l2-.9c.5.7 1 1.5 1 2.4zm-4.7 7.7c1.6-2 4.7-7.8 7.2-4.8-2 1.7-4 7-7.2 4.8zm3.2 9c1.4 2.5 2.5 7.9 1.3 11.2-2.1-1.7-3.6-9.2-1.3-11.2zM126.4 289a119.3 119.3 0 01-15-19.1c-1.3-2-4-5.7-3.8-7.4.2-2.2 3.3-2.7 3.7-4.5-1.5-1.6-3.6.5-5.8 0l-2.3-4 .7-.3c.2 0 .3-.3.2-.6a.5.5 0 00-.6-.3l-.7.3c-3.3-7.2-4.8-16.2-7.4-24 .6-2.9-.9-5.6-.8-8.8.6 0 .5-.7 1-.8 6.2 2 13.3 1.1 19 3.2 3.7 1.4 6 5 9 6.9-1.4 4.5-4.3 7.6-6.2 11.6 1.3 2 3.7 2.6 6 3.4l-1.8.8c-.3.1-.4.4-.3.6a.5.5 0 00.6.3l3-1.2c1.7.6 3.3 1.3 4.2 2.8-1 3.9-2.4 7.5-3.7 11.1 3.8 1.4 9.6.8 12.5 3.2-.5 4.3 1 7.6.5 10.9-.5 3-4 6.1-5.6 8.5-2 2.9-3.9 5.8-6.4 7.4zm4.3-1.3c-.2-1.4.9-2.1 1.7-1.7l-1.7 1.7zm-18 13c-.3-2.3 2-2.3 2.3-4.3-1.3-1.1-2.6 1.5-4.2 1.9-4.3-1.1-1.2-4.3.3-6.1-1.3-1.2-2.1 1.3-3.8 1.3-1.6 0-2-1.1-2.9-2.7 1.9-3.7 5.4-5.9 7.5-9.5-2.2-2.8-14.2 4.3-14.4 0 0-2 2.5-.9 2.7-3.2-1.3-1.6-2.8 1.7-4.5.5-1-2.2 2.4-2 2.6-4-1.6-1-2.6 1.7-4.2.6-.2-2.6 2.3-4.4 4.2-5.8 2-1.5 4.6-2.5 5.9-4.5 0-.3.5-.2.5-.6h.8c4.5 7 10.7 17.6 16.4 23.4 1 1 3 1.8 3.2 2.9.4 2.5-2.7 5-4.7 7.4l-5.3 5.3c-1-.8-2.4-1.9-2.4-2.6zm-5-16.8c.1.9-3.7 4.8-3.7 5-.5 0-1.4-.7-1.4-1.4 1.3-1.6 5-3.4 5.1-3.6zm-6.1 2.4c-.9.1-1.2-.4-1.4-1 .2-1.3 6.3-2.3 6.3-2.3s-3 3.1-5 3.3zm-29-70c.2-.4.7-.6 1.3-.5 2 1.3 1.4 4.2 1.6 6.4a108 108 0 005.9 27.8 33 33 0 002.9 10.3c5.5 12 12.3 25 20.1 34.5 1.5 1.8 3.6 3.5 5.3 5.3l4.2 4.4-1.7 1.7c-15.8-16.9-30-37-35.4-63.4-.4-2.2-1.6-4.5-2-6.9a96.9 96.9 0 01-2.2-19.6zm8.2 26.5c0-1.6 3-1.1 4-.8-.5 1-3.3 2.4-4 .8zM84 245c-.3.9-1.7 1.4-2.4.5.3-1 1.7-1.5 2.4-.5zm20.6 17.2c-2.3 2.8-8.7 7.9-11.6 10-1.4-.4-2-1.8-2.4-3.4a50.1 50.1 0 0114-6.6zm-6.3.5c-2.7 1.4-5.4 3.2-8.5 4-6.8-5.3 10-6 13-6.4-1 1.6-3 1.7-4.5 2.4zm1.3-7.7a.5.5 0 00.7.2l1-.4 1 3.2c-3.8 2.2-10.2 1.7-14.8 3.1-.3 0-.5-.2-.6-.3l2.5-1c.3-.2.4-.5.3-.7a.5.5 0 00-.6-.3l-3 1.2c-1-1.8 2.2-3.4 3.7-4.4-1.1-1.4-3.2.3-4.7.2-.2-.3-.4-.6-.8-.8-.7-3 2.7-2 3.2-4-.9-1.3-2.4.5-3.8.3-6-5.3 7.7-5.9 9.9-10-3.7-2.2-9.7 0-13.6-1.4-.7-1.3-.9-3.1-1-5 1-1.6 4-1 4.7-3-1.2-1.3-2.9.4-4.5.3-.8-.8-1.1-2-1-3.7.6-1.3 3.5-.3 4-1.8-.5-1.5-2.3-.2-4-.6-1.6-1.7-2-7-1-9.5 5.4 1 12.3.6 16 3.4 1.2 12.7 4.4 23.4 7.8 33.9l-1.1.4c-.3.1-.4.4-.3.7zm48-12.7l-2.6-5.5 2.2-1a.5.5 0 10-.4-.8l-2.2.9c-1-2.3-1.7-4.5-2.5-7.1 0-.2.3-.3.3-.5.2-.1.2-.3.5-.3a289 289 0 0115.3 2.3l-.5.2a.5.5 0 00.1 1l.2-.1 2-.8c2.8.5 5.5 1.2 8.4 1.9-1.3 4.1-4.2 6.1-6.7 9.8-.9 1.4-2 3-3.4 4.8-.7.8-2.5 4.4-3.7 4.5-2.3.1-5.8-7.2-7-9.3zm-4.2 7.7a9.1 9.1 0 014.5-2.7c1.8 2.2 3 4.8 4.8 7-.5 1.8-1.6 2.9-3 4-3.2-1.7-4.6-5.1-6.3-8.3zm-3.2 11.7c.9-1.9 4-4.3 5.3-4 .9.2 2.2 2.2 2.2 3.2 0 1.6-2.4 3.7-3.5 5-1.4 1.8-2 3.6-3.7 4.5-1.3-1.8-1.5-6.1-.3-8.7zm.8-10.4c1.5 1.3 2.8 2.6 3.2 4.8-2.3 3.7-9 4.7-13.5 2.1a26 26 0 0110.3-6.9zm-4-6.3c2 .1 2.2 2.6 3.2 4.5-3.5 2.6-7.7 6-11.9 7.1.5-1.6.3-5.4 1.9-7.7.2-.3 6-4 6.9-4zm-2.9-8c.7.7 1.2 1.7 1.6 2.7a.5.5 0 00.3.6l.8 2.5c-1.8 1.2-3.6 3.1-5.8 3.2-1.5.1-3.5-1.1-5-1.8l-.2-.1a.5.5 0 00-.6-.2c-1.4-.6-3-1-3.5-2.1 3-2.7 8.2-3.3 12.4-4.8zm6.4-4.8c-1.9.3-3 2-4.5 1.6-2.2-.5-2.4-4.8-2.4-7.1 3.8-.8 8.2 1.3 7 5.5zm2.5 4.9c0 .2.2.3.3.3l1 2c.8 2 2.6 4.5 2.3 6-.2 1.3-2.5 3-4 2.7-2.2-.3-3.6-4.9-4.8-8.4l2.2-.9a.5.5 0 10-.4-.9l-2.1 1c-.3-1-.7-1.9-1-2.4 1-1.4 2.8-1.9 4.5-2.4.8.4 1.4 1.4 2 2.6 0 .1-.1.2 0 .4zm-22.7-12.8c3.8 0 9.7.2 11.4 3.2-4.2 3.8-9.9 0-11.4-3.2zm11.4 5c1 .4 2.1 3.3 2 4.5-.4 1.8-2.2 1.7-4 2.4-2.4 1-5.7 3.4-8.3 2.7.4-3.7 2.5-5.7 4-8.3 2.1.4 4.6-2 6.3-1.3zm40.1-4.1a.5.5 0 00.7.2l2.3-1v.1c-2.4 2.4-4.7 7.2-9 5.3.2-.7.6-1.4 1.1-2l2-.9c.2 0 .3-.4.2-.6a.5.5 0 00-.6-.3l-.3.1c1.2-1.3 2.7-2.6 3.9-4 2.2-2.4 4-5.4 6.9-7.1.7.6.7 2 1.3 3-.7 1.6-2.3 3.3-4.1 5.1a.5.5 0 00-.5 0l-3.6 1.4c-.2.1-.4.4-.3.7zM53 209c1.2-1.5 3-.6 4.6-.6 8.8.3 16.2-.6 25-.2 7.5.3 12.6 0 19 .8 23.6-1 50.9-.4 76.7-.3v.3H53zm16.8 1.5c-1.5-.6-1.8 2-3.7 1.9-1-.3-1.4-1.3-1.9-2.1-.9.2-1.1 1.1-2.4 1-1.8-.9-3.5-1.1-5.4-1.4h122.1c.2.9.6 1.7.6 2.8-3.5 3.2-7.6 8-11.4 12.4l-1.3 1.6-1.4.6a.5.5 0 000 1c-.8.7-1.8 1.2-3 1v-.2a.5.5 0 00-.6-.3l-.4.2-.2-.2c2-5.7 7.5-8 10-13.2 1-.7 2.2-1 2.2-2.7-2.9 2-6.4 6.2-9.6 9.6-2.1 2.3-4.4 7.7-8.7 5 .5-2.1 2-3.3 3.7-4.2 2.1-4 5.9-6.5 8-10.6-2.9 1.3-5 4.5-7.2 7.1l-7 7.7c-1.3 0-2.4-.1-2.8-1 2-4.5 6.6-6.5 8.2-11.4-4.7 1.4-7.7 13.4-14 10.6 1.3-4.8 6.3-5.9 7.4-11-3.6 2.3-6.2 7.7-9.9 10.7-1.4 0-2.7 0-3.4-.8 1-3.9 5.5-6.6 7.4-10.6-4-.2-8 14.4-13.5 9.3 1.7-4.1 6.6-6.5 7.4-10.6-2 .6-3.1 3.3-5 5.5-2.3 2.8-4.4 7.1-8.3 4.3 1-3.5 5.3-6 6.7-9.8-4.2.7-6.4 12.7-12.5 9 1.3-3.6 4.6-5.2 5.8-8.8-2.9 1.5-5 6-8 8.5-1.2-.1-2.7 0-3.4-.8.2-2.6 3.8-4.2 4.5-7.1-3.6.2-5 9.7-10 6 .4-3 3.3-3.5 4-6.3-3.6.9-5.3 9.4-9.9 5 .8-2.3 3-3.1 3.8-5.5-2.8 1-3.5 4-5.6 5.5-1.4 0-3.2.3-3.7-.5.3-2.8 2.9-3.2 3.4-5.8-2.8.2-3.8 7.2-8.5 4.7-.6-1.3 1.7-1.8 1.6-3.4-2-.2-3.8 5.7-6.6 2.4.3-2.2 3-2.2 2.9-4.8-2.5.9-2.9 3.8-5 5-1.2 0-2.3-.3-3-1 .1-1.8 2.6-2.5 2.2-4-2 0-3.5 6.2-6.7 3.5 0-1.7 1.5-1.6 1.4-3.2-2-.5-3 4.6-5.6 2.6-.9-1 1-1.3.8-2.6-1.6-.9-2.2 2.8-4 1.8-1.6-.2 0-1.8-.5-2.4zM132 317.8c-.1-1.8 1.5-3 2.7-2.6-.5 1.2-1.2 3.2-2.7 2.6zm4-.3c-.3.6-.4 1.4-1.3 1.4-.3-1.1.6-2 1.3-1.4zm7.2 7c-.2-2.1 2.8-3.1 1.3-4.8-2 .3-1.4 3-3 3.7-1.2.2-1.7-.4-2-1-.1-2 2.2-2.9 1.3-4.9-2.3 0-2 3.9-4 3.2 0-3.7 4.6-7.6 3.2-12-2.4 0-7.6 7.1-10.1 7.3-1.3 0-3-1.2-3.2-2.7-.1-2 2.3-2 1.3-4.5-1.6.4-1.4 2.6-3.1 3-1.4-.5-2.4-1.2-3-2.5.2-1.7 2.6-2.3 1.9-4-2-.6-1.6 2.2-3.5 2.4-1.6.2-2.6-2-4.2-3.7l-.2-.2 2.9-2.9v.2c2.1.3 3.6-1.4 5.3-2.7 1-.8 3.2-3.4 4.7-3.4s3.8 3.3 5.3 4.5c1.7 1.3 4.9 2.7 7.2 4.5 1 .8 1.6 1.8 2.4 2.4 1 .7 2.5 1 3.4 1.6 1 .6 1.5 1.6 2.2 2.1 2.4 1.7 5.2 1.7 6.6 4-2.8 2.5-8.3 16.3-12.7 10.3zm13.5-3.5c-1.4 3-2.3 6.5-4.5 8.7-1.6-.4-3-1-4-2 2.8-6.3 8-10.1 11.4-15.7h.8c-.3 3-2.3 6-3.7 9zm3 9.3a3 3 0 01-.8 2l.1-.1.8-2zm-.1-2.1l-1.5 3.6v.5c-1.5-.4-3-1-3.8-2 2-6.2 4.7-11.6 7.4-17 .5 0 .5.2.8.3-.3 4.6-2 9.2-2.6 13.8v.6c-.2 0-.3 0-.3.2zm-22.5-45.6l.5-.6c0 .2-.2.4-.3.5l-.2.1zm1 1.5c1 .3.4 2-.8 1.6-.3-1 .4-1.2.8-1.6zm3.7-1.3c-.8.3-.7.1-1.3-.3 0-1.3 1.8-1.4 1.3.3zm6.1-4.8c-2.2 0-2.2-2.9-.5-3.4 1 .3 1.5 2.7.5 3.4zm18.3-22.3c2.6-2.6 3.2 5.2 2.2 7-2-1.2-1.7-4.5-2.2-7zm-2.4 2.2c1.8 1.1 2.2 6.1.3 7.1-1.4-1.3-2-5.9-.3-7.1zm4.6 17.5a15 15 0 01-6.4-4.8c1.7-5.1 7.1-2.8 9.3.5-.8 1.6-1.6 3.2-3 4.3zm11.7 6l1.4-3.3c0-.3 0-.6-.3-.7a.5.5 0 00-.6.3l-1.4 3.4c-1.5-.6-3.2-1.5-4.5-2.3-2-1.2-3.8-1.2-4-2.6-.2-1.8 1.6-2.6 2.7-4 3.5 1.7 7.7 2.7 10.3 5.3 0 3.6-1.6 4.3-3.6 3.8zm3.4 3.8a9 9 0 014.8 1.6c0 7.2-5 10.8-9.6 12.4.7-4.5 2.6-10.1 4.8-14zm-19.1 1.8c1.3-2.3 3-7.6 5-8 1.6-.2 3.4 1.6 4.8 2.7-.4 6-6.4 8-11.4 8.5-.7-1.2.8-1.7 1.6-3.2zm3.2-9c-2.2 4-3.8 8.6-7.2 11.4-2.1-7.1 1.6-18 7.2-11.4zm-7.2-16.4c2 .6 3 6.4 0 6.6-.8-1.5-2-5.6 0-6.6zm-2.7 3.7c.7 1 1.4 4.2 0 5-1.2-.3-2.2-5.2 0-5zm-4.7 4.2c.9-4.5 5.2 3.1.8 3.5.1-1.5-1-2.6-.8-3.5zm-2.7 2.2c2.6-.6 2.3 3.7.8 4.2-1.7 0-1.6-3.3-.8-4.2zm8.5.5c1.4 0 2 .6 2.7 1.3-.8 4.3-6.7 4.8-10.4 5.3 1-2.7 5.5-4.2 7.7-6.6zm16.4 19.7a.5.5 0 00-.6.2l-.1.3c-.5-1.6-1-3.5-.8-4.8.5-4.7 4.5-6.6 7.7-2.4-1.6 4.6-2.8 9.5-4.8 13.5-1.1-.9-1.3-2.8-1.7-4.7l.6-1.5c.1-.3 0-.5-.3-.6zm-41.6-7.2h-.3c0-.4 0-.5-.2-.6.1-1 1-1.3 2.1-1.6.4-.8 0-.9 0-1.8a4 4 0 012.4-1c.4-1 0-1 0-2 .5-.6 1.9-.3 2.4-1 0-.9-.5-1.1-.3-2.1.6-.8 2.6-.3 3.2-1 0-1-.8-1.3-.8-2.2.5-1 2.5-.5 3.2-1.3 0-1-.9-1-.8-1.9.5-.8 2.3-.3 3.2-.8.3-1.4-1-1.1-.8-2.4.8-.6 3 .2 3.4-.8.1-1-1.7-1.2-1-2.1 1-.4 2.5-.5 3.1-1.3 0-.9-1.1-1.2-.5-1.9.9-.7 3.6.4 3.5-1.3 0-1-1.4-.6-1.6-1.3-.1-2.7 3.7.1 4.5-1.9 0-1-1.2-.7-1.4-1.6 1.4-.5 2.6.4 3.5-.5.1-1.6-2.2-.7-2.7-1.6.4-2.4 4.6.4 5.9-1.3-.3-1.6-3.3-.4-3.7-1.9.8-2.5 5.4.6 6.9-1 0-2.3-3.6-.7-4.5-1.9.8-2.7 6 .7 7.1-1.6-.6-1.5-3.9-.3-4.8-1.6.8-2.5 5.6.1 7-1.3 0-2.3-4.4-.2-4.6-2.4 1.5-1.8 5.8.6 8.3-.5-.3-1.5-2-1.7-3.8-1.6 1-1.3 2.9 0 4.3-.6 1.5-1.9 5.5-1.2 6.9.6l-.1.1-49 49zm43-40.1c.2-.2.7-.2.8-.5.4-.1.4.2.8.2.9 2.4 3 8.8.5 10.4-1.6-.6-1.3-3.5-1.9-5.3-.4-1.4-1.1-3-.2-4.8zm-5.3 15.6c-1.8-1.3-3.5-9.2 0-8.7-.4 3.1 2.7 7.5 0 8.7zm3.2-2.6c-1.2-2-2.6-8-.6-9.8 1.5 1.6 3.5 8.7.6 9.8zm-1.1-10.9a29 29 0 01-2.5 2l7.5-7.4c-1.6 1.9-3.2 3.7-5 5.4zm12 2.4c-1.4-2.6-3.3-8.1-2-10.9 2.2 1.9 2.4 8.3 2 11zm-.3-15.9c-1.1.4-2.3.3-3.2-.8 1.1-2.5 4.4-5.4 6.2-2.2l-3 3zm-.4-82.3l1.5 3.6a.5.5 0 00.6.3c-.5 4-1.3 8.1-2.5 11.8-3.6-1.2-6.4-4.3-9.8-6.6-3.3-2.2-7.2-4.5-9.3-7.7a70.8 70.8 0 0122.5-12c2.2 1 .8 3.6.6 5L187 154l-1.4-3.4a.5.5 0 00-.6-.2c-.3 0-.4.4-.3.6zm-36.3-90.6l-.7-1.6c18.2-7.4 38-11.7 58.9-12-.4 2.5-.8 5-1.4 7.4l-1.8 7.7c-.6 2.6-.4 5.7-2.7 7.2-2.5-.5-4.5 0-6.6.3-5.4.7-11.4 2-16.7 3.1-7.6 1.7-14.7 3.8-21.3 6.5l-.3-.6a.5.5 0 00-.6-.2c-.3 0-.4.4-.3.6l.2.6a154.3 154.3 0 00-40.3 25c-1.5 1.2-2.4 2.7-3.7 4-.4.3-1 .5-1.5.7l-15-15a163.2 163.2 0 0152.2-34.9l.7 1.6a.5.5 0 00.6.2c.2 0 .4-.4.3-.6zm-86.5 87.4l-2.7-1.2c8.1-19.5 20-37 34.7-51.8l14.8 14.8c-.9.9-1.4 2.3-2.4 3.3a199 199 0 00-8 8.7c-4.6 5.3-8.7 12.6-12.2 18.6-2.3 4-3.9 7.5-5.8 11.7-2 4.3-4.6 8.8-6.1 13.5-.6 1.8-.7 3.8-1 5.8-.7 3.4-2 7.2-2.5 10.6-.9 6.5-1.2 12-1.6 18.3-4.3 2.5-10.5 2.7-16.1 3.7l-6.4 1.3c.5-20.3 4.8-39.7 12.2-57.5l2.8 1.1a.5.5 0 00.6-.3c.1-.2 0-.5-.3-.6zM61 271a.5.5 0 00-.7-.3l-1.6.7c-1.3-3.2-2.4-6.4-3.5-9.6 5.7 5.5 10.9 11.8 11.6 16.3.5 3 .3 6.7 0 10.3-2.8-5.2-5.4-10.6-7.7-16.1l1.5-.7c.3 0 .4-.4.3-.6zm8.1 21.2c.2-3 .4-6.2.4-9.3 0-1.8 0-3.5-.3-5.2-.4-2.7-1.9-5.3-3.8-8l2.5-1c.2-.2.3-.4.2-.7a.5.5 0 00-.6-.3l-2.7 1.2c-3-4-7-8.2-11.1-11.8-4.6-14.8-7-30.5-7-46.8l7.4 1.2 8.3 1.9c3 .6 6.2.6 8.2 2.6.2 7.2 1.8 14.3 3.2 20.7 2 9.6 4.2 17.6 7.4 25.4l-2.9 1.2a.5.5 0 00.2 1l.2-.1 3-1.2a149 149 0 0029.5 44.4l-17.2 17.1c-9.6-9.6-18-20.5-24.9-32.3zm1 10.4c-.6-.5-1.2-2.9-1.1-6.2V294c6.8 11.4 15 21.8 24.3 31.2L79.3 339a34.8 34.8 0 01.8-11.5c.2-1.6.4-3 .4-4.5 0-10.6-7-17-10.4-20.5zm78.2 54.3a.5.5 0 00-.6.2l-1.2 2.8c-19.5-8.1-37-20-51.8-34.7l17.2-17.2c4.5 4.4 9.2 8.4 13.6 12.8 3.9.8 6.1 4.3 9.3 6.1 1.1.7 2.5.7 3.7 1.3 1 .6 1.9 1.9 2.9 2.4 2 1.2 4.3 2 6.4 3.2a98 98 0 007.9 4.2l-.5 1.1c-.1.3 0 .5.3.6h.2c.1 0 .3 0 .4-.2l.4-1c7.1 3.2 14.8 5.6 24.2 6.7a68.9 68.9 0 0020.1 2.1c2.8 1 2.5 4.3 3 7 .9 5.7 2.1 11.5 3.1 17l.2 1.2c-21-.3-41.2-4.6-59.6-12.2l1.1-2.8c.1-.2 0-.5-.3-.6zm46.2-55c-2.6-2-4-5.2-6.1-7.9 0-3.5 2.3-9.4 4.7-4.5-.3 4.3 1.9 9 1.4 12.5zm-4-25.4c-2 .8-4-.6-5-1.6-1 0-1.7-.2-2.4-.4l1.5-3.5c0-.3 0-.6-.3-.7a.5.5 0 00-.6.3L182 274c-2.5-.7-4.3-2.2-7.1-3.8-1.8-1-6.2-2.4-6.4-4.5-.2-2.2 6.4-5.7 8-6.9 3.7-3 5.7-4.9 8.7-6.9.3 0 .5 0 .6.3 1.7.8 1.1 3 1.3 4.8.7 6 3 13.6 3.2 19.3zm1-23.3h.1c-.7.9-1.5 1.6-2.7 1.8-.2-.3-.4-.6-.8-.8.8-2.4 2.7-3.7 4.5-5l-1.4 3.3c-.1.3 0 .6.2.7zm-4-66.9h-.6l-3.4-3.4a3 3 0 011.7-3.2c0-.8-.7-.9-.8-1.6.7-4.8 6.8 3 7.4 5-.5.1-.5.8-1 .9-2.6-.5-2.7-3.4-5.1-4-.3 1.8 4.6 3.7 1.9 6.3zM208 50.4c.3.1.4.5.8.6 1 15.2-1.6 30.6 0 43.7.1 1.4-.6 2.9-.6 4.3.3 23 .3 49 .3 77.2-3 3.7-5 0-7.7-2.4-3-2.8-5.4-4.7-8.6-7.7l-.5-1.1a.5.5 0 00-.7-.3l-.2.3c-2-1.7-4.4-3.4-2.7-6l1.2 2.7a.5.5 0 00.6.3c.3 0 .4-.4.3-.6l-.9-2.1c5.2 3.5 9 8.3 14.2 11.8-.5-2.7-4.5-4.9-7.5-7.4-2.2-2-4.7-4-6-5.6-1.3-1.4-2.4-3.5-.6-5.3 5.2 3.6 9.5 8.2 14.6 12 .4-1.1-1.2-2.7-2.1-3.5l-7-6c-2.2-2.2-8.2-4.6-4.4-7.8 4 2 5.9 6.3 10.6 7.7-.6-1.7-2.9-3.2-5-5-2.6-2.2-7-4-5.1-8.3 4.4.4 5.8 5.9 10.3 7 0-2.3-3.5-3-4.5-5.1-2.4-1-3.6-3.1-5.5-4.5.1-1.3 0-2.8.8-3.5 4 .9 6.4 5.7 10.6 7.2-.2-1.7-2.6-3.3-4.8-5-2.8-2.2-7.7-4.2-4.5-8.3 4.2 2 6.3 6 10.6 7.7 0-2-3-3.3-5.3-5.3-2.8-2.4-7.4-4.4-4.5-8.2 4 1.3 6.5 5.7 10 6.6-.8-1.4-2.6-3-4.7-4.7-2.6-2.2-7.5-3.7-4.3-7.7 3.2 1.5 5.3 4 8.3 5.8.8-1.7-1.6-2-2.4-2.6-2-1.7-4-4-5.9-5.6.3-1.3.2-2.9 1.1-3.5 2.7 1 4.4 4.2 7 4.5-1-2.6-5-4.2-7-6.6 0-1.3 0-2.5.5-3.2 3.2.2 3.7 3.1 6.4 3.7-.2-2.7-4.5-3.6-5.8-6 0-1.5.1-2.7.8-3.5 2.5.5 3.2 2.8 5.5 3.4-.2-2.2-3.8-3.4-5.3-5.3 0-1.5 0-3 .8-3.7 2.6.4 3.1 3 5.6 3.5-.2-2.8-7.3-4.2-4.2-8.5 1.4 0 1.2 1.6 2.9 1.3-.9-2.1-4-3.1-3-6.4 2.9 0 3 2.8 5.4 3.2 0-2.3-3.7-3-4.8-5 0-1.4.2-2.5.8-3.2 1.9 0 2.4 2.4 4 1.9-.8-2.3-5.4-3.2-3.5-6.4 1.6-.3 2 1.7 3.2 1 .2-1.7-3.1-2.1-3-4.7 1-1.2 2 0 3.3 0-.3-1.8-3.2-2-1.9-4.5 1.3-.4 1.7.8 2.4.2.6-1.4-2-1.7-2.1-3.1 0-1.6 1.5-1.7 2.4-2.4-.3-1-1.3-1.2-1.4-2.4 2-2.8.7-6.7 2.7-9.6zM10 292.5v5.7l-2.2-5 2.2-.8v.1zm21.8-95c-1.5-.5-1.5-4.6-.5-5.8 1.6.7 1 4.2.5 5.8zM9.6 126l-1.6-.7 2-4.3-.4 5zM416.4 3.3l-1-.5-7 7c-3.3-3.3-6.7-6.5-10.2-9.7h-1.5c3.8 3.4 7.5 6.9 11 10.4l-.4.6c-1.5-.2-3.2-.4-4.5.3-1.3-1-2.8-.4-3.9 0-.8-.7-2.8-.8-4.3-.2-1.7-.7-3.7-.4-4.1.3-2-1.6-3.6.4-6.1-.9-2.5.6-4 .2-6.5.1-.3 0-.4.2-.4.3-.1-.3-.6 0-1 .2 0 .2-.2.4-.3 0h.3v-.7h-2c-1.5 0-3.6.8-3.4.8-.5 0-.9-.4-1.2-.5-1.3-.3-3.7 0-5.6-.2-2.7 0-5.7-.2-7.5.4-.1-1.2-2.8 0-3.6 0-1.1 0-2.2-.7-3.2-.7-1.9 0-3.4.9-5.5-.1-4.4 1.1-10-.4-14.3.1-6.6.9-14.7-.5-22.5 0-.7 0 .6.8-.2.8.1-1-1.2-.4-1.5-1l-5.1.2-6.8-3 1.3-3.3c.1-.3 0-.6-.2-.7a.5.5 0 00-.7.3l-1.3 3.3C287 4.3 280.7 2 274.3 0H271c9.5 2.8 18.7 6.2 27.6 10.2-12.8 0-25.8-.6-39.5.2-7-.6-14.3-.6-20.2-.3-.5-3.6-1.5-7-3-10h-1.6c.7 1.2 1.3 2.4 1.6 3.5 2 8.3 1.2 15.7-1.3 24-4 4.1-7.6 9.5-13.5 11.6-1.4.5-3.6.3-5.7.6-1.6.3-3.2 1-4.6 1.2L210 38c-.3 0-.3-.3-.5-.3 0-.2 0-.3-.3-.3 0 .4-.4.5-.5.8l-1 2.9c-3.2-.3-7.8-1-10-1.8-5.3-1.9-14.7-10.2-15.6-17-.2-1.3 0-3.4 0-5.1 0-7.3.5-12.4 2.8-17h-1.8a43.1 43.1 0 00-3 10.9l.2-.8-26.3-.2c1.1-1.4 1.7-3 2-4.5.5-1.7.7-3.4 1-5.1V0h-2.5c-.5 3.5-.9 6.8-2.4 8.4-.4.5-.7 1-.8 1.5a1515.8 1515.8 0 00-23.8 0v-.3l-.9-2.1c7-2.9 14-5.4 21.4-7.5h-3.4a218 218 0 00-18.4 6.6L126 6a.5.5 0 00-1 .4l.3.5-6.5 2.9L78 9.7H63.8c4.1-2.9 7.6-6.2 11.3-9.6h-3.6a82.4 82.4 0 01-11.9 9.6c-16.3 0-32.8 0-48 .3 3.5-3.4 7-6.7 10.6-9.9h-1.5c-3.5 3.2-7 6.4-10.3 9.7L.7.1H0v.7l9.7 9.7L0 20.8v1.5c3.3-3.7 6.7-7.3 10.2-10.8l-.4 33.4A524 524 0 000 52.7v3.1L9.8 48c0 4 0 8-.2 11.9L9.7 73c-1.3-2.2-1-7.6-1-7.6s-4.5 12-8.6 8.4H0v2.8c.5.2 1.1.3 1.7.3 2 0 3.3-1 4.4-2.1l1.1-1.4.3.7c.5.7 1.2 1.6 2.3 2a402 402 0 01.3 18.1c-.4 7.3-.7 15.6 0 21-.7 1-.4 2.3-.3 3.6-3.8 8.3-7 17-9.8 25.8v3.5c2.2-7.5 4.7-14.8 7.7-21.9l1.9.8v1.6c0 .8.5 1.6.5 2.4 0 4.6-.6 11.4-.5 20.3v2.5A42 42 0 000 160v4.3l.5-1.5a44 44 0 019-6.3v4.2c-3 2.4-6.6 5-9.5 8v3.6l1.8-1.9c2.2-2.4 5-4.5 7.8-6.7l.2 2.4c0 .3.3.8.8 1.2-.8-.6-.6-.2-.8.2-.3 1 .5 3.7.4 5.8-.2 2.3 0 3 0 5v1.5c-2.7.2-5.3.5-7.9 1L0 182v2.8a29.4 29.4 0 0125.7-.5c3.6 1.8 9 7.3 11.9 12.1-1.3 1.9-3 3-5 1.4 0-1.7 1-6.8-1-6.9-1.2 0-1.8 2.9-1.5 4.8.3 1.5 1.3 1.8 1.6 2.8a74 74 0 01-10.2 24.8 54.7 54.7 0 002.8-16.8c.2-4-1.8-6.4-2.1-9.2-.7-.2-.6-1.2-1.4-1.2 1 4.4-.4 9.2-1.6 13-.4 1.6-1.3 2.7-1.4 4.7l-2.1 5.1c-.8 1.8-1.2 4-2.3 4.8 1-2 .6-4.6.8-7.5.1-3 .8-6 .4-8.8-.4-2.5-1.7-5.4-3.4-6.7-.7-.6-2-.7-2.8-1.1-1.5.8-3.4 3-3 5.1.7-2.2 1.9-5.4 4.5-3.8 3.7 6.3 3.4 19.5 2.1 27.6a7 7 0 002-4c.2 0 .4-.3.6-.4 2.2-6.6 5.5-12.2 6.6-19.7.2-1-.1-2.2.5-3 0 1.4.4 3 .5 4.6.3 6.3-1.1 12.4-2 18.2-.4.8-1 2-.9 2.9 2.5-2 3.7-5.4 5.7-8 .8-2.5 2.3-4.2 2.8-7a63 63 0 004.5-13.5c2.7 1.3 4.4.2 5.5-1.7.7 1 1.1 2.1 1.3 3.1.6 2 1 4 1 6-1.2.4-2.4.8-3.3 1.5 1.1.5 2.3 1 3.5 1.3.1 5-.8 10-2.4 15.2-4 4-7.6 9.5-13.5 11.5-1.5.6-3.6.3-5.7.7-1.8.3-3.6 1.2-5.2 1.3A51.4 51.4 0 010 235v2c3.3 1 6.6 1.6 10 1.9v11.2c0 14.5.2 27.6 0 41.3h-.4l-2.1.9c-2.9-7-5.4-14-7.5-21.4v3.4c2 6.3 4.1 12.4 6.6 18.4l-.6.2a.5.5 0 10.4.9l.5-.2 3 6.9c.2 11.3.6 22.6.2 33l-.1 23.7c-1.7.3-3-.4-5.9-5.5-1.5-2.6-2.8-4.9-4.1-6.8v4.6l2 3.4a25 25 0 003.5 5c1 1.1 2.5 1.8 4 1.8h.5c0 10.4 0 20.2.2 21.3.2 3.4-.2 13 0 18.4v8.2C6.7 404 3.3 400.5 0 396.8v1.5c3.2 3.5 6.4 7 9.7 10.3L0 418.3v.3c.3 0 .5.2.8.3l9.6-9.7a285 285 0 0010.3 9.8h1.5c-3.6-3.2-7.2-6.6-10.6-10 2 0 5.9 0 9 .3.8 0 3.9.2 6.2 0 4.2 0 9.2-.9 12-.4.7 0 1.6.8 1.7 0 1.1.7 4 .2 6.5.1 1.8-.1 3.6.5 4.4-.5 0 .2-.4.5 0 .7 8-.3 27-.5 35.3-.4l2.2.2c1.1-.2 2.4-1.3 1.7 0 6.5-.8 12.8.4 19.3-.8l7.6.4c8.7 4 17.7 7.5 27 10.4h3.5c-7.5-2.2-14.8-4.8-21.9-7.7l1.3-3c1.7.1 2 .6 3.8 0l8.8.2a71 71 0 003.4 1.6c3.9 1.7 7.2 2.8 10 2.9a5 5 0 002.4-.6c1-.4 1.7-1.6 1.8-2.7v-1-.2c4.9-.2 9.8-.4 14.5-.8 2.3.3 4.9.4 7.6.5v.5c-1.6-.4-2.9-.6-4-.6-.6 0-1.3 0-2 .4-.9.3-1.9 1.6-1.8 2.7.1 1.5.7 2.2 1.3 3a20 20 0 002.6 2.2l.3.3.4.1 4.4 1.5.2.7h1.8c-.4-1-.8-2.2-1-3.2v-5.1c0-10.3 1.2-16.3 6.8-22.8 4.3-5 12-8.7 20.1-9l.1.2.1-.3c4.5-.2 9 .6 13.3 2.7a33.6 33.6 0 0113.4 15.7 41.2 41.2 0 01-.6 21.8h2.4l.8-2.5c1.1-.1 2.7-.8 5.3-2.5 2.5-1.7 4.6-3.8 6.5-5.8h.6c2.3 0 3.2-.5 4.8-.5 3.4 0 7 .9 9.2.4 1.1-.3.3-.3 1.2 0 3.6.8 10.7-1 13.8 0 2.3-.8 3.5-.2 4.6 0 1.4.2 3-.5 4.6-.6 1.5 0 3 .5 4.6.5l7.2-.1-7.5 3.2-.3-.6a.5.5 0 00-.6-.3c-.3.1-.4.4-.3.7l.3.6c-7 2.9-14 5.4-21.4 7.5h3.4c6.3-2 12.4-4.1 18.4-6.6l.8 2a.5.5 0 00.6.3c.3 0 .4-.3.3-.6l-.8-2 9.5-4.3c1.1.3 2.1-.4 3 .2.5-.2.8 0 1.4-.5-.2.7 2.4.4 3.7 0 1.2 1 4-.3 5.8.4 0-.4-.4-.6 0-.7.3.1 0 1 .4 1 .8-1.4 2.5-.1 3.7 0 1.3 0 2.8-.8 4-.4 1.4 0 6-.5 9.3.1 0-.2 0-.6.2-.7 1.8.7 8.8.3 10.4.4l4.9.2h.7c-10.3 4.4-21 8.2-32.2 11.2h8.7c10.6-3.3 20.8-7.2 30.6-11.8 11.8.3 29.3 0 42.6-.3l5.6-.2 1.9 1.9c-3.6 3.5-7.3 7-11.1 10.4h1.5c3.5-3.2 7-6.4 10.3-9.8l9.7 9.8h.7v-.7l-9.7-9.7 9.7-10.3v-1.5c-3.2 3.6-6.5 7-9.9 10.5-.3-9.2-.2-27.6 0-46.2l1.9-3.4c3.2-5.7 4.8-7.2 5-7.2h.8c.5 0 1.3-.1 2.2-.4v-2.5c-3.8 1.5-3.6-2.5-9.9 8.5.1-17.5.2-34.3-.1-42.7 0-1-.6-2.5-.5-2-.1-1 .1-2.4.1-3.6l.2-6.6 3-7 3.3 1.3h.5c0 1.1.3 2.6 1.2 4.7 1.1 2.6 1.7 4.6 2.2 6v-7.1c-.7-1.7-1-2.8-1-3.3s.1-.6.4-1l.6-.6v-3.3c-1.7 1.5-3 2.4-3.3 4 0-.2-.1-.2-.2-.3l-3.3-1.3a218 218 0 006.8-18.9v-3.3c-2.8 9.4-6.2 18.7-10.2 27.6.2-7.2.4-15 .3-22.1-.3-12.2-.3-24.8-.1-37.5 3.5 0 6.8-.6 10-1.5v-2c-1.5.4-3.4.3-5.4.6-1.7.3-3.5 1.2-5 1.3-2.9 0-9.7-1-12.6-2-5.4-1.8-14.7-10.1-15.7-17v-5-4l.6-.4-.5-.2c.3-7.6 2-12.8 6.7-18.2 6.4-7.4 20.2-12 31.9-7.1v-2.2l-2.4-.8a8 8 0 00-1.7-2.5 17 17 0 00-5.6-3.5l.1-19.7c1.4 1 3 1.6 4.5 1.6h.2c1.7 0 3.3-.5 4.9-1.4v-2.8c-3.5 2.3-6.7 2.6-9-.4l-.6-.6v-29.5l1.7 4-.6.3a.5.5 0 10.4.9l.6-.3c2.9 7 5.4 14 7.5 21.4v-3.4c-2-6.3-4.1-12.4-6.6-18.4l2-.8a.5.5 0 00-.3-1l-2 1-2.7-6.1c-.1-34-.6-68.4-.2-100.3l.2-7c3.3 3.3 6.5 6.7 9.6 10.2v-1.5c-3.2-3.5-6.4-7-9.7-10.3l7.2-7.2z" mask="url(#b)"/></g><path fill="#010202" d="M272.2 376.6c.1.3.2.4.4.4h.2c.2-.2.3-.6.2-.9l-1.2-4.7c-.1-.3-.4-.5-.6-.4-.2.2-.3.6-.2.9l1.2 4.7zM207.4 35.2c-.9-.7 0-1.4 0-2-.5-2.4.2-3.8.4-5.6 1.4 2.3 1.7 6.5-.4 7.6m10-28c-2.8-.2-4.1 1.5-5.4 3-1.6 2-2.5 4.4-4 6.1-.1 1.6-.6 3-1.5 3.9-2.3-5.1-4.2-10.8-7-15.2h-.5v.4c1 8-1.2 13.5-1.8 20.3-1 2.2-1.7 5-3 7.1-.5 1-1.6 2-3.2 2-1.8-1.3-3-3.3-4-5.5.2 3 2.4 4.9 4.1 6.6 2.2.4 3.2-.4 4-1.5a52.2 52.2 0 005.5-14c.3-1.3 0-2.6.1-3.8.2-1.5.8-2.7.2-4.4.4-.5 0-1.6.3-2.1 1.7 3.5 4 7 4.8 11.9.4 2.3-.4 4-.4 6.2 0 2-.7 5.2.4 6.8 2 3 3.6-2.1 3.6-3.5-.2-2.1-1.5-4.2-1.5-6.4.5-.7.4-2 1-2.6v-1.1c1.7-2.7 1.7-6.7 3.4-9.6 1-1.8 2.1-3.8 4.5-4 1.9.4 3 2.9 2.3 4.5 1.7-1.1 0-4.4-1.8-5.1"/><g transform="translate(116)"><mask id="d" fill="#fff"><use xlink:href="#c"/></mask><path fill="#010202" d="M.3.2l.8 4.3c0 .3.2.5.3.5h.2l.2-1L1 .2H.3z" mask="url(#d)"/></g><path fill="#010202" d="M143 287.6c-3.9 2-1-4.5 0 0"/></g></svg>
