<svg xmlns="http://www.w3.org/2000/svg" xmlns:xlink="http://www.w3.org/1999/xlink" viewBox="0 0 335 281"><defs/><defs><path id="a" d="M0 .1h334.9V335H0z"/><path id="c" d="M.3.2h1.5V4H.3z"/></defs><g fill="none" fill-rule="evenodd" opacity=".1"><path fill="#010202" d="M52.3 119.8l4 1.2h.2c.2 0 .4 0 .5-.2 0-.2 0-.5-.3-.6l-4-1.2c-.2 0-.5 0-.7.2 0 .2 0 .5.3.6M122.2 278h.2l.4-.3 1.2-4c0-.2 0-.5-.2-.7-.2 0-.5 0-.6.3l-1.2 4c0 .2 0 .5.2.7M147.2 210.3l-1.2 4c0 .2 0 .5.2.7h.2l.4-.3 1.2-4c0-.2 0-.5-.2-.7-.2 0-.5 0-.6.3M119.2 283h.2l.4-.3 1.2-4c0-.2 0-.5-.2-.7-.2 0-.5 0-.6.3l-1.2 4c0 .2 0 .5.2.7M59.3 210l-4 1.2c-.2.1-.4.4-.3.6l.5.2h.2l4-1.2c.2-.1.4-.4.3-.6-.2-.2-.5-.3-.7-.2M55.3 122.8l4 1.2h.2c.2 0 .4 0 .5-.2 0-.2 0-.5-.3-.6l-4-1.2c-.2 0-.5 0-.7.2 0 .2 0 .5.3.6M229.8 213c-.2-1 .3-1.1.5-1.6.4.2.8.4.8 1-.3.4-.5.8-1.3.6m-.2-2.7c-5 2.3 3.2 7.8 3.4 2.4 0-1.8-1.3-3.4-3.4-2.4M194.6 233h.2c.2-.2.3-.5.2-.7l-1.2-4c-.1-.2-.4-.4-.6-.3-.2.2-.3.5-.2.7l1.2 4c.1.2.2.3.4.3M235.3 195.8l4 1.2h.2c.2 0 .4 0 .5-.2 0-.2 0-.5-.3-.6l-4-1.2c-.2 0-.5 0-.7.2 0 .2 0 .5.3.6M246.3 201.8l4 1.2h.2c.2 0 .4 0 .5-.2 0-.2 0-.5-.3-.6l-4-1.2c-.2 0-.5 0-.7.2 0 .2 0 .5.3.6M165.2 163.7c.1.2.2.3.4.3h.2c.2-.2.3-.5.2-.7l-1.2-4c-.1-.2-.4-.4-.6-.3-.2.2-.3.5-.2.7l1.2 4zM314.7 229.2l-4-1.2c-.2 0-.5 0-.7.2 0 .2 0 .5.3.6l4 1.2h.2c.2 0 .4 0 .5-.2 0-.2 0-.5-.3-.6M164.2 172h.2l.4-.3 1.2-4c0-.2 0-.5-.2-.7-.2 0-.5 0-.6.3l-1.2 4c0 .2 0 .5.2.7"/><path fill="#010202" d="M240 200h-1c-.5-.8-.1-1.3.5-1.7.7.1 1 1.1.5 1.7m-1-2.9c-3.4.8-2.1 5.7 1.3 4.8 2.7-.7 2.1-5.7-1.4-4.8M314 228.2c0 .2 0 .5.3.6l4 1.2h.2c.2 0 .4 0 .5-.2 0-.2 0-.5-.3-.6l-4-1.2c-.2 0-.5 0-.7.2M287.3 119l-4 1.2c-.2.1-.4.4-.3.6l.5.2h.2l4-1.2c.2-.1.4-.4.3-.6-.2-.2-.5-.3-.7-.2"/><path fill="#010202" d="M242.3 198.8l4 1.2h.2c.2 0 .4 0 .5-.2 0-.2 0-.5-.3-.6l-4-1.2c-.2 0-.5 0-.7.2 0 .2 0 .5.3.6M243.8 183.2c.4-.2.8-.4 1.5-.3.5 1.3-1.7 1.6-1.5.3m1.2 2.8c3.1-.3 2.5-6.3-1.5-4.7-3 1.1-1 4.9 1.5 4.7M296.7 220.2l-4-1.2c-.2 0-.5 0-.7.2 0 .2 0 .5.3.6l4 1.2h.2c.2 0 .4 0 .5-.2 0-.2 0-.5-.3-.6M209.8 269.3c-.1-.2-.4-.4-.6-.3-.2.2-.3.5-.2.7l1.2 4c.1.2.2.3.4.3h.2c.2-.2.3-.5.2-.7l-1.2-4zM279.3 119l-4 1.2c-.2.1-.4.4-.3.6l.5.2h.2l4-1.2c.2-.1.4-.4.3-.6-.2-.2-.5-.3-.7-.2M214.8 277.3c-.1-.2-.4-.4-.6-.3-.2.2-.3.5-.2.7l1.2 4c.1.2.2.3.4.3h.2c.2-.2.3-.5.2-.7l-1.2-4zM257.5 131h.2l4-1.2c.2-.1.4-.4.3-.6-.2-.2-.5-.3-.7-.2l-4 1.2c-.2.1-.4.4-.3.6l.5.2M217.3 146l-4 1.2c-.2.1-.4.4-.3.6l.5.2h.2l4-1.2c.2-.1.4-.4.3-.6-.2-.2-.5-.3-.7-.2M246.5 135h.2l4-1.2c.2-.1.4-.4.3-.6-.2-.2-.5-.3-.7-.2l-4 1.2c-.2.1-.4.4-.3.6l.5.2M247 148.4c0-1.8-1.8-2.7-3.2-2.3-5.6 1.5 3.4 8.6 3.2 2.3M240.5 137h.2l4-1.2c.2-.1.4-.4.3-.6-.2-.2-.5-.3-.7-.2l-4 1.2c-.2.1-.4.4-.3.6l.5.2M232.3 140l-4 1.2c-.2.1-.4.4-.3.6l.5.2h.2l4-1.2c.2-.1.4-.4.3-.6-.2-.2-.5-.3-.7-.2M199.5 155h.2l4-1.2c.2-.1.4-.4.3-.6-.2-.2-.5-.3-.7-.2l-4 1.2c-.2.1-.4.4-.3.6l.5.2M8.5 233h.2l4-1.2c.2-.1.4-.4.3-.6-.2-.2-.5-.3-.7-.2l-4 1.2c-.2.1-.4.4-.3.6l.5.2M102.5 195h.2l4-1.2c.2-.1.4-.4.3-.6-.2-.2-.5-.3-.7-.2l-4 1.2c-.2.1-.4.4-.3.6l.5.2M125 186.2c-.2-.2-.5-.3-.7-.2l-4 1.2c-.2.1-.4.4-.3.6l.5.2h.2l4-1.2c.2-.1.4-.4.3-.6M77.3 204l-4 1.2c-.2.1-.4.4-.3.6l.5.2h.2l4-1.2c.2-.1.4-.4.3-.6-.2-.2-.5-.3-.7-.2M140.2 233h.2l.4-.3 1.2-4c0-.2 0-.5-.2-.7-.2 0-.5 0-.6.3l-1.2 4c0 .2 0 .5.2.7M89.3 199l-4 1.2c-.2.1-.4.4-.3.6l.5.2h.2l4-1.2c.2-.1.4-.4.3-.6-.2-.2-.5-.3-.7-.2M105.5 215.7c-.3.4-1.2.9-1.7.3v-1.1c.5-.6 1.4-.2 1.7.3v.5zm1.5 0c0-1.6-1.4-3.3-3.5-2.5-4.8 2 3.4 8 3.5 2.5zM141.7 156.2l-4-1.2c-.2 0-.5 0-.7.2 0 .2 0 .5.3.6l4 1.2h.2c.2 0 .4 0 .5-.2 0-.2 0-.5-.3-.6M90.5 135c.2 0 .4 0 .5-.2 0-.2 0-.5-.3-.6l-4-1.2c-.2 0-.5 0-.7.2 0 .2 0 .5.3.6l4 1.2h.2M95.7 136.2l-4-1.2c-.2 0-.5 0-.7.2 0 .2 0 .5.3.6l4 1.2h.2c.2 0 .4 0 .5-.2 0-.2 0-.5-.3-.6M90.8 149c-.9.2-1-1-.5-1.4 1-.2 1 1 .5 1.4m-1.3-2.8c-5 2.3 4.1 8.3 3.5 2a2.5 2.5 0 00-3.5-2M90 186v-.7c.6-.6 1.1 0 1.5.2l-.2.8c-.6 0-1 0-1.3-.2m3-.3c.1-1.6-1-3.5-3.4-2.6-4.9 2 3 8 3.4 2.6M95.5 202.5c-1.2-.5-1-3 .7-2.8.6 1 .5 2.7-.7 2.8m-1.6-3c-3.4 3.7 4 7 4.1 2 0-2.1-1.4-3.2-4.1-2"/><path fill="#010202" d="M96 198.2c-.2-.2-.5-.3-.7-.2l-4 1.2c-.2.1-.4.4-.3.6l.5.2h.2l4-1.2c.2-.1.4-.4.3-.6M123.2 59.7c.1.2.2.3.4.3h.2c.2-.2.3-.5.2-.7l-1.2-4c-.1-.2-.4-.4-.6-.3-.2.2-.3.5-.2.7l1.2 4zM95.7 131.4h-1c-.5-.7-.2-1.4 1-1.3.3.2.3 1 0 1.3m-.5 1.6c1.7 0 2.5-1.9 2.8-3.6-3.5-4.6-7.6 3.5-2.8 3.6M146.8 113.3c-.1-.2-.4-.4-.6-.3-.2.2-.3.5-.2.7l1.2 4c.1.2.2.3.4.3h.2c.2-.2.3-.5.2-.7l-1.2-4zM120.2 55.7c.1.2.2.3.4.3h.2c.2-.2.3-.5.2-.7l-1.2-4c-.1-.2-.4-.4-.6-.3-.2.2-.3.5-.2.7l1.2 4zM20.7 106.2l-4-1.2c-.2 0-.5 0-.7.2 0 .2 0 .5.3.6l4 1.2h.2c.2 0 .4 0 .5-.2 0-.2 0-.5-.3-.6M106.2 20.7c.1.2.2.3.4.3h.2c.2-.2.3-.5.2-.7l-1.2-4c-.1-.2-.4-.4-.6-.3-.2.2-.3.5-.2.7l1.2 4zM110.2 32.7c.1.2.2.3.4.3h.2c.2-.2.3-.5.2-.7l-1.2-4c-.1-.2-.4-.4-.6-.3-.2.2-.3.5-.2.7l1.2 4zM103.2 15.7c.1.2.2.3.4.3h.2c.2-.2.3-.5.2-.7l-1.2-4c-.1-.2-.4-.4-.6-.3-.2.2-.3.5-.2.7l1.2 4zM27.1 33c.3 2 2.9 1.9 2.8 4.3-2.4.1-4.5-1.2-5.9-.5.2 1.9 2.1 3.1 3.4 4.3 1.2 1.2 2.6 3 4.2 2.9-.4-2.7-4.1-3.5-4.2-5.5 2-.4 5.9 1.4 7.6 1.4-2.2-2.7-4.3-5.6-7.9-6.9M35.2 24.3c0 1 2 1.9.9 3-1 0-1.6-1.3-2.6-.5 0 1.5 1.9 2.3.9 3.7-1-.4-2.3-2.7-3.4-1.1 2.6 1.9 4.9 4 7.9 5.6.7-1.9-2.5-3.6-2-5.4 1.9.5 3.4 2.7 5.1 2.3-.6-2.8-4.1-5-5.6-7.9-.5 0-1 0-1.2.3M164.7 165.2l-4-1.2c-.2 0-.5 0-.7.2 0 .2 0 .5.3.6l4 1.2h.2c.2 0 .4 0 .5-.2 0-.2 0-.5-.3-.6M165 169.2c-.2-.2-.5-.3-.7-.2l-4 1.2c-.2.1-.4.4-.3.6l.5.2h.2l4-1.2c.2-.1.4-.4.3-.6M39.3 113.8l4 1.2h.2c.2 0 .4 0 .5-.2 0-.2 0-.5-.3-.6l-4-1.2c-.2 0-.5 0-.7.2 0 .2 0 .5.3.6M115.2 43.7c.1.2.2.3.4.3h.2c.2-.2.3-.5.2-.7l-1.2-4c-.1-.2-.4-.4-.6-.3-.2.2-.3.5-.2.7l1.2 4zM112.2 37.7c.1.2.2.3.4.3h.2c.2-.2.3-.5.2-.7l-1.2-4c-.1-.2-.4-.4-.6-.3-.2.2-.3.5-.2.7l1.2 4zM38.5 221h.2l4-1.2c.2-.1.4-.4.3-.6-.2-.2-.5-.3-.7-.2l-4 1.2c-.2.1-.4.4-.3.6l.5.2M34.5 224h.2l4-1.2c.2-.1.4-.4.3-.6-.2-.2-.5-.3-.7-.2l-4 1.2c-.2.1-.4.4-.3.6l.5.2M29.5 224h.2l4-1.2c.2-.1.4-.4.3-.6-.2-.2-.5-.3-.7-.2l-4 1.2c-.2.1-.4.4-.3.6l.5.2M22.5 228h.2l4-1.2c.2-.1.4-.4.3-.6-.2-.2-.5-.3-.7-.2l-4 1.2c-.2.1-.4.4-.3.6l.5.2M16.5 230h.2l4-1.2c.2-.1.4-.4.3-.6-.2-.2-.5-.3-.7-.2l-4 1.2c-.2.1-.4.4-.3.6l.5.2M33.7 111.2l-4-1.2c-.2 0-.5 0-.7.2 0 .2 0 .5.3.6l4 1.2h.2c.2 0 .4 0 .5-.2 0-.2 0-.5-.3-.6M15.7 103.2l-4-1.2c-.2 0-.5 0-.7.2 0 .2 0 .5.3.6l4 1.2h.2c.2 0 .4 0 .5-.2 0-.2 0-.5-.3-.6M35.3 113.8l4 1.2h.2c.2 0 .4 0 .5-.2 0-.2 0-.5-.3-.6l-4-1.2c-.2 0-.5 0-.7.2 0 .2 0 .5.3.6M26.7 106.2l-4-1.2c-.2 0-.5 0-.7.2 0 .2 0 .5.3.6l4 1.2h.2c.2 0 .4 0 .5-.2 0-.2 0-.5-.3-.6M134.1 95.3c-.3 0-.4-.4-.7-.4 0-.5.4-.6 1-.5 0 .5-.2.6-.3 1m-3-.3c.3 1.8 3 2.7 4.6 1 1.9-5.4-5.4-5.2-4.6-1M143.2 112.7c.1.2.2.3.4.3h.2c.2-.2.3-.5.2-.7l-1.2-4c-.1-.2-.4-.4-.6-.3-.2.2-.3.5-.2.7l1.2 4zM118.2 107c2.5.2 3.9-1 3.8-2.7-.2-4.7-7.9-1.3-3.8 2.7M103.3 118.2c0 .9-.3 1.3-1 1.3 0-.2-.1-.5-.4-.5 0-1 .9-1.5 1.4-.8m1.7-.6c-1.2-2.8-5.2-1.5-5 1.1.2 3 5.2 3.4 5-1.1M134.8 84.3c-.1-.2-.4-.4-.6-.3-.2.2-.3.5-.2.7l1.2 4c.1.2.2.3.4.3h.2c.2-.2.3-.5.2-.7l-1.2-4z"/><path fill="#010202" d="M135.8 90.3c-.1-.2-.4-.4-.6-.3-.2.2-.3.5-.2.7l1.2 4c.1.2.2.3.4.3h.2c.2-.2.3-.5.2-.7l-1.2-4zM75.3 129.8l4 1.2h.2c.2 0 .4 0 .5-.2 0-.2 0-.5-.3-.6l-4-1.2c-.2 0-.5 0-.7.2 0 .2 0 .5.3.6M101.7 141.2l-4-1.2c-.2 0-.5 0-.7.2 0 .2 0 .5.3.6l4 1.2h.2c.2 0 .4 0 .5-.2 0-.2 0-.5-.3-.6M141.2 107.7c.1.2.2.3.4.3h.2c.2-.2.3-.5.2-.7l-1.2-4c-.1-.2-.4-.4-.6-.3-.2.2-.3.5-.2.7l1.2 4zM119.7 147.2l-4-1.2c-.2 0-.5 0-.7.2 0 .2 0 .5.3.6l4 1.2h.2c.2 0 .4 0 .5-.2 0-.2 0-.5-.3-.6M146 91c2 .2 3.7-1.8 2.7-4.2-4-3.1-6.8 3.8-2.7 4.2M133.2 237.5c-.3-.4-.3-1.3 0-1.6.8-.1 1.2.3 1.2 1.3-.3.2-.7.3-1.2.3m-2.1.2c1.2 2 4.7 1.7 4.9-.8.2-3-5.8-5-5 .8M149.8 244.6c-1 0-1.2-1.2-.5-1.8.2.1.4.3.8.3 0 .7 0 1.1-.3 1.5m-1-3.3c-5.6 2.4 4 8.2 3.2 1.8-.2-1.4-1.1-2.7-3.2-1.8M136.8 239c-.2 0-.5 0-.6.3l-1.2 4c0 .2 0 .5.2.7h.2l.4-.3 1.2-4c0-.2 0-.5-.2-.7M126.8 68.3c-.1-.2-.4-.4-.6-.3-.2.2-.3.5-.2.7l1.2 4c.1.2.2.3.4.3h.2c.2-.2.3-.5.2-.7l-1.2-4zM129.8 73.3c-.1-.2-.4-.4-.6-.3-.2.2-.3.5-.2.7l1.2 4c.1.2.2.3.4.3h.2c.2-.2.3-.5.2-.7l-1.2-4zM118.7 228.2c-2.8 1-1.8 4.8.8 4.8 3.6 0 3.3-6.2-.8-4.8M135.8 244c-.2 0-.5 0-.6.3l-1.2 4c0 .2 0 .5.2.7h.2c.2 0 .3-.1.4-.3l1.2-4c0-.2 0-.5-.2-.7M237.6 133.6c.1.5-.1.7-.2 1-.6 0-.9-.4-1-1 .4-.4 1-.4 1.2 0m-1.4 2.3c2.4.4 4-1 3.8-2.9-.5-4.4-7.9-.8-3.8 3M232 118.2c0-1.8-1.6-2.7-3.4-2-5.1 2 3.7 8.4 3.4 2M201.9 235.6c0 1.1-.8 1.4-1.3.8 0-.8.7-1.2 1.3-.8m.2 3.4c2.9-.4 2.6-6.2-1.5-4.8-3.1 1.1-1.1 5.2 1.5 4.8M301.3 113l-4 1.2c-.2.1-.4.4-.3.6l.5.2h.2l4-1.2c.2-.1.4-.4.3-.6-.2-.2-.5-.3-.7-.2M323.5 104h.2l4-1.2c.2-.1.4-.4.3-.6-.2-.2-.5-.3-.7-.2l-4 1.2c-.2.1-.4.4-.3.6l.5.2M301.6 42c.2-.9-.3-3.5 1-4.1 1.3-.5 1.6.3 2.7-.4.1-3.2 2.2-4.8 5.7-3.7 0-1.5-.5-2.5-2-2.8-1.6-.3-13.1 9.8-7.4 11M314.5 105h.2l4-1.2c.2-.1.4-.4.3-.6-.2-.2-.5-.3-.7-.2l-4 1.2c-.2.1-.4.4-.3.6l.5.2M201.2 249.7c.1.2.2.3.4.3h.2c.2-.2.3-.5.2-.7l-1.2-4c-.1-.2-.4-.4-.6-.3-.2.2-.3.5-.2.7l1.2 4zM296.3 113l-4 1.2c-.2.1-.4.4-.3.6l.5.2h.2l4-1.2c.2-.1.4-.4.3-.6-.2-.2-.5-.3-.7-.2"/><path fill="#010202" d="M199.2 245.7c.1.2.2.3.4.3h.2c.2-.2.3-.5.2-.7l-1.2-4c-.1-.2-.4-.4-.6-.3-.2.2-.3.5-.2.7l1.2 4zM298.4 27.2c.5 2.6-1 5.6-1.7 7.8 1.5.1 2.8-1.7 4-2.9 1.1-1.3 2.8-2.7 3.3-4.3-1.7-.7-2.2 2.2-4 2.6-1-2 1-4.7.3-6.4a17.4 17.4 0 00-7.3 7.5c2.3.2 3.3-3.3 5.4-4.3M188.2 244c3 .2 4.2-5.5.2-5-3.5.5-2.8 4.8-.2 5M205.2 261.7c.1.2.2.3.4.3h.2c.2-.2.3-.5.2-.7l-1.2-4c-.1-.2-.4-.4-.6-.3-.2.2-.3.5-.2.7l1.2 4zM308.3 109l-4 1.2c-.2.1-.4.4-.3.6l.5.2h.2l4-1.2c.2-.1.4-.4.3-.6-.2-.2-.5-.3-.7-.2M171.2 181.7c.1.2.2.3.4.3h.2c.2-.2.3-.5.2-.7l-1.2-4c-.1-.2-.4-.4-.6-.3-.2.2-.3.5-.2.7l1.2 4zM222.2 35h.2l.4-.3 1.2-4c0-.2 0-.5-.2-.7-.2 0-.5 0-.6.3l-1.2 4c0 .2 0 .5.2.7M228.2 21h.2c.2 0 .3-.1.4-.3l1.2-4c0-.2 0-.5-.2-.7-.2 0-.5 0-.6.3l-1.2 4c0 .2 0 .5.2.7M228.2 25h.2c.2 0 .3-.1.4-.3l1.2-4c0-.2 0-.5-.2-.7-.2 0-.5 0-.6.3l-1.2 4c0 .2 0 .5.2.7M181.2 205.7c.1.2.2.3.4.3h.2c.2-.2.3-.5.2-.7l-1.2-4c-.1-.2-.4-.4-.6-.3-.2.2-.3.5-.2.7l1.2 4zM275.3 213.8l4 1.2h.2c.2 0 .4 0 .5-.2 0-.2 0-.5-.3-.6l-4-1.2c-.2 0-.5 0-.7.2 0 .2 0 .5.3.6M283.3 214.8l4 1.2h.2c.2 0 .4 0 .5-.2 0-.2 0-.5-.3-.6l-4-1.2c-.2 0-.5 0-.7.2 0 .2 0 .5.3.6M271.3 210.8l4 1.2h.2c.2 0 .4 0 .5-.2 0-.2 0-.5-.3-.6l-4-1.2c-.2 0-.5 0-.7.2 0 .2 0 .5.3.6M213.3 186.8l4 1.2h.2c.2 0 .4 0 .5-.2 0-.2 0-.5-.3-.6l-4-1.2c-.2 0-.5 0-.7.2 0 .2 0 .5.3.6M215.2 52h.2l.4-.3 1.2-4c0-.2 0-.5-.2-.7-.2 0-.5 0-.6.3l-1.2 4c0 .2 0 .5.2.7M214.2 60h.2l.4-.3 1.2-4c0-.2 0-.5-.2-.7-.2 0-.5 0-.6.3l-1.2 4c0 .2 0 .5.2.7M186.3 89.7c1-.2 1.1 1 .6 1.3-1 .2-1-1-.6-1.3m.3 3.3c2.8-.2 3.9-6.3-.9-4.7-3 1-1.5 4.8 1 4.7M187.2 121h.2c.2 0 .3-.1.4-.3l1.2-4c0-.2 0-.5-.2-.7-.2 0-.5 0-.6.3l-1.2 4c0 .2 0 .5.2.7M217 232.7c3.7-4.7-4-6.7-4-2.2 0 1.7 1.7 3.1 4 2.2M184.5 175c.2 0 .4 0 .5-.2 0-.2 0-.5-.3-.6l-4-1.2c-.2 0-.5 0-.7.2 0 .2 0 .5.3.6l4 1.2h.2M188.2 217.7c.1.2.2.3.4.3h.2c.2-.2.3-.5.2-.7l-1.2-4c-.1-.2-.4-.4-.6-.3-.2.2-.3.5-.2.7l1.2 4zM214.9 103.7c.8-.1 1.3 1 .7 1.6-1 0-1.5-1-.7-1.6m1.8 3.3c4.6-4.4-4.6-7.7-3.6-2 .2 1.5 1.4 2 3.6 2M200.2 89h.2l.4-.3 1.2-4c0-.2 0-.5-.2-.7-.2 0-.5 0-.6.3l-1.2 4c0 .2 0 .5.2.7M202 94.6c-.5.6-1.5.2-1.5-.8.2 0 .4-.2.5-.5.8 0 1.1.4 1 1.3m-3-.2c0 1.6 2 2.2 3.5 2.6 4.9-3.6-3.7-7.7-3.5-2.6"/><path fill="#010202" d="M198.2 93h.2l.4-.3 1.2-4c0-.2 0-.5-.2-.7-.2 0-.5 0-.6.3l-1.2 4c0 .2 0 .5.2.7M196.2 100h.2l.4-.3 1.2-4c0-.2 0-.5-.2-.7-.2 0-.5 0-.6.3l-1.2 4c0 .2 0 .5.2.7M220.2 40h.2l.4-.3 1.2-4c0-.2 0-.5-.2-.7-.2 0-.5 0-.6.3l-1.2 4c0 .2 0 .5.2.7"/><g><mask id="b" fill="#fff"><use xlink:href="#a"/></mask><path fill="#010202" d="M327 143.7l.1-2c1.3.6 2.4 1.3 3.1 2l.2.2-3.4-.2zm-.5-75.5c0 1.2-.5 2.4.1 3.5-.6 3.4-.2 14-.3 21.2v.6a175.6 175.6 0 00-34.6-49.6l.2-.2c2.5 2.8 5.9 4.4 9.8 4.1 1.3-.1 2.7-.7 4-1 4-2 7-5.3 8.7-8.8a12.3 12.3 0 00-3.1-13.7l14.4-14.5h.8v5.5c0 13-.6 27.5-.3 41.3l.4 1c0 .3-.5.8-.5 1.1-.3 3 .4 6.6.4 9.5zm-.3 51.3c-2.9-4-2.1-4.6-6.2-8.4-4.6-4.3-11.2-8-11.8-17.3-.5-9.2 1-6.3-3.4-10.4-4.3-4-6.6 0-6-8.8.5-8.7.6-12.6-2.4-19.1-1.9-3.8-3-7.6-4.8-10.6a174.8 174.8 0 0134.7 50.4v24.2zm-7.3 24.8l.5-1.5c.8-2.6 4-2.5 6.9-1.4v2.3c-2.4 0-5 .2-7.4.6zm-1.4-2l-.9 2.7-1 .5h-.6l-2.1-.3c-.7 0-1.6 0-2.4.8-.8.7-1 1.7-1 2.4 0 .5 0 1 .2 1.4a26.4 26.4 0 00-7.2 16l-.1.8-4-1c-.2-17-3.6-33-9.6-47.7l2-.9a.4.4 0 00-.2-.7l-2.1.9c-6.6-15.8-16.2-30-28.1-42l29.4-29.5.8 1.5c1.3 2.6 2.4 5.8 4 9.1 2 4.2 2.5 7 2.5 11.2a115.5 115.5 0 01-.4 9.3c0 1.6.1 2.7.6 3.8a4 4 0 001.6 1.8c1.9 1 2.7.7 4.5 2.4l2.3 2.1.3.3.1 1.7c0 1 0 2.7.2 5a18.6 18.6 0 006.4 13.3l-1.9.7c-.2.1-.3.4-.2.6a.4.4 0 00.5.2l2.2-1c1.9 1.9 3.8 3.4 5.4 4.9 2.2 2 2.7 2.9 3.4 4 .8 1.3 1.6 3 4 6l.1.2v16.5c-1-.4-2.2-.6-3.4-.6-1 0-2 .2-3 .8-1 .5-2 1.5-2.3 2.7zm-6 6c0-.9.5-1.2 1.5-1.2l-1.5 1.1zm-2.4 37.5c1.8 1.5 4.2 2.4 6.2 3.5 1.3.5 2.7.9 4 1.2a40.8 40.8 0 00-1.8 12.3l.1 1c0 .7-.1 1.6-.5 2.3a4 4 0 01-2 1.8c-2.8 1.3-4.5 3.8-6.4 6.1a18.3 18.3 0 01-5.5 5.5c-2.4 1-3.7 1.5-4.9 2.4-.6.4-1.1 1-1.4 1.7a8.5 8.5 0 00-.7 3c0 .6.3 1.7 1.1 2.2.8.5 1.4.5 1.9.5h1.2V230.6l.1.7a2 2 0 001.9 1.4c.8 0 1-.4 1.3-.5.5-.4.5-.5.8-.9l1-1.4c.9-1.3 1.6-2.3 2.5-3.2l-.4.8c-1 2.6-2.2 4-3.4 4.8-1.2.8-2.5 1-4 1-1.2 0-2.5-.2-3.7-.4l-1.5-.2c-1 0-2.4.5-3 1.4-1 1.2-1 2.2-1.4 3.2-.3 1-.8 1.8-1.9 2.8-1.3 1.2-2 1.6-2.4 1.9l-.8.5c-.5.4-.7 1.4-.7 1.7l.1 2v1.4l.4 1c.3.6 1.3 1.1 1.8 1 .8 0 1-.2 1.2-.3.5-.2.8-.4 1.9-.4a7.8 7.8 0 012.4.4c-.5 1-1.9 2.7-3 4.8-.5.7-.8 1-1.1 1.2l-1.3.2c-1.3 0-3.5-.5-6.2-.5h-1.7c-1.6.2-3 .7-4 1.6-1.5 1.5-1.5 3.3-1.6 4.6a7 7 0 01-.8 3.2l-3.2 4.7-9.3-9.3c11.8-11.9 21.4-26 28-41.8 0 .1 0 .2.2.2l2.9 1.2h.1c.2 0 .3 0 .4-.2 0-.2 0-.4-.2-.5l-3-1.2h-.2c6.2-15 9.7-31.5 9.9-48.7l1.3-.3 2.4-.4c-.4 6.7 1.6 13 7 17.6zm7 34.2c.2 0 .3-.2.4-.3v.1l-.3.2zm5.2-29.2c1.6.3 3.2.4 4.8.4 0 3.3 0 6.7.2 10.2-.2.3-.3 0-.6.4.6 9 .1 18.2.3 27.3v4l-2.5-1.1c-.2-.1-.5 0-.5.2-.1.2 0 .4.2.5l2.8 1.2v6.5a174.8 174.8 0 01-34.9 50.2l-20-20 3.5-5.1c2.2-3.6-.7-7.9 5-8.4 5.5-.5 9.2 2.4 11.7-2 2.4-4.4 6-6.7.8-7.8-5.2-1-5.2 2.3-5.2-1 0-3.5-1-1 3.1-4.6 4.1-3.7 1.7-7.7 6-6.8 4.5.9 10.3 1.4 13.4-6.5 3.2-8 10-5 9-9-.9-4-1.3-2.4-5.8 1-2.6 2-4.3 3.2-5.7 4.7l-.7-.3c-.2-.1-.5 0-.5.2-.1.2 0 .4.2.5l.5.2-2.5 3.2c-2.6 3.7-.9 1.3-1.7-.7-1-2.1-4.5.6-4-2.2.3-1.7.6-2.2 1.9-3v.1l2.9 1.2h.1a.4.4 0 00.2-.7l-2.3-1 3-1.4c4.8-2.2 8-9.8 11.8-11.5 3.8-1.7 4-5.5 3.6-7.3-.3-1.6.4-7.1 1.9-11.6zm5.3 116c-.6.1-.5.9-.8 1.3.7 6.4.2 10 .4 16.4H325l-13.3-13.3c2.3-1.5 4.5-3 6.6-4.6l.7-.4.1-.8c.2-1.1.6-2.7 1.8-5.1l3.1-6.7 2-3.2-.1 12.6c0 1.2.1 2.8.7 3.9zm.4 18.8l-.4.5-1-1c.5.2.7.6 1.4.5zm-5.6-1.4l-1.3.1c-4.4.2-13.4 0-15.6.4-5.3-.5-10.2.5-15.1 0l-1.8.1c8.2-3.8 16-8.2 23.4-13.1l12.9 12.8c-1 0-1.8 0-2.5-.3zm-38.4.6h-1.6c-.1 0-1.1.3-.5.6-2.5-1.1-7 .1-10.7-.6-8 .5-15.4.2-23.2.3h-2.7a175.7 175.7 0 0043.7-30c-2 5.3-1.4 9.7 2.5 14.8 2.6 3.6 6.4 5.8 10.8 5.5h.1c-5.9 3.4-12 6.6-18.4 9.4zm13.7-36.1c2.2-.8 7.4-.6 9.5.7 3.4 2 5.5 4.7 7.4 8.2 0 2.6.7 5.6-.6 8.2-.3.6-1.1 1.2-1.7 2-.5.7-.7 1.6-1.2 2.1-1 1-3.5 2.9-4.7 3.5-2.4 1.1-8.1 1.5-10.7-.4l-1.6-1.7c-3.4-3.3-5-5.7-5.2-9.6-.4-4.8 3-11 8.8-13zm29.4-39.5c.2 4.7 0 23 0 37.3-5.2 9-2.6 3.5-7 13a21.5 21.5 0 00-2 5.6l-4.8 3.4a12.3 12.3 0 00-.7-16c-4.2-4.3-9.8-6.1-14.7-4.9-1 .3-2.1.8-3.1 1.4 13.1-13.6 24-29.4 32.2-46.7l.1 6.9zM211 317.9l.3-.8c.6-2 .9-2 1.8-3 1-.9 2.5-2.3 4-5.3l.7-1 1.3.8c.8.5 2 1.1 3.5 1.1.9 0 1.8-.2 2.7-.6l2.8-1.3-2.2 1.4a68.5 68.5 0 01-8.4 4.7 14 14 0 00-3.5 2.1 6.3 6.3 0 00-1.5 1.9H211zm31.6 7.2l-9.5.1-1.2-2.8c0-.2-.3-.3-.5-.2-.2.1-.3.3-.2.5l1 2.5-31.3.2c2.7-3 5.2-5.8 9.3-5.6 6.5.4 1.3-1 8.2-4.2 2.5-1.1 5.5-2.8 8-4.4l1.2 2.9a.4.4 0 00.5.2c.2-.1.3-.3.2-.5l-1.2-3c4-2.6 6.9-5.2 5.6-5.8-2-1-3.2 0-7.2 1.8l-.7-1.7c-.1-.2-.3-.3-.5-.2-.2 0-.3.3-.3.5l.8 1.8-.3.1c-4.9 2.3-6.2-5-9 .6-3 5.6-4.8 4.2-6 8.7-1.3 4.5-10.7 6.7-15 4.6-1.8-.8-3.4-2.1-4.8-4a28 28 0 01-3.3-6.6v.2a46.3 46.3 0 01-2.4-13.3c11.6-1.4 22.7-4.4 33.2-8.7l.9 2.2a.4.4 0 10.7-.3l-.9-2.2c9-3.7 17.4-8.4 25.3-14 1.1 0 2.2 0 3.2.6 3.9 2.2 5.6-3.6 8.3 0 2.8 3.5 13 8.4 13.4 3.4.2-2.6 1.3-5 2.7-7.2l19.9 19.9a174.9 174.9 0 01-48.1 34zm-44.4.3a6987.8 6987.8 0 01-6.9 0c0-1.4-.3-2.9-.6-4.3a11.5 11.5 0 008.9 2.8l-1.4 1.5zm-4.4 4l-2.7 1.5a18.8 18.8 0 00.3-4.8l3.1-.2c.6 0 1.2.4 1.8.3.5 0 1-.4 1.5-.4a22.7 22.7 0 01-4 3.6zm-5.2-41.6c4.7 2 6.9 0 13.7-1.7 4.6-1 8.8-2.8 12.3-3.7l1.1 2.8a.4.4 0 00.5.2c.2 0 .3-.3.2-.5l-1-2.6c1.4-.3 2.8-.4 4-.1 2.7.6 4.4 2 7.1 1.5a129 129 0 01-8.9 4.1c0-.2-.3-.3-.5-.2-.2 0-.3.3-.2.5a129.4 129.4 0 01-33 8.7c0-6.2 1.4-10.4 4.7-9zm-9.2 16.2c-3.4-2-7.4-2.7-11.6-2.6h.1v-.6l.7-2.2c4.6 0 9-.3 13.5-.8a52.2 52.2 0 001.3 9.4 21.7 21.7 0 00-4-3.2zm-11.5-98.9l.1-13.6c.2-1.1 2.2-.4 3.4-.6 2.6 2.9 6.7 6.3 10.2 9.5 1.4 1.4 4.6 3 2.5 5.3-4.7-2.6-7.6-6.9-12-9.7 0 1.7 2.3 3 3.7 4 1.3 3 9.9 5.6 7.5 10.4-4.2-2-7.5-6.8-12-9.3.3 1.5 2.5 2.9 4.3 4.4 1.8 1.5 3.3 3.3 4.7 4.5 1.3 1.1 4.6 2.6 2.1 4.9-3.3-1.7-4.8-5-8.5-6.4.4 1.4 2.2 2.7 4 4.2 2.2 1.7 5.9 3.4 3.9 6.6-3.3-.6-4.8-4.8-8.5-5.7 1.6 2.8 6 4.8 8.3 7.6 0 1 .2 2.5-.4 3-3.8-1.2-5.3-4.5-8.7-6 .7 2 2.5 3.1 4 4.3 1.5 1.2 3.2 2.2 4.4 3.6.2 1.5-.2 2.4-1 3-3.2-1.7-5-4.6-8.3-6.2.4 1.8 2.5 2.8 4 4 1.6 1.3 3.2 2.6 4.5 3.9 0 1.3-.2 2.3-.9 3-3-1.5-4.8-4.1-7.8-5.6.3 1.3 2.3 2.8 3.6 3.8 1.4 1.2 3.2 2 4.2 3.4 0 1.1.1 2.2-.4 2.8-3-.7-4.2-3.3-6.8-4.5-.1 1.6 1.9 2.3 3 3.2 1.3 1 2.5 2 3.4 3.2 0 1.1-.1 2.1-.6 2.8-2.7-.6-3.4-3.2-6-3.9.8 3.2 8.3 4.4 4.9 8.3-1.9-.8-3-2.5-4.7-3.4-.2 3 7.3 4 4 7.9-2.2-.4-2.6-2.6-4.8-3 1 2.2 3.4 3 4.9 4.7-.3 1 0 2.3-.7 3-2.1-.5-2.7-2.5-4.6-3 .2 2.2 6 3.6 3.8 7-1.4-.1-1.5-1.5-3-1.5 0 1.6 4.5 2.8 2.3 5.3-1.5.3-2.1-2-3.8-2.4 0 2.1 6 3.7 2.8 6.4-1.4-.2-1.5-1.6-3-1.7.4 2.2 4.9 3 2.8 5.5-1.3 0-1.4-1-2.4-1.3-.7 2 3.3 2.1 2.2 4.5-1 .8-1.5-.5-2.4-.4-.1 1.7 2 1.2 1.7 3.2-.7.8-.9.2-2.1.2.8 1.6 2.6 3.6-.2 4.4 0 1 .8 1 .8 2 .1 1-.8 1.2-1 2 0 .7.5.7.4 1.3-1.3 1 0 3.5-1.5 4l-.3-17.1V205zm0-19.5c2.2 0 4.4-.3 6.4-.8l.9 2.3a.4.4 0 00.5.2c.2-.1.3-.3.2-.5l-.9-2.2 1.5-.5c1.6-.6 3-1.5 4.4-2.6l2.2 2.1a24.2 24.2 0 01-15.2 5.5v-3.5zm0-7.4c2.8 0 5.4-.8 7.6-2.2l4.3 4.3a12.7 12.7 0 01-4.6 3c-1 .3-2.4.1-3.8.4-1.2.2-2.4.8-3.4.8v-6.3zm0-2.8c.8 0 1.6-.2 2.3-.4l.2.5a.4.4 0 00.5.2c.2 0 .3-.3.2-.5l-.2-.5c.8-.3 1.5-.7 2.1-1.2l1.2 1.2c-1.8 1.1-4.3 2-6.3 2.2v-1.5zm0-5.9l.1.2a.4.4 0 10.8-.3l-.1-.2 3.6 3.6-1.8.9-.5-1.4a.4.4 0 00-.8.3l.5 1.3-1.8.2v-4.6zm0-11c1 0 1.9 0 2.9.2l-1.1 2.8a.4.4 0 10.7.3l1-2.6 2.1 1.8-4.8 4.9.5-1.2a.4.4 0 00-.7-.3l-.6 1.2v-7.1zm0-2.7a9 9 0 016.9 2.4l.7.9-1.2 1.1a8.9 8.9 0 00-6.4-3v-1.4zm0-8.3c2.4 0 4.8.4 7 1.3l-.4 1.1a.4.4 0 00.3.6c.2 0 .3-.1.4-.3l.4-1 .5.1c1.4.7 3.3 2.3 5 4.2l-4.6 4.5c-1-1.1-2.1-2-3.4-2.7l.9-2.2a.4.4 0 10-.7-.3l-1 2.2c-1.3-.6-2.8-.9-4.4-.9v-6.6zm0-4.3c7.5.4 12 3.7 16.4 7l-2.3 2.3a18.4 18.4 0 00-5.8-4.6l.2-.6c0-.2 0-.4-.2-.5-.2 0-.5 0-.6.2l-.2.6c-2.3-1-4.8-1.3-7.5-1.3v-3.1zm0-15.4c.2-23 0-47.6.1-70.7l.2-1.7c.4-4.7-.5-10.7.2-14.4 2.2 3.9 1 9.4 2.6 13.3-1.3 1.8 1 3.7.2 4.9.2.5.7.7 1 1 .2 1-.5 1.2-.8 1.8 1.2 1 .9 1.4 0 2.5.9.4 1.7-.2 2.1.8 0 1.6-1.4 1.6-1.9 2.6.2 1 1.5-.3 2.1.4 0 1.4-1.5 1.2-1.7 2.3.4 1.1 1.3-.9 2.2 0 1 2.1-1.8 2.3-2.2 3.7.8.7 1.6-.7 2.4 0 .3 1.2-1.8 1.6-2 3 1.1.8 1.7-1.4 2.8-.5.1 1.6-1.7 1.4-1.9 2.8.7.4 1.1-.8 2.3-.5.2 1.8-1.7 1.4-1.9 2.8.6 1 1.4-1 2.4-.2.7 1.7-1.3 2-1.7 3.2.5.5 1.9-1 2.5.2.2 2-1.9 1.7-2.3 3.1.6 1 1.9-1 2.7.3.2 2.2-3.2 2-3 3.4.3 1.2 2.5-1.6 3.5 0-.3 2.5-3.2 2.5-4 4.4 1.6.7 2.6-2.1 4-1.7 2 1.8-2 2.6-2.4 4 1 1.2 2.3-1.9 3.6-.4-.2 1.7-2.1 1.7-2.7 3 1 .7 1.5-.9 2.5-.9 1.8 1.6-1 2.7-1.5 3.9.5 1.1 1.4-1.3 2.4-.3.6 2.3-2.7 2.3-3 4.3 1.2.6 2-2 3.2-1.5 1.8 2.2-2.6 3.3-3.4 4.9 1.7.8 2.7-2.6 4.4-1 .7 1.7-4.5 2.8-4.2 4.2.3 1.4 4.3-3.5 5-1.1-1 2.4-4 2.9-5.2 5 2 1.1 2.8-2.4 5-2.5 1.4 3.2-3.8 3.4-4.2 6.2 2.1.3 2.8-2.5 5-2.8.3.4.4 1.1.3 2-1.8 1.2-4 2.2-5 4.2 2.3.5 3.3-3.2 5.5-3-.5 3.2-4.7 3.8-5 6.6 2 0 2.8-3 5.2-3.4 1.1 3.4-4.2 3.8-5 6.8 2.6.2 2.8-3.7 5.8-3.6.2 1.6-.6 2.6-1.6 3.4l1-2.6c.1-.2 0-.4-.1-.5-.2 0-.5 0-.6.2l-1.2 3c0 .1 0 .4.3.4-1.4 1-3 2-3.5 3.5.7 0 1.4-.4 2-1l-1.2 2.8c0 .2 0 .4.3.5a5 5 0 00-1.3 2.2h.2c-.2 0-.3 0-.4.2l-1 2.5c-3-1-6.8-1.1-9-2.8v-13.2zm78.6 118c4.8-4.7 9-9.8 13.1-15.7 2.8-4 5.3-8.3 7.9-12.7a83.4 83.4 0 0010.6-30.5c.1-1.2 0-2.7.2-4.3.2-1.2.7-2.4.8-3.6.2-2-.5-4.6 0-6 .8-1.7 3.3-1.2 5.5-1.6l10.2-2c1 0 2-.2 3-.4a129.8 129.8 0 01-37.9 90.4l-13.4-13.5zm13.4 14.7l9.5 9.4a19 19 0 00-3.3 8.7h-.6c-1.1.1-3.2-.5-5-1.5-1.9-1-3.6-2.3-4.2-3.2-.8-1.1-2.1-2-3.5-2-1.5 0-2.4.8-3 1.2-.8.4-1.3.6-1.6.6-.3 0-.5 0-.9-.3-.5-.3-1-.5-1.7-.6 5.1-3.8 9.9-7.9 14.3-12.3zm-80.2 13.1c4.7-.6 8.6-1 12.7-1.9l5.5-1.3c1.2-.3 2.2-1.2 3.4-1.5.8-.2 1.7 0 2.5-.2 1.4-.3 3-.9 4.5-1.5l.3.7a.4.4 0 00.7-.3l-.3-.7 5-2.4c3.3-1.6 6.8-3.2 9.6-4.9 7.5-4.5 14-9.7 20.1-15.4l1.3 1.3a69.7 69.7 0 01-5.5 5.2c-2.8 2.3-6.2 4.3-9.4 6.6-6 4.3-12.9 8.3-20.5 11-4 1.4-7.9 3.2-11.7 4-1.2.3-2 0-3 .2-2.2.5-4 1.4-7.2 2-2.2.4-4.6 1-7 1.2-2.3.2-5 .8-7.2-.2.8-2.2 4-1.6 6.2-1.9zm15.7-4.2c-1.3 0-1-2.4-.7-3.2.8.4 1.9 2.7.7 3.2zm2.3-.7c-1.1.2-1.3-1.2-.6-1.7.5.3 1.1 1.1.6 1.7zm-5.5-11.6c3.7-.8 7-2.2 10.5-3.4l1 2.6a.4.4 0 00.6.2c.2 0 .3-.3.2-.5l-1-2.5c1.3-.5 2.6-.8 4-1.1 1.8 3 1.3 8 2.5 11.7-.5.5-.8 1.1-1.7 1.2l-.2-.6c-.1-.2-.3-.3-.5-.2-.2 0-.3.3-.2.5v.2c-.8-.7-.7-2.4-1.9-2.8-1.2 1 .5 2.4.5 3.6-1.8 2.1-3-.7-3.9-2-1.4.7.3 1.8 0 3.2-.4.8-1.4 1-2.5 1.1-2.4-2.3-2.8-6.7-5.3-8.9-2.3 2.3-.2 7.4-1 10.6-1.3.4-2.6.9-4 1-1.6-.4-1.1-2.8-2.4-3.5-1.3.4-.3 2 0 2.7-.3 1.2-1.5 1.5-2.8 1.7-1-.5-.6-2.5-1.5-3.2-1.2 0-.4 2-.6 3-1.3 1.3-5 1.2-7.4.8.1-4 .6-9.4 2.1-12.7 5.3-.9 10.4-1.7 15.5-2.7zm-7.7-21.7c4 .8 6.3 3.4 9.6 5 .9-.8 1.4-1.8 1.9-3l.6 1.6a.4.4 0 10.8-.3l-1-2.3c.7-2 1.3-4.2 2.8-5.4 3.4.4 5.8 1.9 8.9 2.7 1.4-2.6.8-7.2 2.5-9.5 3.4-.2 6.4-1.1 9.1-.6 2.3.3 4.8 3 6.6 4.4l3.8 2.7 1.7 1.7.5.7c-2.6 2.7-6 5.2-10 8.3a78.9 78.9 0 01-8.3 5.3c-1 .5-2.4 1.5-3 1.5-1.8-.2-2.2-2.9-3.8-3.2-1 1.4.6 2.8.2 4.4-.4 1.9-4.3 2.4-7 3.4-4.3 1.6-11 3.7-15.9 4.9-2.6-.8-4.8 1.4-7.4.6-.7-2.3.3-5 .9-7.6.5-2.6.4-5.7 1.2-8 1-3.1 4-5.1 5.3-7.3zm-1.2-6.3c2.7 3.5-.4 7.7-2.8 8.9.2-2.8.1-8.6 2.8-9zm1.8-18.7h.1c.2-.1.3-.4.2-.6l-.3-.9c.5-3 1.2-6 1.8-8.9 0-.3.4-.3.4-.6a118 118 0 0111.7 8.2c.9.8 3.3 2.3 3.4 3 0 1.1-2.8 2.7-3.9 3.4-1.4 1-3.3 2-4.6 2.6l-4.8 2.2v-.3a.4.4 0 00-.8.3l.1.3c-1.5.5-3 1-4.7 1 0-3.2.5-6.5 1.1-9.8h.3zm1.4-16.7c0 1.2 0 2.4-.9 2.7-3.3-1.8-5.7-4.5-8.3-7 3.3-4.2 6.6 2.5 9.2 4.3zm.4-2c-2.8-.8-4.3-2.9-5.7-5 .4-.3.7-.8 1.2-.9 1.5 1.9 5 2.7 4.5 6zm-1.3-16.3l2.1 1h.2l.4-.3c0-.2 0-.4-.3-.5l-2.1-.9c.9-2 1.4-4.2 1.4-6.5v-.3h3.4c0 1.5-.2 3-.6 4.5-.8 3.1-4.2 8.5-6.4 10.6l-2.2-2c1.7-1.6 3-3.5 4-5.6zm-8.3-1a12 12 0 002.4-6v-.5h6c-.2 2.5-.8 5-1.6 7.7l-3.8 4.2-4.2-4.3 1.2-1.1zm-1.9-3.2l.8.4h.2c.1 0 .3-.1.3-.3.1-.2 0-.4-.2-.5l-.6-.2c.5-.9.8-1.8.9-2.7h1.3c0 2-.7 4-2 5.4a8 8 0 01-1.2 1l-1.3-1.2c.7-.6 1.3-1.2 1.8-1.9zm-5-2a.4.4 0 00.6-.2c0-.2 0-.5-.3-.6l-1.2-.5h6l.1.7c-.1.6-.4 1.1-.6 1.6l-1.4-.6c-.2 0-.4 0-.5.3 0 .1 0 .4.2.5l1.2.5c-.4.6-1 1-1.5 1.5l-3.8-3.7 1.2.5zm5-5.3h-.2l-2.9 1.2a.4.4 0 00.2.8h.1l3-1.2v-.1c.2 1 0 1.7 0 2.5h-6 .2l.2-.6c-.1-.2-.3-.3-.5-.2l-.3.1 4.8-4.8.4.5c.3.5.4 1.4 1 1.8zm2.7 3.2h-1.3c0-.9-.4-1.8-1-2.6v-.3h-.1.4a7.8 7.8 0 00-1.3-3.4l1.1-1c1.2 1.9 2.2 4.6 2.2 7.3zm6.9-7.4v.2l-1.1.5a.4.4 0 10.3.7l1-.4c.5 2.2.6 4.3.5 6.4h-6c0-1.4 0-2.7-.4-4l2-.8c.2 0 .3-.3.2-.5 0-.2-.3-.3-.5-.2l-2 .8c-.4-1.4-1.1-2.7-2-3.8l4.6-4.5c1.6 1.9 3 4 3.4 5.6zm-.1-9a30 30 0 015.8 16.4h-3.4c-.1-2.4-.5-4.7-1.1-6.8l.9-.4c.2 0 .3-.3.2-.5-.1-.2-.3-.3-.5-.2l-.9.3c-.8-2.3-2-4.5-3.4-6.4l2.4-2.3zm3.3-4.4l-3 3.1a6 6 0 01-.7-1c.4-1.3 2.3-2.6 3.7-2zm-2-2.7c-.3 2-1.9 2.9-3.1 4-2.7-.5 2-4.4 3.1-4zm-1-3.6c.9 2.7-3 4-4 6.1-.8 0-1-.6-1.5-.8 1.2-2.4 3.3-3.9 5.5-5.3zm-2-28.4c2.2.7 4.3 1.4 6.2 2.3l-.6 1.4a.4.4 0 10.8.3l.6-1.4c3.7 1.7 7.2 3.7 10 6.3-4.3 4-9 7.6-14.2 10.8l-1.1-4.4 1-2.6c.1-.2 0-.4-.2-.5-.1-.1-.4 0-.5.2l-.6 1.5c-.8-4.4-1.2-9.1-2.2-13.3.5 0 .4-.6.9-.6zm-1.6-6.2c1.3-1.2 5 .2 6 1.5-.2 1.6-.6 3-1.6 3.8a8.8 8.8 0 01-3.6-1c-.4-1.1-1.4-2.8-.8-4.3zm-2.1-14c.8 1.8 4.2 4 4.6 6.4.3 1.6-.6 5.2-1.9 5.3-2.2.2-1.8-4.4-2.3-7.4-.3-1.7-1.6-3-.4-4.3zm-3.2-17.1l.6-.5c10.4 1.1 19.2 3.8 26.7 7.7.4 2.6-2 5.2-.2 7.2 2.7-.8 3.2-4 5.5-5.1 6 2.7 11.3 6 16.4 10.4.8.7 4.4 3 4.4 4.2 0 1.8-5.7 4.7-7 5.7a21.8 21.8 0 01-13.8 5.3c-1.8-2.2.4-7.8-1.5-10.3-3.8.2-6.8 2.3-10 2.5-2.5-2-1.2-7.9-4-9.8-3.5.7-5.3 3.2-8.2 4.5-2.4-.8-3.5-4.3-5.3-6.8-.6-.7-1.6-1.4-2-2.3-.6-1.6-.6-4.2-1-6.4-.4-2.1-.9-4.5-.6-6.3zM191 65c-1-.1-.8-2.7-.2-3.1.7-.1.6.5 1 .6.2 1.3-.3 1.8-.8 2.5zm3.4-1.7c-.3 1-.6 1.8-1.5 2.2-.6-1 .7-1.9 1-2.6.3.1.5.2.5.4zm-18.7-7.2c4.3-.1 9.6 1.6 14.5 2.1 1 .2 2-.1 3 0 1.1.2 2.7 1 4 1.3 2.7.9 5.5 1.3 7.2 3 8.2 2.6 15.8 6 22.5 10.6.6.4.9 1.1 1.4 1.5.7.4 1.5.4 2.2.8 2.3 1.6 4.6 4 7 6 2.8 2.3 5.5 4.8 8 7.4l-1.2 1.2c-6.2-6-13-11.4-20.8-16.3-2.4-1.4-4.6-3.4-7.5-3.8-.7-1.2-2.5-1.4-3.4-2.5-.7 0-1.3 0-1.9-.2l-.9-.6c.1-.3 0-.5-.2-.6-.2 0-.4 0-.5.2-5.5-3-13-4.2-19.1-6.7-3-.2-7.5-.4-10.2-1.5-2.2.4-5.1.2-6.6-.8.1-1 1.9-1 2.5-1zM220.3 68c-3.1-1.7-6.1-3.3-9-4.6l1-2.5c0-.2 0-.4-.3-.5-.2 0-.4 0-.5.2l-1 2.5a92.7 92.7 0 00-18.4-6.1c-4-1-8.6-1.3-12.7-1.7-1.6-.2-5.2.5-6.4-.5-.9-.6-1.2-3.7-1.5-5.7l-2-11.7c35 .5 66.7 14.9 89.8 37.9l-12.8 12.7c-7.5-7.8-16-14.4-26.2-20zm56 92.7c-2.7-1-1.9-4.6-2.1-6.6-.4-2.6-.4-5.3-.9-7.6-1.3-7-3.3-13.6-5.7-19.8h.2a.4.4 0 00-.3-.8h-.2c-4.1-10.5-9.7-20-15.8-28.2-2.1-2.4-4.3-4.7-6.6-7l1.2-1.1a108.7 108.7 0 0123.6 37c.6 1.5 1 3.2 1.5 4.8 1 2.7 1.3 4.9 2.1 8.3 1.6 6.7 4 13.6 3 21zm-85.4-2.3l1.8-.8a.4.4 0 00-.3-.7l-1 .5c.8-1.5 2.5-3 3.9-4.2 2.2-2 3.7-5.3 6.7-4-.4 2.2-2.4 3.4-3.8 4.9l-.5.6-2.4 1c-.2 0-.3.3-.2.5a.4.4 0 00.5.2l1-.4c-1.4 1.9-2.8 3.8-5 5-.7-.9-.9-1.8-.7-2.6zm6.3-9.8c-2.1 3-4.3 5.9-7.2 8-.7-.7-.9-1.8-1.5-2.5 2.4-2 4.1-7.8 8.7-5.5zm-5-.9c-.7 2.4-2.9 3.4-4.4 5.1-.5-.3-.8-.8-1.2-1.3 1.8-1.1 3-5.5 5.7-3.8zm-3.4-.8l.3.4c-.4 1.6-1.9 2-3 3a2 2 0 01-.5-.3l3.2-3.1zm49.7 7c-2.6-.3-7.2-.4-9-2.1 2.4-4 8.3-.5 9 2zm-10.6-7.9c.4-1.4 1.8-1.3 3.4-1.9 2-.7 4.8-2.8 6.4-1.9-1.1 4.2-3 7.6-8.5 7.4-.8-1-1.5-2.4-1.3-3.6zm-.6-2.3l-.2-.3h.3c.2-.2.3-.4.2-.6 0-.2-.3-.3-.5-.2l-.4.1c-.6-1.1-1-2.4-1.3-3.9 1.2-1.3 3.2-1.9 5-2.5 1.7 1.1 4 1.6 5.7 2.6l-.4.1a.4.4 0 10.3.8l1-.4.3.3c-2.4 2.2-6.7 2.7-10 4zm-1.3 2.3c1.4 1 2 3.8 1.7 5.8-1.5.5-3-.3-4.4-.5-.7-.8-1-2-1.3-3.4.8-1.1 2.5-1.4 4-1.9zm-15.7-13.3c1.6-1.7 3.1 1.4 4.3 3.2 1.8 2.8 3.7 6.3 5 9.8l-1.2.5c-.2 0-.3.3-.2.5a.4.4 0 00.5.2l1-.4c.5 1.4.8 2.8 1 4.2-6.7-.5-14.5-1.9-20.8-3.6 3-4.4 6.8-10.7 10.4-14.4zm6 2.5c-1.8-2.6-5.9-6-1.3-8.7 2.2 1.9 8.4 8 1.3 8.7zm15.7-7.4c.3 5.4-3 8.2-7.5 9.5-1-1-1.6-2.1-1.9-3.8 3-2 5.7-4.3 9.4-5.7zm-10 4.4c-1.2-1-2.4-2-2.6-4 1.7-2.7 7.4-3.7 10.6-1.5-1.9 2.7-5.2 3.9-8 5.5zm-.4-18.2l1.4-1.3v.7c-.2.4-.8.5-1.4.6zm.6 2.8c.3 0 .3.3.6.4 1 4.8-.5 8.4-4 9.7-5.7-1.8 1.8-7.3 3.4-10.1zM197.6 145c-2.8-.5-5.4 1.2-7.7.5l30.8-30.7c.1.3.3.5.2 1.1-.5.6-2 .3-2.3 1 .1.6.8 1.1.4 1.6-.4.7-2.1 0-2.5.8 0 .8.9.7.6 1.7-.6.5-2.2 0-2.5.7 0 .8 1 .6.8 1.7-.8.3-2 .2-2.5.8 0 .7.5.7.4 1.5-.8.5-2.8-.2-3 .8-.2 1.3 1.3.9 1.3 2-.5.8-2.9-.1-3.4.8-.2.9.8.6.8 1.3-.3.3-2-.2-2.5.6 0 1 1.5.6 2 1.3-.3 1.8-3.6-.3-4.5 1 .1 1.3 2.8.1 2.7 1.7-1.2 1.4-4.5-1-5.3.7 0 1.6 2.8.5 3.6 1.5-.6 1.8-4.6-.3-5.7.8.1 1.7 3 .5 3.8 1.5-.4 2.2-3.8 0-5.5 1-.1 1.9 2.7.7 3.4 1.7-1 2.3-5-.7-6.6.9.3 1.3 2.6.7 3.2 1.7zm24.2 0c0-.2-.3-.3-.5-.2l-.4.1c-1.6-1.8-2.1-6.7-3.6-8 .4-1.5 1.8-2.1 3.4-2.5 2.3 2.2 3.3 5.7 4.7 8.7l-1.2.5a.4.4 0 00.3.7l.8-.3c-.8 1-2.5 1.8-3.3 1.6l-.4-.1c.2 0 .3-.3.2-.5zm9.2-40.5l2.4-2.5c1 .6 3.7 3 4.7 4.4 2.5 3.2 5.8 8.2 8.3 12.3.9 1.5 2.4 3.5 2.3 4.4-.1 1.8-2.7 2.2-3 3.6 1 1 3-.2 4.5-.2a49 49 0 016 14.9 88 88 0 012.5 15.5c-2.7 1-6.2-.8-9.6-1.3-4.4-.7-6.7-1-9.7-3.2-1.1-.8-3.3-2.3-3.4-3.2-.3-1.6 1.6-3.6 2.3-4.8 1-1.9 1.7-3.3 2.6-4.7-.7-.5-1.4-1-2.2-1.3h.2c.2-.1.3-.4.2-.6 0-.2-.3-.2-.5-.2l-.9.4c-2.2-.8-4.6-1.5-6.2-3 .4-3.5 2-6 2.8-9.1-2.8-1.4-7.8-.6-9.8-2.8-.1-3-.5-6-.4-9.3 2.3-3.1 4.4-6.4 6.9-9.3zm-.7-1.5c0 1-.5 1.4-1.3 1.5-.1-.2-.2-.4-.4-.4 0-1 .8-1.7 1.7-1.1zm28.4 17c-1.7.7-2.6 1.6-4.5 1.7a21 21 0 015.7-6.4c.8-.5 2.4 1.5 2.4 2.1 0 1.5-2.3 2-3.6 2.6zm3 3.1c-2.5.7-6.7 1.8-9 1.7 1.6-1.7 7-3.8 9.4-5 .8-.5 2.1 1 2 1.9 0 1.5-1.2 1.1-2.5 1.4zm8.2 15.5c0 1.2-1.6 1.3-2.5.9-.2-1.4 1.9-1.6 2.5-.9zm-2.5-1.2c0-1 .8-1.2 1.9-1.1.1 1-1.3 1.5-2 1zm-3-10c-.6.3-1.2.5-1.5 1 1.2 1.5 3.1-1 4.3.3 1 2.2-1.9 2-2.4 3.3.7 1.1 1.8-.4 3.2 0 .5.7 1 1.5.9 2.8-2.8 2-6.8 2.7-9.2 5.1 1.5 2.7 7.4-.2 10.9 1 .5 1.2.8 2.6 1 4-.5 1.5-2.8 1-3.6 2.2.4 1.8 2 0 3.2.2.8.5 1.4 2 .8 3.2-.5.8-2.7 0-3 1 .3 1.4 2 .2 3 .5 1.6 1.3 1.5 5.1 1 7.6-3.7-.3-9.3-.6-12.4-2.3-1-9.4-3.2-17.8-6-25.4l1.7-.7.2-.5c-.1-.2-.3-.3-.5-.2l-1.6.6c-.5-1.5-1-3-1.7-4.4 1.2-1.3 4.8-1.2 7.7-1.6 2.3-.4 5.2-2 5.7 1l-.1.3-1.4.5c-.2.1-.3.3-.2.5zm-10-22.7c-.4 1.4-2.3 1.4-3.8 1.9.6-1.1 2.9-3.2 3.8-2zm-6.3 1.7c0-1.2 3.2-3.6 3.8-4.3.3.1.7.7 1 .8-.4.8-4 3.8-4.8 3.5zM246 94.4c3.6 1 1.2 3.4-.2 5 1.2 1.1 1.8-1.2 3.2-1.2 1.1 0 2.3 1.4 2.3 2.4.1 2.3-5.8 5.8-5.7 8 1.7 1.5 11-4 11.3-.6 0 1.8-2.4.8-2.4 3 1.4.6 1.8-1.2 3.2-1.1.1.3.3.5.6.6.1 1.9-2 1.5-2.3 3 1 1.2 2.4-1.8 3.8-.2-2.1 3.8-6 5.7-9.3 8.5-3.7-5.7-8.7-14.3-13.4-19-.7-.6-1.8-1.3-2.3-2l9.4-9.3c.3.5.6 1 .6 1.4 0 1.4-1.7 1.3-2 3 1.2 1 2-1.2 3.2-1.5zm-16.7-15.3c0 1.4-1.4 2.4-2.3 2.2.1-1.3 1.1-3.2 2.3-2.2zm-5.2 4.2c-.3-1.2 1.9-4.5 2.2-5.3.3 0 .8.4 1.1.4 0 .9-2.4 4.9-3.3 4.9zm-7.1-11c.8-.8 3 0 3.2 1.3.2 1.6-1.3 1.5-1 3.4 1.5-.5 2.4-4.5 4.2-1.7-.1 1.4-1.7 2.3-1.3 3.4 1.6.6 1.3-2.3 3.2-2.1-.2 3.6-3.3 5.4-2.6 9.3 2 .3 6.3-5.6 8.3-5.7.9 0 2.4 1.1 2.5 2.1.2 1.5-1.6 1.8-1.2 3.2 1.2.2 1.3-1.6 2.5-1.7 1.3-.1 2.2.8 2.3 1.7.2 1.5-1.8 2-1.2 3.4 1 .3 1.5-1.6 2.5-2.1 1 .9 3.7 2.5 5.3 4l-9 9.1c.2-1.3 2-2.8 2.7-3.6l2.5-4.2c-3-.9-5.2 4.8-8 4.8-1.2 0-2.7-2-3.9-3l-3.8-2.7c-4.7-3.3-9.3-6.3-14-9.3 1-1.8 4.8-7.4 6.8-9.6zm-3.8-3.1c1.2.3 2.1 1 3.2 1.4-.6 3-3 4.8-4.7 6.8-1.7 2.1-3 4.7-5.3 6.2a61 61 0 016.8-14.4zm-5.9 2.7c-.2-.1-.4 0-.5.2l-.3.8c.3-1.6.5-3.2.5-5 .5-.7 1.2-.8 1.8-.7l-.8 2a.4.4 0 00.7.3l.9-2c.8.2 1.5.8 1.9 1.2-1.6 5.2-4 9.5-6.2 14-.4-2.3 0-4.7.6-7.2.2 0 .4 0 .4-.2l1.2-3c.1-.1 0-.4-.2-.4zm17.1 32.5c.3 0 .3.3.7.4-.1.6-.5 1-1.1 1-.5-.5 0-1.2.4-1.4zm-3.2 3.1c.1-.1.3-.3.2-.6.5 0 .6.2.9.2a1 1 0 00-.2.7c-.5 0-.6-.2-.9-.3zm-3.4 5c-.3.3-.5.8-1.2.8-1.8-2 1.4-4.2 1.2-.9zM201 129c-1.3-.6-1.8-5-.6-6 .7 1.4 2.1 5 .6 6zm2.5-2.4c-1.2-.6-1.6-4.5-.2-5.3 1.2 1 1.9 4.7.2 5.3zm-3.6-13.8c2.3.8 3.8 2.2 5.3 3.7-.6 1-1.5 2.6-3 2.7-1.4.1-4.3-2.1-4.4-3-.2-1.2 1.4-2.3 2.1-3.4zm-12-8c-1.7-.1-3-.6-3.9-1.5.5-5.2 3.9-8.6 7.9-9.5-.8 3.4-2 8.2-4 11zm11.8 4.9c-2.3 0-3.4-1-4.4-2.2.6-4.4 4.8-6.4 9-6.5-.6 3-3 5.9-4.6 8.7zm3.8 3c-1.1-.5-2-1.1-2.7-2 1.2-3.4 3.3-6 4.9-9h.6c.9 3.7.7 9.7-2.8 11zm2.8 11c-1.4-.7-2.5-5.5.4-5.1.2 1.9 1.3 4.1-.4 5zm2.7-2.8c-1.2.2-1.5-3.1-.6-4.2 1.4.3 1.6 4 .6 4.2zm2.4-2.3c-1.4-.4-2-4.3.2-4 .4 1 1.6 3.6-.2 4zm3.2-6.2c.3 1 .4 3-.5 3.4-1.6 0-2-3.9.5-3.4zm-3.9.4c-1.1 1-2.1 2-3.4 2.6-4.5-2.9 3-5.4 6.6-5.5-.3 1.6-2.1 2.1-3.2 3zm-17-8.5a.4.4 0 00.6-.2l1.2-2.9c0 .6.2 1.2.4 1.7-.7 1.4-1.2 3-2.3 4h-.5a.4.4 0 00-.8-.2c-1-.3-1.9-1-2.6-1.7 1-3.9 2.3-7.3 3.6-10.8 1.5 1.4 1.7 4.2 2.1 6.6l-.2-.1c-.2 0-.4 0-.5.2l-1.2 2.9c0 .2 0 .4.2.5zm-3.3 8c-.2-.1-.4 0-.5.1v.2c-.8-.5-1.6-1-2.3-1.7.1-3.2 2-3.5 4.1-2.8l-.6 1.5a.4.4 0 00.4.5c.1 0 .3 0 .4-.2l.6-1.5c2.3 1 4.8 3 5.7 3.6-.4 1.3-1 2.5-2 3.2-2-.7-4-1.4-5.6-2.2v-.3c.1-.2 0-.4-.2-.5zm6.3 13.3c2.2-2.8 3.6 5.5 1.5 6.3-1-1.5-.9-4.3-1.5-6.3zm-1.2 1.5c.1 2 2.3 6.7-.2 7.6-.7-1.6-2.6-7.8.2-7.6zm-3.4 2.3c.5 2 3.2 7 .4 8.3-1-1.6-3-7.2-.4-8.3zm-2.6 11c-.4-2.4-2-6.6-.6-8.9.7 0 .6.6 1 .6-.5 3 2.6 7-.4 8.3zm-1.7 2c-1.6-1.6-1.7-6.8-1.4-8.8l.6.2c.2 2.6 2.2 6.3.8 8.5zm39.3-37.4c.6 0 .9.4 1 .9.1 1-1.3.6-1.7 1.2l.1.8-1.4 1.4-.4.2-.1.4-1.6 1.6h-.2v.2L189 145.3a4 4 0 01-.8-.6c12-14.2 26.5-25.9 38.8-39.7zm18.4 137.4c9-8.6 15-20 21.2-30 .1-1.1.4-2 .7-2.9l1 .4h.1c.2 0 .3 0 .4-.2 0-.2 0-.4-.2-.5l-1-.4c.7-1.6 1.7-3 2.4-4.5.4-5.2 3.3-9.6 4.3-14.7.9-5.1 1-10.9 2-16.5.1-.3.5-.2.5-.4.2 0 .2 0 .2.2l.4.2c.4 4-.3 9.4-1 13.3-1 5.1-1.7 11.2-3.8 16.2-.4.9-1.2 1.4-1.5 2.3-1 2.4-1.7 4.6-2.8 7l-3 6.8c-1 2-2.5 3.9-3.8 6-1.2 1.9-2.4 3.9-3.8 5.6-2.8 3.6-5.4 7.6-8.7 10.9l-3.7 3.7-1.2-1.2 1.3-1.3zm9.8-14c-1.2.5-2.3-.6-2.4-2 1.2.2 2.8.8 2.4 2zm-4-4.7c1.1-.4 4.4 1.8 5.3 2.1l-.4 1.2c-1-.1-5-2.5-5-3.3zM235 234.6c2.4 1.4 4.2 3.4 6.8 4.6.5-2.9-3.8-5.2-4.9-8 5.5-6.8 10.5-14 15.1-21.6 1.6.4 3.2 1.8 5.5 3.6 1.5 1.1 4.3 3 4.5 4 .1 1-.7 2.2-1.7 2.3-1.3.2-2.2-1.8-3.4-1 .1 1.6 2.1 1.3 2.7 2.5.1 1-.6 1.3-1 1.7-1.4-.1-2.1-2-3.6-1.3 0 1.9 2.4 1.3 2.3 3.2-3.6-.3-5-2.9-9.1-2.7.4 4.2 8.7 7.6 3.4 11-1.3-.2-1.8-1.3-3-1.5-.6 1.4 1.5 1.7 1.7 3-.2 1.2-1.2 1.6-2 2.3-1.2-.1-1.7-2-3-1.5-.6 1.3 1.6 1.6 1.8 2.8-.5.5-2.3 3.2-3.9 4.8l-8.2-8.2zm29.7-22.3c-.2 1.5-1 2.4-1.7 3.4-2.4-.8-4.2-2.9-6.3-4.7-2.2-1.7-5.5-3.3-6.2-5.3a72 72 0 0114.2 6.6zm.7-3.6l1 .4c-.4.7-1 1.2-1.5 1.7-4.5-2-9.6-3.5-13.3-6.3l.4-.2c1 0 2.4.2 4 .5l.8.3H257.2l2.5.5a.4.4 0 000 .7l3 1.2a.4.4 0 00.4-.2c.1-.2 0-.4-.2-.5l-2.5-1 2.3.4c2.1.3 3.9-.2 4.2 1.2v1l-1.1-.4a.4.4 0 00-.3.7zm5.3-15c-.6.2-1.9-.4-2-1.3.5-.2 2 .2 2 1.3zm-1.5-3.7c.6-.3 2.6-.4 2.7.5 0 1.4-3 1-2.7-.5zm-7-14.8c3.6-.7 8.7-2.8 12.3-1.5 0 1.7-.1 3.3-.9 4.3-.4.5-2.2-.3-2.3.6 0 1.4 2.6.4 3 1.5a6 6 0 01-1.3 3.6c-1 .2-2-.5-2.5 0-.2 1.5 1.8 1 2.5 1.7.5 1 0 2-.4 2.7-2.5 1.3-7.5 0-9.8 1.5 1.6 3.1 5.4 4 7.4 6.6 0 1.3-.3 2.5-1.2 3-1.2 0-1.8-1.2-3-.5-.2 2.3 3 1.1 2.8 3.4-1.2 1.4-3-1-3.9.2.2 1.5 2.3 1 2.8 2.2-1.3.9-3.9.7-6 .4a25 25 0 01-6.5-2c1.8-5.9 4.5-12.8 5.5-20.3.4-.2.4-.7.6-1 0-2.5.2-4.7.9-6.4zm-34 48.1c.7-.6 1.8.4 1.1 1.1-.7 0-1-.4-1-1zm-2-2.3c.3-.4 1.2-.2 1 .6-.6 0-1.2 0-1-.6zm-38.7-40.3c.2-.8.5-1.6 1-2.1.4 0 .5.2.7.2 1.2 2.3 4.6 3.3 4.5 6.2-2.5-.2-3.6-3.6-6.2-4.3zm12.8 5.5c-2.4.6-7.2 3-8.7.9.6-1.4 2.7-.6 4.4-.9 1.5-.2 3.8-1.8 4.3 0zm-4.2-6.3h.1l2.9 1.2h.1l.4-.1c.8.9 1.5 1.8 1.5 2.9-2.3-.1-3.5-2.3-5-4zm-2.4 9.5c.2-.7 1-1 2.1-.8 1.8-.3 6-2 6.8.2-2.3.6-6.8 2.6-9 .6zm11 1.5c-1 1.2-7.4 4-8.5.8 2.1-.7 6.3-2.2 8.5-.8zm21.8-2l-.8 2.5-.4-.2a.4.4 0 10-.3.7l.4.2c-.9 2-1.9 3.8-3 5.4-1.9 0-2.8-1-3.7-2l2.3-5.3 1.1.5h.2c.2 0 .3 0 .4-.2 0-.2 0-.4-.3-.5l-1-.5c.4-.9.9-1.7 1.5-2.4 1.5.3 2.9.8 3.6 1.9zm.5-2c-6.6.4-2.6-8.6 2-5.8-.2 2.4-.4 4.8-2 5.8zm-2.8 12a6 6 0 012.1-4.2c2 .6 3.7 1.5 5.1 2.6.4 2.3 1.8 4.7 1.7 6.7a43.7 43.7 0 01-8.9-5zm-3 4c1.3-4.3 4-2 7-.1 1.8 1 4 1.7 4.3 3-3.9.9-10 .6-11.3-2.8zm0 7.3c-.7-1-4.6-4.8-1.2-5.3 2.4-.4 4 6.4 4 8.5-1.4.2-1.7-1.8-2.8-3.2zm2.2 5.7c0 1.6-2.6 1.7-2.6 0 .6-.5 2.2-1 2.6 0zm-2-2.3c-.1 1-2.9.8-3.1 0 0-1.9 3.7-1.4 3.2 0zm-2-2.6c-1.1.5-3.7 1.6-4-.2.3-1.2 4.2-2.1 4 .2zm-2.2-3c-.2 1.3-3.8 1.6-4 .3.5-1 3.5-1.6 4-.2zm-2.5-6.3c1-1.3 1.5-4.3 3.2-4.4 1.2-.2 2 1.3 3.1 2-.7 2.4-2 4-3.6 5.4-1.4-.5-1.8-2-2.7-3zm.8 4c-1.2.8-4.6 1.9-5-.2.9-1 4.8-2.1 5 .2zm-2.7-3c-1 1.3-4.9 2.1-5.3 0 1-.7 4.5-1.5 5.3 0zm-1.7-3.1c-1.2 1.1-4.6 1.7-6 1.3.2-2.5 4.3-1.8 6-1.3zm-11.7-4.5c1.1-1.5 6.4-2.3 7.8-.8-1.1 1.4-6.4 2.3-7.8.8zm10 2c-1 1.3-6.5 2.7-7.2.4 2-.3 5.7-2.2 7.2-.5zm30.7-4a22 22 0 01-6 1.7h-.1l-2.9-1.2c-.2 0-.4 0-.5.2 0 .2 0 .4.2.5l1.5.7c-2.2 0-4.2-.5-5.3-2v-.2l1 .3c.2 0 .4 0 .4-.2.1-.2 0-.4-.2-.5l-1-.4c.4-1 .8-2 1.5-2.8 4.1 1 8 2.2 11.4 3.8zm-9.3-11.5c.8-2.2 4.8-2.3 7.2-2.2 1.1-.4 3.3-1.5 4.5-.6-1 .7-4.5 4.4-6.2 4.7-1.8.3-4.3-.6-5.5-2zm5 3.1c1.7 2 4.2 4 4.3 6.6-3.3-.6-7.5-2.2-10.8-3.6-.2-2 .4-3.2 1.3-4.2 2.1 0 3 1.3 5.3 1.2zm-28 0l2.8 1.2h.2c.1 0 .3 0 .3-.2.1-.2 0-.4-.2-.5l-2.9-1.2c4.4-.6 9.6-.9 12.8-2.4.4-.2 1 .3 1.5.6-.6 2.6-1.3 4.6-2.3 6.8l-.4-.2c-.2 0-.5 0-.5.2-.1.2 0 .5.2.5l.4.2-1.8 3.5c-.9 1.5-2.7 6-4.3 6.2-1.8.1-4.9-5.7-5.7-6.8-2-2.7-4.1-4.3-5.3-7.2 1.3-.6 3-1 5-1.3v.1c-.2.2 0 .5.1.5zm-20.7-3.8c1 1.7 3.4 2.8 3.4 4.7-2.2-.4-5.4-2.8-3.4-4.7zm.3 7.2a3 3 0 01-.5.5c-1.2-.7-3.2-1.9-3.2-3.2l.1-.8 3.6 3.5zm-3-4.1c1.2-.7 4 1.4 3.3 3.4l-3.4-3.4zm32.6 34c-.9-.1-.7.7-1.7.5-.4-.7 0-2.2-.6-2.6-.8 0-1 1.2-1.7.7-.9-.6.1-1.7-.5-2.6-1.3-.3-.8 1.1-1.9 1-.7-.5-.1-2.3-1-2.7-.9-.2-.7.6-1.5.4-.6-.7.3-2.8-.9-3-1.2-.2-1 1.8-1.9 1.1-.5-.7.3-2.8-.6-3.2-1.3-.3-.5 1.4-1.5 1.3-.7-1 .7-2.8-.6-3.2-1 .1-.3 1.8-1 2.2-2-.2.3-3.6-1.1-4.5-1.4.2-.4 2.8-2 2.8-1-1.3.5-4-.2-5.3-2.1-.5-.6 2.9-1.7 3.6-2-.8.3-4.7-1-6-1.5.4-.5 3.2-1.5 4-2-.6 0-4.4-1-5.5-1.6 0-.8 2.4-1.3 3.4-3-.1.4-5-1.3-6.5-.8.5-1 1.7-1 3-1.2-1.2.1-4.2-1.6-5.2.3-.7.4-1.6.6-2.4l30.8 30.7c-.5.2-.7.5-1.4.4-.6-.5-.3-2-.9-2.4zm-10-.2c.8-.8 1.4-1.7 2.8-1.9 2.5 2 5.7 3.4 7.4 6.2-4.5 1.3-9.5-.4-10.2-4.3zm-5 4c.4-1.6 2.3-2.8 3.8-2.7 3.2 1.4 3.6 7.5 1.4 10.6-2.3-2-3.5-5.3-5.3-7.8zm-5.1 2.4c.2-1.2 2.1-1.7 3.8-2.1 1.8 3 4.8 6 5.5 9.5-2 0-4.7-1-6.6-1.9 0-1.8-3-3.9-2.7-5.5zm-5.6 5c-.2-.7-.9-1.6-.8-2 0-.4.3-.7.6-1l.6 1.3a.4.4 0 00.7-.3l-.6-1.4 3.1-1c4.5 2.7 2 9.3-.8 12.1-1.3-1.8-2-5.1-2.8-7.6zm-2.5-1.6c1 3 3.2 6 3.2 9.3-2.5.1-4.5-2-6.6-3-.2-1.8-.7-3.3-1-5 .7-1.2 2.7-1.8 4.4-1.3zm10.2-11.7c.2-1 4-3.4 5-3.6.7-.1 3.4.5 3.5 2.1 0 1-5 5.1-6.4 5-1.3-.3-2.3-2.7-2.1-3.5zm-9 5.5l-.5-1.1c2.2-1.3 5.6-2.7 7.4-3.5 1.2-.6 2 2 2.7 3-1.8 2.5-5.1 3.5-8.3 4.8l-.1-.3c0-.2-.3-.3-.5-.2-.2 0-.3.3-.2.5v.2l-.4.2c-1.2-.7-1.4-2.4-2-3.8l.8-.5.4 1a.4.4 0 00.5.2c.2 0 .3-.3.2-.5zm31.6 1c-.3 0-.5.2-1 0-.3-.2-.4-.9-.4-1.5l1.4 1.4zm1.6 1.6h-.3v-.4l.3.4zM189 188.5l.4-.6h.7c1.2 1.3 2.9 2 3.8 3.6 11 10.4 21.3 21.5 32 32.3 1.4.7 2.6 1.6 3.2 3.1-.4 0-.2.7-.7.7h-.2l-.8-.8-.2-1h-.7l-1.7-1.6-.2-.2-35.6-35.5zm42.2 41c-1.2.2-1.9-.9-1-1.5.8.1 1.4.7 1 1.5zm-.2-6.4c-3.1-4-6.1-8.1-6-15.2 2.4-1.5 7.8 0 10.2-1.3-.2-4-2-6.3-2.5-10 2.5-2 7.8-1.3 10-3.8-.4-2-1.4-3-2.2-4.2-.6-1-2.3-3-2.3-4 0-1.3 2-2.5 3.6-3.7 2.7-2 3.6-3.3 7.2-4 3.5-.7 7.6-1.2 10-1.5 2.2-.3.8 5.2.4 7.2a70.5 70.5 0 01-6.6 20.2c-2.4.9-5.2-1.5-7.4-.2.6 2.9 4 3 5.1 5.5a62 62 0 01-14.4 21c-2.3-1.2-3.4-3.8-5.1-6zm-16.6 39.3c-.5.7-1.3 1.4-2 1.2-2-.2-2.8-9-3-11.6 2 3 3.7 6.6 5 10.4zm-2-7.9c-.2-.6.3-.4.3-.8 2.4 1.7 4.4 3.7 6.2 6-2.7 5.8-5.2-2.6-6.6-5.2zm16.9-.4c-1-.3-2.1-2.4-.9-3.2 1.1.5 2.4 2.5.9 3.2zm-1.3-6.2c1.2 0 3.6 3.2 4.3 3.7 0 .3-.6.7-.7 1-.8-.4-3.8-3.9-3.6-4.7zm10-.4c-1.8.1-1.3-2.3-3.4-2.3-.7 1.2 1.2 1.5 1.3 2.7 0 1.2-1 2.5-2 2.6-2.6.3-5.7-6-8.4-6-.4 3.8 1.6 7 2.1 10.7-1.3 2.3-2.9-.3-3.8-1.3-1.8 1 1.1 2.2.2 3.6-1.9 1-1.7-1.6-3-2-1.3 1.1 1.5 2.5 0 3.7-4-1.8-5.5-6.2-8.5-9.1 3.3-3.2 7.7-4.8 11.3-7.5 3.5-2.6 6.5-5.6 9.9-8.4l9.1 9.2c-.5.4-1 .7-1.4.7-1.5 0-1.4-1.8-3.2-1.9-.3 1 3.3 5.1-.2 5.3zm57.3-79.6c-1.4 1-4.3 0-5.8 1.4-.8.1-.8-.5-1.5-.5-2.5 1.5-5.8-.3-8.2 1.7-1.6-1.9-3.6 1.1-5 0-.5.2-.6.9-1 1.3-.8 0-1.1-.7-1.7-1-.8 1-1.6.6-2.5 0-.2.6.2 1.8-.9 2-1.7.2-1.4-1.7-2.7-2-.7.7.8 1.6-.2 2.3-1.4 0-1-1.6-2.2-1.7-1 .2.7 1.4-.2 2.1-2 .9-2-1.7-3.4-2.1-1.1.4.7 1.7-.2 2.5-1.4-.2-1.4-1.8-2.7-2-1.2.8 1.3 1.5.4 2.7-1.9.2-1.8-2.3-2.8-2.2-1.2.3 1 1.7.3 2.6-1.7.2-1.3-1.7-2.6-2-1.1.6 1 2-.2 2.6-1.8 0-1.7-1.7-3-2.1-1 .5 1.2 1.5.2 2.5-1.9.9-2.1-1.7-3.6-2-.7.8 1 1.6.2 2.5-2 1-2.7-3.2-3.8-3-1 .2.7 2 .7 3.2-2.7 1.3-3-3-5.1-3.6-.7 1.7 3.5 3.4 1 4.9-1.8-.4-1.7-2.7-3.4-3.2-.8 1.4 1.8 1.8.9 3.4-2 .7-1.8-2.1-3.4-2.4-.7 1 1.1 1.1.8 2.4a1 1 0 00-.6.6c-2 .2-1.7-1.8-3.2-2.1-.5.8 1 1 .7 2.3-2.6 1-2.5-2.6-4.5-3-.7 1.5 2.2 2 1.3 3.7-2.7.6-2.8-3-4.9-3.7-.4 1.4 1.6 2.2 1.7 3.7-2.6 1.3-3-3-4.9-3.7-.6 1.8 3.1 3.3 1 5.1-2.3-1.1-3-4-5-5.5-1.1 2.2 2.6 2.8 2.5 5.3-.1.1-.3.2-.4.5-2.9-.5-3-3.7-5.3-4.7-1 1.7 2.5 3.2 2.3 4.7-2.9 1.9-3.5-3.8-5.9-4.5-.6 2.4 3 3.4 2.8 5.3-2.8 0-3.9-4.6-6.6-4.7.2 1.9 3.3 2.7 3.4 5.3-3.3.2-4-4-6.6-5.3-.4 2.6 2.8 3 3.5 5.2l-2.5-1c-.2-.2-.5 0-.5.1-.1.2 0 .5.2.5l2.4 1c-3.4.7-4.2-5.3-7.1-5.6 0 1 .7 1.7 1.4 2.5l-2.2-1c-.2 0-.4 0-.5.2v.4c-.8-1-1.8-1.9-3-2l-2.3-1a.4.4 0 00-.3.8l2.7 1c.9 2 3.8 3.3 3.8 5.5-3.2-.7-5.1-4.5-7.5-6.8 1-3 2.1-6 2.7-9.4h103zm-3-2.5v.5c-.2 0-.2 0-.2.2h-.5c0-.2 0-.2-.2-.2v-.5c.2 0 .2 0 .2-.2h.5c0 .2 0 .2.2.2zm-13.2-.8c1.4-1 3.7-2.5 4.5 0 .7-.2.9-.8 1.7-.9 1.3 2 4.2-.4 4.6 2.2-30.6.4-64.4.3-97.5 0-.3-1-.2-2.3-.4-3.4 4.1-4.1 7.8-8.8 11.8-13 1 0 2-.2 2.4.5-1.7 4.7-7.2 7.6-9.6 12.5 3.4-2 7-8 10-10.8l.2-.2a.4.4 0 00.5 0l2.9-1.1c.4 0 .7.3 1 .6-2.6 4.3-6.8 7.2-9.3 11.7 2.5-1.5 4.3-4 6.4-6.4 1.8-2 3.5-5.9 7-4.9-1.2 4.1-5.1 5.5-6.6 9.4 1.6-.4 2.8-2.4 4.5-4.3 1.8-2 3.3-5.7 6.8-4.2-1 3.9-4.9 4.9-6 8.7 3.2-.2 6-10.7 10.8-7.9-1.2 3.6-4.4 5.2-5.9 8.5 3.2-1.3 5-6 7.8-8.2 1.3-.1 2.4 0 2.8.8-1.1 3.5-5 5.2-5.7 8.5 3.2-2.3 5-6 7.8-8.7 1.2 0 2.2.3 2.8 1-1.5 3-4.2 4.8-5.5 7.9 2.7-1.5 4.7-5.6 7.2-8 1.3-.2 2.3.1 3 .8-1.3 2.5-3.5 4-4.7 6.6 2.5-.7 3.8-4.9 6.1-6.6 1 .2 2.4 0 3 .6-.6 2.6-2.8 3.6-3.8 5.8 3.2 0 3.8-7.6 8.3-5-.4 2.5-2.8 3-3.4 5.2 2.8-.1 4-7.3 8-4-.6 1.8-2.5 2.3-3 4.4 2.2-.9 2.8-3.2 4.5-4.5 1 0 2.2 0 2.8.5-.1 2.3-2.2 2.6-2.6 4.6 2.2-.2 3.1-5.7 6.8-3.8-.2 1.6-1.5 2-1.9 3.4 1.9.1 3.1-4.9 6-2.5-.4 1.7-2.3 1.8-2.6 3.6 2 .2 3.4-5.9 6.4-2.8.1 1.5-2 1.8-1.5 3 1.6 0 2.5-4.5 5-2.8.7 1-.9 1.4-.8 2.6 1.6.3 2-3.3 4.5-2.2.3 1.2-1 1.5-.5 2.2 1.5-.1 1.3-1.9 3.2-1.5 1 .5-.3 1.4.2 2.1zM178.5 60.5c.4.5 0 2 .6 2.3 1.1-.4.6-2.4 1.5-3 1.7 0 2.8.5 3.6 1.3.3 1-.5 1.9 0 2.5 1.9-.4.9-2.4 2.6-2.7 4.3-.7 1.4 8.4 3.6 10.6 3-1.7 3.9-5.4 6.3-7.6 1.2.1 2.3.4 3 1 0 1-.9 2-.2 3 2 0 1-3 3.2-2.8 1.2 1-.5 2.7.2 3.8 1.6.1.9-2.2 2.1-2.5 1.2.7.5 2.3.4 3.4-.2 3.1-.6 7-1.9 9.1-3.2-.6-6-2.5-9.3-3.4-5.2-1.4-11.6-2-17.6-3 0-.2-.3-.1-.4-.2-1.4-2.1-2-6-1.7-9-2.9-3.4 1.4-5 4-2.8zm2.4 74.8h-.2c1-1 2-2.3 3.5-2.7.2 2.9-2.3 4-4.1 5.7l1-2.5c0-.2 0-.4-.2-.5zm-2.4 5.8h-.2c2.5-.2 3.7-4.1 6.4-3.9-.7 3-4.6 4.7-6.4 7.3l-.7-.4 1-2.5c.2-.2 0-.4-.1-.5zm.2 54.6l.6 1.5-3.8-3.8a5.6 5.6 0 01-3.1-2.7c1.4-1.2 2.8-.9 4.2 0l.9 2.1a.4.4 0 00.7-.3l-.4-1 .3.2c2.3 2 5.3 5.8 7.2 7.3 0 .9.2 2.2-.4 2.5a18 18 0 01-4.3-3.2l-1.2-2.9c-.1-.2-.3-.3-.5-.2-.2 0-.3.3-.2.5zm3.8 27.4c1-.9 2.6-1.9 4.3-1.2.4 1.2 1.3 2 1.2 3.8-1 1-4.5 2.3-5.9 1 .1-1.2.5-2.2.4-3.6zm58.4 52c-3.1 2.2-6.4 4.2-9.7 6a42 42 0 019.7-6zm-4.1-.2a72.7 72.7 0 00-7 5c-2.4 1.7-3.7 2-4.6 2-.7 0-1.3-.2-2.2-.5-.8-.3-2-.8-3.3-1.1-.7-.2-1.3-.3-2-.3-2.4 0-5 .8-7.6 1.7-2.6.9-5.4 1.9-8.3 2.5-5 1.2-7.7 2.5-9.7 2.5-.8 0-1.7-.2-2.9-.7a5 5 0 00-2-.4c-1 0-2 .4-2.8 1.1-1 1-1.6 2.4-2 4a22.8 22.8 0 00-.5 6.3c-4.3.5-8.7.7-13.2.8 1-4 1.8-8.5 2.6-12.3.6-2.7.7-5.8 2.3-7.7.8-.5 1.7.2 2.8 0 3.2-1.4 6.2-.6 9.5-1.2 1.4-.3 2.7-1 4-1.3 1.6-.3 3.2-.3 5-.6 2.7-.6 5.5-1.9 8.2-2.8a113.7 113.7 0 0042.7-25.5l13.5 13.5a131 131 0 01-14.9 12.7h-.6c-2.4 0-4.7 1-7 2.3zm50.7-157a.4.4 0 00.5.3c6 14.6 9.4 30.5 9.7 47.1-4.3-1-8.8-2-13-2.8-2.1-.4-4.7-.5-6.3-2-.5-6.6-1.5-11.8-2.5-17.1-1.3-6.7-3.4-12.5-5.4-18h.2l2.9-1.2c.2-.1.3-.4.2-.5-.1-.2-.3-.3-.5-.3l-3 1.2v.1l-.8-2c-1.5-4-3.3-7.1-5.1-10.3-1-1.6-1.5-3.4-2.3-4.9-.8-1.3-2.1-2.4-3-3.8-3.7-5.5-7.7-10.6-12-15.2l12.7-12.8c11.9 11.9 21.4 26 28 41.8-.3 0-.4.3-.3.5zM178.4 32.5c3-1 5.7-3.1 8-5.8l2.7 1c1.6.4 2.9.9 3 1 1 .7 2 1.1 3 1.1s1.9-.4 2.4-1c.8-.8 1.2-1.6 1.7-2.3a10.5 10.5 0 011.6-2.3l.4.3c1 .8 2.3 3.2 3.5 5.8.5 1 1 1.8 1.9 2.4.8.6 1.8.9 2.7.9 2 0 3.4-1 5-2l4.3-4c1.2-1.3 2.3-1.5 3.9-1.5l3.3.1-1.1 2.7a.4.4 0 00.4.6c.1 0 .3-.1.3-.3l1.2-2.9a6 6 0 001.7-.4c.9-.3 1.7-1 2.3-1.9.9-1.3 1.4-1.8 2.1-2.2.8-.3 2.3-.6 4.8-.5h1.3c3.5 0 6-1.8 7.7-3.8l3-4 4.4 2.6.5.8a4.3 4.3 0 003.7 2.4c.4 0 .7 0 1-.2 4.1 2.6 8.1 5.3 12 8.2a38.3 38.3 0 01-.4 4 7 7 0 002 5.1c1.8 1.9 4.2 2.7 6.5 3.4 2.4.7 4.7 1.2 6.4 2 1.6.8 2.8 2 3.8 3.4l-29.6 29.5c-11.9-11.8-26-21.4-41.8-28 .1 0 .2 0 .2-.2l1.2-2.9a.4.4 0 00-.7-.3l-1.2 3v.2a130.6 130.6 0 00-48.2-9.9l-.4-2.3a31 31 0 009.5-1.8zm13-19.2c0-1.4 0-2.7-.2-4 3.4 0 7-.2 11.3-.4 1.8 0 4.3.8 6.6 0a558.5 558.5 0 0023.8.3l-1 2.4a.4.4 0 00.3.6c.2 0 .3-.1.4-.3l1.1-2.7 7.3.1 6.7 3.4c-2.3 3.2-4.2 6.7-9.2 6.6-6 0-7.6.5-9.6 3.7s-7.7-1.1-11.7 3.2c-4.1 4.3-8.5 7.9-10.7 3.2-2.3-4.7-4.8-9-7.3-6.4-2.6 2.7-2.5 6.4-6 4.1a31 31 0 00-5.6-2c2.3-3.4 3.8-7.5 3.8-11.8zm62 1.5l-3.5-1.9a13.5 13.5 0 011.4-1.4c.2.2.8.8 1.3 1.7l.8 1.6zm17.8 10.6v1c-3.6-2.7-7.3-5.2-11.1-7.6a7 7 0 002.2-1.6c1-1.2 1.9-2.8 2.4-4.6 0-.5.2-.7.3-.7.2 0 .9.3 1.6 1 .8.8 1.6 2 2.1 3.1 1.5 3.4 2.5 5.4 2.5 9.4zM286.6 40l-.1-.1c-5.6-2.7-14.8-2.2-13.7-9.9l.2-1.5A175 175 0 01286.6 40zM314 30c0 2.6.6 5.5-.7 8.1-.3.7-1 1.3-1.6 2.1-.5.7-.8 1.6-1.3 2-.9 1-3.4 3-4.7 3.5-2.3 1.2-8 1.5-10.6-.4-.5-.3-1.1-1-1.7-1.7-3.4-3.3-5-5.6-5.2-9.6-.3-4.7 3-11 8.9-13 2.2-.7 7.4-.5 9.5.7 3.3 2 5.5 4.7 7.4 8.3zM249 8.8c.3 0 .1.6.4.6 1.7-1 2.2.2 3.7-.6 1.6.8 4 .6 6.2.5.5 0 1.3.2 1.1-.2.3-.7.3.6.8.4 3.9-.8 5.8.9 9.1-.5.7 0-.5.7.4.5 1.6-.5 5.2.3 7.2.1.8 0 1.6-1 1.3 0 4.5-.2 9.3.1 13.4-.1 0-.7.6.8.7.1.2-.8.1.2.4.2 1 .3 2.7 0 4 0l11.3.4c5.6.2 10.4-.1 15.5-.3l-14 13.9c-3.9-3.4-8.9-4.9-13.3-3.7-3.7 1-6.7 4.2-9 7.5-2 5.2-1.3 9.7 2.5 14.8l.6.7-.3.2a176.1 176.1 0 00-18-15.7c.4-5.8-.9-8.6-2.6-12.4-2-4.4-6.5-7.7-7.7-3.2-1 3.5-3.4 5.7-5.3 5.1l-.8-.4a3 3 0 01-.6-.9c-1.7-3-3.4-8.8-6.7-5.3l-1.2 1.4-5.4-2.7c2.2 0 4.3-.1 6.3-.4zm52.7 0c0 .1.2.3 0 .4v-.4zM167.1 146.3a45 45 0 00-6.6.7 21.7 21.7 0 00-7.6 5.4l-2.2-2.2c2.3-1.7 4.5-3.4 7.2-4.8l.5 1.2a.4.4 0 00.5.3c.2-.1.3-.4.2-.6l-.5-1.2a21 21 0 016.1-1.7c0-.2.1-.2.2-.2h2.2v3zm0 7.8a13.3 13.3 0 00-4.4 1v-.1a.4.4 0 10-.7.3c-1.4.7-2.6 1.6-3.6 2.6l-4.5-4.5c1.4-1.6 3.4-3 5.7-4v.1l1.2 3a.4.4 0 00.5.1c.2 0 .3-.3.2-.5l-1.2-2.9-.1-.1c2.1-.9 4.5-1.4 6.9-1.6v6.6zm0 3.1c-1.1 0-2.2.3-3.2.6l-.6-1.4a15 15 0 013.8-.6v1.4zm0 9.1h-.1l-.1.1-5.4-5.4c.5-.8 1.2-1.5 2.2-2 1-.4 2-.5 3.4-.6v8zm0 7.8c-1.6 0-3.1-.4-4.5-1.2l4.5-4.4v5.6zm0 2.8c-1 0-2-.2-2.9-.5v-.2a.4.4 0 10-.6-.3l-.1.2c-1-.3-1.9-.8-2.7-1.4l1-1c1.6 1 3.5 1.6 5.3 1.7v1.5zm0 7.6c-1.6 0-4.1-.4-6-.8l.8-1.7c0-.2 0-.5-.2-.6-.2 0-.5 0-.5.3l-.8 1.8-.8-.2a16 16 0 01-4.5-2.8l4.6-4.6c1 .6 2 1.2 3.2 1.5l-.5 1.4a.4.4 0 00.3.5c.2 0 .3 0 .4-.2l.6-1.4c1 .3 2.2.4 3.4.5v6.3zm0 4.6c-2.6 0-5.2-.4-7.7-1.2v-.2c.2-.2 0-.4-.1-.5-.2 0-.4 0-.5.2l-.1.3c-2.7-1-4.9-2.4-6.7-4.1l2-2c1.4 1 3.1 1.7 4.6 2.5l1.4.5a.4.4 0 00.3.5c.2 0 .3-.1.4-.3 2.1.5 4.3.8 6.4.8v3.5zm-1.5 99.8c-1.5-2.7 0-7-2-10 1.7-1.7-1-3.6 0-5-.1-.8-1-.7-1.2-1.4-.2-1 .6-1 .8-1.7.2-.7-.7-.5-1-.8 0-.9 1.2-.6 1-1.7-.6-.2-1.8.2-2-.8 0-1.5 1.5-1.4 1.8-2.6-.3-1-1.2.6-1.9-.2-.2-1.7 1.7-1.3 2-2.5-.8-1.1-1.4.8-2.4.2-1.5-2 2.2-2.8 2.1-3.4 0-1.5-2 .1-2.5-.2-.6-1.5 2-1.5 1.9-3.2-1-.8-1.6 1.4-2.8.4 0-1.5 2-1.2 2.1-2.5-.6-1.2-1.4 1-2.3.2.2-1.5 1.6-1.7 2.1-2.8-1-.8-1.6 1-2.5.2-1-1.9 1.7-1.9 1.9-3.4-1-.8-1.2 1-2.3.7-1.6-2 1.5-2.4 1.9-3.9-.8-1-1.2.6-2.4.5-1.4-2.2 2-2.7 2.8-4-.9-1.3-2.7 1.4-3.8 0 .3-2.5 3.4-2.3 4-4.5-2-1-2 2-4 1.9-1.6-2.3 2-2.6 2.5-4.2-1.4-.9-1.8 1.7-3.4.8-.7-1.8 1.8-2 2.1-3.4-.7-.6-1.6 1.4-2.5.6-.9-2 1.7-2.2 2-3.8-1-.5-1.5 1.5-2.6.7-.5-2.2 2.5-2.5 3.1-4.3-1.5-.7-1.7 1.6-3.3 1.5-.1-.4-.6-.4-.7-.8.6-2 3-2.4 4-4-1.3-1.2-2 1.6-4 1.2-1.4-2.2 4.3-3.2 4-4.7-.1-1-3.2 2-4.4 2a1 1 0 00-.6-.7c.7-2.9 4.3-2.9 5.3-5.5-2.3-.4-3 2.5-5.1 3a1 1 0 00-.7-.7c.5-2.8 3.7-3 4.7-5.3-2.4-.8-2.5 2.5-4.9 2.4-.5-.4-.5-1.3-.2-2 2-.9 3.6-2.2 4.9-3.8-2-1.2-3.3 3-5.3 2.6.5-3.3 4.2-3.5 4.9-6.6-1.7.4-3.2 2.7-5.1 3.4l.7-1.8c0-.2 0-.4-.2-.5h-.1c1.2-1.6 4.1-2.5 4.9-4.5-1.5-.2-2.4.9-3.3 1.9l1.1-2.6c0-.2 0-.5-.2-.6h-.1c.8-.6 1.5-1.3 2-2.3h-.6l1.3-3a.4.4 0 10-.7-.2l-1.2 2.9c-.1.2 0 .4.2.5-1.8.7-2.8 3.2-5.1 3.6-.6-3.8 6.5-5 5.7-8.7-2.2 1.1-3.5 4.3-6.1 4.3 1.3-3.3 4.3-5 6.8-7.2l1.4.5-.5 1.2a.4.4 0 00.7.3l.5-1.3c2.4.8 5 1.4 7.6 2 .2 33.6.2 59.9-.2 94.4 0 .9.5 2.5-.6 3.2zm-6.6 13.3c-8.8 4.1-13.5 10.3-15 21.3-.2.7-.2 1.5-.3 2.2v-.2h-9c-3 0-5.8.3-8.7.2a4 4 0 00-.5-1c-.5-1.1-1.3-1.6-2.2-2.2l-3.3-2.3-1.1 1.5 1.1-1.5a19.1 19.1 0 01-5.5-6.5c-.1-.4-.7-1.6-1.8-3a8.4 8.4 0 00-6.4-3h-.1c-.5 0-1.5-.4-2.7-1-2-1-4.4-2.5-6.8-3.8-2.4-1.2-4.6-2.4-7-2.5A4 4 0 0086 303c-.7 1.7-1.3 3-1.3 4.6 0 1.6.9 3 2.1 4 1.2 1.1 3 2.2 5.4 3.6 3.8 2.2 5.6 3 7.1 3.8 1.2.6 2.2 1.1 4 2.3l-.8 1.8a.4.4 0 00.8.3l.6-1.7 1.8 1.2 4.6 2.9H102h-.2a1856.7 1856.7 0 01-8 0c-12.3-5.8-23.9-13-34.4-21.3l.8-1c1.7-2.4 2.6-5.8 3.1-9.6a86.6 86.6 0 00.8-12.6c0-4.5-.3-7-.5-9.2l11.6-11.5c11.9 11.8 26 21.3 41.7 28a.4.4 0 00.4.4c.1 0 .2 0 .3-.2 14.9 6.1 31.1 9.6 48.2 9.9.1 1 .3 2 .6 2.8-2.4.1-4.9.4-7.3.8zm-15 30l-2.3-.8c-3.6-2.9-3-3.9 2-2.7 0 1.2.2 2.4.4 3.5zm-20-4.8c0 1.5-3.3.9-7.3-.7h7.4v.7zm-9.5-1.7a55.4 55.4 0 01-7.8-4.5c-6.9-4.7-6.1-3.4-13.6-7.8s-7.3-4.8-5.4-9.8c2-4.9 13.9 6 18.5 6 .6 0 1.2 0 1.7.2l-.7 1.6a.4.4 0 00.4.6c.1 0 .3-.1.3-.3l.7-1.6c3 1.2 4.2 4.4 4.2 4.4s1.8 4 6 7.2c3.2 2.4 4.6 2.9 5 4h-9.3zm-14.4 2.9l-4.1-1.8h4.8l-.7 1.8zm-14.7-3l-28 .2c-4.5 0-9.5.3-13 0-.5 0-.6.4-.6.4-.3 0-.1-.7-.4-.6 0 0-.3.5-.2.6l-.2-.6-2.5.2c-1.4 0-4.4 0-5.2.5-3.4-.4-8-.2-13-.3h-3.6c-.6.1-1 .6-1.6.7l-4-.6c-1.4 0-2.4.5-4 .3l15.3-15.2c2.5 2.6 5.8 4.3 9.6 4 1.4-.2 2.7-.7 4-1 4-2 7.1-5.3 8.8-8.9l.5-1.5c1.2.6 2.8 1.3 5.4 2.2a5.8 5.8 0 006-1c10.2 8 21.3 15 33.1 20.7h-6.4zM9 287.6c.8-.2 1.5-.5 2.5-.5l1.4.1 3 .5h.4c.2.1 1.2 1.8 4 5.5l.9 1.1-.5.7c-2 5.3-1.4 9.7 2.5 14.8l.7.9-15 14.9v-38zm35.3 3.7l17.4-17.4c.2 2 .4 4.4.3 8 0 8.5-.8 18.1-4.3 21.4-4.6-3.8-9.1-7.8-13.4-12zm-22.5.8c-5.5-7.4-2.7-5.8-8.6-6.8-2-.3-3.2 0-4.2.2v-42.8a175.7 175.7 0 0034.2 48.6c-4-3.5-9-5-13.5-3.8-2.9.7-5.3 2.8-7.3 5.3l-.6-.7zm7.6-3.6c2.2-.7 7.4-.5 9.5.8 3.4 2 5.5 4.7 7.4 8.2 0 2.6.7 5.6-.6 8.2-.3.6-1 1.2-1.7 2-.4.7-.7 1.6-1.2 2.1-.9 1-3.5 2.9-4.7 3.5-2.4 1.1-8.1 1.5-10.6-.4l-1.7-1.7c-3.4-3.3-5-5.7-5.2-9.6-.4-4.8 3-11 8.8-13zm14.9 3.8l-.5-.4c4.2 4.2 8.7 8.2 13.3 12a4 4 0 01-3.8.3c-3-1-4.5-1.7-5.7-2.3.3-3.3-.8-7-3.3-9.6zM21 189.3c2.2-.8 4.3-2.1 6.2-3.9.3 6.3 1.4 13.2 4.9 14.8 2.3 1 6.5 4.2 10.6 8 1 3 2.1 6 3.4 9l-1 .4c-.2 0-.3.3-.2.5a.4.4 0 00.5.2l1-.4c2 4.8 4.3 9.5 6.8 14-.3 4.9-.6 9.4 1.3 11.3 3.3 3.2 9.1 8.8 7.5 18.3-1 5.9-.8 8-.5 11.3l-17.8 17.8A174.8 174.8 0 019 240.7v-49.6c4.2.2 8.4-.4 12-1.8zm13-19.2v-2.7.5h2.3c0 12.7 2 25 5.3 36.6a45.2 45.2 0 00-8.7-6.1c-.6-.3-1.4-1.1-2-2.7a34 34 0 01-1.9-12.3c3-3.6 5-8.4 5-13.3zM8.8 124.6c2.2-.9 3.2-.5 1.5 1.4l-1.5 1.4v-2.8zM30.9 156l.3-.8c.3-.8 1-2 .2-2.5 0 .8-.3 2-.7 3-2-4-5-7.2-8.6-9.4l-.5-.2c-.4-1.4-1-2.5-1.8-3.4a4.8 4.8 0 00-3.6-1.8c-2.2.1-3.8 1.2-5.4 2.6l-.3.2H8.8V130l3-2.7-1.4-1.2 1.3 1.2 1-1.2c.1-.4.4-.8.4-1.6 0-.6-.4-1.5-1-1.9-.6-.4-1.1-.4-1.5-.4-.7 0-1.2.1-1.8.3L8.6 102l.3.1a.4.4 0 10.3-.7l-.7-.2v-5.6c6.6-14.5 15-27.8 25-39.9 1 .2 1.9.6 3 1.6 1.4 1 3 2.5 5.2 3.9 2.3 1.3 5 1.8 8 1.8 3.4 0 7.1-.6 11.1-1.4l13.7 13.7a131.2 131.2 0 00-28 41.7c-.1 0-.3 0-.4.2 0 .2 0 .4.2.5-6 14.4-9.4 30-9.8 46.4l-.7.2-2.1.3c-.5-3-1.5-6-2.8-8.5zm-17.3-12.2c2.1-1.3 4-1.4 5.4 1.1-1.7-.6-3.5-1-5.4-1.1zM8.5 93.1a1034 1034 0 01.3-32h.1c1.2 0 2-.5 3-1 1.5-.6 3-1.5 4.4-2.2a10 10 0 013-1.2c.6 0 1.1.2 2 .6.8.4 2 .9 3.6.9s3.4-.6 5.6-1.7c.8-.5 1.5-.7 2-.8a175.4 175.4 0 00-24 37.9v-.5zm0-55.2a252 252 0 0112-8.8c-1.5 4.8-.8 9 2.8 13.9 2.7 3.5 6.4 5.8 10.9 5.4 1.3 0 2.7-.7 4-1a18.8 18.8 0 005-3.6c-3.1 3.3-6.2 6.5-9 10-1.4-.3-2.8 0-4.6 1-6 3.2-7.2 0-10.2 0-3 0-8.5 4.6-10.7 4.3 0-7-.4-14-.2-21.2zm0-28.7l15.3 15.3-.3.3a132.5 132.5 0 00-15 10.6l.2-3.2c.4-7.2.1-15.2-.1-23zM35.9 9h10.4c-2.9 2.3-5.3 4.6-7.7 6.6-2 1.8-4.1 3.4-6.4 4.8-.8 0-1.5.2-2.3.4-2 .5-3.8 1.7-5.4 3.2L9.3 8.8c8.6-.4 17.4 0 26.5 0zM43 43c-.8 1-3.4 2.8-4.7 3.4-2.3 1.2-8 1.5-10.6-.4-.5-.3-1-1-1.7-1.6-3.4-3.4-4.9-5.7-5.2-9.6-.3-4.8 3-11.1 8.9-13 2.2-.8 7.4-.6 9.5.7 3.4 2 5.5 4.6 7.4 8.2 0 2.6.6 5.5-.6 8.1-.4.7-1.1 1.3-1.7 2.1-.5.7-.8 1.6-1.3 2.1zm6.5-34l43.8-.3a175.6 175.6 0 00-49.4 34.6c1.3-1.5 2.3-3 3.1-4.7 1.8-4 1-9.6-2.5-13.1a17.2 17.2 0 00-9-5C40 17.2 43.9 13 49.4 9zm9.8 50.8c-7 1.5-13 1.8-16.5-.4-3.2-2-5.2-4.5-7.7-5.4 2.8-3.3 5.7-6.5 8.8-9.6l15.4 15.4zM95 8.8h25.8c-.2 2.7 1.5 6.3-4.4 8.8C109 21 103.2 22 105 28.3c1.8 6.2 1.6 11.4-3.4 15.4s-1 2.7-6.7 10l1.5 1.3c3-3.8 3.6-5.8 4-7 .1-.5.2-.5.4-.9.3-.3.9-1 2-1.9a13 13 0 005.2-10.6 26 26 0 00-1.1-6.9c-.2-.6-.2-1-.2-1.5 0-.7.1-1.1.5-1.6l.6-.7.7 1.5a.4.4 0 00.5.2c.2 0 .3-.3.2-.5l-.7-1.7 2.3-1.2 6.6-2.8c2.2-.9 3.6-2 4.5-3.5 1-1.4 1.1-2.8 1.1-4l-.1-2.8v-.3a390 390 0 0121.2.3c-1 7.5.8 14.8 6.7 19.7 1.8 1.6 4.2 2.5 6.1 3.6 3 1 6 1.6 9 1.8a53 53 0 00-.5 2.3c-16.8.3-32.8 3.7-47.5 9.7l-.4-.9c0-.2-.3-.3-.5-.2-.2 0-.3.3-.2.5l.4 1c-8.6 3.5-16.8 8-24.4 13.3l.3-.3c.8-1.2 1.8-2.7 3.3-4.6l-1.5-1.2C89 61 90.2 62.6 83 60.2c-7.2-2.4-3.2-5.9-14.2-2.8-3 .9-6 1.6-8.7 2.2L44.3 44A174.9 174.9 0 0195.1 8.7zm5.4-2.4l.7 1.5h-4.3l3.6-1.5zM156.6 141c.2-.1.2-.3.1-.4l-1.1-3c-.1-.1-.4-.2-.6-.1-.2 0-.2.3-.2.5l1 2.2-2.5-2.3c-2-2-5.5-3.7-3.6-6.8l3.4 2.7.5 1.3a.4.4 0 00.6.2l.2-.5c2.7 2.3 5.3 4.8 7.6 7.5-.6.5-1.6.4-2.2.9a17 17 0 01-3.2-2.2zm-8.6-2c0-1 .1-2.2.6-2.8h.4a38.7 38.7 0 018.2 7.6c-.3.8-1.6.6-2 1.3-3-1.5-5-4-7.2-6.2zm0 25.6l-.3 2.5h-3.5c0-2.7.6-5.4 1.2-7.6l.2-.6 1.7.7h.1a.4.4 0 00.2-.7l-1.7-.8c1-2.8 2.7-5 4.1-7.4l2.4 2.4c-2.3 2.9-3.7 6.6-4.4 11.5zm7 2.5h-5.8c0-2.5.3-4.6.7-6.6l.3.3 2.8 1.2h.2c.1 0 .3 0 .4-.2 0-.2 0-.5-.3-.6l-2.8-1.2-.4.1c.6-2.2 1.6-4.1 3.2-6.1l4.6 4.5a13 13 0 00-2.8 8.6zm5-6.4a7 7 0 00-1.1 2.8l-1.6-.6a14 14 0 011.7-3.3l1 1zm.5-.7l-1-1 .6-.8a7 7 0 012.4-1.5l.6 1.4c-1 .5-1.9 1.1-2.6 2zm-1.4 7.1c0-1 .2-2-.3-2.7-.4 1-.6 1.9-.7 2.7h-1.6c0-1.1.2-2.3.5-3.5l1.8.8h.2c.1 0 .3 0 .3-.2v-.4l1.7-2.2 5.5 5.5h-7.4zm.1 1.3v-.5h7v.1l.1.1-4.3 4.4a7 7 0 01-2.8-4zM158 172h.2a.4.4 0 10-.3-.8l-.3.1a7 7 0 01-1-3.3h1.7c.1 2.2 1.4 4 3 5.3l-1 1a11 11 0 01-2.3-2.3zm-7.6 3.1l2-.8a.4.4 0 10-.3-.7l-2 .8a8 8 0 01-.8-2.3v-3.4-.7h6v.7c0 1.2.4 2.3.9 3.2l-1.2.5c-.2 0-.3.3-.2.5a.4.4 0 00.5.2l1.2-.5a10 10 0 002.6 3l-4.5 4.5a20.2 20.2 0 01-4.2-5zm1.1 8c-1.4-1.4-2.6-3-3.6-4.8l-1-1.7v-.4c-.1-.2-.3-.3-.5-.3-.7-1-1.3-2.2-1.5-3.1-.4-1.5-.6-3.2-.6-4.8h3.5c0 2.4.4 4.8 1.3 7v.3c0 .1 0 .2.2.2 1 2.1 2.3 4 4.2 5.7l-2 2zm-2.8 6.4c.3-2 3-5.7 4.2-3-1.6.8-2.2 2.6-4.2 3zm.6 3.4c-.1-2.8 3.2-3.7 4-6.1 1.1-.1 1.6.4 2 1-1.6 2-3.3 4.1-6 5.1zm4 35c-2 .5-4.5-.5-5.9-1.5-.8-4.3 3.2-4.8 5.3-2.7.1 1.4 1.3 2.7.7 4.2zm-4.8 30.1c-2-.4-5.5-2.1-7.4-2.7-2-.7-3.6-.7-5.5-1.5l-3-1.3.6-1.2c.1-.2 0-.5-.2-.6-.2 0-.4 0-.5.3l-.5 1.1c-.5-.3-.8-.6-.9-.9-.7-2.4 2.8-5 .2-7-2.4 1-3 3.7-5 5.1a61.2 61.2 0 01-21.3-14.4c1-2 3.5-3.3 5.7-4.9 2-1.5 3.9-3.5 6.2-4.4 2.5-1 5.8-1.5 8.3-2 3-.5 0 9.1 2.3 10.7 3.7-.6 6.4-2.3 10.2-2.8.7.5 1 2 1.3 3.7l-.5 1.3c0 .2 0 .5.2.6a.4.4 0 00.5-.3v-.1c.5 2.3 1 4.6 2.5 4.8 2.2.3 5.9-4.6 8-4.5 2 .1 4.1 5 5.4 6.6.4.6 1.3 1.2 1.7 2.1 1.5 3.9 1 9.3 1.9 13.2-2.7.5-6.8-.1-10.2-.9zm12.7 14.9c-.8 1-3.4.5-4.7.2-.6-.6-.2-2.2-.8-2.8-1.3.2-.5 2.6-1.7 3-1.5-.2-2.8-.6-3.6-1.5 0-1 1-1.8 0-2.5-1.6.5-.7 2.5-2.1 3-4.4 1.2-1.9-8.4-3.8-10.5-3 1.8-3.8 5.6-6.4 7.7-1.6 0-2.6-.6-3.2-1.5.3-.8 1.3-2.5 0-3-1.6.3-.6 3.2-3 2.8-1.3-1.1 1.2-2.8-.2-3.9-1.6 0-.9 2.1-1.9 2.6-1.3-.7-.4-2.3-.4-3.4l.2-3.2 1.2-2.9c.1-.2 0-.4-.2-.5l-.4.1c.2-.9.5-1.7.9-2.4l.4.1h.1c6.5 2.5 13.9 4 21 5.8 1.9-.1 5.6-.5 6.7 1.3 1 1.8.6 5.7 1 8.3.3 1.2 1 2 1 3.2zm-17.6-4.7c1 0 1.2 2.5.2 2.7-1.4 0-.8-2.3-.2-2.7zm-3.2 1.3c0-1.1 1-1 1-2 .4 0 .5.3.7.3-.5.6-.5 1.7-1.7 1.7zm14.7 7c-2.8-.3-6.3-.5-8.7-1.1-4.5-1.2-9.9-2-14.5-4l-6-2.6.1-.2c.1-.2 0-.5-.2-.5-.2-.1-.4 0-.5.2v.2l-3.7-1.6c-.7-.2-1.6-.1-2.2-.4-1.4-.7-2.3-2.2-4.4-2.3-1.4-1-3-1.6-3.8-3-6.3-2.3-9.8-7.5-15.5-10.4l-5.3-5.4 1.4-1.4c7.2 7 15 13.3 24.5 18.5.9.5 2 .7 3 1.2.8.6 1.4 1.4 2.3 1.7.7.4 1.7.3 2.5.7 2 .8 4 2.3 6 3 1.5.5 3.4.5 5.2 1 3.2.9 6.2 2.7 9.4 3.2l5.7.8c2.2.3 4.2.1 6.4.5.8 0 1.5.7 2.3.8.7.1 1.9-.8 2.3.4-1.1 1.1-4.2.9-6.3.7zM75 74.6L61.8 61.3l7.6-2c3-.9 4.8-1.1 5.8-1.1l1 .1 1.8 1.4c1 .8 2.3 1.7 4.5 2.4 2.1.7 3.6 1.1 5.1 1.1h.7c-4.6 3.5-9 7.3-13.1 11.4zM155.9 59c-6.4.6-12.6 1.7-18.7 3.2-1.3.3-2.3 1.1-3.6 1.4-2 .6-4.3.8-6.3 1.5l-1.4.6v-.2l-.5-1.2L129 63c2.6-1 5.2-2.2 7.6-2.7 2.7-.7 5.6-.5 8-2h1.8c3.3-1.4 8.5-1.6 12.7-1.4l.6-.5c.7 0 .8.5 1.1.9-.6 2.2-3.4 1.5-5 1.7zm-17 4.2c1.5-.3 1.2 2 .9 2.8-1-.2-1.3-1.9-.9-2.8zm-1.9.7c.9 0 1.3 1.2.9 1.9-1 0-1.4-1.2-.9-2zm20.6 9c-11.3.6-20.8 4.7-30.5 7.5-1.5-3.3-1.5-8-2.4-11.9 1.7-3 3.3.5 4.3 2 1.5-.9-.4-2.4-.2-3.9 1.9-1.7 3 .7 3.6 2.1 1.4-.6-.2-2 .2-3.6 5.2-2.8 4.4 6.9 8 8.3 1.5-2.3.4-7.3.5-10.4 1-.8 2.9-1.5 4-1.3 2 .5 1.2 3.2 3 3.9 1.1-1.2-.5-2.3-.2-3.9.6-.5 1.8-.5 3-.6 1 .5.2 2.7 1.2 3.2 1.5-.3-.2-2.5.6-3.4 1.7-1 5.2-1.2 7.5-.9-.4 4-.6 10-2.6 13zm-4.9 21.3c-.7.9-2.1 3-3 3.2-1.3.2-3.6-1.7-4.8-2.4-1.7-1-3-2-4.7-2.5-1 1.1-1.5 2.7-2.3 4.7-.5 1.3-1 4-2.3 4.4-1.4.5-2.5-.6-3.7-1-2-.7-3.9-.9-5.7-1.5-.7 2.5-.8 7-2.1 9.5-3.3 0-6.4 1-9.1.6-1.7-.2-5.1-3.1-6.6-4.2-2.2-1.6-4.5-3.3-5.7-5 2.1-3.6 5.7-5.7 9.1-8 1.4-1 3.5-3 5.3-4.2 2-1.3 5.4-3.3 6.6-3.2 1.8.2 1.7 2.5 3.6 3 1-1-.3-3-.2-4.4a18 18 0 014.2-2.6l1 2.5a.4.4 0 00.5.2c.2 0 .3-.3.2-.5l-1-2.5c4.2-1.7 9.3-2.5 14.2-3.7 3.8-1 7.6-2.5 11.6-1.5-1.2 4.5-.9 10.7-2.5 15.3-.4 1-1.6 2.6-2.6 3.8zm-1 9.7c-3.2-3.5-.1-6.9 1.9-9.3l.6.2c-.6 3.3 0 7.7-2.5 9.1zm-3.6 7.3c-.9-1.1-1.3-2.6-1.7-4 1.2-1.1 4.5-2.6 6.1-1.3-.2 1.2-.6 2.3-.6 3.8a5 5 0 01-3.8 1.5zm-20.6 3.8c-.6.8-1.7 1-2.6 1.7-2.9-1.5-5.2-3.5-7.6-5.5 0-.6.3-.7.6-.9 4.7-.7 8.7 1 9.6 4.7zm1-1c-2.8-1.9-3.5-7.8-1.4-11.1 2 2.5 9.4 10.2 1.5 11zm9.2-5.4c-.8 1.1-2.3 1.6-3.6 2.1-2.4-2.5-4-5.9-6-8.9l.2-.6c4.8 0 8.2 3.1 9.4 7.4zm-2.1 7.9c-.2 2-4.3 2.7-5.3 4.2-1.3-.6-3.1-1-3.2-2.3-.3-2.3 4.7-3.8 6.1-5.1 1.1.7 2.4 2.1 2.4 3.2zm-.7-4c2.4-2.3 5.8-3.4 9.1-4.7 1.5.5 1.8 2.2 2.2 3.8-2.6 2-6 3-9.2 4.4-1-.8-1.8-2-2-3.6zm7.7-16.8c2.3.2 5 2 6.7 3.6-.2 2 .7 2.9.7 4.6-.9 1-2.6 1.8-3.6 1.5-1.4-.3-1.2-1.5-1.7-3-.8-2-2.9-5-2.4-6.3 0-.2 0-.4.3-.4zm-2.4 4.5l-1.2-2.8c.4-.6.8-1.1 1.4-1.5 1.5 3 2.5 6.6 3.6 10-1.2 1-2.9 1.6-4.6 2-1.5-1-1.8-3.1-2.8-4.6.8-1.5 1.2-3.5 2-5l.8 2.2a.4.4 0 00.6.2c.2-.1.2-.3.2-.5zm5 44.4l-39.3-39.3c.7-.7 1.5.3 1.4 1.4.6.1 1 .3 1.7.2.5.4.7 1 .9 1.7.6.4 1-.3 1.7.2.4.3 0 1.4.4 1.7.8.2 1-.3 1.7-.2.8.4.4 2 1 2.5.8 0 1-.6 1.8-.6.6.5.2 2 .8 2.6 1 0 1-1 2-.5.3.6 0 1.9.3 2.4.7.6 1-1.3 1.7-.7.8.5.1 2.4.9 2.8.9 0 .6-1 1.7-.9.3.8 0 2.2.8 2.6.8 0 .7-1 1.7-.7.7 1.1-.5 2.7.7 3.2 1 0 1-1 1.5-1.5 1.6 0 .2 3 1.2 3.7.9 0 .7-1 1.5-.9.3.6-.4 2 .4 2.5.9-.2.7-1.4 1.3-1.9 1.8.4-.5 4.4 1 4.5 1.3-.2.3-2.6 1.6-2.8 1.6.9-.3 3.9.6 5.3 1.8 0 .6-2.9 1.7-3.6 1.8.7-.1 4 .8 5.8 1.8 0 .5-3.1 1.5-3.9 2.5.3-.4 4.7 1.5 5.6 1.2-.5.2-3.1 1.3-3.7 2.4.7-.8 4.9.8 6.6 1-.2.9-1.5 1.3-2.3.8.7 0 3.7 1.5 4.2-.6 1.3-.3 3.3-1.4 4zm-4.8 3.5c2.8-1.2 3.3 3.3 6.2 3.3-.3-1.9-2.2-2.2-2.8-3.8 1.5-1.2 3.5 1.9 4.7 3-.3.6-.5 1.2-1.5 1 0 1.3-.4 2-1 2.4a16.1 16.1 0 01-5.6-6zM89.5 90c-.8.8-1.7 1.5-2.6 2.6-4.7 5.3-10.6 12-14.2 18.7-.8 1.3-1.3 3-2.1 4.4-.9 1.5-2.1 2.8-2.6 4-.2.6 0 1.4-.2 2-.3 1.1-1 2.2-1.6 3.2l-1.8-.7a101.8 101.8 0 0123.8-35.5l1.3 1.4zM119.3 69c-7.5 3.7-15.2 8-21.4 13-2.4 1.9-4.2 4.5-6.3 6.6l-1.4 1.2-1.4-1.4a137 137 0 0116.5-13.8c5.2-2.9 9.8-6 16-8.7l3.2-1.3.5 1.3.2.2c-2 .8-4 2-5.9 3zm2 4c-.8-1.7-1.9-3.5 1.2-4a27 27 0 012.6 12c-1.2-1.5-2.7-5.4-3.9-8zm-2.4-1.6c1 2.3 2.8 5 3 7.4-1.4-.3-10.7-7.6-3-7.4zm-13.5 8c1.4.5 1.4 2.4 1.9 3.8-1.1-.5-3.2-2.8-2-3.8zm-.4 4.3c-1.2 0-1.5-1.1-2.2-1.7.1-.3.4-.3.5-.6.8.4 2 1.5 1.7 2.3zm-8.3 12.6l-6-6c.9-.8 1.7-1.5 2.3-1.5 1.6 0 1.6 1.6 3.4 1.9.6-1.5-1.5-2.1-1.7-3.6 1.5-3 3.3-.7 5.1.4.7-1.2-1.2-1.6-1.2-2.8 0-1.2 1-1.8 2-2.5 3.1 1.6 5.3 4.1 8.1 6 1.8-3-2.9-8.7-.4-11.7 1.5 0 1.3 1.8 2.3 2.3 2-1-1.6-2.7.2-3.8 1.6 0 1.4 1.9 2.8 2.1 1.1-.8-1.8-3 .4-3.4.7-.1 3.1 2.5 3.8 3.4 1.8 2.2 3 4.7 4.3 5.5-3.4 3-7.5 5-11.3 7.7-3.6 2.6-6.8 5.6-10.1 8.4-1.5-.6-2.8-1.4-4-2.4zM76.5 125c2.8 1.2 5.3 2 6.4 3.4-3.8 0-8.4-1.1-12-2-.6 0-2.6.3-3.3-.7.3-6.1 5.1-2.2 8.9-.7zm1.5-3.1c2.5 2 4.7 3.3 6 5a54.2 54.2 0 01-14.3-6.5c.4-6.6 6.2-.2 8.3 1.5zm1.3-17.6c1.3 0 2 .6 2 1.9-.7.2-2.6-.8-2-2zm3.9 4.7c-1.2.3-4.5-1.8-5.3-2.1 0-.3.4-.9.3-1.2 1 .1 5 2.4 5 3.3zm-8.6 2.7c0-.8.5-1.2 1-1.5 1.6 0 2.3 1.8 3.9 1-.2-1.7-2.6-1.2-2.8-3 3.4-.4 6.1 3.7 9.6 2.4.1-2.4-5.6-5.5-5.6-8.3 0-2.5 3.2-2.6 5.1-.8.6-1.8-1.7-1.5-1.9-3 0-1 1-2.2 2-2.3 1.4-.1 2 2.1 3.3 1.3-.1-1.5-1.7-1.5-2.1-2.6l3.1-4 3 3-.6-.2c-1.2 2.7 4.7 5.2 4.7 8 0 2-3.4 4-4.5 5.5-.5.7-.5 1.6-1 2.4-.8 1-1.8 1.9-2.6 3-1.7 2.2-3.3 5.4-5 7.6a5 5 0 01-2 3c-1.8-.4-3.2-2-5.3-3.7-1.3-1-4.5-2.7-4.6-4-.1-.9.9-2.3 1.9-2.3 1.3-.1 2 2.2 3.4 1.2 0-2-2.6-1.2-3-2.7zM63 140c.1-.8.1-.9.5-1.7 2.6 1 5.2 2 6.7 4-2.5-.6-5-1.3-7.2-2.3zm2.2 2.5c-.7.3-1.5.5-2.4.5-.2-.4-.6-.6-.4-1.3.9-.5 2.8-.3 2.8.8zm-5.1 10c0-1.6.4-2.8 1.2-3.6 1.1 0 2 1 2.8 0-1.3-1.2-4.8-2-2.3-4.4 2.8-1.1 7.9.1 10-1.7a19 19 0 00-5-4.5c-1.9-1.4-4.3-2.4-1.2-4.7.8.3 2.1.8 2.7 0-.3-1.6-2.9-1-2.7-3.1 1-1.3 2.3.7 3.6 0 .3-1.7-1.5-1.3-2.3-2v-.6a22 22 0 013.7-.1l1.6.6h.1c.2 0 .3 0 .4-.2v-.3c2.3.3 4.5 1 6.5 1.7-1.4 4.8-3.8 9.6-4.7 15-.7 4.2-1 8.4-2 12.6-3.5 2.1-8.4 1-12 2.5-.2-.4-.5-.6-.9-.8.3-1.2.3-2.7.7-3.8.5-.7 2-.4 2.7-.9-.2-1.3-2.6-.5-3-1.7zm52.8-22.9c0 .8-1 2.6-2.2 2.8-1.4.2-3.2-1.7-4.8-2.6-1.8-1-3.9-1.5-4.3-3 3.6-.6 11-.5 11.3 2.8zm.4-6.8c1.6 2 3.5 3.3 1 4.9-2.9-1-4.3-5.5-3.8-8.5 1 .4 1.4 1.9 2.8 3.6zm-2.1-6c-.5-1 2-1.7 2.3-.3-.2.7-1.8 1.2-2.3.4zm1.5 2.6c0-1.4 3.4-1.5 3.4 0-.4 1.2-3 1.2-3.4 0zm6.1 2.6c-.4 1.2-4 1.7-4-.2 1-.4 3.7-1.7 4 .2zm-.8-3l-1-1.2 2.6 2.6-1.6-1.4zm-.9 6c-.1-1.7 3-1.1 4-1-.1 1.8-2.8 1.3-4 1zm1.7 2.3c.6-1.3 4.7-2 5.1-.2-.5 1.2-4.7 2-5 .2zm2.8 2.3c1-.7 4.6-1.4 5.3 0-.4 1.3-5 1.8-5.3 0zm1.7 3.6c.8-1.1 5-2.5 6-.8-.8 1.3-4.6 1.5-6 .8zm8.9 2.3c-2.7-.3-6.5 2.5-7.2-.4 2-.4 6.7-2.7 7.2.4zm-2.7-5.3l11.5 11.5c-4.2-3.4-7.8-7.5-11.5-11.5zm13.3 15.3a15.6 15.6 0 01-9 1.3c2.2-1 7-2.8 9-1.3zm-2.1-1.9c-2.2.9-6.9 2-9 .9.2-1.3 8.5-3.4 9-.9zm-13.4-5c.7-1.8 6.7-2.6 7.6-.7-1.5 1-5.7 2-7.6.6zm2.3 2.7c1.9-.8 7-3.2 8.3-.5-1.6 1-7.4 2.8-8.3.5zm-16.5-8c1-1.3 1.8-4.9 3.6-5 1 0 2.6 1.5 2.7 2.6.2 1.3-1.5 4.2-3 4.4-1.4.2-2.3-1.3-3.3-2zm-6.6 12.8c1.2-.8 3 .3 4.2.7.5 1.7-.5 3.6-1.4 4.6-1.6 0-2.8 1.3-4 .3-.5-2 .6-4 1.2-5.6zm-3.6-10.6c-.5-2.2-1.8-4.6-1.7-6.7 3.4 1.2 6.3 3 9 5-.4 1.8-1.2 3-2.2 4-2.1-.3-3.5-1.3-5.1-2.3zm-8.7 4.3c.8-1 2.7-1 4.5-1.5 3.3-.8 6.7-1 8.4 1.3 0 .9-.2 1.6-.5 2.3l-2.4-1a.4.4 0 00-.3.7l2.3 1-.7 1c-4-1-7.9-2.2-11.3-3.8zm9.3 11.2c-.8 2.8-4.9 1.9-7.6 2.4-1.5.2-3 1.6-4 .6 1.6-2 4.3-3 6.1-4.9 2 .6 4.7.3 5.5 2zm-9.5-9.5c3.5.4 7.4 2.2 10.8 3.4.7 1.7-.3 3.2-1 4.2a10 10 0 01-9.8-7.6zm15.7 2.5l2.1.9-.4.6c-1.5-.3-2.8-.7-3.6-1.7-.2-1.7 1.8-4.1 2.5-5.5 1-1.7.5-3 2.1-3.2 1.2-.1 2 1.2 3 2-.8 2.5-1.8 5-3.1 7.1l-2.3-1c-.2 0-.4 0-.5.3-.1.2 0 .4.2.5zm11.5 4.8l.9.3c-2.9.6-7 1.7-10 1.7a39.8 39.8 0 018.4-17.6c.3 0 .4 0 .4.2 2.5 1.7 3.8 4.5 5.5 6.8 1.8 2.3 4.2 4.3 5.1 7.2-2.3 1-5.2 1.1-8 1.5l-2-.8c-.2-.1-.4 0-.5.2 0 .2 0 .4.2.5zm-14.3-37c.1-.8.5-1 1.1-.6.2.8-.7 1-1 .6zm2.8 12.5c-2.6 2-7.8-.4-10.6 1.5.2 4 2.4 7 2.5 10.2-2.2 2.5-8.2 1.2-10 4.2 1.2 3 3.4 5.2 4.7 8-.8 2.2-4 3.3-6.1 4.7-1.2.8-2 2.2-3.2 2.6-3.9 1.3-8.7 1-12.7 1.5-.8-7.3 3.6-18 6-24l.3-1.3.2.3 3 1.2c.2 0 .4 0 .4-.2.1-.2 0-.4-.2-.5l-2.9-1.2-.4.1c.2-.8.5-1.6 1.2-1.8 2.4-.7 5 2.8 7 .2-.2-2.3-4.5-3-4.9-5.3-.2-1.3 1.6-4 2.8-6 1-1.8 2.1-3.2 3.4-5 2.9-4.2 5-7.5 7.6-9.6l.7-.4c5.2 5.5 10.2 11.2 11.2 20.8zm-5.7-19.6c-.4 0-.7-.4-.8-.8l.8.8zm2 4.3c-.1.9-1.3.3-1.4-.2.2-.8 1.4-.3 1.5.2zm-1.2-4.6l-1.4-1.4.1-.1c.9 0 1.3.5 1.3 1.5zm-41.3 22.2l.5-1.6 1.7.7-1.6 2.8c0 2.4-1 4.5-1.7 6.6-1.5 4-2.7 8.4-3.2 13.6l-.6 6.8c-.2 1.4-.3 3.5-1.5 4.4-.7-5.8 0-12.3 1.7-17-.3-5.2 3-11.7 4.7-16.3zm80.6 31.5c-.8 2-1.6 4.1-1.7 7-34.2 1-70.6.2-104.6 0 2.2-1.3 5.6-.4 7.2-1.8 3.3.3 7 .4 9.3-1 1.9 1.6 3.5-1.1 5.1-.2.9 0 .6-1 1.3-1.1.8 0 1 .6 1.5.8.6.1.6-.5.8-.8.9 0 1 1 1.7 1 .8-.6-.4-1.5.7-2 2-.5 1.6 1.4 3 1.6 1-.2-.7-1.2.1-1.9 1.7-.3 1 1.7 2.4 1.7 1-.4-.5-1-.2-1.9.2-.2.6-.3.8-.6 2-.2 1.4 2.2 3 2.3.8-.7-.8-1.7 0-2.3 1.4-.4 1.7 2.2 2.7 1.9 1.4-.4-1.4-1.9 0-2.8 2.2 1.8 3 3 2.2-.2 1.9-.2 1.8 2.4 2.7 2.1 1.2-.3-1.1-1.9.2-2.7 2-.3 1.6 1.8 3 2.1.7-1-1.2-1.5-.4-2.5 2-1 2.1 1.6 3.6 1.9 1.2-.5-.9-1.6 0-2.4 2.3-.8 2.2 2.4 3.8 3 .7-1.1-1.2-2.3-.2-3.6 2-1 3.1 4.3 4.4 4 1.3-.3-1.8-3-1.7-4.2 2.2-1.5 2.4 2.2 4.3 2.3.7-1.2-2.2-2-.6-3.4 1.4.2 1.7 1.6 2.7 2.4 1.2-.7-.8-1.2-.4-2.4 1.6-1.3 2.5 1.2 3.6 1.7.6-.9-1.3-1.8 0-2.7 2.2.2 2 2.8 4 3.4.7-1.5-2.6-2.4-1-4 2.3.4 2.6 2.9 4.4 4 1.2-1.3-2.2-2.4-1.3-4 2.5-.5 2.6 3.1 4.7 3.7 0-2-2-2-1.9-4.2.4 0 .4-.6.8-.6 2.4 1 2.9 4 5 5.3 1.1-2.2-2.4-3-2.6-5.1 3.2-1.5 3.4 3.4 6 4 .8-1.7-2.2-2.9-2.6-4.7 3-1.9 3.3 4 6.1 4.5.4-2.2-2.6-2.9-3-5.1 3.3-.5 3.6 4.9 6.8 4.5-1-1.8-2.8-2.8-3.6-5 1.5-.4 2.4.3 3.2 1.2l-2.1-.8c-.2-.1-.4 0-.5.2-.1.2 0 .4.2.5l2.9 1.2H130.3c.7 1 1.5 2.2 2.6 2.7.8-2.2-3-3.1-3.4-5.6.3 0 .5-.3.7-.6 2.3.7 3.4 3.2 5 4.8l-2-.8c-.2-.1-.5 0-.6.2 0 .2 0 .4.3.5l2.8 1.2h.2c.1 0 .2 0 .3-.2l1 .5c-.5-2.2-3.4-3.7-4.3-6.2 4-.2 5 5.6 8.5 6-.1-2.4-4-3.8-3.8-6.4 3.4 1.4 4.9 4.7 7.4 7a25.8 25.8 0 01-.8 2.6zm-.6 18.9l.5-.7h.7v.1l-1.2.6zm2.5 2c0 .4-4.5 6-6 6.2-1.2.2-2-.3-2.5-.7 1.4-2.8 3.6-4.7 5.5-7a.4.4 0 00.6.3l1.6-.7c.4.6.8 1.2.8 2zm-3.9 6.2c1.3-1.7 3.8-6.3 5.8-3.8-1.6 1.3-3.1 5.5-5.8 3.8zm2.6 7.2c1.1 2 2 6.3 1 8.9-1.7-1.4-2.9-7.3-1-9zM101 231a95.4 95.4 0 01-12-15.3c-1.1-1.5-3.2-4.6-3-6 0-1.7 2.5-2 3-3.5-1.3-1.2-3 .4-4.8 0l-1.8-3.2.6-.2.2-.5c-.1-.2-.3-.3-.5-.2l-.6.2c-2.6-5.8-3.8-13-6-19.3.5-2.2-.6-4.4-.6-7 .5 0 .5-.5.9-.6 5 1.6 10.6 1 15 2.6 3 1 5 4 7.3 5.5-1.1 3.6-3.4 6-5 9.3 1 1.5 3 2 5 2.7l-1.6.6c-.2.1-.3.3-.2.5a.4.4 0 00.5.2l2.4-1c1.3.5 2.6 1.2 3.3 2.3-.8 3.1-1.9 6-3 9 3.1 1 7.8.5 10 2.5-.3 3.4.8 6 .4 8.7-.3 2.4-3 4.8-4.4 6.7-1.7 2.4-3.1 4.7-5.1 6zm3.4-1c-.2-1.1.7-1.8 1.4-1.4l-1.4 1.3zm-14.4 10.3c-.2-1.8 1.7-1.8 1.9-3.4-1.1-.9-2.2 1.2-3.4 1.5-3.4-.9-1-3.4.2-4.9-1-1-1.7 1.1-3 1-1.3 0-1.6-.8-2.3-2 1.5-3 4.3-4.8 6-7.7-1.8-2.2-11.4 3.5-11.5 0-.1-1.6 2-.7 2.1-2.5-1-1.3-2.2 1.3-3.6.4-.8-1.8 2-1.7 2.1-3.2-1.3-.9-2.1 1.3-3.4.4-.1-2 2-3.5 3.4-4.6 1.6-1.2 3.6-2 4.7-3.6 0-.3.4-.2.4-.4h.6c3.7 5.5 8.6 14 13.2 18.6.8.8 2.4 1.5 2.5 2.3.4 2-2.1 4-3.8 6l-4.2 4.2c-.8-.6-1.9-1.5-2-2zM86 227c.1.7-3 3.8-3 4-.4 0-1.1-.6-1-1 1-1.4 4-2.8 4-3zm-5 2c-.6 0-.8-.4-1-.9.2-1 5-1.8 5-1.8s-2.4 2.5-4 2.7zm-23-56c.1-.3.5-.5 1-.5 1.5 1 1 3.4 1.3 5.1.8 7.4 2 16.2 4.6 22.3.4 3 1.1 5.6 2.4 8.3a131 131 0 0016 27.5c1.3 1.5 3 2.8 4.3 4.3l3.4 3.4-1.4 1.4a104 104 0 01-28.3-50.6c-.3-1.9-1.3-3.6-1.7-5.5-.9-5-1.8-10.3-1.7-15.7zm6.5 21.2c0-1.3 2.4-1 3.2-.7-.4.9-2.6 2-3.2.7zm2.6 1.7c-.3.7-1.4 1.1-2 .4.3-.8 1.4-1.2 2-.4zm16.5 13.8c-2 2.2-7 6.2-9.3 8-1.2-.4-1.7-1.4-2-2.7a40 40 0 0111.3-5.3zm-5 .4c-2.2 1-4.4 2.5-6.9 3.2-5.4-4.3 8-4.8 10.4-5.1-.7 1.3-2.3 1.3-3.6 1.9zm1-6.2a.4.4 0 00.5.2l.8-.3.8 2.5c-3 1.7-8.2 1.4-11.9 2.5-.2 0-.3-.2-.4-.3l2-.8c.2-.1.3-.3.2-.5 0-.2-.3-.3-.5-.3l-2.3 1c-.8-1.4 1.7-2.8 3-3.5-1-1.2-2.6.2-3.9.2a1 1 0 00-.6-.7c-.5-2.4 2.1-1.6 2.5-3.2-.7-1-1.8.4-3 .3-4.8-4.3 6.2-4.8 7.9-8.1-3-1.8-7.7 0-10.8-1a10 10 0 01-.9-4c.8-1.4 3.3-1 3.9-2.4-1-1.1-2.4.2-3.7.2-.6-.6-.9-1.6-.8-3 .5-1 2.8-.3 3.2-1.5-.3-1-1.8 0-3.2-.4-1.3-1.3-1.6-5.7-.9-7.6 4.5.8 10 .5 13 2.7 1 10.2 3.4 18.7 6.1 27.1l-.8.4c-.2 0-.3.3-.2.5zm38.4-10.1l-2.2-4.5 1.8-.7a.4.4 0 10-.3-.7l-1.8.7a65 65 0 01-2-5.7l.2-.4.4-.2c4.4.6 8.4 1.1 12.3 1.8l-.4.2a.4.4 0 00.1.8h.1l1.6-.7 6.7 1.5c-1 3.3-3.3 5-5.3 7.9l-2.8 3.8c-.5.7-2 3.5-3 3.6-1.7 0-4.6-5.7-5.4-7.4zm-3.4 6.1c1-1 2-1.8 3.6-2.1 1.4 1.7 2.4 3.8 3.8 5.5a6 6 0 01-2.3 3.2c-2.6-1.3-3.8-4-5.1-6.6zm-2.6 9.3c.7-1.4 3.2-3.4 4.3-3.1.6 0 1.7 1.7 1.7 2.5 0 1.3-2 3-2.8 4-1.1 1.5-1.6 2.9-3 3.6-1-1.4-1.1-4.9-.2-7zm.7-8.2c1.1 1 2.2 2 2.5 3.8-1.9 3-7.2 3.7-10.8 1.7 2-2.6 5.1-4.1 8.3-5.5zm-3.2-5.1c1.6 0 1.7 2 2.5 3.6-2.8 2.1-6.2 4.8-9.5 5.7.4-1.3.2-4.3 1.5-6.1.1-.3 4.8-3.3 5.5-3.2zm-2.4-6.4c.6.6 1 1.3 1.3 2.1a.4.4 0 00.2.6l.7 2c-1.4 1-3 2.4-4.7 2.5-1.2 0-2.7-.9-4-1.5h-.2c0-.2-.2-.2-.4-.2-1.2-.5-2.4-.8-2.8-1.7 2.4-2.1 6.6-2.6 10-3.8zm5.1-3.8c-1.5.2-2.3 1.5-3.6 1.3-1.8-.4-2-3.9-1.9-5.8 3-.6 6.6 1 5.5 4.5zm2 3.9l.3.2.7 1.6c.7 1.6 2.2 3.6 2 4.9-.3 1-2.1 2.3-3.3 2.1-1.7-.3-2.9-4-3.8-6.7l1.7-.7a.4.4 0 10-.3-.7l-1.7.7-.7-2c.7-1 2.2-1.4 3.6-1.8.6.3 1 1.1 1.5 2v.4zm-18-10.3c2.9.1 7.6.2 9 2.6-3.4 3-7.9 0-9-2.6zm9 4c.8.4 1.7 2.7 1.5 3.7-.2 1.4-1.7 1.3-3.2 1.9-1.8.7-4.5 2.7-6.5 2.1.3-3 2-4.5 3.1-6.6 1.8.3 3.7-1.6 5.1-1zm32-3.3a.4.4 0 00.6.3l1.8-.8c-1.9 2-3.7 5.8-7.2 4.3.2-.6.6-1.2 1-1.7l1.5-.6c.2-.1.3-.4.2-.6 0-.2-.3-.3-.5-.2l-.2.1c1-1 2.1-2 3-3.2 1.8-2 3.3-4.3 5.6-5.7.6.5.6 1.7 1 2.3-.5 1.4-1.8 2.7-3.3 4.2h-.3l-2.9 1.1c-.2.1-.3.3-.2.5zm-95-12.8c1-1.1 2.5-.4 3.7-.4 7 .2 12.9-.5 19.9-.2 6 .3 10.1 0 15.3.6 18.9-.7 40.6-.3 61.3-.2v.2H42.3zm13.4 1.3c-1.2-.5-1.4 1.7-3 1.5-.8-.2-1-1-1.4-1.7-.8.2-1 1-2 .9-1.4-.8-2.8-1-4.3-1.2h97.6c.2.7.5 1.3.5 2.2-2.8 2.6-6 6.5-9.1 10-.4.3-.7.8-1 1.3l-1.2.4a.4.4 0 000 .8c-.6.6-1.4 1-2.3.8v-.2c-.1-.2-.4-.3-.6-.2l-.3.1h-.1c1.6-4.6 6-6.5 8-10.7.7-.5 1.7-.8 1.7-2-2.3 1.6-5.1 4.8-7.6 7.6-1.7 1.8-3.6 6-7 4 .4-1.7 1.6-2.7 3-3.4 1.7-3.2 4.7-5.2 6.3-8.5-2.3 1.1-3.9 3.6-5.7 5.7l-5.5 6.2c-1.1 0-2-.1-2.4-.9 1.7-3.6 5.3-5.1 6.6-9-3.7 1.1-6.1 10.7-11.2 8.4 1-3.8 5-4.7 6-8.7-3 1.7-5 6.1-8 8.5-1.1 0-2.2 0-2.7-.6.9-3.1 4.4-5.4 6-8.5-3.3-.2-6.5 11.5-10.9 7.4 1.4-3.3 5.3-5.2 6-8.5-1.6.5-2.6 2.7-4 4.5-2 2.1-3.6 5.6-6.6 3.4.8-2.8 4.1-4.8 5.3-7.9-3.4.6-5.2 10.2-10 7.2 1-2.9 3.6-4.1 4.7-7-2.4 1.2-4.1 4.8-6.4 6.8-1-.1-2.2 0-2.8-.6.2-2.1 3-3.4 3.6-5.8-2.9.2-4 7.9-8 5 .3-2.5 2.6-3 3.2-5.2-3 .8-4.2 7.5-7.9 4 .6-1.8 2.5-2.4 3-4.4-2.2.8-2.7 3.2-4.5 4.5-1-.1-2.5.2-3-.5.3-2.2 2.4-2.6 2.8-4.6-2.2.2-3 5.7-6.8 3.8-.4-1 1.3-1.5 1.3-2.8-1.6-.1-3 4.6-5.3 2 .3-1.8 2.4-1.8 2.3-3.9-2 .7-2.3 3-4 4-1 0-1.8-.2-2.3-.8 0-1.4 2-2 1.7-3.2-1.7 0-2.8 5-5.3 2.8-.1-1.3 1.1-1.3 1-2.6-1.5-.3-2.3 3.7-4.4 2.2-.7-1 .8-1.1.6-2.2-1.3-.6-1.8 2.3-3.2 1.5-1.3-.1 0-1.4-.4-1.9zm49.9 85.7c-.2-1.5 1.1-2.5 2-2.1-.3 1-.8 2.6-2 2zm3.1-.2c-.2.4-.3 1-1 1-.2-.9.5-1.5 1-1zm5.8 5.5c-.2-1.7 2.2-2.4 1-3.8-1.5.2-1 2.4-2.3 3-1 .1-1.4-.4-1.7-.9 0-1.6 1.8-2.2 1-3.8-1.8 0-1.5 3-3.1 2.5 0-3 3.7-6 2.5-9.5-1.9-.1-6 5.6-8 5.7-1 0-2.5-.9-2.6-2.1-.1-1.7 1.9-1.7 1-3.6-1.2.3-1.1 2-2.5 2.3-1-.3-1.9-.9-2.3-1.9 0-1.4 2-1.9 1.5-3.2-1.6-.5-1.3 1.8-2.8 2-1.3 0-2-1.7-3.4-3l-.2-.2 2.4-2.3v.1c1.7.2 2.8-1 4.2-2 .9-.8 2.6-2.9 3.8-2.8 1.2 0 3 2.6 4.2 3.6 1.4 1 4 2.2 5.8 3.6.8.6 1.2 1.4 1.9 1.9.8.6 2 .7 2.7 1.2.8.5 1.2 1.4 1.7 1.7 2 1.4 4.2 1.4 5.3 3.2-2.2 2-6.6 13-10.1 8.3zm10.8-2.8c-1.2 2.5-1.9 5.2-3.6 7a7.3 7.3 0 01-3.2-1.7c2.2-5 6.4-8 9.1-12.5h.6c-.2 2.5-1.8 4.9-3 7.2zm2.5 7.5c-.1.6-.3 1.1-.7 1.5l.7-1.5zm-.2-1.7l-1.2 2.9v.3c-1.2-.3-2.4-.6-3-1.5 1.5-5 3.7-9.3 6-13.6l.5.2c-.2 3.7-1.6 7.4-2 11l-.1.5-.2.2zm-18-36.4l.4-.5-.2.4h-.2zm.8 1.2c.9.2.3 1.5-.6 1.2-.2-.8.3-1 .6-1.2zm3-1.1c-.7.2-.6.1-1-.2-.1-1 1.3-1.1 1 .2zm4.9-3.8c-1.8 0-1.8-2.3-.5-2.8.9.3 1.2 2.2.5 2.8zm14.6-17.8c2-2.2 2.5 4.1 1.7 5.5-1.5-1-1.3-3.5-1.7-5.5zm-1.9 1.7c1.4.9 1.7 4.9.2 5.7-1-1-1.6-4.7-.2-5.7zm3.6 14c-2-1-4-2-5-3.9 1.3-4 5.6-2.2 7.3.5a8.7 8.7 0 01-2.3 3.4zm9.4 4.7l1.1-2.6c0-.2 0-.4-.2-.5-.2 0-.4 0-.5.2l-1.1 2.7c-1.2-.4-2.6-1.2-3.6-1.8-1.7-1-3-1-3.2-2.1-.2-1.4 1.3-2 2.1-3.2 2.9 1.4 6.2 2.2 8.3 4.3 0 2.8-1.3 3.4-2.9 3zm2.7 3.1c1.6.1 2.8.6 3.8 1.3 0 5.7-4 8.6-7.6 10 .5-3.7 2-8.2 3.8-11.3zm-15.3 1.5c1.1-1.9 2.4-6 4-6.4 1.4-.2 2.8 1.2 3.9 2.1-.4 4.9-5.1 6.4-9.1 6.8-.6-.9.6-1.4 1.2-2.5zm2.6-7.2c-1.8 3.2-3 6.9-5.8 9.1-1.6-5.7 1.3-14.3 5.8-9.1zm-5.8-13.2c1.6.5 2.4 5.2 0 5.3-.6-1.2-1.5-4.4 0-5.3zm-2 3c.5.9 1 3.4 0 4-1.1-.3-1.8-4.2 0-4zm-3.9 3.4c.7-3.6 4.2 2.5.6 2.8.1-1.2-.7-2.1-.6-2.8zm-2.1 1.7c2-.4 1.8 3 .6 3.4-1.4 0-1.3-2.6-.6-3.4zm6.8.4c1 0 1.6.5 2 1-.5 3.5-5.2 4-8.2 4.3.8-2.1 4.4-3.4 6.2-5.3zm13.1 15.7c-.2 0-.4 0-.5.3l-.1.2c-.4-1.3-.8-2.8-.7-3.9.5-3.7 3.6-5.2 6.2-1.9-1.2 3.7-2.2 7.6-3.8 10.8-.9-.7-1-2.2-1.4-3.7l.5-1.2c0-.2 0-.5-.2-.6zm-33.3-5.7h-.2c0-.3 0-.4-.2-.4.1-1 .9-1.1 1.7-1.3.3-.7 0-.7 0-1.5.5-.5 1-.7 1.9-.8.3-.7 0-.8 0-1.5.4-.6 1.5-.3 2-.9 0-.7-.5-.9-.3-1.7.5-.6 2-.2 2.5-.8 0-.8-.6-1-.6-1.7.4-.9 2-.4 2.6-1 0-.8-.7-.8-.7-1.6.4-.6 1.9-.2 2.6-.6.3-1.1-.8-.9-.7-2 .7-.4 2.4.2 2.8-.5 0-1-1.4-1-.9-1.7.9-.4 2-.4 2.6-1.1 0-.7-1-1-.4-1.5.7-.6 2.8.4 2.7-1 0-.8-1-.5-1.3-1.1 0-2.1 3 .1 3.6-1.5 0-.8-1-.6-1-1.3 1.1-.3 2 .4 2.7-.4.2-1.2-1.7-.5-2-1.3.2-1.9 3.6.3 4.6-1-.2-1.3-2.7-.3-3-1.5.7-2 4.4.4 5.5-.9.1-1.7-2.8-.5-3.6-1.4.7-2.2 4.8.5 5.8-1.3-.5-1.2-3.2-.3-3.9-1.3.6-2 4.5.1 5.5-1 0-1.9-3.4-.2-3.6-2 1.2-1.4 4.6.5 6.6-.4-.2-1.2-1.5-1.3-3-1.3.8-1 2.3.1 3.4-.4 1.2-1.5 4.4-1 5.6.4l-.1.2-39.2 39.1zm34.4-32c.2-.2.6-.2.6-.5.4 0 .4.2.7.2.7 2 2.4 7 .4 8.3-1.3-.5-1-2.8-1.5-4.2-.3-1-1-2.3-.2-3.8zm-4.3 12.5c-1.4-1-2.7-7.4 0-7-.3 2.5 2.2 6 0 7zm2.6-2.1c-1-1.6-2-6.4-.4-7.9 1.1 1.3 2.7 7 .4 7.9zm-.9-8.7l-2 1.6 6-6c-1.2 1.5-2.5 3-4 4.4zm9.6 1.9c-1-2.1-2.6-6.5-1.5-8.7 1.7 1.4 1.8 6.6 1.5 8.7zm-.2-12.7c-1 .3-1.8.2-2.6-.7 1-2 3.5-4.3 5-1.7l-2.4 2.4zm-.3-65.8l1.2 2.8a.4.4 0 00.5.3c-.5 3.2-1 6.4-2 9.4-3-1-5.2-3.5-8-5.3-2.6-1.8-5.6-3.6-7.3-6.1 4.9-4.3 11.3-7.1 18-9.6 1.7.7.6 2.9.4 4l-1 6.9-1-2.7-.6-.3c-.2.1-.3.4-.2.6zm-29-72.5L118 47c14.6-6 30.4-9.4 47-9.7l-1 6-1.5 6.1c-.4 2-.3 4.6-2.1 5.8-2-.4-3.6 0-5.3.2-4.3.6-9 1.6-13.4 2.5-6 1.3-11.7 3-17 5.2l-.2-.5c-.1-.2-.3-.3-.5-.2-.2.1-.3.3-.2.5l.1.5c-12.4 5-22.9 12.2-32.2 20-1.2 1-2 2.2-3 3.2l-1.2.6-12-12c12-11.9 26-21.4 41.8-28l.5 1.3a.4.4 0 00.5.2c.2 0 .3-.3.2-.5zm-69.2 69.9l-2.2-1c6.5-15.5 16-29.6 27.8-41.4l11.8 11.9c-.7.7-1.1 1.8-2 2.6a159 159 0 00-6.3 7c-3.7 4.2-7 10-9.7 14.8-1.9 3.2-3.1 6-4.7 9.3-1.7 3.5-3.7 7.1-4.9 10.8-.5 1.5-.5 3.1-.8 4.7-.5 2.7-1.6 5.7-2 8.5-.7 5.2-1 9.5-1.2 14.6-3.5 2-8.4 2.2-13 3l-5 1c.4-16.3 3.8-31.8 9.7-46l2.2 1a.4.4 0 00.5-.3c.1-.2 0-.4-.2-.5zm-.9 98.5c0-.2-.3-.3-.5-.2l-1.2.5c-1-2.5-2-5-2.9-7.7 4.6 4.5 8.8 9.5 9.3 13 .4 2.5.3 5.4.1 8.3-2.3-4.2-4.4-8.5-6.2-12.9l1.2-.5c.2 0 .3-.3.2-.5zm6.6 17l.3-7.5c0-1.4 0-2.8-.3-4.1a16 16 0 00-3-6.5l2-.8c.2 0 .3-.3.2-.5 0-.2-.3-.3-.5-.2l-2.2.9a64.7 64.7 0 00-8.9-9.4 130.2 130.2 0 01-5.6-37.5l6 1c2.2.5 4.5 1.2 6.6 1.5 2.4.5 5 .5 6.5 2.2.2 5.7 1.5 11.3 2.6 16.5 1.6 7.6 3.4 14 6 20.3l-2.4 1a.4.4 0 00.2.7h.1l2.4-1 1.3 3a119 119 0 0022.3 32.4L75 259.4a130.7 130.7 0 01-20-25.8zm.8 8.2c-.5-.3-1-2.2-1-4.9v-2c5.6 9.2 12 17.5 19.5 25l-11 11.1a27.9 27.9 0 01.5-9.2l.3-3.5c0-8.5-5.5-13.7-8.3-16.5zm62.5 43.5c-.2-.1-.4 0-.5.2l-1 2.2c-15.5-6.5-29.6-16-41.4-27.8l13.8-13.7c3.6 3.5 7.3 6.7 10.8 10.2 3.1.7 5 3.4 7.5 4.9.9.5 2 .6 3 1 .8.5 1.4 1.5 2.3 2 1.6.9 3.4 1.5 5 2.5 2.1 1.2 4.2 2.4 6.4 3.4l-.4.8c0 .2 0 .5.2.6h.2c.1 0 .3-.1.3-.3l.4-.8a64.2 64.2 0 0019.3 5.4 55 55 0 0016 1.7c2.3.9 2 3.5 2.4 5.5l2.6 13.6.1 1c-16.8-.2-33-3.6-47.7-9.7l1-2.2c0-.2 0-.5-.3-.5zm36.9-44c-2-1.6-3.2-4.2-4.9-6.3 0-2.8 1.9-7.5 3.8-3.6-.2 3.4 1.5 7.2 1 10zm-3.2-20.3c-1.6.6-3-.5-4-1.3-.7 0-1.3-.1-1.9-.3l1.2-2.8c0-.2 0-.5-.2-.6-.2 0-.4 0-.5.3l-1.2 2.8v.1c-2-.6-3.5-1.8-5.7-3-1.4-.9-5-2-5-3.7-.3-1.8 5-4.5 6.3-5.5 3-2.3 4.5-3.9 7-5.5.2 0 .4 0 .4.2 1.4.7 1 2.5 1 3.8.6 4.8 2.4 10.9 2.6 15.5zm.8-18.6h.1c-.5.6-1.2 1.2-2.2 1.4a1 1 0 00-.6-.6c.6-2 2.2-3 3.6-4.1l-1.1 2.7c-.1.2 0 .5.2.6zm-3.1-53.5h-.5l-2.7-2.7c-.2-1 .2-2 1.3-2.6 0-.6-.6-.7-.7-1.3.6-3.8 5.5 2.4 6 4-.5.1-.4.6-.9.7-2-.4-2-2.7-4-3.2-.3 1.5 3.7 3 1.5 5.1zm16.3-108.6c.3 0 .3.4.6.4.9 12.3-1.2 24.5 0 35 .2 1.2-.4 2.3-.4 3.4.2 18.5.2 39.2.2 61.7-2.3 3-4 0-6.1-1.9l-7-6-.3-1c-.1-.2-.3-.3-.5-.2l-.2.2c-1.7-1.3-3.6-2.7-2.2-4.8l1 2.2a.4.4 0 00.5.2c.2 0 .3-.3.2-.5l-.7-1.7c4.1 2.8 7.2 6.7 11.3 9.5-.3-2.2-3.6-4-6-6a52.9 52.9 0 01-4.8-4.4c-1-1-1.9-2.8-.4-4.2 4.1 2.9 7.5 6.5 11.6 9.5.3-.8-1-2-1.7-2.7l-5.5-5c-1.8-1.6-6.6-3.5-3.6-6 3.3 1.5 4.7 5 8.5 6-.5-1.2-2.3-2.5-4-4-2.1-1.7-5.6-3.1-4-6.5 3.4.3 4.6 4.6 8.2 5.5 0-1.8-2.8-2.4-3.6-4-2-.8-2.9-2.5-4.5-3.6.2-1 .1-2.2.7-2.8 3.2.7 5.1 4.5 8.5 5.7-.2-1.4-2-2.6-3.9-4-2.2-1.8-6.1-3.3-3.6-6.6 3.4 1.6 5 4.8 8.5 6.2 0-1.7-2.4-2.7-4.2-4.3-2.2-1.9-6-3.5-3.6-6.5 3.3 1 5.2 4.5 8 5.3a17 17 0 00-3.8-3.8c-2-1.8-6-3-3.4-6.2 2.5 1.2 4.3 3.3 6.6 4.7.7-1.4-1.2-1.6-2-2.2-1.5-1.2-3.1-3-4.6-4.4.2-1 .1-2.3.9-2.8 2.1.8 3.5 3.4 5.5 3.6-.7-2-4-3.3-5.5-5.3 0-1 0-2 .4-2.5 2.5.1 3 2.5 5 3 0-2.2-3.5-3-4.6-5 0-1 .2-2 .7-2.7 2 .4 2.5 2.3 4.4 2.8-.2-1.8-3-2.7-4.2-4.3 0-1.2 0-2.3.6-3 2 .4 2.5 2.4 4.5 2.8-.2-2.2-5.8-3.3-3.4-6.8 1.1 0 1 1.3 2.3 1.1-.7-1.7-3.2-2.5-2.3-5 2.2-.1 2.3 2.1 4.2 2.5 0-1.9-3-2.5-3.8-4 0-1.2.2-2 .6-2.6 1.5 0 2 2 3.2 1.5-.6-1.8-4.3-2.5-2.7-5.1 1.2-.2 1.6 1.4 2.5.8.2-1.4-2.5-1.7-2.3-3.8.7-1 1.5 0 2.5 0-.2-1.4-2.5-1.6-1.5-3.6 1-.3 1.4.7 2 .2.5-1.1-1.6-1.3-1.8-2.5.1-1.2 1.3-1.4 2-2-.3-.7-1-1-1.1-1.8 1.5-2.3.5-5.4 2.1-7.7zM8 234v4.5l-1.7-4 1.7-.6zm17.5-76c-1.3-.4-1.3-3.7-.5-4.6 1.3.6.9 3.3.5 4.6zM7.7 100.7l-1.3-.5L8 96.7l-.2 4zm325.2-98l-.7-.4-5.6 5.6c-2.7-2.7-5.4-5.3-8.2-7.8h-1.2c3 2.7 6 5.5 8.8 8.3l-.4.4c-1.1 0-2.5-.3-3.6.3-1-.7-2.2-.3-3 0-.7-.6-2.3-.7-3.5-.1-1.4-.6-3-.4-3.3.2-1.6-1.3-2.8.3-4.9-.7-2 .5-3.1.1-5.2 0l-.3.3c0-.2-.5 0-.8.1 0 .2-.2.4-.2 0 0 .1 0 .1.2 0v-.5h-1.6c-1.2 0-2.8.7-2.7.6-.4 0-.7-.3-1-.3-1-.3-3-.1-4.4-.2-2.2 0-4.6-.2-6 .3-.1-1-2.2 0-3 0-.8 0-1.7-.6-2.4-.5-1.6 0-2.8.7-4.5-.2-3.5 1-8-.3-11.4.2-5.3.6-11.7-.5-18 0-.6 0 .5.5-.2.6.2-.8-1-.3-1.1-.8l-4.1.1-5.5-2.4 1.1-2.6c0-.2 0-.5-.2-.5-.2-.1-.4 0-.5.2l-1.1 2.6c-5-2-10-3.8-15-5.4h-2.8c7.6 2.2 15 5 22.1 8.1-10.2 0-20.6-.5-31.5.2-5.6-.5-11.5-.5-16.2-.3a30 30 0 00-2.3-8h-1.4c.6 1 1 2 1.3 2.9 1.7 6.6 1 12.5-1 19.2-3.2 3.2-6 7.6-10.8 9.2-1.2.4-2.9.2-4.6.5-1.2.2-2.5.8-3.6 1a66 66 0 00-.7-2.5c-.2 0-.3-.2-.4-.3 0 0 0-.2-.2-.2 0 .3-.4.4-.5.7l-.7 2.2c-2.6-.2-6.2-.8-8-1.4-4.3-1.5-11.8-8.1-12.5-13.6-.2-1 0-2.7 0-4 0-5.9.4-10 2.3-13.7h-1.5c-1.1 2.5-1.9 5.4-2.4 8.8l.1-.7c-7 0-14 0-21-.2 1-1 1.4-2.3 1.7-3.5l.7-4.1V0h-2c-.4 2.8-.7 5.4-2 6.7L121 8a1212 1212 0 00-19-.2l-.8-1.7c5.6-2.3 11.3-4.3 17-6h-2.6c-5 1.5-9.9 3.3-14.7 5.2l-.2-.4c0-.2-.3-.3-.5-.2-.2 0-.3.3-.2.5l.2.4L95 8l-32.7-.1H51c3.3-2.3 6.1-5 9-7.7h-2.8a65.9 65.9 0 01-9.5 7.7c-13.1 0-26.2-.1-38.4.2l8.4-8h-1.1L8.3 8 .6 0H0v.5l7.8 7.8C5 11.1 2.5 13.8 0 16.6v1.2c2.6-3 5.4-5.8 8.2-8.6l-.3 26.7A419 419 0 000 42.1v2.5l7.8-6.2v9.5 10.5c-1.1-1.8-.8-6.1-.8-6.1S3.4 61.9 0 59v2.2c.4.2.9.3 1.4.3a5 5 0 003.5-1.7l.9-1.1.2.5c.4.6 1 1.3 1.8 1.6a321.5 321.5 0 01.3 14.5c-.3 5.8-.6 12.5 0 16.9-.6.8-.4 1.8-.2 2.8A174 174 0 000 115.6v2.8c1.7-6 3.8-11.8 6.1-17.5l1.6.6v1.3c0 .6.4 1.3.4 2 0 3.6-.5 9-.4 16.2v2c-2.1.9-4.9 2.6-7.7 5v3.4l.4-1.2c2.6-2.4 5.3-4 7.3-5v3.3c-2.5 2-5.4 4-7.7 6.4v2.8l1.4-1.5c1.8-1.9 4.1-3.6 6.3-5.3l.1 1.9c0 .3.3.7.6 1-.5-.5-.4-.2-.5.1-.3.8.3 3 .2 4.7v5.2c-2 .1-4.2.4-6.2.7l-1.9 1v2.2c6-2.9 13.8-3.7 20.6-.3A29 29 0 0130 157c-1 1.5-2.3 2.4-4 1.2.1-1.4.8-5.5-.7-5.5-1 0-1.5 2.2-1.2 3.8.2 1.2 1 1.4 1.3 2.2a59.2 59.2 0 01-8.2 19.8c1.4-3 2-8.9 2.2-13.4.2-3.2-1.4-5.1-1.7-7.3-.5-.2-.4-1-1-1 .8 3.5-.4 7.4-1.4 10.3-.2 1.4-1 2.2-1 3.9-.6 1.2-1.1 2.7-1.8 4-.6 1.4-1 3.1-1.8 3.9.8-1.6.5-3.7.6-6 .2-2.4.7-4.9.4-7-.3-2.1-1.4-4.4-2.7-5.4-.6-.5-1.6-.6-2.3-1-1.2.8-2.7 2.5-2.4 4.2.5-1.8 1.5-4.4 3.6-3.1 3 5 2.8 15.6 1.7 22.1.8-.7 1.3-1.8 1.5-3.2.2 0 .4-.2.6-.4 1.7-5.2 4.4-9.7 5.3-15.7 0-.8-.2-1.7.4-2.4l.3 3.7c.3 5-.9 10-1.6 14.6-.3.6-.8 1.6-.7 2.3 2-1.6 3-4.4 4.6-6.4.6-2 1.8-3.4 2.2-5.7 1.6-3 2.7-6.8 3.6-10.7 2.2 1 3.5.1 4.4-1.4.5.9 1 1.7 1.1 2.5.4 1.7.7 3.3.8 4.9a7 7 0 00-2.7 1l2.8 1.2c.1 4-.6 7.9-2 12.1-3 3.3-6 7.6-10.7 9.2-1.2.4-2.9.3-4.6.5-1.4.3-2.8 1-4 1A41 41 0 010 188v1.5c2.6.9 5.3 1.4 8 1.6v42h-.3l-1.7.7c-2.3-5.6-4.3-11.3-6-17.1v2.7c1.5 5 3.3 9.9 5.3 14.7l-.5.1a.4.4 0 10.3.8l.5-.2c.7 1.9 1.5 3.7 2.4 5.5 0 9.1.4 18.1 0 26.5v18.9c-1.3.2-2.3-.3-4.7-4.4L0 275.8v3.7l1.6 2.8c1 1.8 2 3 2.8 4 .8.8 2 1.4 3.1 1.4H8l.1 17c.2 2.7-.1 10.4 0 14.7v6.5L0 317.2v1.2c2.5 2.8 5.1 5.6 7.8 8.3L0 334.4v.2l.6.3 7.7-7.7c2.7 2.7 5.5 5.3 8.3 7.8h1.1c-2.9-2.6-5.7-5.3-8.4-8 6.8.3 10.9.4 12 .3 3.5-.1 7.5-.7 9.7-.4.6 0 1.3.7 1.4 0 .9.6 3.1.2 5.2.1 1.4 0 2.9.4 3.5-.4 0 .2-.3.4 0 .6a434.5 434.5 0 0113-.3h17c.9 0 1.9-1 1.3 0 5.2-.5 10.3.4 15.5-.5l6 .3c7 3.2 14.2 6 21.6 8.3h2.8c-6-1.8-11.8-3.8-17.5-6.1l1-2.5c1.4.1 1.6.5 3.1 0l7 .2c1 .5 1.9 1 2.8 1.3 3 1.3 5.7 2.2 7.9 2.3a4 4 0 002-.5c.7-.3 1.4-1.3 1.4-2.1v-.8-.2c3.9-.1 7.8-.3 11.6-.6l6 .4v.4a15 15 0 00-3-.5c-.6 0-1.1 0-1.8.3-.6.2-1.4 1.3-1.4 2.2.1 1.2.6 1.7 1.1 2.3a16 16 0 002 1.9l.3.2h.3l3.6 1.2.1.6h1.5c-.4-.9-.7-1.7-.8-2.6-.2-1 0-2.6 0-4-.1-8.3.9-13 5.3-18.2 3.5-4 9.7-7 16.1-7.3l.2.2v-.2c3.6-.2 7.2.5 10.6 2.1 3.6 1.8 9.7 8.5 10.8 12.6a33 33 0 01-.5 17.4h1.9l.6-2c1-.1 2.2-.6 4.2-2 2-1.3 3.7-3 5.2-4.6h.5c1.9 0 2.6-.4 3.9-.4 2.7-.1 5.5.7 7.3.3 1-.2.3-.2 1 0 2.9.6 8.6-.8 11 0 1.9-.6 2.8-.2 3.7 0 1.2.2 2.4-.4 3.7-.5 1.2 0 2.4.4 3.7.4l5.7-.1-6 2.6-.2-.5c0-.2-.3-.3-.5-.2-.2 0-.3.3-.2.5l.2.5c-5.6 2.3-11.3 4.3-17 6h2.6c5-1.5 9.9-3.3 14.7-5.3l.7 1.7a.4.4 0 00.5.2c.2 0 .3-.3.2-.5l-.7-1.7c2.6-1 5.1-2.2 7.6-3.3 1 .2 1.7-.4 2.4.1.4-.2.7 0 1.2-.4-.2.6 1.9.4 2.9 0 1 .8 3.2-.3 4.6.3 0-.3-.3-.5 0-.5s0 .7.4.7c.6-1 2 0 3 0s2.2-.6 3.2-.2c1 0 4.7-.5 7.3 0 0-.2 0-.5.2-.5 1.5.5 7 .2 8.3.3l4 .1h.5c-8.2 3.6-16.8 6.6-25.7 9h7c8.4-2.6 16.6-5.8 24.4-9.4 9.4.2 23.4 0 34-.3l4.5-.2 1.5 1.5c-2.9 3-5.8 5.7-8.8 8.4h1.1c2.9-2.5 5.6-5.1 8.3-7.8l7.8 7.8h.5v-.6l-7.8-7.8a227 227 0 007.8-8.2v-1.2c-2.5 3-5.2 5.7-7.9 8.4-.2-7.3-.1-22 0-37l1.5-2.6c2.6-4.6 3.9-5.8 4-5.8h.6c.4 0 1 0 1.8-.3v-2c-3 1.2-2.9-2-7.9 6.8.1-14 .2-27.4 0-34.2-.1-.7-.5-1.9-.5-1.5l.1-3 .1-5.2 2.5-5.6 2.6 1 .2.1h.2c0 .8.2 2 1 3.7.9 2 1.3 3.7 1.7 4.8v-5.7a7.7 7.7 0 01-.7-2.6c0-.4 0-.5.3-.8 0-.2.2-.3.4-.5v-2.6c-1.3 1.2-2.3 2-2.6 3.1l-.2-.1-2.6-1.1c2-5 3.8-10 5.4-15v-2.8c-2.2 7.6-5 15-8.1 22 .1-5.6.3-11.9.2-17.6-.2-9.7-.3-19.8 0-30h-.1c2.8 0 5.5-.4 8-1.1v-1.6c-1.2.3-2.7.2-4.3.4-1.4.3-2.8 1-4 1a41 41 0 01-10-1.5c-4.4-1.5-11.8-8.1-12.6-13.5v-4.1-3.2c.2 0 .4-.2.5-.4h-.4c.2-6.2 1.5-10.3 5.3-14.6 5.2-6 16.2-9.6 25.5-5.7V145l-2-.6c-.2-.7-.7-1.4-1.3-2a13.5 13.5 0 00-4.5-2.8l.2-15.8c1 .9 2.3 1.3 3.6 1.3 1.5 0 2.8-.4 4-1v-2.3c-2.8 1.8-5.4 2-7.2-.4l-.4-.4V97.4l1.3 3.2-.5.2a.4.4 0 10.3.7l.5-.2c2.3 5.6 4.3 11.3 6 17v-2.6c-1.5-5-3.3-10-5.2-14.7l1.6-.7a.4.4 0 00-.3-.7l-1.6.7a173 173 0 00-2.1-4.9c-.2-27.2-.5-54.6-.2-80.2l.1-5.5c2.7 2.6 5.2 5.3 7.7 8.1v-1.2c-2.5-2.8-5.1-5.5-7.8-8.2" mask="url(#b)"/></g><path fill="#010202" d="M329 158c2 3.5-1.7 4.5-3.8 3.2.5-2 1.2-3.8 3.8-3.3m-1.6 10c-.2 1.3-2.2 1.7-3.5.4-.2-2 2.1-1 3.5-.4m-9 3.4c-.9 3-.7 9.3 3.9 10.7 3-.3 5.5-1 7.2-2.7a7 7 0 011.5-1.2c0-.2-.3-.3-.5-.3-2 1.8-4.4 3-7.6 3.3-3.6-1.5-2.6-4.9-2.1-7.3.5-2.3 1.3-4.2 2.4-5.2 1.7 1.5 5.4 1.9 5-.4a6 6 0 00-1.6-2c-1.3-.8-2.5-.3-3.3-.4.4-1.6.5-3.4 1.5-4.3 2.7 1.3 5.8 1 5.2-3-2.8-4-5.5.3-7.1 1-1.9-3.1-.5-5 .7-5.7.5-.2 1.4.1 1.3-.7-2.7-.7-4.8 3.1-2 7a9.4 9.4 0 00-1 6.4c-.8 1.3-2.7 2.6-3.5 4.8M171.7 27.4c-.7-.6 0-1.1 0-1.6-.4-1.8.2-3 .4-4.3 1 1.8 1.3 5-.4 5.9m8.2-21.7c-2.3-.2-3.4 1.1-4.5 2.4-1.3 1.4-2 3.4-3.3 4.6 0 1.3-.4 2.3-1.1 3-2-4-3.5-8.3-5.8-11.7h-.3c0 .1-.2.1 0 .3.8 6.2-1 10.5-1.5 15.7-.8 1.7-1.5 3.9-2.5 5.6-.4.7-1.3 1.5-2.6 1.4-1.5-1-2.4-2.5-3.3-4.2.2 2.3 2 3.8 3.4 5.1 1.7.4 2.6-.3 3.3-1.2.4-.5.7-1.3 1-2a39 39 0 003.5-8.9c.2-.9 0-1.9 0-2.8.1-1.2.7-2.1.2-3.5.3-.3 0-1.2.2-1.6 1.4 2.7 3.2 5.4 4 9.2.2 1.8-.4 3.1-.4 4.8 0 1.6-.5 4 .4 5.4 1.6 2.2 3-1.7 2.9-2.8-.2-1.6-1.2-3.3-1.3-5 .5-.5.4-1.4.9-2 0-.2-.1-.6 0-.8 1.4-2 1.3-5.2 2.8-7.5.8-1.3 1.7-2.9 3.7-3 1.5.3 2.3 2.2 1.9 3.5 1.3-.9-.1-3.4-1.6-4"/><g transform="translate(98)"><mask id="d" fill="#fff"><use xlink:href="#c"/></mask><path fill="#010202" d="M.3.2l.8 3.4c0 .2.2.4.3.4h.2l.2-.8-.7-3H.3z" mask="url(#d)"/></g><path fill="#010202" d="M.3 97.8l4 1.2h.2c.2 0 .4 0 .5-.2 0-.2 0-.5-.3-.6L.7 97c-.3 0-.6 0-.7.2v.4l.3.2M2 234.3c0-.2-.3-.4-.4-.3L0 235v1l1.8-1.1c.2-.1.2-.4.2-.6M121 229.6c-3.9 2-1-4.5 0 0"/></g></svg>