<svg xmlns="http://www.w3.org/2000/svg" viewBox="0 0 166 166"><g fill="none" fill-rule="evenodd"><path fill="#F0BF3B" d="M116.7 44.4l-1.6-.8-1.9-.8a15 15 0 00-6.5-.8 82.6 82.6 0 00-4 .8l-3.2 1.4c-1.5.8-3 1.8-4.2 2.9-.5.3-1 .6-1.3 1-.6.5-1.3.8-2 .8-.9.1-1.7-.1-2.2-.7-.2-.3-.5-.4-.8-.5a.8.8 0 00-1 .3l-.3.5-.1 1.3v1c0 .3-.1.6-.4.7-.9.3-1.6 1-2 1.9v.1a50 50 0 00-7.7.8 25 25 0 00-4 1.3c-1.5.6-3 1.4-4.3 2.4-1.3 1-2.7 1.8-4 2.9-1 1-1.9 2.2-2.8 3.4A36.9 36.9 0 0056 76.2c-.4 1-.8 1.8-1 2.8l-.7 2.1-.8 3.5L53 87l-.7 4-.2 1.6a46.3 46.3 0 01-2.7 10c-.4 1.5-.5 3-.4 4.6 0 1 .3 2 .6 3l.5 1.3c.4 1 .9 2 1.5 2.8l.4.5a16 16 0 006.8 5.9 27.8 27.8 0 008 2.2 47.4 47.4 0 006.2.2 372.8 372.8 0 003.7-.5l2.7-.8 2.7-1 2-1c2-.9 4-2 5.9-3.5a190.6 190.6 0 004.7-3.6c1.2-1 2.3-2.2 3.4-3.4a83.2 83.2 0 003.6-4.4l2.5-4a37.4 37.4 0 005.4-19.5v-.8c0-1 0-2.2-.2-3.3a35 35 0 00-2.6-8.4c-.6-1.2-1.2-2.3-2-3.3l-1-1.7-1.1-1.4-1.3-1.4-.5-.6a38.8 38.8 0 00-4-3.3l-1.7-1-1.8-1c-.2-.2-.4-.3-.5-.6a8 8 0 00-1.2-1.8 1 1 0 01-.2-.6l-.2-1.1-.3-1.3 1.5-.3h1c.6.2 1.2.5 1.6 1l1.7 2.6a9.2 9.2 0 002.8 3c1.6 1.2 3.4 1.9 5.3 2.1.8 0 1.6.3 2.4.6l1 .6c1.3.7 2.6 1 4 1.1h.7c1.2.2 3.4-.4 4.8-.2A14.2 14.2 0 01126 64l1 .8h.3l.2-.2v-1.7a20.5 20.5 0 00-2.4-8.5c-.5-1-1-2-1.7-3a20 20 0 00-4-4.7c-.7-.9-1.7-1.6-2.7-2.3zm-25.4 8.8l.6 1v.2a2 2 0 01-.3 0l-1.9-.4-2.1-.3c-.6 0-1.2 0-1.8-.2 0-.3.1-.6.4-.9a4 4 0 011.3-.8c.4-.2.9-.2 1.3-.1l.5.1c.8.2 1.5.7 2 1.4zm-1.6-4.5c.6.8 1 1.6 1.2 2.6v.7c-1-.4-1.9-.7-2.9-.8v-2.5l.3-.5c.1-.2.3-.2.5-.2l1 .7zm29.3-2l1.4 1.5A21.5 21.5 0 01125 55l1 2.5.8 3 .4 2.7-.1.8c-.3 0-.4-.2-.6-.4a14.4 14.4 0 00-9.9-4.2 5 5 0 00-1.2.2c-.7.2-1.5.2-2.2.1-.9 0-1.8-.2-2.6-.4-1-.2-1.9-.6-2.7-1.1-.6-.4-1.3-.7-2-.8L104 57l-2-.5-2-1.1c-.7-.5-1.2-1-1.7-1.6L97.1 52a7 7 0 00-2.9-2.8s-.2 0-.3-.2l.3-.2 2.7-1 .8.1c1 .5 1.8 1.1 2.6 1.9 1.1 1 2 2.3 2.8 3.7l.7 1.5.1.2h.2s.1-.1 0-.2a20.5 20.5 0 00-2.2-4c-.8-1-1.7-1.9-2.8-2.7l-.9-.5-.3-.2c0-.1.1-.2.3-.2.6-.3 1.3-.5 2-.5l2-.3c.6 0 1 0 1.5.4 1.2.8 2.3 2 3.2 3.3 1 1.3 1.7 2.8 2.3 4.4l.4 1.1.4.3v-.5l-1.2-2.5c-.4-1-.9-1.9-1.5-2.7l-1.4-2a9.3 9.3 0 00-2-1.6l-.1-.2h.5c1 0 2.2.1 3.3.4l1.4.2c1.3.2 2.2 1 3 2l1.5 2.7c.6 1.4 1.1 2.9 1.5 4.4v.1c.3 0 .3 0 .3-.3l-.4-1.4c-.5-1.1-.8-2.3-1.4-3.4a12.2 12.2 0 00-2-3.2l.7.1 1.1.5 1.7.8 2.3 1.4.3.4c1 1.4 1.6 3 2 4.6l.6 1.8h.1c.2-.2 0-.4 0-.6l-.8-2.6c-.2-.8-.5-1.6-1-2.3v-.4c.2 0 .3.2.5.3l2.4 2.3 1 1c.4.5.7 1 .8 1.7l.4 2.3v.3h.2v-.2l-.1-1.7v-.5c.2 0 .2.2.3.4.7 1 1.2 2.1 1.6 3.3 0 .2 0 .2.4.3.1-.2 0-.4-.1-.6l-.9-2-1-2 .4.3.7.5h.2v-.3l-.1-.1-1.3-1a4 4 0 01-1.2-1l-.7-.6-3.2-3-.1-.2h.3l2.4.8 1.2.5h.4l-.3-.3-1.6-.7c-.9-.5-1.8-.7-2.8-.8-.3 0-.6 0-.8-.2-.4-.4-.9-.6-1.3-.9l-2.6-1.2-1.5-.7-1-.4.5-.2 2.4-.3c1 0 2 0 2.9.2.2 0 .4 0 .3-.3-.7-.2-1.5-.3-2.2-.3h-2l-1.8.5c-.4.2-.9.2-1.3.1a49.3 49.3 0 00-5.5-1.1 14.3 14.3 0 016.7-2.2c.2 0 .2-.1.3-.2l-.2-.1c-1.2 0-2.4.2-3.5.6l-1 .3-2.5 1.3c-.4.3-.8.4-1.3.5l-4 .4c1.3-1 2.8-2 4.4-2.6.2 0 .4 0 .4-.4l-.5.1-1.3.5c-1.3.7-2.6 1.5-3.8 2.5a4.3 4.3 0 01-1.9 1 16.5 16.5 0 00-1.4.4c0-.2.2-.3.3-.4l2-1.5a18.7 18.7 0 015.3-2.8c.7-.1 1.3-.4 2-.6l1.5-.3 2.4-.2c1.7 0 3.4.3 5 .8 2.1.8 4 2 5.7 3.7z"/><text fill="#543B29" font-family="Helvetica" font-size="21.7" transform="rotate(-79.2 7.5 74.2)"><tspan x="9.1" y="82.6">D</tspan></text><text fill="#543B29" font-family="Helvetica" font-size="21.7" transform="rotate(-66.6 11.4 59.3)"><tspan x="16.7" y="67">I</tspan></text><text fill="#543B29" font-family="Helvetica" font-size="21.7" transform="rotate(-54.1 18.2 46.1)"><tspan x="22.3" y="52.8">G</tspan></text><text fill="#543B29" font-family="Helvetica" font-size="21.7" transform="rotate(-41.8 27.1 35.7)"><tspan x="35.7" y="40.7">I</tspan></text><text fill="#543B29" font-family="Helvetica" font-size="21.7" transform="rotate(-29.6 36.7 29.2)"><tspan x="46.6" y="31.3">T</tspan></text><text fill="#543B29" font-family="Helvetica" font-size="21.7" transform="rotate(-15.6 43.2 31)"><tspan x="62.8" y="24.2">A</tspan></text><text fill="#543B29" font-family="Helvetica" font-size="21.7" transform="rotate(-1.2 -198 244.8)"><tspan x="82.5" y="21.5">L</tspan></text><text fill="#543B29" font-family="Helvetica" font-size="21.7" transform="rotate(23.4 129.8 4.1)"><tspan x="113.3" y="27.7">N</tspan></text><text fill="#543B29" font-family="Helvetica" font-size="21.7" transform="rotate(38.1 140 19.4)"><tspan x="129.6" y="37.3">O</tspan></text><text fill="#543B29" font-family="Helvetica" font-size="21.7" transform="rotate(53.9 151.5 36.5)"><tspan x="142.4" y="52.1">M</tspan></text><text fill="#543B29" font-family="Helvetica" font-size="21.7" transform="rotate(69.6 159.8 56.2)"><tspan x="153.3" y="70.5">A</tspan></text><text fill="#543B29" font-family="Helvetica" font-size="21.7" transform="rotate(84.9 163 76)"><tspan x="157.7" y="89.4">D</tspan></text><text fill="#543B29" font-family="Helvetica" font-size="21.7" transform="rotate(99 162.4 95.4)"><tspan x="158.1" y="109.1">S</tspan></text><text fill="#543B29" font-family="Helvetica" font-size="21.7" transform="rotate(123.7 149.6 126.2)"><tspan x="146.3" y="139">S</tspan></text><text fill="#543B29" font-family="Helvetica" font-size="21.7" transform="rotate(135.8 138.5 138.3)"><tspan x="138" y="150">I</tspan></text><text fill="#543B29" font-family="Helvetica" font-size="21.7" transform="rotate(148.6 125.4 149.3)"><tspan x="122.5" y="161.5">N</tspan></text><text fill="#543B29" font-family="Helvetica" font-size="21.7" transform="rotate(163.2 107.4 157.5)"><tspan x="105.2" y="169.4">C</tspan></text><text fill="#543B29" font-family="Helvetica" font-size="21.7" transform="rotate(177.7 88.6 161)"><tspan x="87" y="172.5">E</tspan></text><text fill="#543B29" font-family="Helvetica" font-size="21.7" transform="rotate(-157.9 56.3 156)"><tspan x="55.1" y="167">2</tspan></text><text fill="#543B29" font-family="Helvetica" font-size="21.7" transform="rotate(-143.1 39.2 147)"><tspan x="38.5" y="157.7">0</tspan></text><text fill="#543B29" font-family="Helvetica" font-size="21.7" transform="rotate(-129.4 25.4 134.6)"><tspan x="25.6" y="144.9">1</tspan></text><text fill="#543B29" font-family="Helvetica" font-size="21.7" transform="rotate(-115.3 15 119.2)"><tspan x="14.8" y="129.1">4</tspan></text><path fill="#F5A652" d="M114.2 42.6c-.5-.3-1-.6-1.7-.8l-1.9-.8c-1-.4-2-.6-3-.8-1.2-.2-2.4-.2-3.5 0a82.6 82.6 0 00-4 .7l-3.2 1.4a24 24 0 00-4.2 2.9l-1.3 1c-.6.5-1.3.8-2 .9-.9 0-1.7-.2-2.2-.8l-.8-.5a.8.8 0 00-1 .3l-.2.5c-.2.4-.2 1-.2 1.4v1c0 .3 0 .6-.4.6-.8.4-1.5 1-2 2a48.6 48.6 0 00-7.7.9l-1.6.5-2.4.8c-1.5.6-3 1.4-4.3 2.3l-4 3a37.4 37.4 0 00-5.4 7.3c-1 1.7-1.9 3.5-2.7 5.4l-1 2.5-1.2 2.8-.6 2.2a29 29 0 00-.8 3.5l-.4 2.4-.7 4-.2 1.6a47.2 47.2 0 01-2.7 10c-.4 1.5-.5 3-.4 4.6 0 1 .3 2 .7 3l.5 1.3c.3 1 .8 2 1.5 2.8l.3.5a16 16 0 006.8 5.8 28.2 28.2 0 008 2.2 47.5 47.5 0 006.2.3 247.8 247.8 0 003.7-.6l2.7-.8a45 45 0 002.7-1l2-1c2-.9 4-2 5.9-3.4a190.6 190.6 0 004.7-3.7l3.3-3.4 2-2 1.7-2.4 2.5-4a38.4 38.4 0 004.9-13.2l.1-1.5c0-.5 0-1 .2-1.4l.2-3.4v-.7c0-1.2 0-2.3-.2-3.4a35.6 35.6 0 00-2.7-8.4c-.5-1.2-1.1-2.3-1.9-3.3l-1-1.6-1.1-1.5-1.3-1.4-.6-.6a39.5 39.5 0 00-4-3.2l-1.6-1-1.8-1c-.3-.2-.4-.4-.5-.7L89.2 51a1 1 0 01-.2-.6l-.2-1c0-.5-.2-1-.3-1.4l1.5-.3h1c.6.2 1.2.6 1.6 1l1.7 2.7a9.1 9.1 0 002.8 3c1.6 1.1 3.4 1.8 5.3 2a8.2 8.2 0 013.5 1.2 8.6 8.6 0 004.6 1.2c1.2 0 3.4-.4 4.8-.3a13.8 13.8 0 018.1 3.7l1 .8.3.1.2-.3V61a21 21 0 00-2.4-8.5c-.5-1-1-2-1.7-3a20.3 20.3 0 00-4-4.7c-.7-.8-1.7-1.6-2.6-2.2zM92.9 54.9c1.1.7 2.2 1.4 3.2 2.3l2.2 1.9.6.8 2.2 2.6c1 1.4 2.9 5.7 3.1 6.3.7 1.4 1 3 1.3 4.5l.4 2.7c.3 2.3.2 4.7-.2 7l-.7 4.7c-.3 1.5-.7 3-1.3 4.5l-.9 2.1-.8 1.7-2.2 3.9c-1 1.8-2.2 3.6-3.6 5.2l-.5.7s-2.3 2.6-3 3l-.5.5-1.1 1-3.4 2.7a51 51 0 01-9.4 5c-1.2.5-2.5 1-3.8 1.3l-3.5.6-1.1.2-1.5.1a34.5 34.5 0 01-10.8-1.8c-1.6-.7-3-1.5-4.5-2.5-1-.7-2-1.6-2.7-2.6l-1.7-2.4-.7-1.2a11.9 11.9 0 01-1-8l.8-2.7 1-3.5.5-2.2c.3-1 .5-1.9.6-2.9l.5-3.2a81 81 0 012.8-11.7l.6-1.2L55 71c.6-1.3 1.1-2.7 2-4l.5-.9 1.2-1.8 2.2-3c1-1.4 2.4-2.6 3.9-3.7l2.6-1.9 3.4-1.7a30 30 0 0113.9-1.9l1.4.1c.4 0 .7.2 1 .3l1.8.4c1.4.4 2.6 1.2 3.9 2zm-4.2-3.6a20.1 20.1 0 01.7 1.3 2 2 0 01-.3 0l-2-.4c-.6-.2-1.4-.3-2-.3l-2-.2.5-1A4 4 0 0185 50c.4-.2.9-.2 1.3 0l.5.1c.8.2 1.5.6 2 1.3zM87 47c.6.7 1 1.6 1.2 2.6v.7c-1-.5-1.9-.8-2.8-.9-.2-.8-.2-1.7 0-2.5l.2-.5c.1-.1.3-.2.5-.1.4.1.7.3 1 .7zm29.3-2l1.5 1.4a21.8 21.8 0 014.4 6.9l1 2.5.8 3 .4 2.7-.1.8c-.3 0-.4-.3-.5-.4a14.5 14.5 0 00-9.9-4.2 5 5 0 00-1.3.2c-.7.1-1.4.2-2.2.1-.9 0-1.8-.2-2.6-.4-1-.3-1.9-.6-2.7-1.2l-2-.8-1.8-.4c-.7 0-1.3-.3-2-.5s-1.4-.6-2-1c-.7-.5-1.2-1-1.7-1.7l-1.2-1.7a7 7 0 00-2.9-2.8l-.3-.2.3-.2 2.7-1h.8c1 .6 1.8 1.2 2.6 2 1.2 1 2.1 2.3 2.8 3.7l.7 1.5.1.2h.2s.1-.1 0-.2c0-.4-.2-.7-.4-1-.5-1-1-2-1.8-3s-1.7-2-2.8-2.7l-.9-.5-.3-.2.3-.3 2-.5 2-.2c.6-.1 1 0 1.5.3 1.3 1 2.3 2 3.2 3.3 1 1.4 1.7 2.9 2.3 4.5l.4 1c0 .2.2.2.4.4v-.5l-1.2-2.6c-.4-1-.9-1.8-1.5-2.7l-1.4-1.9a9.3 9.3 0 00-2-1.6l-.1-.2.5-.1c1 0 2.2.1 3.3.4l1.4.3c1.3.1 2.2 1 3 2l1.5 2.7c.6 1.4 1.1 2.8 1.5 4.3v.1c.3 0 .3 0 .3-.2l-.4-1.5c-.4-1.1-.8-2.3-1.4-3.3a12.3 12.3 0 00-2-3.3c.3 0 .5 0 .7.2l1.1.5 1.7.7c.8.4 1.6 1 2.3 1.5.2 0 .3.2.3.3 1 1.5 1.6 3 2 4.7l.6 1.7h.1c.2-.1.1-.3 0-.5l-.8-2.6a11.3 11.3 0 00-1-2.7c.2 0 .3.1.5.3l2.4 2.2 1 1c.4.5.7 1.1.8 1.7l.4 2.3v.3l.2.1v-.3l-.1-1.7v-.5c.2 0 .2.3.3.4.7 1 1.2 2.2 1.6 3.4l.4.3c.1-.3 0-.5-.1-.7l-.9-2-1-1.9.4.2.7.5h.2v-.3h-.1l-1.3-1a4 4 0 01-1.2-1l-.7-.7-3.2-3-.1-.2h.4l2.3.9 1.2.5.4-.1-.3-.2-1.6-.8c-.9-.4-1.8-.7-2.8-.7-.3 0-.6-.1-.8-.3l-1.3-.8-2.6-1.2-1.5-.7-1-.4.5-.2a10.7 10.7 0 015.3 0c.2 0 .3 0 .3-.4a9 9 0 00-2.3-.3h-2c-.6 0-1.1.2-1.7.5-.4.2-.9.2-1.3 0a49.3 49.3 0 00-5.5-1l1.6-1a14.2 14.2 0 015.2-1.2l.1-.2-.1-.1c-1.2 0-2.4.2-3.6.6l-1 .3c-.8.3-1.7.8-2.4 1.3-.4.3-.8.4-1.3.5l-4 .4c1.3-1 2.8-2 4.4-2.6.2 0 .4-.1.4-.4h-.5l-1.3.6c-1.4.7-2.6 1.5-3.8 2.4a4.5 4.5 0 01-1.9 1 16.5 16.5 0 00-1.4.4l.3-.4 2-1.5 2.5-1.6c.9-.4 1.8-.8 2.8-1l2-.8 1.4-.2 2.5-.3c1.7 0 3.3.4 5 1 2.1.7 4 2 5.7 3.5z"/><path fill="#F5A652" d="M77.8 114.6h-.4l-3.5 1.8c-.8.5-1.8.9-2.7 1.2l-3.4 1c-.7 0-1.3.2-2 .3 0 0-.1.2-.4.3a28 28 0 0012.3-4.7zM82.3 113.7l-2.6 1.8a15 15 0 01-3.5 1.8l-4.4 1.5-.6.1-.3.4h.5l3.3-1.1c1.4-.5 2.8-1 4-1.7l3.5-2.2c.3-.1.4-.3.5-.5a.3.3 0 00-.4 0zM68.3 117.3l3.3-1.7 1.2-1.2-.4.2-1.2.8-1 .6c-1.4.8-2.9 1.4-4.4 1.8a14.8 14.8 0 01-3.8.6l-.1.1.2.2h.1a19.6 19.6 0 006-1.4zM93.4 62.5v4.4c0 1.6-.3 3.1-.7 4.6l-.8 3.1a1 1 0 000 1l.3-.6.8-3c.3-1.4.6-2.8.7-4.2v-2.9-2.2c0-.1 0-.3-.3-.2zM95.5 66a29.8 29.8 0 01-1.7 10.4s-.2.2 0 .3h.1l.2-.2a26.1 26.1 0 001.5-11.6c0-.3-.1-.6-.3-.8v.4l.2 1.6zM97.2 68.2c0 1.3-.1 2.6-.4 3.9-.1 1-.5 2-.7 3l-.6 2c0 .1 0 .3.2.4a42 42 0 001.7-7 14.1 14.1 0 00-.1-4.2l-.2.4.1 1.5zM91.2 72.4l.5-1.5.2-1.8a18.8 18.8 0 00.2-6.6c0-.3-.2-.7-.5-1v.6l.2 1a27 27 0 01-.8 9.5c.2 0 .2-.1.2-.2zM67 116c.3 0 .5 0 .7-.2.3-.1.5-.3.6-.5h-.2l-1.3.5a20.7 20.7 0 01-7 1.8l-.3.2c1 0 1.9 0 2.8-.2l4.8-1.5zM89.8 71l.6-2.3.2-2.9.2-2.5-.2-1.1c0-.1 0-.2-.2-.3v1.6l-.2 3.2c0 1.1-.2 2.2-.4 3.3l-.3.8v.4l.3-.2zM63 114.4h-.3l-2.5.8c-.8.3-1.7.5-2.5.6l-1.4.1c-.2 0-.2.2 0 .4 2.3 0 4.6-.8 6.8-1.7v-.2zM61.3 116.7l2.4-.8c.5 0 .9-.4 1.1-.8l-.3.1-.8.4-3.6 1-1.5.1c-.1 0-.3.1-.2.3 1 0 2 0 2.9-.3zM98.7 69.3a16 16 0 01-1 6.3c0 .2.1.2.3.2l.2-.7.6-2.4.2-1.2v-2.3c0-.2 0-.3-.2-.2v.3zM89 64l-.1-1.5-.2-.2v4l-.4 2.2c0 .2-.2.4.1.7.3-.7.4-1.4.5-2l.2-3.3zM58.8 114.6l1.2-.4s.3-.1.2-.4l-.4.1-1.4.5c-1 .2-2 .6-3.1.5h-.7l-.3.1 1.5.3c1-.1 2-.4 3-.7zM100 70.9v1.7c0 .8-.3 1.7-.4 2.6l-.2.6.4-.1.1-.6.5-2.3-.1-2.5h-.2v.6zM57.8 113.2c-.2-.2-.4 0-.5 0l-1.8.4c-1 0-1.8.3-2.6.1l-.2.2c1.3.4 4.3 0 5.1-.7zM87.5 64c0-.5-.1-1-.4-1.3l-.1-.1v.6c.2.4.2.8.1 1.2v.6L87 67v.3c.2-.2.4-.5.3-.9l.2-2.3zM55.9 112.3l-1.5.4c-.5.2-1 0-1.5.3 1.1.2 2.6 0 3-.7zM104.8 51.2a22 22 0 00-3.5-4.7c-.2-.4-.6-.6-1-.6l.2.3c.6.4 1.1 1 1.6 1.6 1.1 1.2 2 2.7 2.7 4.2l.3.4h.2l-.5-1.2zM104.5 46.7l-.7-.8a.2.2 0 00-.3 0l.3.4.8 1 1.2 1.8 1 1.5.5 1.3c.2.2.2.4.5.5v-.3c-.4-.8-.7-1.7-1.2-2.5l-2.1-3zM97.9 46.4l-.3-.1v.2l.4.4c1 1 2 2 2.8 3.3l1.3 2.1.4.4v-.4l-.7-1.2c-1-1.8-2.2-3.4-4-4.7zM99.7 46.6l-.5-.3.4.6 1.2 1.3 1 1.6 1 1.5c0 .3.2.5.3.8l.5.2-.8-1.5a19.3 19.3 0 00-3.1-4.2zM111 52.7l-.1-.4-2.4-4.5c-.2-.5-.6-.9-1-1.2v.2c1.3 1.9 2.2 4 3.3 6l.2-.1zM106.4 46.8l-.3-.3v.5l1.4 2 1.6 3.2c0 .1 0 .3.3.3.2-.1.1-.2 0-.4l-1.2-2.6c-.5-1-1.1-1.9-1.8-2.7zM101.1 42.8c-.6.2-1.1.6-1.5 1.2l.4-.1.5-.4a15 15 0 014.2-1.8l.2-.2c-1.4 0-2.6.6-3.8 1.3zM111.3 48.2v.3l.3.5 1.5 3 .6 1.8c0 .2.1.3.3.1a18 18 0 00-2.3-5.3c0-.1 0-.4-.4-.4zM98.9 50.9l.3.4.2-.1-.2-.4c-.6-.7-1-1.6-1.7-2.3a9.5 9.5 0 00-2-1.6h-.2c0 .2 0 .4.2.4.6.4 1.2.8 1.6 1.3A18 18 0 0199 51zM110.4 42.6h.3v-.2h-.7c-1 0-2 .1-2.9.5-.7.1-1.4.4-2 .8l-.3.4.5-.1c1.6-.9 3.3-1.3 5.1-1.4zM95.6 48.2l-.4-.4-.4-.3-.3.1c.4.5 1 .7 1.3 1.1l1.2 1.4 1 1.4c.3-.1.2-.3.1-.4-.7-1-1.4-2.2-2.5-3zM107 44.4v.1s0 .1 0 0h.5a12 12 0 014.3-.6h.4l.1-.3h-.8a10 10 0 00-4.5.8zM116.3 53.7a25 25 0 00-1.3-3.3c0-.2-.3-.4-.5-.5 0 .4.2.6.3.8.5 1.3 1 2.5 1.3 3.8l.2.3v-1zM115 53.4a37.7 37.7 0 00-1.8-4h-.1c0 .2 0 .4.2.6l.6 1.4.8 2.1.3.3v-.4zM119 55.8c-.2-1.1-.6-2.3-1-3.3l-.3-.2-.2.1v.2c.7 1.3 1.1 2.6 1.3 4l.2.3a2 2 0 000-1zM115.6 46.4l-.3-.2a19.5 19.5 0 00-3.9-.1l.1.2a433 433 0 004.1.1zM113.5 47.3a24.1 24.1 0 014 .2c-.9-.5-3-.6-4-.2zM115.3 48h-.4l-.4.2 1.2.1 1 .2 1 .2c.3 0 .5.4 1 .2l-.2-.2c-1-.5-2.1-.7-3.2-.7zM119.5 54c-.2 0-.3.2-.2.4l.3 1 .4 1.9c0 .2 0 .3.3.3 0-1.2-.4-2.4-.8-3.5zM119 51.3l.2.3 1.5.6.2-.1c.1 0 0-.2 0-.2-.6-.3-1.2-.5-1.9-.6zM120.3 52.9c.3.2.7.5 1.1.6h.2v-.3c-.4-.2-.8-.4-1.2-.4h-.1zM122.2 58l-.3.3c0 .3 0 .5.3.8V58zM123 56.9l.2-.1-.6-.6c0 .2 0 .5.3.7z"/><path fill="#E8EB7D" d="M115.1 43.6l-1.6-.8-2-.8c-1-.4-2-.6-3-.7-1.1-.2-2.3-.3-3.5-.1a85.2 85.2 0 00-4 .8l-3 1.4a24 24 0 00-4.3 2.9c-.5.3-1 .6-1.3 1-.6.5-1.3.8-2 .8-.9.2-1.7-.1-2.2-.7l-.8-.5a.8.8 0 00-1 .3l-.3.5c-.1.4-.2.9-.1 1.3v1c0 .3-.1.6-.4.7-.9.3-1.6 1-2 1.9v.1a48.6 48.6 0 00-7.7.9l-1.7.5-2.4.7c-1.5.7-2.9 1.4-4.2 2.4-1.3 1-2.7 1.8-4 3a37.4 37.4 0 00-5.5 7.2c-1 1.8-1.8 3.6-2.6 5.5l-1 2.5-1.2 2.8c-.3.7-.4 1.5-.6 2.2a29 29 0 00-.8 3.4l-.4 2.5-.8 4-.1 1.5a47.2 47.2 0 01-2.7 10c-.4 1.5-.6 3.1-.4 4.7 0 1 .3 2 .6 3l.5 1.3c.4 1 .9 2 1.5 2.8l.3.5a16 16 0 006.9 5.8 28.2 28.2 0 008 2.2 47.5 47.5 0 006.2.3 247.8 247.8 0 003.7-.6l2.6-.8a45 45 0 002.8-1l2-1c2-.9 4-2 5.9-3.4a190.6 190.6 0 004.7-3.7l3.3-3.4a75.2 75.2 0 003.7-4.4l2.5-4a38.4 38.4 0 004.9-13.2l.1-1.5.1-1.4c.2-1.1.2-2.3.3-3.4v-.7c0-1.2 0-2.3-.2-3.4a35.5 35.5 0 00-2.7-8.4c-.5-1.1-1.1-2.3-1.9-3.3l-1-1.6-1.1-1.5-1.3-1.4-.6-.6a39.5 39.5 0 00-4-3.2l-1.6-1-1.8-1c-.3-.2-.4-.4-.5-.7L90.2 52a1 1 0 01-.2-.6l-.2-1c0-.5-.2-1-.3-1.4l1.5-.3h1c.6.2 1.2.6 1.6 1.1l1.7 2.6a9.1 9.1 0 002.8 3c1.5 1.1 3.4 1.8 5.3 2a8.2 8.2 0 013.5 1.2c1.2.7 2.5 1 4 1.1h.6c1.2.2 3.4-.3 4.8-.2a13.8 13.8 0 018.1 3.7l1 .8c0 .1.2.2.3.1l.2-.3v-1.7a20.7 20.7 0 00-2.5-8.5c-.4-1-1-2.1-1.7-3a20.3 20.3 0 00-4-4.7c-.7-.9-1.6-1.6-2.6-2.3zM93.8 56c1.2.6 2.3 1.4 3.3 2.2l2.2 2 .6.7 2.2 2.6c1 1.4 2.9 5.7 3.1 6.4.6 1.4 1 2.9 1.3 4.4 0 1 .3 1.8.4 2.7.3 2.3.2 4.7-.2 7l-.7 4.7c-.3 1.6-.7 3-1.3 4.5l-1 2.2-.7 1.7-2.2 3.8c-1 1.9-2.2 3.6-3.6 5.2l-.6.7s-2.3 2.7-2.8 3l-.6.5-1.2 1a51 51 0 01-12.7 7.7c-1.3.6-2.6 1-3.9 1.3l-3.5.7-1 .1-1.5.1a35.1 35.1 0 01-10.8-1.8 25 25 0 01-4.5-2.5c-1-.7-2-1.6-2.7-2.6l-1.7-2.4c-.3-.3-.6-.8-.7-1.2a11.9 11.9 0 01-1-8l.8-2.7a34 34 0 001-3.5c0-.7.3-1.4.5-2.1l.6-3 .5-3.2a81 81 0 012.8-11.7l.6-1.2L56 72c.6-1.3 1.1-2.7 2-4l.5-.8 1.1-1.9 2.2-3c1.1-1.4 2.5-2.6 4-3.7l2.6-1.8a30 30 0 0117.2-3.6h1.5l1 .3 1.8.4c1.3.4 2.6 1.3 3.8 2zm-4.1-3.6a20.1 20.1 0 01.7 1.2 2 2 0 01-.4 0l-1.9-.4L86 53c-.6 0-1.2 0-1.8-.2 0-.3.1-.6.4-.9a4 4 0 011.3-.8c.4-.2.9-.2 1.3-.1l.5.1c.8.2 1.5.7 2 1.4zM88 47.9c.6.8 1 1.6 1.2 2.6v.7c-1-.4-1.9-.7-2.9-.8v-2.5l.3-.5c.1-.2.3-.2.5-.2.3.2.7.4.9.7zm29.3-2l1.4 1.5a21.8 21.8 0 014.5 6.8l1 2.5.8 3 .3 2.7v.8c-.3 0-.4-.2-.6-.4a14.6 14.6 0 00-10-4.2 5 5 0 00-1.1.2c-.8.1-1.5.2-2.2.1-1 0-1.8-.2-2.7-.4-1-.2-1.8-.6-2.6-1.1-.7-.4-1.3-.7-2-.8l-1.9-.4-2-.5c-.7-.3-1.4-.7-2-1.2-.6-.4-1.2-1-1.6-1.5l-1.3-1.8a7 7 0 00-2.8-2.8l-.4-.2.4-.2 2.6-1c.3 0 .6 0 .9.2 1 .4 1.8 1 2.5 1.8 1.2 1 2.1 2.3 2.8 3.8l.8 1.5v.1h.3v-.1l-.5-1c-.5-1.1-1-2-1.7-3-.8-1-1.8-2-2.8-2.8l-1-.5-.3-.2.3-.2c.7-.3 1.4-.4 2.1-.5.7 0 1.4-.2 2-.3.5 0 1 0 1.4.4 1.3.9 2.4 2 3.2 3.3 1 1.4 1.8 2.8 2.3 4.4l.5 1.1.3.3v-.5l-1.1-2.5c-.4-1-1-1.9-1.5-2.7l-1.5-2a9.4 9.4 0 00-1.9-1.6l-.2-.2h.5l3.3.3 1.4.3c1.4.2 2.3 1 3 2l1.5 2.7c.7 1.4 1.2 2.9 1.5 4.4l.1.1c.2 0 .3-.1.2-.3 0-.4-.2-1-.4-1.4l-1.3-3.4a12.3 12.3 0 00-2-3.2l.7.1 1 .5 1.7.8 2.4 1.4.3.4c.9 1.4 1.6 3 2 4.6l.5 1.8h.2c.2-.2 0-.4 0-.6l-.8-2.6a11.3 11.3 0 00-1.1-2.7c.3 0 .4.2.5.3l2.5 2.3 1 1c.4.5.7 1 .7 1.7l.4 2.3v.3H122.3v-.2L122 57v-.5c.2 0 .2.3.3.4.7 1 1.3 2.2 1.7 3.4l.3.3c.2-.3 0-.5 0-.7l-1-2-1-2c.1.2.3.2.5.3l.6.5h.3v-.3h-.2l-1.3-1a4 4 0 01-1.2-1l-.6-.7-3.3-3v-.2h.3c.8.2 1.6.5 2.3.9l1.3.5.4-.1-.3-.2-1.6-.8c-.9-.4-1.9-.7-2.9-.7-.3 0-.5-.1-.8-.3l-1.3-.8-2.5-1.3-1.5-.6-1-.4.4-.2a8 8 0 012.5-.4c1 0 1.9 0 2.8.3.2 0 .4 0 .4-.3-.8-.2-1.5-.3-2.3-.3h-2c-.6 0-1.2.2-1.8.5-.4.2-.9.2-1.3 0a49.3 49.3 0 00-5.4-1l1.5-1a14.2 14.2 0 015.2-1.3l.2-.2h-.2c-1.2 0-2.4.2-3.5.6l-1 .3c-.9.3-1.7.7-2.5 1.3-.4.2-.8.4-1.3.4l-4 .5c1.4-1.1 2.9-2 4.5-2.6.1 0 .4-.1.4-.4h-.6l-1.3.6c-1.3.6-2.6 1.5-3.7 2.4a4.5 4.5 0 01-2 1 16.5 16.5 0 00-1.4.4l.4-.4 1.9-1.5c.8-.6 1.7-1.2 2.6-1.6.9-.5 1.8-.9 2.8-1.1l2-.7 1.4-.2c.8-.2 1.6-.3 2.5-.3a15.2 15.2 0 0110.7 4.5z"/><path fill="#E8EB7D" d="M78.8 115.6h-.4l-3.5 1.9c-.9.5-1.8.8-2.8 1.1l-3.4 1-1.9.4-.4.3a28 28 0 0012.4-4.7zM83.3 114.8l-2.7 1.7c-1 .8-2.2 1.4-3.4 1.8l-4.4 1.5-.6.2-.3.3h.5l3.3-1c1.4-.5 2.7-1 4-1.8l3.5-2.2c.2 0 .4-.2.5-.5a.3.3 0 00-.4 0zM69.2 118.4c1.2-.5 2.3-1.2 3.3-1.8a5 5 0 001.3-1.2c-.2 0-.3.2-.4.3l-1.2.8-1.1.5c-1.4.8-2.8 1.4-4.3 1.8a14.8 14.8 0 01-3.8.6l-.1.2.1.1h.2a20.5 20.5 0 006-1.4zM94.4 63.5v4.4c-.1 1.6-.3 3.1-.7 4.7l-.8 3a1 1 0 000 1l.2-.6.8-3c.4-1.3.6-2.8.7-4.2l.2-2.9-.1-2.2s0-.2-.3-.2zM96.4 67.1a29.8 29.8 0 01-1.6 10.3c0 .1-.2.3 0 .4.2-.1.2-.2.2-.3A26.6 26.6 0 0096.6 66c0-.3-.1-.6-.4-.8v.4l.2 1.6zM98.2 69.3c0 1.3-.1 2.5-.4 3.8l-.7 3-.6 2c0 .2-.1.3.2.4l.6-1.6a42 42 0 001.1-5.5 14.1 14.1 0 00-.1-4.1l-.2.5.1 1.5zM92.2 73.4l.4-1.5.3-1.7a18.8 18.8 0 00.2-6.6c0-.4-.2-.8-.5-1v.5l.2 1a27 27 0 01-.8 9.5l.2-.2zM68 117.1c.3 0 .5-.2.7-.3.2 0 .5-.2.6-.5h-.2l-1.3.6a20.6 20.6 0 01-7 1.7l-.3.3c1 0 1.9 0 2.8-.2 1.6-.4 3.2-1 4.7-1.6zM90.8 72l.6-2.2.2-3 .1-2.4v-1.2l-.3-.3V64.6l-.2 3.2c0 1-.2 2.2-.4 3.3l-.3.8v.4l.3-.3zM64 115.5h-.3a110.5 110.5 0 00-5 1.3l-1.4.1c-.2 0-.3.2-.1.4 2.4 0 4.6-.8 6.9-1.7v-.1zM62.2 117.7l2.5-.7c.5-.1.9-.4 1.1-.9l-.4.2-.7.3-3.6 1-1.5.1c-.2 0-.3.1-.2.3 1 .1 2 0 2.8-.3zM99.7 70.3a16 16 0 01-1 6.4s0 .2.3.1c0-.2 0-.4.2-.6.3-.8.5-1.6.6-2.5l.1-1.1c.2-.8.2-1.6 0-2.4 0-.1 0-.2-.2-.2v.3zM90 65c0-.5 0-1-.2-1.5v.8c0 1 0 2-.2 3 0 .8-.2 1.5-.3 2.2 0 .2-.2.4.1.7l.5-2 .1-3.3zM59.8 115.6c.4 0 .8-.2 1.1-.4.2 0 .3 0 .2-.3h-.3l-1.4.5c-1 .3-2 .6-3.2.5h-.6l-.3.1 1.5.3c1-.1 2-.3 3-.7zM101 72v1.6c0 .9-.3 1.8-.4 2.6l-.2.7.4-.2.1-.5.5-2.3-.1-2.5h-.2v.5zM58.8 114.2c-.2-.2-.4 0-.6 0-.5.2-1.2.4-1.8.4-.8 0-1.7.3-2.6.1l-.2.2c1.4.5 4.4 0 5.2-.7zM88.5 65c0-.4-.2-.9-.4-1.3h-.2v.5c.2.4.3.8.2 1.3v.5l-.2 2v.2c.3-.2.4-.5.4-.8l.2-2.3zM56.9 113.4l-1.5.4c-.5.1-1 0-1.5.2 1.1.3 2.6 0 3-.6zM105.8 52.3a22 22 0 00-3.5-4.8c-.2-.3-.6-.5-1-.6 0 .2.1.3.2.3l1.6 1.6c1.1 1.3 2 2.7 2.7 4.3l.3.4.1-.1c0-.4-.2-.8-.4-1.1zM105.5 47.7l-.7-.7a.2.2 0 00-.3 0l.3.3.8 1.1 1.2 1.7 1 1.6.5 1.2c.1.2.2.5.5.6v-.3c-.4-.9-.8-1.8-1.3-2.5l-2-3zM98.9 47.5l-.3-.1h-.1v.2l.5.4c1 1 2 2 2.8 3.2l1.3 2.2.4.4v-.4l-.7-1.3c-1-1.7-2.3-3.4-4-4.6zM100.7 47.6l-.5-.3.3.6 1.3 1.4 1 1.5 1 1.6.3.8.4.1-.7-1.5a19.3 19.3 0 00-3.1-4.2zM112 53.7l-.1-.3c-.7-1.6-1.5-3.1-2.4-4.6-.2-.4-.6-.8-1-1.1v.1c1.3 2 2.2 4 3.3 6.1l.1-.2zM107.3 47.8l-.3-.2.1.4 1.4 2 1.6 3.2c0 .2 0 .3.3.3.2 0 0-.2 0-.3l-1.2-2.6c-.6-1-1.2-2-1.9-2.8zM102 43.8c-.5.3-1 .7-1.4 1.2h.4l.5-.5a15 15 0 014.1-1.7l.3-.3c-1.5 0-2.7.7-3.8 1.3zM112.3 49.3v.2a13 13 0 011.7 3.6l.7 1.8c0 .1.1.2.3 0a18 18 0 00-2.3-5.2c0-.2 0-.4-.4-.4zM99.8 52c.2 0 .3.2.4.3h.2l-.2-.4c-.6-.8-1-1.6-1.7-2.4a9.5 9.5 0 00-2-1.5h-.3l.3.4c.6.3 1.2.8 1.6 1.3.7.7 1.2 1.4 1.7 2.2zM111.4 43.7l.3-.1v-.2h-.7c-1 0-2 .2-3 .5-.7.2-1.3.5-2 .9l-.2.3.4-.1c1.6-.8 3.4-1.3 5.2-1.3zM96.6 49.2l-.4-.4-.4-.2h-.3c.3.5.9.8 1.3 1.2L98 51l1 1.4c.3 0 .2-.2 0-.3-.6-1.1-1.3-2.2-2.4-3zM108 45.4v.2h.5c1.4-.5 2.8-.7 4.2-.7h.5l.1-.3h-.8c-1.5 0-3 .2-4.5.8zM117.3 54.8a25 25 0 00-1.3-3.3c0-.2-.3-.4-.5-.5 0 .4.2.5.3.8.5 1.2 1 2.4 1.3 3.8l.2.2v-1zM116 54.5a37.7 37.7 0 00-1.8-4l-.2-.1.2.6.7 1.4.8 2.2.3.2v-.3zM120 56.9c-.2-1.2-.6-2.3-1-3.4l-.3-.2-.2.1v.2c.7 1.3 1.1 2.7 1.3 4l.2.4a2 2 0 000-1.1zM116.6 47.4l-.3-.2a19.5 19.5 0 00-3.9 0l.1.1a433 433 0 004 .1zM114.5 48.3a24.1 24.1 0 014 .3v-.1c-1-.5-3-.6-4-.2zM116.3 49h-.5l-.3.3h1.1l1 .2 1 .2c.4 0 .6.4 1 .3 0-.1 0-.2-.2-.3-1-.4-2-.7-3.1-.7zM120.4 55.1c-.2 0-.2.2-.2.3l.3 1 .4 2c0 .1 0 .3.4.3-.1-1.2-.4-2.4-.9-3.6zM120 52.3c0 .2.1.3.2.3l1.5.6h.2V53c-.6-.4-1.3-.6-2-.7zM121.2 54l1.2.5h.1v-.2c-.3-.3-.7-.4-1.2-.5v.1zM123.1 59l-.2.4c0 .2 0 .5.3.7v-1zM123.9 58s.2 0 .3-.2l-.6-.6c0 .3 0 .5.3.7z"/><path fill="#543B29" d="M114.5 43.4l-1.6-.8-2-.8c-1-.4-2-.6-3-.8-1.2-.2-2.4-.2-3.5 0a82.6 82.6 0 00-4 .7l-3.2 1.5c-1.5.8-2.9 1.7-4.2 2.8l-1.3 1c-.6.5-1.3.8-2 .9-.8 0-1.6-.2-2.2-.8l-.8-.5a.8.8 0 00-1 .3l-.2.5-.2 1.4v1c.1.3 0 .5-.3.6-1 .4-1.6 1-2 1.9l-.1.2c-1.7 0-3.4 0-5 .3-1 0-1.8.3-2.6.5l-1.7.5-2.4.8c-1.5.6-3 1.4-4.3 2.3l-3.9 3a35.7 35.7 0 00-5.5 7.2c-1 1.8-1.9 3.6-2.7 5.5l-1 2.5-1.1 2.8-.7 2.2-.8 3.4c0 .8-.2 1.7-.4 2.5l-.7 4c0 .5 0 1-.2 1.5a47.1 47.1 0 01-2.7 10c-.4 1.5-.5 3.1-.4 4.7a11.2 11.2 0 001.2 4.3c.3 1 .8 2 1.5 2.8l.3.5a15.3 15.3 0 006.8 5.8 27.8 27.8 0 008 2.2 47.5 47.5 0 006.2.3l3.3-.5.4-.1 2.6-.8 2.8-1 2-1c2-.9 4-2 5.8-3.4a224.4 224.4 0 004.8-3.7l3.3-3.4a74.9 74.9 0 003.7-4.4l2.5-4a37.9 37.9 0 005-14.7l.1-1.4.2-3.4v-.7c0-1.2 0-2.3-.2-3.4a35 35 0 00-2.6-8.4c-.5-1.2-1.2-2.3-1.9-3.3l-1-1.6-1.2-1.5-1.2-1.4-.6-.6a38.6 38.6 0 00-4-3.2l-1.7-1c-.5-.4-1.2-.7-1.8-1l-.5-.7a8 8 0 00-1.1-1.8 1 1 0 01-.2-.6l-.2-1-.3-1.4c.5 0 1-.2 1.4-.3h1c.7.2 1.2.6 1.6 1l1.8 2.7a9.2 9.2 0 002.7 3c1.6 1.1 3.5 1.8 5.4 2a8.2 8.2 0 013.4 1.2c1.2.7 2.6 1 4 1.1h.7c1.2.2 3.4-.3 4.7-.2a13.6 13.6 0 015.7 1.8l2.5 1.9.9.8.4.1.1-.3v-1.7a20.7 20.7 0 00-2.4-8.5 20.3 20.3 0 00-5.6-7.7c-.8-.8-1.7-1.6-2.6-2.2zM93.2 55.7c1.1.7 2.2 1.4 3.2 2.3.8.6 1.5 1.2 2.2 2l.6.7 2.2 2.6c1 1.4 3 5.7 3.2 6.3.6 1.4 1 3 1.2 4.5l.4 2.7c.3 2.3.2 4.7-.1 7l-.8 4.7c-.3 1.5-.7 3-1.3 4.5l-.9 2.1-.8 1.7-2.1 3.9c-1 1.8-2.3 3.6-3.7 5.2l-.5.7s-2.3 2.6-3 3l-.5.5-1.1 1c-1.2.9-2.2 1.9-3.4 2.7a51.3 51.3 0 01-9.4 5c-1.2.6-2.5 1-3.8 1.3l-3.5.7-1 .2h-1.6a34.2 34.2 0 01-10.8-1.8c-1.6-.6-3-1.5-4.5-2.4-1-.8-2-1.7-2.7-2.7l-1.7-2.3-.7-1.3a11.8 11.8 0 01-1-8l.8-2.7 1-3.5.5-2.1.6-3 .5-3.2A96.5 96.5 0 0153 77.5a40.2 40.2 0 011-2.3l1.3-3.1c.6-1.4 1.1-2.8 2-4l.5-1 1.2-1.8 2.2-3a19 19 0 013.9-3.6l2.6-2 3.4-1.6A30.5 30.5 0 0185 53l1.4.2 1 .2 1.8.4c1.4.4 2.6 1.2 3.9 2zM89 52.1a27.8 27.8 0 01.7 1.3h-.3l-2-.4c-.6-.2-1.3-.3-2-.3l-1.9-.2c0-.3.2-.7.4-1l1.3-.8c.4-.2.9-.2 1.3 0l.5.1c.8.2 1.5.6 2 1.3zm-1.6-4.4c.6.7 1 1.6 1.2 2.6v.7c-1-.5-1.9-.8-2.8-.9-.2-.8-.2-1.6 0-2.5l.2-.5c.2-.1.3-.2.5 0 .4 0 .7.3 1 .6zm29.3-2l1.5 1.5a21.6 21.6 0 014.4 6.8c.4.8.8 1.6 1 2.4l.9 3.1.3 2.7v.7c-.4 0-.5-.2-.6-.3a14.6 14.6 0 00-9.9-4.2 5 5 0 00-1.3.2c-.7.1-1.4.2-2.2 0-.9 0-1.7-.1-2.6-.3-1-.3-1.9-.6-2.7-1.2-.6-.4-1.3-.6-2-.8l-1.8-.4c-.6-.1-1.3-.2-2-.5-.7-.2-1.4-.6-2-1a18.3 18.3 0 01-2.8-3.4 7 7 0 00-3-2.8l-.3-.2.3-.2 2.7-1h.8c1 .6 1.8 1.2 2.6 2 1.2 1 2.1 2.3 2.8 3.7l.7 1.5.1.2h.2l.1-.2-.5-1c-.5-1-1-2-1.7-3-.9-1-1.8-2-2.9-2.7l-.9-.5-.3-.3.3-.2c.6-.3 1.4-.4 2-.5.7 0 1.4-.2 2-.3.6 0 1 .1 1.5.4 1.3.9 2.3 2 3.2 3.3 1 1.4 1.7 2.9 2.3 4.4l.4 1.2.4.2v-.5l-1.2-2.5c-.3-1-.9-1.8-1.5-2.7l-1.4-1.9a9.5 9.5 0 00-2-1.6l-.1-.2.5-.1a19.9 19.9 0 014.7.7c1.3.1 2.2 1 3 2 .6.8 1 1.7 1.5 2.7.7 1.4 1.2 2.8 1.5 4.3v.1c.3 0 .3 0 .3-.2l-.4-1.5-1.3-3.3a12.4 12.4 0 00-2-3.3c.2 0 .4 0 .6.2l1.1.5 1.7.8 2.3 1.4c.2 0 .3.2.4.4.9 1.4 1.5 3 2 4.6l.5 1.7.1.1c.2-.2.1-.4 0-.6l-.8-2.6a11.3 11.3 0 00-1-2.7 129.6 129.6 0 013 2.5l1 1.1c.4.5.6 1 .7 1.7l.4 2.3v.2l.2.1h.1v-.3l-.2-1.6v-.5c.2 0 .2.2.3.4.7 1 1.3 2.1 1.6 3.3.1.2.1.2.4.3.1-.2 0-.5-.1-.6l-.8-2-1.2-2 .5.3.7.5h.2c.2-.1 0-.2 0-.3l-.1-.1-1.3-1a4 4 0 01-1.2-1l-.7-.6-3.2-3v-.2h.3l2.3.8 1.3.5h.4l-.4-.2-1.5-.8c-1-.4-1.9-.7-2.9-.7-.3 0-.6-.1-.8-.3l-1.3-.9-2.6-1.2-1.5-.7-1-.3.5-.3a8 8 0 012.4-.3c1 0 2 0 3 .2 0 0 .3 0 .2-.3-.7-.2-1.5-.3-2.2-.3h-2l-1.8.5c-.4.2-.9.3-1.3.1a45.5 45.5 0 00-5.4-1l1.5-1a14.3 14.3 0 015.2-1.3l.2-.2h-.2a12.3 12.3 0 00-4.5.9c-.9.3-1.7.7-2.5 1.3-.4.2-.8.4-1.3.4l-4 .5c1.4-1.1 2.9-2 4.5-2.7.1 0 .4 0 .4-.4l-.6.1-1.3.5c-1.3.7-2.6 1.5-3.7 2.5l-1.3.8-.6.1-.8.3-.7.2.4-.4 2-1.5a14.7 14.7 0 015.3-2.7l2-.7 1.4-.2c2.5-.6 5-.4 7.4.6 2.1.7 4.1 2 5.7 3.5z"/><path fill="#543B29" d="M78.1 115.4h-.4l-3.5 1.8c-.9.5-1.8 1-2.7 1.2l-3.4 1c-.7 0-1.3.2-2 .3 0 0-.1.2-.4.3a28 28 0 0012.4-4.7zM82.6 114.5l-2.6 1.8c-1.1.7-2.3 1.3-3.5 1.8l-4.4 1.5c-.2 0-.4 0-.6.2l-.2.3h.5L75 119c1.3-.5 2.7-1 4-1.7l3.5-2.2c.2 0 .3-.3.4-.5a.3.3 0 00-.4 0zM68.6 118.1l3.3-1.7c.5-.3.9-.7 1.2-1.2l-.4.2-1.2.8-1 .6c-1.4.8-2.9 1.4-4.4 1.8a15 15 0 01-3.8.6l-.1.1.2.2h.1a19.5 19.5 0 006-1.4zM93.8 63.3v2.2l-.1 2.2c0 1.6-.3 3.1-.6 4.6l-.8 3.1a1 1 0 000 1c0-.4.1-.5.2-.6l.8-3c.3-1.4.6-2.8.7-4.2l.1-2.9v-2.2c-.1-.1-.1-.3-.3-.2zM95.8 66.9A29.8 29.8 0 0194 77.2v.3h.1l.2-.2A26.7 26.7 0 0096 65.6c0-.3-.2-.6-.4-.8v.5l.2 1.6zM97.5 69a18 18 0 01-.3 3.9l-.8 3-.6 2c0 .1 0 .3.2.4a42 42 0 001.7-7 14 14 0 00-.1-4.2l-.2.5.1 1.5zM91.6 73.2l.4-1.5.2-1.7a19.5 19.5 0 00.2-6.7c0-.3-.2-.7-.5-1v.6l.2 1a27 27 0 01-.8 9.5c.2 0 .2-.1.3-.2zM67.4 116.9l.6-.3c.3 0 .5-.3.6-.5h-.2l-1.3.6a20.7 20.7 0 01-7 1.7l-.3.3c1 0 1.9-.1 2.8-.3a31 31 0 004.8-1.5zM90.2 71.8l.5-2.3.2-2.9a60.8 60.8 0 000-3.6c0-.1 0-.2-.2-.3v1.6l-.2 3.2c0 1.1-.1 2.2-.4 3.3 0 .3-.2.6-.3.8l.1.4.3-.2zM63.4 115.2H63a176.5 176.5 0 00-5 1.4l-1.4.1c-.2 0-.2.2 0 .4 2.3 0 4.6-.8 6.8-1.7v-.2zM61.6 117.5l2.4-.7c.5-.1 1-.4 1.2-.9l-.4.2c-.3 0-.5.2-.7.3l-3.7 1-1.5.1c-.1 0-.2.1-.2.3 1 .1 2 0 2.9-.3zM99 70.1a16 16 0 01-1 6.3c0 .2.1.3.3.2l.2-.6c.3-.8.5-1.7.6-2.5l.2-1.1V70c0-.1 0-.3-.2-.2v.3zM89.4 64.7l-.2-1.4-.2-.2v4l-.4 2.2c0 .2-.2.4.1.7.3-.7.4-1.3.5-2l.2-3.3zM59.1 115.4l1.2-.4s.3-.1.2-.3H60l-1.3.5a10.3 10.3 0 01-3.9.5l-.3.1 1.5.3c1-.1 2-.4 3-.7zM100.4 71.7v1.7l-.5 2.6-.1.6.3-.1.2-.6.4-2.2c.1-.9 0-1.7-.1-2.5h-.2v.5zM58.1 114c-.2-.2-.3 0-.5 0l-1.8.4c-.9 0-1.8.3-2.6.1l-.2.2c1.3.4 4.3 0 5.1-.7zM87.8 64.8c0-.4-.1-1-.4-1.3l-.1-.1v.6c.2.4.2.8.1 1.2v.6l-.1 1.9v.3a88.4 88.4 0 00.5-3.2zM56.2 113.1l-1.5.4c-.5.2-1 0-1.5.3 1.1.2 2.6 0 3-.7zM105.2 52a22 22 0 00-3.5-4.8c-.3-.3-.6-.5-1-.6l.1.4c.6.4 1.1 1 1.6 1.5 1.2 1.3 2.1 2.8 2.8 4.3 0 .2.1.3.3.4h.1l-.4-1.2zM104.8 47.5l-.7-.8a.2.2 0 00-.3 0l.3.4.8 1 1.2 1.8 1 1.5.6 1.3c0 .2.1.4.5.5v-.3l-1.3-2.5-2-3zM98.2 47.3l-.3-.2v.2l.4.4c1.1 1 2 2 2.8 3.3.5.7 1 1.4 1.3 2.1l.4.4v-.4L102 52a16 16 0 00-4-4.6zM100 47.4l-.5-.3.4.6L101 49l1 1.6 1 1.5c0 .3.2.6.3.8l.5.2-.8-1.5a18.6 18.6 0 00-3.1-4.2zM111.3 53.5l-.1-.3c-.7-1.6-1.5-3.1-2.4-4.6-.2-.4-.5-.8-1-1.1v.1c1.3 1.9 2.3 4 3.3 6l.2-.1zM106.7 47.6l-.3-.3v.5l1.4 2c.6 1 1.2 2 1.6 3.2 0 .1.1.3.3.3.2-.1.1-.2 0-.4l-1.2-2.6c-.5-1-1.1-1.9-1.8-2.7zM101.4 43.6c-.6.2-1.1.7-1.5 1.2l.4-.1.5-.4a15.1 15.1 0 014.2-1.8l.2-.2c-1.4 0-2.6.6-3.8 1.3zM111.6 49v.3l.4.5c.6 1 1 2 1.4 3l.6 1.8c0 .2.2.3.4.2a18 18 0 00-2.3-5.4c-.1-.1-.2-.4-.5-.3zM99.2 51.7l.3.4.2-.1c0-.1 0-.3-.2-.4-.5-.7-1-1.6-1.7-2.3a9.3 9.3 0 00-2-1.6h-.2c0 .2 0 .4.2.4.6.4 1.2.8 1.7 1.4.6.6 1.2 1.4 1.7 2.2zM110.7 43.4h.3v-.2h-.7c-1 0-2 .1-2.9.5-.7.1-1.4.4-2 .8l-.3.4.5-.1c1.6-.8 3.3-1.3 5.1-1.4zM96 49l-.5-.4-.3-.3a.2.2 0 00-.4.1c.4.5 1 .7 1.3 1.1l1.2 1.4 1 1.4c.3-.1.2-.3.1-.4-.7-1-1.4-2.2-2.5-3zM107.3 45.2v.2h.5c1.4-.5 2.8-.7 4.3-.7h.4s0-.2.2-.3h-.9c-1.5 0-3 .2-4.5.8zM116.6 54.5l-1.3-3.3c0-.2-.3-.4-.5-.5 0 .3.2.6.3.8.5 1.3 1.1 2.5 1.3 3.8l.2.3v-1zM115.3 54.2c-.5-1.1-.8-2.4-1.4-3.5l-.4-.5h-.1c0 .2 0 .4.2.6l.6 1.4.8 2.1.3.3v-.4zM119.3 56.6c-.2-1.1-.5-2.3-1-3.3l-.2-.2-.2.1v.2c.7 1.3 1 2.6 1.3 4l.1.3v-1zM116 47.2l-.4-.2a20 20 0 00-3.9 0h.2l3.5.3.5-.1zM113.8 48a22.7 22.7 0 014 .3c-.9-.5-3-.6-4-.2zM115.6 48.8h-.4l-.4.2 1.2.1 1 .2 1 .2c.3 0 .5.4 1 .2l-.2-.2c-1-.5-2-.7-3.2-.7zM119.8 54.9c-.2 0-.2.1-.2.3l.3 1 .4 2s0 .3.3.3c0-1.3-.3-2.5-.8-3.6zM119.3 52.1l.2.3 1.5.6.3-.1-.1-.2c-.6-.3-1.2-.5-1.9-.6zM120.6 53.7c.3.3.7.5 1.2.6V54c-.3-.3-.7-.4-1.1-.5h-.1zM122.5 58.8l-.2.3c0 .3-.1.5.2.8v-1.1zM123.2 57.7c.1 0 .2.1.3-.1l-.6-.6c0 .2.1.5.3.7z"/></g></svg>
