<?xml version="1.0" encoding="utf-8"?>
<!-- Generator: Adobe Illustrator 24.1.2, SVG Export Plug-In . SVG Version: 6.00 Build 0)  -->
<svg version="1.1" id="Layer_1" xmlns="http://www.w3.org/2000/svg" xmlns:xlink="http://www.w3.org/1999/xlink" x="0px" y="0px"
	 viewBox="0 0 166 166" style="enable-background:new 0 0 166 166;" xml:space="preserve">
<style type="text/css">
	.st0{fill-rule:evenodd;clip-rule:evenodd;fill:#F0BF3B;}
	.st1{fill:#543B29;}
	.st2{font-family:'Helvetica';}
	.st3{font-size:21.72px;}
	.st4{fill-rule:evenodd;clip-rule:evenodd;fill:#F5A652;}
	.st5{fill-rule:evenodd;clip-rule:evenodd;fill:#E8EB7D;}
	.st6{fill-rule:evenodd;clip-rule:evenodd;fill:#543B29;}
</style>
<g id="MangoStamp-02" transform="translate(163.000000, 1242.000000)">
	<path id="Shape" class="st0" d="M-46.3-1197.6c-0.5-0.3-1-0.6-1.6-0.8c-0.6-0.3-1.3-0.6-1.9-0.8c-1-0.4-2-0.6-3.1-0.7
		c-1.1-0.2-2.3-0.2-3.5-0.1c-0.9,0.1-1.8,0.3-2.7,0.4c-0.5,0.1-0.9,0.2-1.3,0.4c-1,0.4-2.1,0.9-3.1,1.4c-1.5,0.8-2.9,1.8-4.3,2.9
		c-0.4,0.3-0.9,0.7-1.3,1.1c-0.6,0.5-1.3,0.8-2,0.8c-0.8,0.1-1.6-0.1-2.2-0.8c-0.2-0.2-0.5-0.4-0.8-0.5c-0.4-0.2-0.8,0-1,0.3
		c-0.1,0.1-0.2,0.3-0.3,0.5c-0.1,0.4-0.2,0.9-0.2,1.4c0,0.3,0,0.7,0,1c0,0.3-0.1,0.6-0.4,0.7c-0.9,0.3-1.6,1-1.9,1.9
		c0,0.1-0.1,0.1-0.1,0.2c-1.7,0-3.4,0.1-5.1,0.3c-0.9,0.1-1.7,0.3-2.6,0.5c-0.6,0.2-1.1,0.3-1.7,0.5c-0.8,0.2-1.6,0.5-2.4,0.8
		c-1.5,0.6-2.9,1.4-4.2,2.3c-1.3,1-2.7,1.9-3.9,2.9c-1,1.1-2,2.2-2.9,3.4c-1,1.2-1.9,2.5-2.7,3.9c-1,1.8-1.9,3.6-2.7,5.5
		c-0.3,0.7-1,2.4-1.1,2.5c-0.4,0.9-0.8,1.9-1.1,2.8c-0.2,0.7-0.4,1.4-0.6,2.2c-0.3,1.1-0.6,2.3-0.8,3.4c-0.1,0.8-0.3,1.6-0.4,2.4
		c-0.2,1.3-0.5,2.7-0.7,4c-0.1,0.5-0.1,1.1-0.2,1.6c-0.3,1.9-0.8,3.8-1.3,5.6c-0.3,1.2-0.7,2.5-1.2,3.7c-0.1,0.2-0.2,0.5-0.2,0.7
		c-0.4,1.5-0.5,3.1-0.4,4.7c0.1,1,0.3,2.1,0.7,3c0.2,0.4,0.3,0.9,0.5,1.3c0.3,1,0.8,2,1.5,2.8c0.1,0.2,0.2,0.3,0.3,0.5
		c0.4,0.6,0.8,1.2,1.3,1.7c1.6,1.7,3.4,3.1,5.6,4.1c1.3,0.6,2.6,1,3.9,1.4c1.4,0.3,2.8,0.6,4.2,0.8c1.7,0.2,3.5,0.3,5.2,0.3
		c0.3,0,0.6,0,0.9-0.1c1.1-0.2,2.2-0.3,3.3-0.5c0.1,0,0.3-0.1,0.4-0.1c0.9-0.3,1.8-0.5,2.6-0.8c0.9-0.3,1.8-0.6,2.7-1
		c0.7-0.3,1.3-0.7,2-1c2.1-0.9,4.1-2.1,5.9-3.5c1-0.7,1.9-1.4,2.8-2.1c0.7-0.5,1.3-1,1.9-1.5c1.1-1.1,2.2-2.3,3.3-3.4
		c0.7-0.7,1.3-1.4,1.9-2.1c0.7-0.7,1.3-1.5,1.8-2.4c0.8-1.3,1.7-2.6,2.5-3.9c0.8-1.3,1.5-2.6,2.1-4c0.7-1.6,1.2-3.2,1.7-4.8
		c0.4-1.5,0.8-2.9,1-4.4c0.1-0.5,0.2-1,0.2-1.5c0-0.5,0.1-1,0.1-1.4c0.1-1.1,0.2-2.3,0.2-3.4c0-0.2,0-0.5,0-0.7
		c0.1-1.1,0-2.3-0.2-3.4c-0.3-1.7-0.7-3.5-1.2-5.1c-0.1-0.3-0.2-0.6-0.3-1c-0.3-0.8-0.7-1.5-1.1-2.3c-0.5-1.2-1.2-2.3-1.9-3.3
		c-0.4-0.5-0.8-1.1-1.1-1.6c-0.3-0.5-0.7-1-1.1-1.4c-0.4-0.5-0.8-0.9-1.3-1.4c-0.2-0.2-0.4-0.4-0.6-0.6c-1.1-1.1-2.3-2-3.6-2.9
		c-0.1-0.1-0.3-0.2-0.4-0.3c-0.6-0.3-1.1-0.7-1.7-1c-0.6-0.3-1.2-0.7-1.8-1c-0.2-0.1-0.4-0.3-0.5-0.6c-0.3-0.7-0.7-1.3-1.1-1.8
		c-0.1-0.2-0.2-0.4-0.2-0.6c0-0.4-0.1-0.7-0.2-1.1c-0.1-0.4-0.2-0.9-0.3-1.3c0.5-0.1,1-0.2,1.4-0.3c0.3-0.1,0.7-0.1,1,0
		c0.6,0.1,1.2,0.5,1.6,1.1c0.6,0.8,1.2,1.7,1.7,2.6c0.7,1.2,1.6,2.2,2.8,3c1.6,1.1,3.4,1.8,5.3,2.1c0.8,0.1,1.6,0.3,2.4,0.6
		c0.4,0.2,0.7,0.4,1.1,0.6c1.2,0.7,2.5,1.1,3.9,1.1c0.2,0,0.5,0,0.7,0c1.2,0.1,3.4-0.4,4.8-0.3c1.1,0.1,2.1,0.3,3.1,0.7
		c0.9,0.3,1.7,0.7,2.5,1.2c0.9,0.5,1.7,1.1,2.5,1.8c0.3,0.3,0.6,0.6,0.9,0.8c0.1,0.1,0.2,0.1,0.4,0.1c0.1,0,0.1-0.2,0.1-0.3
		c0-0.6,0-1.2,0-1.7c-0.1-1.7-0.4-3.4-1-5c-0.3-1.1-0.7-2.2-1.3-3.2c0-0.1-0.1-0.2-0.1-0.3c-0.4-1.1-1-2.1-1.6-3.1
		c-0.9-1.5-2-2.8-3.3-3.9c-0.3-0.2-0.5-0.5-0.7-0.7C-44.3-1196.2-45.3-1196.9-46.3-1197.6z M-71.7-1188.8c0.2,0.3,0.5,0.7,0.7,1
		c0,0.1,0,0.2,0,0.3c-0.1,0-0.2,0-0.3,0c-0.6-0.1-1.3-0.3-1.9-0.4c-0.7-0.2-1.4-0.3-2.1-0.3c-0.6,0-1.2-0.1-1.8-0.2
		c0-0.4,0.2-0.7,0.4-0.9c0.4-0.4,0.8-0.7,1.3-0.9c0.4-0.2,0.9-0.2,1.3-0.1c0.2,0.1,0.3,0.1,0.5,0.1
		C-72.9-1190-72.2-1189.5-71.7-1188.8z M-73.3-1193.3c0.6,0.8,1,1.6,1.2,2.6c0,0.3,0,0.5-0.1,0.8c-0.9-0.5-1.8-0.8-2.8-0.9
		c-0.2-0.8-0.2-1.7,0-2.5c0.1-0.2,0.2-0.4,0.3-0.5c0.1-0.1,0.3-0.2,0.5-0.1C-73.9-1193.8-73.5-1193.6-73.3-1193.3L-73.3-1193.3z
		 M-44-1195.2c0.5,0.5,1,0.9,1.4,1.4c1.1,1.2,2.2,2.5,3,3.9c0.6,0.9,1,1.9,1.5,2.9c0.4,0.8,0.7,1.6,1,2.5c0.3,1,0.5,2.1,0.8,3.1
		c0.2,0.9,0.3,1.8,0.3,2.7c0,0.3,0,0.5-0.1,0.8c-0.3,0-0.4-0.2-0.5-0.4c-1.5-1.5-3.3-2.6-5.3-3.3c-1.5-0.5-3-0.8-4.6-0.8
		c-0.4,0-0.8,0.1-1.2,0.2c-0.7,0.2-1.5,0.2-2.2,0.1c-0.9-0.1-1.8-0.2-2.6-0.4c-0.9-0.2-1.8-0.6-2.6-1.1c-0.6-0.4-1.3-0.6-2-0.8
		c-0.6-0.1-1.2-0.2-1.8-0.4s-1.3-0.3-2-0.5c-0.7-0.3-1.5-0.7-2.1-1.1c-0.6-0.4-1.1-1-1.6-1.6c-0.5-0.6-0.9-1.2-1.2-1.8
		c-0.7-1.2-1.7-2.2-2.9-2.8c-0.1,0-0.2-0.1-0.4-0.2c0.1-0.1,0.2-0.1,0.3-0.2c0.9-0.3,1.8-0.6,2.7-0.9c0.3-0.1,0.6-0.1,0.8,0.1
		c0.9,0.5,1.8,1.1,2.6,1.8c1.2,1.1,2.1,2.3,2.8,3.8c0.2,0.5,0.5,1,0.7,1.5c0,0.1,0.1,0.1,0.1,0.2c0,0,0.2,0.1,0.2,0.1
		s0.1-0.2,0.1-0.2c-0.1-0.4-0.3-0.7-0.5-1.1c-0.5-1-1.1-2-1.7-2.9c-0.8-1-1.8-2-2.8-2.8c-0.3-0.2-0.6-0.4-0.9-0.5
		c-0.1-0.1-0.2-0.1-0.3-0.2c0.1-0.1,0.2-0.2,0.3-0.2c0.7-0.3,1.4-0.4,2.1-0.5c0.7-0.1,1.3-0.2,2-0.3c0.5-0.1,1,0.1,1.4,0.4
		c1.3,0.9,2.4,2,3.2,3.3c1,1.4,1.7,2.8,2.3,4.4c0.1,0.4,0.3,0.8,0.5,1.1c0,0.1,0.2,0.1,0.3,0.3c0-0.2,0-0.3-0.1-0.5
		c-0.4-0.8-0.7-1.7-1.1-2.5c-0.4-1-0.9-1.9-1.5-2.7c-0.5-0.6-0.9-1.3-1.4-1.9c-0.6-0.6-1.2-1.2-1.9-1.7c-0.1-0.1-0.1-0.1-0.2-0.2
		c0.2-0.1,0.3-0.1,0.5-0.1c1.1,0,2.2,0.2,3.3,0.4c0.5,0.1,0.9,0.2,1.4,0.3c1.3,0.2,2.2,1,3,2c0.6,0.9,1.1,1.8,1.5,2.7
		c0.7,1.4,1.2,2.9,1.5,4.4c0,0,0,0.1,0.1,0.1c0.2,0,0.3-0.1,0.2-0.3c-0.1-0.5-0.2-1-0.4-1.5c-0.4-1.1-0.8-2.3-1.3-3.4
		c-0.5-1.1-1.1-2.1-1.9-3c0-0.1-0.1-0.1-0.1-0.2c0.2,0,0.5,0,0.7,0.2c0.4,0.2,0.7,0.4,1.1,0.5c0.6,0.3,1.1,0.5,1.7,0.8
		c0.8,0.4,1.6,0.9,2.3,1.4c0.1,0.1,0.2,0.2,0.3,0.4c0.9,1.4,1.6,3,2,4.6c0.1,0.6,0.4,1.1,0.5,1.7c0,0,0.1,0,0.1,0.1
		c0.2-0.2,0.1-0.4,0-0.6c-0.3-0.9-0.6-1.8-0.8-2.6c-0.2-0.8-0.6-1.6-1-2.3c-0.1-0.1-0.1-0.2-0.1-0.3c0.3,0,0.4,0.1,0.6,0.3
		c0.8,0.8,1.6,1.5,2.4,2.3c0.3,0.3,0.7,0.7,1,1c0.4,0.5,0.7,1.1,0.8,1.7c0.1,0.8,0.2,1.5,0.4,2.3c0,0.1,0,0.2,0.1,0.3
		c0,0,0.1,0.1,0.2,0.1s0.1-0.1,0.1-0.1c0-0.1,0-0.1,0-0.2l-0.2-1.6c0-0.2,0-0.3,0-0.5c0.2,0.1,0.2,0.2,0.3,0.4
		c0.7,1,1.3,2.2,1.7,3.4c0.1,0.2,0.1,0.2,0.4,0.3c0.1-0.3,0-0.5-0.1-0.7c-0.3-0.7-0.6-1.3-0.8-2c0-0.1-0.7-1.2-1.1-1.9
		c0.2,0.1,0.3,0.1,0.5,0.2c0.2,0.2,0.4,0.3,0.6,0.5c0.1,0,0.2,0,0.3,0c0.1-0.1,0.1-0.2,0-0.3c0,0-0.1-0.1-0.1-0.1
		c-0.4-0.3-0.9-0.6-1.3-0.9c-0.5-0.3-0.9-0.6-1.2-1c-0.2-0.2-0.4-0.5-0.7-0.7c-1.1-1-2.2-2-3.2-3c0-0.1-0.1-0.1-0.1-0.2
		c0.1,0,0.2,0,0.4,0c0.8,0.2,1.6,0.4,2.3,0.8c0.4,0.2,0.8,0.4,1.3,0.5c0.1,0,0.2,0,0.4-0.1c-0.2-0.1-0.3-0.2-0.3-0.2
		c-0.5-0.2-1.1-0.5-1.6-0.7c-0.9-0.4-1.9-0.7-2.8-0.8c-0.3,0-0.6-0.1-0.8-0.3c-0.4-0.3-0.9-0.6-1.3-0.9c-0.8-0.4-1.7-0.8-2.6-1.2
		c-0.5-0.2-1-0.5-1.5-0.7c-0.3-0.1-0.6-0.2-1-0.4c0.1-0.1,0.3-0.2,0.5-0.2c0.8-0.2,1.6-0.3,2.4-0.3c1-0.1,1.9,0,2.9,0.2
		c0.2,0,0.4,0,0.3-0.3c-0.7-0.2-1.5-0.3-2.3-0.3c-0.7,0-1.3,0-2,0.1c-0.6,0-1.2,0.2-1.7,0.5c-0.4,0.2-0.9,0.2-1.3,0.1
		c-1-0.3-2.1-0.5-3.2-0.8c-0.5-0.1-1.1-0.1-1.7-0.1c-0.2,0-0.5,0-0.6-0.2c0.5-0.4,1-0.7,1.6-0.9c1.5-0.7,3-1.1,4.6-1.2
		c0.2,0,0.4,0,0.6-0.1c0.1,0,0.1-0.1,0.2-0.2c-0.1-0.1-0.1-0.1-0.2-0.1c-1.2,0-2.4,0.3-3.5,0.6c-0.3,0.1-0.6,0.2-1,0.3
		c-0.9,0.3-1.7,0.7-2.5,1.3c-0.4,0.3-0.8,0.4-1.3,0.5c-1.3,0.1-2.7,0.3-4,0.4c0,0,0,0-0.1,0c1.4-1,2.9-1.9,4.5-2.6
		c0.2-0.1,0.4-0.1,0.4-0.4c-0.2,0-0.4,0.1-0.6,0.1c-0.4,0.1-0.9,0.3-1.3,0.5c-1.3,0.7-2.6,1.5-3.7,2.5c-0.4,0.3-0.8,0.6-1.3,0.8
		c-0.2,0.1-0.4,0.1-0.6,0.2c-0.3,0.1-0.5,0.2-0.8,0.2c-0.2,0.1-0.5,0.2-0.7,0.2c0.1-0.1,0.2-0.3,0.4-0.4c0.6-0.5,1.3-1,1.9-1.5
		c0.8-0.6,1.7-1.2,2.6-1.6c0.9-0.5,1.8-0.8,2.8-1.1c0.7-0.2,1.4-0.5,2.1-0.7c0.5-0.1,0.9-0.2,1.4-0.2c0.8-0.2,1.6-0.3,2.4-0.3
		c1.7,0,3.4,0.3,5,0.9C-47.6-1198.1-45.6-1196.9-44-1195.2z"/>
	<text transform="matrix(0.187 -0.9824 0.9824 0.187 -146.9049 -1167.8604)" class="st1 st2 st3">D</text>
	<text transform="matrix(0.3973 -0.9177 0.9177 0.3973 -142.4749 -1184.5105)" class="st1 st2 st3">I</text>
	<text transform="matrix(0.5857 -0.8106 0.8106 0.5857 -137.0601 -1195.3201)" class="st1 st2 st3">G</text>
	<text transform="matrix(0.7457 -0.6663 0.6663 0.7457 -126.1701 -1208.3402)" class="st1 st2 st3">I</text>
	<text transform="matrix(0.8698 -0.4933 0.4933 0.8698 -116.7049 -1215.8801)" class="st1 st2 st3">T</text>
	<text transform="matrix(0.9633 -0.2686 0.2686 0.9633 -102.705 -1222.825)" class="st1 st2 st3">A</text>
	<text transform="matrix(0.9998 -2.129141e-02 2.129141e-02 0.9998 -85.365 -1226.415)" class="st1 st2 st3">L</text>
	<text transform="matrix(0.9178 0.397 -0.397 0.9178 -57.7351 -1222.795)" class="st1 st2 st3">N</text>
	<text transform="matrix(0.7867 0.6174 -0.6174 0.7867 -42.1999 -1214.9451)" class="st1 st2 st3">O</text>
	<text transform="matrix(0.5888 0.8083 -0.8083 0.5888 -29.5093 -1203.7209)" class="st1 st2 st3">M</text>
	<text transform="matrix(0.3489 0.9371 -0.9371 0.3489 -18.8699 -1187.0223)" class="st1 st2 st3">A</text>
	<text transform="matrix(8.963764e-02 0.996 -0.996 8.963764e-02 -13.8203 -1170.0876)" class="st1 st2 st3">D</text>
	<text transform="matrix(-0.1556 0.9878 -0.9878 -0.1556 -13.4007 -1152.9551)" class="st1 st2 st3">S</text>
	<text transform="matrix(-0.5546 0.8321 -0.8321 -0.5546 -22.1805 -1125.71)" class="st1 st2 st3">S</text>
	<text transform="matrix(-0.717 0.6971 -0.6971 -0.717 -32.3492 -1112.4167)" class="st1 st2 st3">I</text>
	<text transform="matrix(-0.8533 0.5215 -0.5215 -0.8533 -41.5455 -1104.5497)" class="st1 st2 st3">N</text>
	<text transform="matrix(-0.9575 0.2884 -0.2884 -0.9575 -56.9395 -1096.4602)" class="st1 st2 st3">C</text>
	<text transform="matrix(-0.9992 3.996793e-02 -3.996793e-02 -0.9992 -73.2942 -1092.6584)" class="st1 st2 st3">E</text>
	<text transform="matrix(-0.9268 -0.3756 0.3756 -0.9268 -101.5154 -1095.7404)" class="st1 st2 st3">2</text>
	<text transform="matrix(-0.8 -0.6 0.6 -0.8 -116.7602 -1103.0854)" class="st1 st2 st3">0</text>
	<text transform="matrix(-0.6353 -0.7723 0.7723 -0.6353 -129.7151 -1114.0798)" class="st1 st2 st3">1</text>
	<text transform="matrix(-0.427 -0.9042 0.9042 -0.427 -139.0449 -1126.9502)" class="st1 st2 st3">4</text>
	<path id="Shape_1_" class="st4" d="M-48.8-1199.4c-0.5-0.3-1-0.6-1.6-0.8c-0.6-0.3-1.3-0.6-1.9-0.8c-1-0.3-2-0.6-3.1-0.7
		c-1.1-0.2-2.3-0.3-3.5-0.1c-0.9,0.1-1.8,0.3-2.7,0.4c-0.5,0.1-0.9,0.2-1.3,0.4c-1,0.4-2.1,0.9-3.1,1.4c-1.5,0.8-2.9,1.8-4.3,2.9
		c-0.4,0.4-0.9,0.7-1.3,1.1c-0.6,0.5-1.3,0.8-2,0.8c-0.8,0.1-1.6-0.1-2.2-0.8c-0.2-0.2-0.5-0.4-0.8-0.5c-0.4-0.2-0.8,0-1,0.3
		c-0.1,0.1-0.2,0.3-0.3,0.5c-0.1,0.4-0.2,0.9-0.2,1.4c0,0.3,0,0.7,0,1c0,0.3-0.1,0.6-0.4,0.7c-0.9,0.3-1.6,1-1.9,1.9
		c0,0-0.1,0.1-0.1,0.2c-1.7,0-3.4,0.1-5.1,0.3c-0.9,0.1-1.7,0.3-2.6,0.5l-1.7,0.5c-0.8,0.3-1.6,0.5-2.4,0.8
		c-1.5,0.6-2.9,1.4-4.2,2.3c-1.3,1-2.7,1.9-3.9,2.9c-1,1.1-2,2.2-2.9,3.4c-1,1.2-1.9,2.5-2.7,3.9c-1,1.8-1.9,3.6-2.7,5.5
		c-0.3,0.7-1,2.4-1.1,2.5c-0.4,0.9-0.8,1.9-1.1,2.8c-0.2,0.7-0.4,1.4-0.6,2.2c-0.3,1.1-0.6,2.3-0.8,3.4c-0.1,0.8-0.3,1.6-0.4,2.4
		c-0.2,1.3-0.5,2.7-0.7,4c-0.1,0.5-0.1,1.1-0.2,1.6c-0.3,1.9-0.8,3.8-1.3,5.6c-0.3,1.2-0.7,2.5-1.2,3.7c-0.1,0.2-0.2,0.5-0.2,0.7
		c-0.4,1.5-0.5,3.1-0.4,4.7c0.1,1,0.3,2,0.6,3c0.2,0.4,0.3,0.9,0.5,1.3c0.3,1,0.8,2,1.5,2.8c0.1,0.2,0.2,0.3,0.3,0.5
		c0.4,0.6,0.8,1.2,1.3,1.7c1.6,1.7,3.4,3.1,5.6,4.1c1.3,0.6,2.6,1,3.9,1.4c1.4,0.4,2.8,0.6,4.2,0.8c1.7,0.2,3.5,0.3,5.2,0.3
		c0.3,0,0.6,0,0.9-0.1c1.1-0.1,2.2-0.3,3.3-0.5c0.1,0,0.3-0.1,0.4-0.1c0.9-0.3,1.8-0.5,2.6-0.8c0.9-0.3,1.8-0.6,2.7-1
		c0.7-0.3,1.3-0.7,2-1c2.1-0.9,4.1-2.1,5.9-3.5c1-0.7,1.9-1.4,2.8-2.1c0.6-0.5,1.3-1,1.9-1.5c1.2-1.1,2.2-2.3,3.4-3.4
		c0.7-0.7,1.3-1.4,1.9-2.1c0.7-0.7,1.3-1.5,1.8-2.4c0.8-1.3,1.7-2.6,2.5-3.9c0.8-1.3,1.5-2.6,2.1-4c0.7-1.6,1.2-3.2,1.7-4.8
		c0.4-1.5,0.8-2.9,1-4.4c0.1-0.5,0.2-1,0.2-1.5c0-0.5,0.1-1,0.1-1.4c0.1-1.1,0.2-2.3,0.2-3.4c0-0.2,0-0.5,0-0.7
		c0.1-1.1,0-2.3-0.2-3.4c-0.3-1.7-0.7-3.4-1.2-5.1c-0.1-0.3-0.2-0.6-0.3-1c-0.3-0.8-0.7-1.5-1.1-2.3c-0.5-1.2-1.2-2.3-1.9-3.3
		c-0.4-0.5-0.8-1.1-1.1-1.6c-0.3-0.5-0.7-1-1.1-1.4c-0.4-0.5-0.8-0.9-1.3-1.4c-0.2-0.2-0.4-0.4-0.6-0.6c-1.1-1.1-2.3-2-3.6-2.9
		c-0.1-0.1-0.3-0.2-0.4-0.3c-0.6-0.3-1.1-0.7-1.7-1c-0.6-0.3-1.2-0.7-1.8-1c-0.2-0.1-0.4-0.3-0.5-0.6c-0.3-0.7-0.7-1.3-1.1-1.8
		c-0.1-0.2-0.2-0.4-0.2-0.6c0-0.4-0.1-0.7-0.2-1.1c-0.1-0.4-0.2-0.9-0.3-1.3c0.5-0.1,1-0.2,1.4-0.3c0.3-0.1,0.7-0.1,1,0
		c0.6,0.1,1.2,0.5,1.6,1.1c0.6,0.8,1.2,1.7,1.7,2.6c0.7,1.2,1.6,2.2,2.8,3c1.6,1.1,3.4,1.9,5.3,2.1c0.8,0.1,1.6,0.3,2.4,0.6
		c0.4,0.2,0.7,0.4,1.1,0.6c1.2,0.7,2.5,1.1,3.9,1.1c0.2,0,0.5,0,0.7,0c1.2,0.1,3.4-0.4,4.8-0.3c1.1,0.1,2.1,0.3,3.1,0.7
		c0.9,0.3,1.8,0.7,2.6,1.2c0.9,0.5,1.7,1.1,2.5,1.8c0.3,0.3,0.6,0.6,0.9,0.8c0.1,0.1,0.2,0.1,0.4,0.1c0.1,0,0.1-0.2,0.1-0.3
		c0-0.6,0-1.2,0-1.7c-0.1-1.7-0.4-3.4-1-5c-0.3-1.1-0.7-2.2-1.3-3.2c0-0.1-0.1-0.2-0.1-0.3c-0.4-1.1-1-2.1-1.6-3.1
		c-0.9-1.4-2-2.8-3.3-3.9c-0.2-0.2-0.5-0.5-0.7-0.7C-46.9-1198-47.9-1198.8-48.8-1199.4z M-70.1-1187.1c1.2,0.7,2.3,1.4,3.3,2.3
		c0.8,0.6,1.4,1.3,2.1,1.9c0.2,0.2,0.5,0.5,0.7,0.8c0.8,0.8,1.5,1.7,2.2,2.6c0.9,1.4,2.9,5.7,3.2,6.3c0.6,1.4,1,2.9,1.3,4.4
		c0.1,0.9,0.3,1.8,0.4,2.7c0.3,2.3,0.2,4.7-0.1,7c-0.3,1.6-0.5,3.2-0.8,4.7c-0.3,1.5-0.7,3.1-1.3,4.5c-0.3,0.7-0.6,1.4-0.9,2.1
		c-0.2,0.6-0.5,1.1-0.8,1.7c-0.3,0.6-1.8,3.2-2.2,3.8c-1,1.9-2.2,3.6-3.6,5.2c-0.2,0.2-0.4,0.4-0.6,0.7c0,0-2.3,2.7-2.9,3
		c-0.2,0.1-0.4,0.3-0.6,0.5c-0.4,0.3-0.7,0.7-1.1,1c-1.1,0.9-2.2,1.9-3.4,2.7c-2.3,1.6-4.7,3-7.2,4.2c-0.7,0.3-1.4,0.6-2.1,0.9
		c-1.3,0.5-2.5,0.9-3.9,1.2l-3.5,0.7c-0.3,0.1-0.7,0.1-1.1,0.2c-0.5,0.1-1,0.1-1.5,0.1c-1.9,0.1-3.8-0.1-5.6-0.4
		c-1.8-0.3-3.5-0.8-5.2-1.4c-1.6-0.7-3.1-1.5-4.5-2.4c-1.1-0.7-2-1.6-2.7-2.7c-0.6-0.8-1.1-1.6-1.7-2.3c-0.3-0.4-0.5-0.8-0.7-1.3
		c-0.6-1.3-1-2.7-1.2-4.1c-0.1-1.3-0.1-2.6,0.2-3.9c0.2-0.9,0.5-1.8,0.8-2.7c0.4-1.1,0.7-2.3,1-3.5c0.1-0.7,0.4-1.4,0.6-2.2
		c0.2-1,0.4-1.9,0.6-2.9c0.2-1.1,0.3-2.1,0.4-3.2c0.2-1.4,0.5-2.8,0.7-4.1c0.4-1.7,0.8-3.4,1.2-5.1c0.1-0.5,0.3-0.9,0.5-1.4
		c0.1-0.4,0.3-0.7,0.4-1.1c0.2-0.4,0.4-0.8,0.6-1.3c0-0.1,0.9-2.2,1.3-3.1c0.6-1.3,1.1-2.8,2-4c0.2-0.3,0.3-0.6,0.5-0.9
		c0.3-0.6,0.7-1.3,1.2-1.8c0.7-1,1.4-2,2.2-3c1.1-1.4,2.4-2.7,3.9-3.7c0.9-0.6,1.8-1.3,2.7-1.9c1.1-0.7,2.2-1.2,3.3-1.7
		c1.8-0.7,3.7-1.3,5.7-1.6c1.5-0.3,3-0.4,4.5-0.5c1.3,0,2.5,0,3.8,0.2c0.5,0,1,0,1.4,0.1c0.3,0.1,0.7,0.1,1,0.2
		c0.6,0.1,1.2,0.3,1.8,0.4C-72.6-1188.6-71.4-1187.8-70.1-1187.1z M-74.3-1190.7c0.2,0.3,0.4,0.7,0.7,1c0,0.1,0,0.2,0,0.3
		c-0.1,0-0.2,0-0.3,0c-0.6-0.1-1.3-0.3-1.9-0.4c-0.7-0.2-1.4-0.3-2.1-0.3c-0.6,0-1.2-0.1-1.8-0.2c0-0.4,0.2-0.7,0.4-0.9
		c0.4-0.4,0.8-0.7,1.3-0.9c0.4-0.2,0.9-0.2,1.3-0.1c0.2,0.1,0.3,0.1,0.5,0.1C-75.5-1191.8-74.8-1191.4-74.3-1190.7L-74.3-1190.7z
		 M-75.9-1195.1c0.6,0.8,1,1.6,1.2,2.6c0,0.2,0,0.5-0.1,0.7c-0.9-0.5-1.8-0.8-2.8-0.9c-0.2-0.8-0.2-1.7,0-2.5
		c0.1-0.2,0.2-0.4,0.3-0.5c0.1-0.1,0.3-0.2,0.5-0.1C-76.4-1195.7-76.1-1195.5-75.9-1195.1L-75.9-1195.1z M-46.6-1197.1
		c0.5,0.5,1,0.9,1.4,1.4c1.1,1.2,2.2,2.5,3,3.9c0.6,0.9,1,1.9,1.5,2.9c0.4,0.8,0.7,1.6,1,2.5c0.3,1,0.5,2,0.8,3.1
		c0.2,0.9,0.3,1.8,0.3,2.7c0,0.3,0,0.5-0.1,0.8c-0.3,0-0.4-0.2-0.5-0.4c-1.5-1.5-3.3-2.6-5.3-3.3c-1.5-0.5-3-0.8-4.6-0.8
		c-0.4,0-0.8,0.1-1.2,0.2c-0.7,0.2-1.5,0.2-2.2,0.1c-0.9-0.1-1.8-0.2-2.6-0.4c-0.9-0.2-1.8-0.6-2.7-1.1c-0.6-0.4-1.3-0.7-2-0.8
		c-0.6-0.1-1.2-0.2-1.8-0.4c-0.7-0.1-1.3-0.3-2-0.5c-0.7-0.3-1.5-0.7-2.1-1.1c-0.6-0.4-1.1-1-1.6-1.6c-0.5-0.6-0.9-1.2-1.3-1.8
		c-0.7-1.2-1.7-2.2-2.9-2.8c-0.1-0.1-0.2-0.1-0.4-0.2c0.1-0.1,0.2-0.1,0.3-0.2c0.9-0.3,1.8-0.6,2.7-0.9c0.3-0.1,0.6-0.1,0.8,0.1
		c1,0.5,1.8,1.1,2.6,1.8c1.2,1.1,2.1,2.3,2.8,3.8c0.2,0.5,0.5,1,0.7,1.5c0,0.1,0.1,0.1,0.1,0.2c0,0,0.2,0.1,0.2,0.1
		c0,0,0.1-0.2,0.1-0.2c-0.2-0.4-0.3-0.7-0.5-1c-0.5-1-1.1-2-1.7-2.9c-0.8-1-1.8-2-2.8-2.8c-0.3-0.2-0.6-0.4-0.9-0.5
		c-0.1-0.1-0.2-0.1-0.3-0.2c0.1-0.1,0.2-0.2,0.3-0.2c0.7-0.3,1.4-0.4,2.1-0.5c0.7-0.1,1.3-0.2,2-0.3c0.5-0.1,1,0.1,1.4,0.4
		c1.3,0.9,2.4,2,3.2,3.3c1,1.4,1.7,2.8,2.3,4.4c0.1,0.4,0.3,0.8,0.5,1.1c0,0.1,0.2,0.1,0.3,0.3c0-0.2,0-0.3-0.1-0.5
		c-0.4-0.8-0.7-1.7-1.1-2.5c-0.4-1-0.9-1.9-1.5-2.7c-0.5-0.6-0.9-1.3-1.4-1.9c-0.6-0.6-1.2-1.2-1.9-1.7c-0.1-0.1-0.1-0.1-0.2-0.2
		c0.2-0.1,0.3-0.1,0.5-0.1c1.1,0,2.2,0.2,3.3,0.4c0.5,0.1,0.9,0.2,1.4,0.3c1.3,0.2,2.2,1,3,2c0.6,0.9,1.1,1.8,1.5,2.7
		c0.7,1.4,1.2,2.9,1.5,4.4c0,0,0.1,0.1,0.1,0.1c0.2,0,0.3-0.1,0.2-0.3c-0.1-0.5-0.2-1-0.4-1.5c-0.4-1.1-0.8-2.3-1.3-3.4
		c-0.5-1.1-1.1-2.1-1.9-3c0-0.1-0.1-0.1-0.1-0.2c0.2,0,0.5,0,0.7,0.2c0.4,0.2,0.7,0.4,1.1,0.5c0.5,0.3,1.1,0.5,1.6,0.8
		c0.8,0.4,1.6,0.9,2.4,1.4c0.1,0.1,0.2,0.2,0.3,0.4c0.9,1.4,1.6,3,2,4.6c0.1,0.6,0.4,1.2,0.5,1.7c0,0,0.1,0,0.1,0.1
		c0.2-0.2,0.1-0.4,0-0.6c-0.3-0.9-0.5-1.8-0.8-2.6c-0.2-0.8-0.6-1.6-1-2.3c-0.1-0.1-0.1-0.2-0.1-0.3c0.3,0,0.4,0.1,0.6,0.3
		c0.8,0.8,1.6,1.5,2.4,2.3c0.3,0.3,0.7,0.7,1,1c0.4,0.5,0.7,1.1,0.8,1.7c0.1,0.8,0.2,1.5,0.4,2.3c0,0.1,0,0.2,0.1,0.3
		c0,0,0.1,0.1,0.2,0.1c0.1,0,0.1-0.1,0.1-0.1c0-0.1,0-0.1,0-0.2c-0.1-0.5-0.1-1.1-0.2-1.7c0-0.2,0-0.3,0-0.5
		c0.2,0.1,0.3,0.2,0.3,0.4c0.7,1,1.3,2.2,1.7,3.4c0.1,0.2,0.1,0.1,0.3,0.3c0.1-0.3,0-0.5-0.1-0.7c-0.3-0.7-0.6-1.3-0.8-2
		c0-0.1-0.7-1.2-1.1-1.9c0.2,0.1,0.3,0.1,0.5,0.2c0.2,0.2,0.4,0.3,0.6,0.5c0.1,0,0.2,0,0.3,0c0.1-0.1,0.1-0.2,0-0.3
		c0,0-0.1-0.1-0.1-0.1c-0.4-0.3-0.9-0.6-1.3-0.9c-0.5-0.3-0.9-0.6-1.2-1c-0.2-0.2-0.4-0.5-0.6-0.7c-1.1-1-2.2-2-3.2-3
		c0-0.1-0.1-0.1-0.1-0.2c0.1,0,0.2,0,0.4,0c0.8,0.2,1.6,0.4,2.3,0.8c0.4,0.2,0.8,0.4,1.3,0.5c0.1,0,0.2,0,0.4-0.1
		c-0.2-0.1-0.3-0.2-0.3-0.2c-0.5-0.2-1.1-0.5-1.6-0.7c-0.9-0.4-1.9-0.7-2.9-0.8c-0.3,0-0.6-0.1-0.8-0.3c-0.4-0.3-0.9-0.6-1.3-0.9
		c-0.8-0.4-1.7-0.8-2.6-1.2c-0.5-0.2-1-0.5-1.5-0.7c-0.3-0.1-0.6-0.2-1-0.4c0.1-0.1,0.3-0.2,0.4-0.2c0.8-0.2,1.6-0.3,2.4-0.3
		c1-0.1,1.9,0,2.9,0.2c0.2,0,0.4,0,0.3-0.3c-0.7-0.2-1.5-0.3-2.3-0.3c-0.7,0-1.3,0-2,0.1c-0.6,0-1.2,0.2-1.7,0.5
		c-0.4,0.2-0.9,0.2-1.3,0.1c-1-0.3-2.1-0.6-3.2-0.8c-0.5-0.1-1.1-0.1-1.7-0.1c-0.2,0-0.5,0-0.6-0.2c0.5-0.4,1-0.7,1.6-0.9
		c1.4-0.7,3-1.1,4.6-1.2c0.2,0,0.4,0,0.6-0.1c0.1,0,0.1-0.1,0.2-0.2c-0.1-0.1-0.1-0.1-0.2-0.1c-1.2,0-2.4,0.2-3.5,0.6
		c-0.3,0.1-0.6,0.2-1,0.3c-0.9,0.3-1.7,0.7-2.5,1.3c-0.4,0.3-0.8,0.4-1.3,0.5c-1.3,0.1-2.7,0.3-4,0.4c0,0,0,0-0.1,0
		c1.4-1,2.9-1.9,4.5-2.6c0.2-0.1,0.4-0.1,0.4-0.4c-0.2,0-0.4,0.1-0.6,0.1c-0.4,0.1-0.9,0.3-1.3,0.5c-1.3,0.7-2.6,1.5-3.7,2.4
		c-0.4,0.3-0.8,0.6-1.3,0.8c-0.2,0.1-0.4,0.1-0.6,0.2c-0.3,0.1-0.5,0.1-0.8,0.2c-0.2,0.1-0.5,0.2-0.7,0.2c0.1-0.1,0.2-0.3,0.4-0.4
		c0.6-0.5,1.3-1,1.9-1.5c0.8-0.6,1.7-1.2,2.6-1.6c0.9-0.5,1.8-0.8,2.8-1.1c0.7-0.2,1.4-0.5,2.1-0.7c0.5-0.1,0.9-0.2,1.4-0.2
		c0.8-0.2,1.6-0.3,2.4-0.3c1.7,0,3.4,0.3,5,0.9C-50.2-1199.9-48.2-1198.7-46.6-1197.1L-46.6-1197.1z"/>
	<path id="Path" class="st4" d="M-85.2-1127.4c-0.1-0.1-0.2-0.1-0.4,0c-1.2,0.6-2.3,1.2-3.5,1.8c-0.9,0.5-1.8,0.9-2.7,1.2
		c-1.1,0.3-2.3,0.6-3.4,0.9c-0.6,0.2-1.3,0.3-1.9,0.4c-0.1,0-0.2,0.1-0.4,0.3c1,0,1.9-0.2,2.8-0.4c3.3-0.7,6.3-2.2,9.2-3.9
		C-85.4-1127.2-85.3-1127.3-85.2-1127.4L-85.2-1127.4z"/>
	<path id="Path_1_" class="st4" d="M-80.7-1128.3c-0.9,0.6-1.8,1.1-2.7,1.7c-1.1,0.7-2.2,1.3-3.5,1.8c-1.4,0.6-2.9,1-4.4,1.5
		c-0.2,0.1-0.4,0.1-0.6,0.2c-0.1,0-0.1,0.2-0.2,0.3c0.2,0,0.3,0,0.5,0c1.1-0.3,2.2-0.7,3.3-1.1c1.4-0.4,2.7-1,4-1.7
		c1.2-0.7,2.3-1.4,3.5-2.2c0.2-0.1,0.4-0.3,0.5-0.5c0-0.1-0.1-0.1-0.2-0.1C-80.6-1128.3-80.6-1128.3-80.7-1128.3L-80.7-1128.3z"/>
	<path id="Path_2_" class="st4" d="M-94.7-1124.7c1.1-0.5,2.2-1.1,3.3-1.8c0.5-0.3,0.9-0.7,1.2-1.2c-0.1,0.1-0.3,0.1-0.4,0.2
		c-0.4,0.3-0.8,0.6-1.2,0.8c-0.4,0.2-0.7,0.4-1.1,0.6c-1.3,0.8-2.8,1.4-4.3,1.8c-1.1,0.3-2.3,0.5-3.5,0.5c-0.1,0-0.2,0-0.3,0.1
		c-0.1,0-0.1,0.1-0.1,0.2c0,0.1,0.1,0.1,0.2,0.2c0,0,0.1,0,0.1,0c1.2-0.1,2.4-0.3,3.6-0.6C-96.3-1124.1-95.5-1124.4-94.7-1124.7z"/>
	<path id="Path_3_" class="st4" d="M-69.6-1179.5c0,0.1,0,1.6,0,2.3c0,0.7-0.1,1.4-0.1,2.2c0,1.6-0.2,3.1-0.6,4.6
		c-0.3,1-0.6,2-0.8,3.1c-0.1,0.3-0.1,0.6,0,0.9c0.1-0.3,0.2-0.4,0.2-0.5c0.3-1,0.6-2,0.8-3c0.4-1.4,0.6-2.8,0.7-4.2
		c0-1,0.1-1.9,0.1-2.9c0-0.7-0.1-1.5-0.1-2.2C-69.3-1179.4-69.3-1179.6-69.6-1179.5z"/>
	<path id="Path_4_" class="st4" d="M-67.5-1175.9c0,2.3-0.2,4.6-0.7,6.8c-0.2,1.2-0.5,2.4-1,3.5c0,0.1-0.2,0.3,0,0.4
		c0,0,0.1,0,0.1,0c0.1-0.1,0.1-0.2,0.2-0.2c0.5-1.4,0.9-2.9,1.2-4.4c0.2-1.3,0.4-2.7,0.4-4c0.1-1.1,0.1-2.2-0.1-3.2
		c0-0.3-0.1-0.6-0.4-0.8c0,0.1,0,0.3,0,0.4C-67.7-1177-67.6-1176.5-67.5-1175.9z"/>
	<path id="Path_5_" class="st4" d="M-65.8-1173.8c0,1.3-0.1,2.6-0.4,3.8c-0.2,1-0.5,2.1-0.7,3.1c-0.2,0.7-0.4,1.3-0.6,1.9
		c0,0.1-0.1,0.3,0.2,0.4c0.3-0.5,0.5-1.1,0.6-1.7c0.5-1.8,0.9-3.6,1.2-5.4c0.2-1.3,0.1-2.6-0.1-3.9c0-0.1-0.1-0.2-0.1-0.2
		c-0.1,0.1-0.2,0.3-0.2,0.5C-65.8-1174.8-65.8-1174.3-65.8-1173.8z"/>
	<path id="Path_6_" class="st4" d="M-71.8-1169.6c0.2-0.5,0.3-1,0.4-1.5c0.1-0.5,0.2-1.1,0.3-1.7c0.2-1.1,0.3-2.1,0.3-3.2
		c0.1-1.1,0-2.3-0.2-3.4c0-0.4-0.2-0.7-0.5-1c0,0.2,0,0.4,0,0.5c0.1,0.4,0.2,0.7,0.2,1.1c0.1,1.5,0.1,3,0,4.5
		c-0.1,1.5-0.4,3-0.7,4.4c0,0.2-0.1,0.3-0.1,0.5C-71.8-1169.5-71.8-1169.5-71.8-1169.6z"/>
	<path id="Path_7_" class="st4" d="M-95.9-1125.9c0.2-0.1,0.4-0.2,0.7-0.3c0.3-0.1,0.5-0.3,0.6-0.5c-0.1,0-0.2-0.1-0.2,0
		c-0.4,0.2-0.9,0.4-1.3,0.6c-1.9,0.8-4,1.4-6.1,1.6c-0.3,0-0.6,0.1-0.9,0.2c-0.1,0-0.1,0.1-0.3,0.2c0.9,0,1.9-0.1,2.8-0.2
		C-99.1-1124.8-97.5-1125.3-95.9-1125.9L-95.9-1125.9z"/>
	<path id="Path_8_" class="st4" d="M-73.2-1171c0.2-0.7,0.4-1.5,0.6-2.2c0.1-1,0.2-1.9,0.2-2.9c0.1-0.8,0.1-1.7,0.1-2.5
		c0-0.4-0.1-0.8-0.1-1.1c0-0.1-0.1-0.1-0.2-0.3c0,0.2,0,0.4,0,0.6c0.1,0.4,0.1,0.7,0.1,1.1c-0.1,1.1-0.2,2.1-0.2,3.2
		c0,1.1-0.2,2.2-0.4,3.3c-0.1,0.3-0.2,0.6-0.3,0.8c0,0.1,0,0.2,0.1,0.4C-73.3-1170.9-73.2-1171-73.2-1171z"/>
	<path id="Path_9_" class="st4" d="M-99.9-1127.6c-0.1,0-0.3,0-0.4,0c-0.8,0.2-1.7,0.5-2.5,0.8c-0.8,0.3-1.7,0.5-2.5,0.6
		c-0.5,0-0.9,0.1-1.4,0.1c-0.2,0-0.2,0.2-0.1,0.3c2.4-0.1,4.7-0.8,6.9-1.7L-99.9-1127.6z"/>
	<path id="Path_10_" class="st4" d="M-101.7-1125.3c0.8-0.2,1.6-0.5,2.4-0.7c0.5-0.1,0.9-0.4,1.2-0.9c-0.1,0-0.3,0.1-0.4,0.1
		c-0.2,0.1-0.5,0.2-0.7,0.3c-1.2,0.4-2.4,0.7-3.6,1c-0.5,0.1-1,0.1-1.5,0.2c-0.2,0-0.3,0.1-0.2,0.3
		C-103.6-1124.9-102.6-1125.1-101.7-1125.3L-101.7-1125.3z"/>
	<path id="Path_11_" class="st4" d="M-64.3-1172.7c0.1,1.8-0.2,3.7-0.7,5.4c-0.1,0.3-0.2,0.6-0.2,0.9c0,0.1,0.1,0.2,0.3,0.2
		c0.1-0.2,0.1-0.4,0.2-0.7c0.3-0.8,0.5-1.6,0.6-2.5c0.1-0.4,0.1-0.8,0.2-1.1c0.1-0.8,0.1-1.6,0-2.4c0-0.1-0.1-0.2-0.3-0.2
		C-64.2-1172.9-64.3-1172.8-64.3-1172.7z"/>
	<path id="Path_12_" class="st4" d="M-73.9-1178.1c0-0.5-0.1-1-0.2-1.4c0-0.1-0.1-0.1-0.1-0.2c0,0.3,0,0.7,0,1c0,1,0,2-0.1,3
		c-0.1,0.7-0.2,1.4-0.3,2.1c0,0.2-0.2,0.4,0.1,0.7c0.2-0.7,0.4-1.3,0.5-2C-74-1175.9-73.9-1177-73.9-1178.1z"/>
	<path id="Path_13_" class="st4" d="M-104.2-1127.4c0.4-0.1,0.8-0.3,1.2-0.4c0.1-0.1,0.3-0.1,0.2-0.3c-0.1,0-0.2,0-0.3,0.1
		c-0.5,0.1-0.9,0.3-1.4,0.4c-1,0.3-2.1,0.6-3.2,0.5c-0.2,0-0.4,0-0.6,0c-0.1,0-0.2,0.1-0.3,0.2c0.5,0.2,1,0.2,1.5,0.2
		C-106.2-1126.8-105.2-1127.1-104.2-1127.4z"/>
	<path id="Path_14_" class="st4" d="M-62.9-1171.1c0,0.6,0,1.1,0,1.7c-0.1,0.9-0.3,1.8-0.5,2.6c0,0.2-0.1,0.4-0.2,0.6
		c0.2-0.1,0.3-0.1,0.3-0.1c0.1-0.2,0.1-0.4,0.2-0.5c0.1-0.8,0.3-1.5,0.4-2.3c0.1-0.8,0.1-1.7-0.1-2.5h-0.2
		C-62.9-1171.5-62.9-1171.3-62.9-1171.1z"/>
	<path id="Path_15_" class="st4" d="M-105.2-1128.8c-0.2-0.2-0.4,0-0.5,0c-0.6,0.2-1.2,0.3-1.8,0.4c-0.9,0-1.7,0.3-2.6,0.1
		c0,0-0.1,0.1-0.2,0.2C-109-1127.7-106-1128.1-105.2-1128.8z"/>
	<path id="Path_16_" class="st4" d="M-75.5-1178c0-0.5-0.1-1-0.4-1.4c0,0-0.1,0-0.2-0.1c0,0.2,0,0.4,0.1,0.6
		c0.1,0.4,0.2,0.9,0.1,1.3c0,0.2,0,0.4,0,0.6c0,0.6-0.1,1.2-0.1,1.9c0,0.1,0,0.2,0.1,0.3c0.2-0.2,0.3-0.6,0.3-0.9
		C-75.6-1176.4-75.6-1177.2-75.5-1178z"/>
	<path id="Path_17_" class="st4" d="M-107.1-1129.7l-1.5,0.4c-0.5,0.1-1,0-1.5,0.2C-109-1128.8-107.5-1129.1-107.1-1129.7z"/>
	<path id="Path_18_" class="st4" d="M-58.2-1190.8c-0.9-1.7-2.1-3.3-3.5-4.8c-0.3-0.3-0.6-0.5-1-0.6c0.1,0.2,0.1,0.3,0.2,0.3
		c0.6,0.5,1.1,1,1.6,1.6c1.2,1.3,2.1,2.7,2.8,4.3c0.1,0.1,0.2,0.3,0.3,0.4l0.2-0.1C-57.9-1190-58-1190.4-58.2-1190.8z"/>
	<path id="Path_19_" class="st4" d="M-58.5-1195.3c-0.2-0.3-0.4-0.5-0.7-0.7c0,0-0.1-0.1-0.1-0.1s-0.1,0-0.1,0.1
		c0.1,0.1,0.2,0.3,0.3,0.4c0.3,0.4,0.6,0.7,0.8,1.1c0.4,0.6,0.8,1.2,1.2,1.7c0.4,0.5,0.7,1,0.9,1.5c0.2,0.4,0.4,0.8,0.6,1.2
		c0.1,0.2,0.2,0.4,0.5,0.5c0-0.1,0-0.2,0-0.3c-0.4-0.8-0.8-1.7-1.3-2.5C-57.1-1193.4-57.8-1194.4-58.5-1195.3z"/>
	<path id="Path_20_" class="st4" d="M-65.1-1195.6c-0.1-0.1-0.2-0.1-0.3-0.1l-0.1,0.1c0,0,0,0.1,0.1,0.1l0.4,0.4
		c1.1,1,2,2.1,2.8,3.3c0.5,0.7,0.9,1.4,1.3,2.2c0.1,0.1,0.2,0.3,0.4,0.4c0-0.1,0-0.3,0-0.4c-0.2-0.4-0.4-0.8-0.6-1.2
		C-62.3-1192.7-63.4-1194.3-65.1-1195.6z"/>
	<path id="Path_21_" class="st4" d="M-63.3-1195.4c-0.1-0.1-0.3-0.2-0.5-0.3c0.1,0.2,0.2,0.4,0.3,0.6c0.4,0.4,0.8,0.9,1.2,1.3
		s0.7,1,1.1,1.5c0.3,0.5,0.6,1,0.9,1.6c0.1,0.3,0.2,0.5,0.4,0.8c0,0.1,0.2,0.1,0.4,0.2c-0.3-0.6-0.5-1.1-0.7-1.5
		c-0.5-1-1.1-1.9-1.8-2.7C-62.4-1194.4-62.8-1195-63.3-1195.4L-63.3-1195.4z"/>
	<path id="Path_22_" class="st4" d="M-52-1189.3c0-0.1,0-0.2-0.1-0.3c-0.7-1.6-1.5-3.1-2.4-4.5c-0.2-0.5-0.6-0.9-1-1.2
		c0,0.1,0,0.1,0,0.2c1.3,1.9,2.2,4,3.3,6C-52.1-1189.2-52-1189.3-52-1189.3z"/>
	<path id="Path_23_" class="st4" d="M-56.6-1195.2c-0.1-0.1-0.2-0.2-0.3-0.2c0,0.1,0,0.3,0.1,0.4c0.4,0.7,0.9,1.4,1.3,2.1
		c0.6,1,1.1,2.1,1.6,3.2c0.1,0.1,0.1,0.3,0.3,0.3c0.2-0.1,0.1-0.2,0-0.4c-0.4-0.9-0.8-1.7-1.3-2.6
		C-55.3-1193.4-55.9-1194.4-56.6-1195.2L-56.6-1195.2z"/>
	<path id="Path_24_" class="st4" d="M-61.9-1199.2c-0.6,0.2-1.1,0.7-1.5,1.2c0.1,0,0.3-0.1,0.4-0.1c0.2-0.1,0.3-0.3,0.5-0.4
		c1.1-0.7,2.3-1.2,3.6-1.6c0.2-0.1,0.4-0.1,0.6-0.2c0.1-0.1,0.2-0.1,0.2-0.2C-59.5-1200.5-60.7-1199.9-61.9-1199.2z"/>
	<path id="Path_25_" class="st4" d="M-51.7-1193.8c0,0.1,0,0.2,0,0.3c0.1,0.2,0.2,0.3,0.3,0.5c0.6,1,1.1,2,1.4,3.1
		c0.2,0.6,0.4,1.2,0.6,1.8c0.1,0.2,0.2,0.2,0.4,0.1c-0.5-1.9-1.2-3.7-2.3-5.3C-51.3-1193.5-51.4-1193.8-51.7-1193.8z"/>
	<path id="Path_26_" class="st4" d="M-64.1-1191.1c0.1,0.1,0.2,0.3,0.4,0.4l0.2-0.1c0-0.1-0.1-0.2-0.2-0.4c-0.6-0.8-1.1-1.6-1.7-2.3
		c-0.6-0.6-1.3-1.1-2-1.6c-0.1,0-0.1,0-0.2-0.1c0,0.2,0.1,0.4,0.3,0.5c0.6,0.3,1.1,0.8,1.6,1.3
		C-65.2-1192.7-64.6-1191.9-64.1-1191.1z"/>
	<path id="Path_27_" class="st4" d="M-52.6-1199.4c0.1,0,0.2,0,0.3-0.1c0,0,0-0.1,0-0.2c-0.2-0.1-0.5-0.1-0.7-0.1
		c-1,0-2,0.2-2.9,0.5c-0.7,0.2-1.4,0.5-2.1,0.9c-0.1,0.1-0.1,0.2-0.2,0.4c0.2,0,0.3-0.1,0.5-0.1
		C-56.1-1198.9-54.4-1199.3-52.6-1199.4L-52.6-1199.4z"/>
	<path id="Path_28_" class="st4" d="M-67.4-1193.8c-0.2-0.1-0.3-0.3-0.4-0.4c-0.1-0.1-0.2-0.2-0.4-0.2c-0.1-0.1-0.2-0.1-0.3,0.1
		c0.4,0.4,0.9,0.7,1.3,1.1c0.4,0.4,0.8,0.9,1.2,1.3c0.4,0.5,0.7,0.9,1,1.4c0.3-0.1,0.2-0.3,0.1-0.4
		C-65.6-1192-66.3-1193.1-67.4-1193.8z"/>
	<path id="Path_29_" class="st4" d="M-56-1197.6c0,0-0.1,0.1-0.1,0.2c0.1,0,0.1,0.1,0.1,0.1c0.2,0,0.3-0.1,0.4-0.1
		c1.4-0.5,2.8-0.7,4.3-0.6c0.1,0,0.3,0,0.4-0.1c0,0,0.1-0.1,0.2-0.2c-0.3,0-0.6,0-0.8,0C-53-1198.5-54.6-1198.2-56-1197.6
		L-56-1197.6z"/>
	<path id="Path_30_" class="st4" d="M-46.7-1188.3c-0.3-1.1-0.8-2.2-1.3-3.3c-0.1-0.2-0.3-0.4-0.5-0.5c0,0.3,0.2,0.5,0.3,0.8
		c0.5,1.3,1.1,2.5,1.3,3.8c0,0.1,0.1,0.1,0.2,0.2C-46.6-1187.6-46.6-1188-46.7-1188.3z"/>
	<path id="Path_31_" class="st4" d="M-48-1188.6c-0.4-1.2-0.9-2.4-1.4-3.5c-0.1-0.2-0.2-0.4-0.4-0.5c0,0-0.1,0-0.2,0
		c0,0.2,0.1,0.5,0.2,0.7c0.2,0.5,0.4,0.9,0.6,1.4c0.3,0.7,0.5,1.4,0.8,2.1c0,0.1,0.1,0.1,0.3,0.3C-48-1188.4-47.9-1188.5-48-1188.6z
		"/>
	<path id="Path_32_" class="st4" d="M-44-1186.2c-0.2-1.2-0.6-2.3-1.1-3.3c0-0.1-0.1-0.2-0.2-0.2c-0.1,0-0.2,0.1-0.2,0.1
		c0,0.1,0,0.1,0,0.2c0.6,1.3,1.1,2.6,1.2,4c0,0.1,0.1,0.2,0.2,0.3C-43.9-1185.4-43.9-1185.8-44-1186.2z"/>
	<path id="Path_33_" class="st4" d="M-47.4-1195.6c-0.2-0.2-0.2-0.2-0.3-0.2c-1.2-0.2-2.4-0.2-3.6-0.2c-0.1,0-0.2,0.1-0.3,0.1
		c0.1,0.1,0.1,0.2,0.1,0.2c1.2,0.1,2.3,0.1,3.5,0.2C-47.8-1195.6-47.6-1195.6-47.4-1195.6L-47.4-1195.6z"/>
	<path id="Path_34_" class="st4" d="M-49.5-1194.7c1.2,0,2.4,0.1,3.6,0.2c0.1,0,0.3,0,0.4,0c0,0,0,0,0.1,0c0,0,0,0,0-0.1
		C-46.4-1195-48.5-1195.2-49.5-1194.7z"/>
	<path id="Path_35_" class="st4" d="M-47.7-1194c-0.1,0-0.3,0-0.4,0.1c-0.1,0.1-0.2,0.1-0.3,0.2c0.5,0,0.8,0.1,1.1,0.1
		c0.3,0,0.7,0.1,1,0.2c0.3,0.1,0.7,0.2,1,0.2c0.3,0.1,0.6,0.4,1,0.2c-0.1-0.1-0.1-0.2-0.2-0.2C-45.5-1193.8-46.6-1194-47.7-1194
		L-47.7-1194z"/>
	<path id="Path_36_" class="st4" d="M-43.5-1187.9c-0.2,0-0.2,0.2-0.2,0.3c0.1,0.3,0.2,0.7,0.3,1c0.1,0.6,0.3,1.3,0.4,1.9
		c0,0.2,0,0.3,0.3,0.3C-42.8-1185.6-43.1-1186.8-43.5-1187.9L-43.5-1187.9z"/>
	<path id="Path_37_" class="st4" d="M-44-1190.7c0.1,0.2,0.1,0.3,0.2,0.3c0.5,0.2,1,0.4,1.5,0.6c0,0,0.2-0.1,0.2-0.1
		c0.1-0.1,0-0.2-0.1-0.2C-42.7-1190.4-43.3-1190.6-44-1190.7L-44-1190.7z"/>
	<path id="Path_38_" class="st4" d="M-42.7-1189.1c0.4,0.3,0.8,0.5,1.2,0.6c0,0,0.1,0,0.1-0.1c0,0,0-0.2,0-0.2
		c-0.4-0.2-0.8-0.4-1.2-0.5C-42.7-1189.2-42.7-1189.2-42.7-1189.1z"/>
	<path id="Path_39_" class="st4" d="M-40.8-1184c-0.2,0.2-0.2,0.2-0.2,0.3c0,0.2-0.1,0.5,0.3,0.8
		C-40.8-1183.3-40.7-1183.7-40.8-1184z"/>
	<path id="Path_40_" class="st4" d="M-40.1-1185.1c0.1,0,0.2,0.1,0.3-0.1l-0.6-0.6C-40.4-1185.6-40.3-1185.3-40.1-1185.1
		L-40.1-1185.1z"/>
	<path id="Shape_2_" class="st5" d="M-47.9-1198.4c-0.5-0.3-1-0.6-1.6-0.8c-0.6-0.3-1.3-0.6-1.9-0.8c-1-0.3-2-0.6-3.1-0.7
		c-1.1-0.2-2.3-0.3-3.5-0.1c-0.9,0.1-1.8,0.3-2.7,0.4c-0.5,0.1-0.9,0.2-1.3,0.4c-1,0.4-2.1,0.9-3.1,1.4c-1.5,0.8-2.9,1.8-4.3,2.9
		c-0.4,0.4-0.9,0.7-1.3,1.1c-0.6,0.5-1.3,0.8-2,0.8c-0.8,0.1-1.6-0.1-2.2-0.8c-0.2-0.2-0.5-0.4-0.8-0.5c-0.4-0.2-0.8,0-1,0.3
		c-0.1,0.1-0.2,0.3-0.3,0.5c-0.1,0.4-0.2,0.9-0.1,1.4c0,0.3,0,0.7,0,1c0,0.3-0.1,0.6-0.4,0.7c-0.9,0.3-1.6,1-1.9,1.9
		c0,0-0.1,0.1-0.1,0.2c-1.7,0-3.4,0.1-5.1,0.3c-0.9,0.1-1.7,0.3-2.6,0.5c-0.6,0.2-1.1,0.3-1.7,0.5c-0.8,0.3-1.6,0.5-2.4,0.8
		c-1.5,0.6-2.9,1.4-4.2,2.3c-1.3,1-2.7,1.9-3.9,2.9c-1,1.1-2,2.2-2.9,3.4c-1,1.2-1.9,2.5-2.7,3.9c-1,1.8-1.9,3.6-2.7,5.5
		c-0.3,0.7-1,2.4-1.1,2.5c-0.4,0.9-0.8,1.9-1.1,2.8c-0.2,0.7-0.4,1.4-0.6,2.2c-0.3,1.1-0.6,2.3-0.8,3.4c-0.1,0.8-0.3,1.6-0.4,2.4
		c-0.2,1.3-0.5,2.7-0.7,4c-0.1,0.5-0.1,1.1-0.2,1.6c-0.3,1.9-0.8,3.8-1.3,5.6c-0.3,1.2-0.7,2.5-1.2,3.7c-0.1,0.2-0.2,0.5-0.2,0.7
		c-0.4,1.5-0.5,3.1-0.4,4.7c0.1,1,0.3,2.1,0.6,3c0.2,0.4,0.3,0.8,0.5,1.3c0.3,1,0.8,2,1.5,2.8c0.1,0.2,0.2,0.3,0.3,0.5
		c0.4,0.6,0.8,1.2,1.3,1.7c1.6,1.7,3.4,3.1,5.6,4.1c1.3,0.6,2.6,1,3.9,1.4c1.4,0.4,2.8,0.6,4.2,0.8c1.7,0.2,3.5,0.3,5.2,0.3
		c0.3,0,0.6,0,0.9-0.1c1.1-0.1,2.2-0.3,3.3-0.5c0.1,0,0.3-0.1,0.4-0.1c0.9-0.3,1.8-0.5,2.6-0.8c0.9-0.3,1.8-0.6,2.7-1
		c0.7-0.3,1.3-0.7,2-1c2.1-0.9,4.1-2.1,5.9-3.5c1-0.7,1.9-1.4,2.8-2.1c0.6-0.5,1.3-1,1.9-1.5c1.2-1.1,2.2-2.3,3.4-3.4
		c0.7-0.7,1.3-1.4,1.9-2.1c0.7-0.7,1.3-1.5,1.8-2.4c0.8-1.3,1.7-2.6,2.5-3.9c0.8-1.3,1.5-2.6,2.1-4c0.7-1.6,1.2-3.2,1.7-4.8
		c0.4-1.5,0.8-2.9,1-4.4c0.1-0.5,0.2-1,0.2-1.5c0-0.5,0.1-1,0.1-1.4c0.1-1.1,0.2-2.3,0.2-3.4c0-0.2,0-0.5,0-0.7
		c0.1-1.1,0-2.3-0.2-3.4c-0.3-1.7-0.7-3.5-1.2-5.1c-0.1-0.3-0.2-0.6-0.3-1c-0.3-0.8-0.7-1.5-1.1-2.3c-0.5-1.2-1.2-2.3-1.9-3.3
		c-0.4-0.5-0.8-1.1-1.1-1.6c-0.3-0.5-0.7-1-1.1-1.4c-0.4-0.5-0.8-0.9-1.3-1.4c-0.2-0.2-0.4-0.4-0.6-0.6c-1.1-1.1-2.3-2-3.6-2.9
		c-0.1-0.1-0.3-0.2-0.4-0.3c-0.6-0.3-1.1-0.7-1.7-1c-0.6-0.3-1.2-0.7-1.8-1c-0.2-0.1-0.4-0.3-0.5-0.6c-0.3-0.7-0.7-1.3-1.1-1.8
		c-0.1-0.2-0.2-0.4-0.2-0.6c0-0.4-0.1-0.7-0.2-1.1c-0.1-0.4-0.2-0.9-0.3-1.3c0.5-0.1,1-0.2,1.4-0.3c0.3-0.1,0.7-0.1,1,0
		c0.6,0.1,1.2,0.5,1.6,1.1c0.6,0.8,1.2,1.7,1.7,2.6c0.7,1.2,1.6,2.2,2.8,3c1.6,1.1,3.4,1.9,5.3,2.1c0.8,0.1,1.6,0.3,2.4,0.6
		c0.4,0.2,0.7,0.4,1.1,0.6c1.2,0.7,2.5,1.1,3.9,1.1c0.2,0,0.5,0,0.7,0c1.2,0.1,3.4-0.4,4.8-0.3c1.1,0.1,2.1,0.3,3.1,0.7
		c0.9,0.3,1.8,0.7,2.6,1.2c0.9,0.5,1.7,1.1,2.5,1.8c0.3,0.3,0.6,0.6,0.9,0.8c0.1,0.1,0.2,0.1,0.4,0.1c0.1,0,0.1-0.2,0.1-0.3
		c0-0.6,0-1.2,0-1.7c-0.1-1.7-0.4-3.4-1-5c-0.3-1.2-0.8-2.3-1.4-3.3c0-0.1-0.1-0.2-0.1-0.3c-0.4-1.1-1-2.1-1.6-3
		c-0.9-1.4-2-2.8-3.3-4c-0.2-0.2-0.5-0.5-0.7-0.7C-46-1197-46.9-1197.7-47.9-1198.4L-47.9-1198.4z M-69.2-1186.1
		c1.2,0.7,2.3,1.4,3.3,2.3c0.8,0.6,1.4,1.3,2.1,1.9c0.2,0.2,0.5,0.5,0.7,0.8c0.8,0.8,1.5,1.7,2.2,2.6c0.9,1.4,2.9,5.7,3.2,6.3
		c0.6,1.4,1,2.9,1.3,4.4c0.1,0.9,0.3,1.8,0.4,2.7c0.3,2.3,0.2,4.7-0.2,7c-0.3,1.6-0.5,3.2-0.8,4.7c-0.3,1.5-0.7,3.1-1.3,4.5
		c-0.3,0.7-0.6,1.4-0.9,2.1c-0.2,0.6-0.5,1.1-0.8,1.7c-0.3,0.6-1.8,3.2-2.2,3.8c-1,1.9-2.2,3.6-3.6,5.2c-0.2,0.2-0.4,0.4-0.6,0.7
		c0,0-2.3,2.7-2.9,3c-0.2,0.1-0.4,0.3-0.6,0.5c-0.4,0.3-0.7,0.7-1.1,1c-1.1,0.9-2.2,1.9-3.4,2.7c-2.3,1.6-4.7,3-7.2,4.2
		c-0.7,0.3-1.4,0.6-2.1,0.9c-1.3,0.5-2.5,0.9-3.9,1.2l-3.5,0.7c-0.4,0.1-0.7,0.1-1.1,0.2c-0.5,0.1-1,0.1-1.5,0.1
		c-1.9,0.1-3.8-0.1-5.6-0.4c-1.8-0.3-3.5-0.8-5.2-1.4c-1.6-0.7-3.1-1.5-4.5-2.5c-1.1-0.7-2-1.6-2.7-2.6c-0.6-0.8-1.1-1.6-1.7-2.4
		c-0.3-0.4-0.5-0.8-0.7-1.3c-0.6-1.3-1-2.7-1.2-4.1c-0.1-1.3-0.1-2.6,0.2-3.9c0.2-0.9,0.5-1.8,0.8-2.7c0.4-1.1,0.7-2.3,1-3.5
		c0.1-0.7,0.4-1.4,0.6-2.2c0.2-1,0.4-1.9,0.6-2.9c0.2-1.1,0.3-2.1,0.4-3.2c0.2-1.4,0.5-2.8,0.7-4.1c0.4-1.7,0.8-3.4,1.2-5.1
		c0.1-0.5,0.3-0.9,0.5-1.4c0.1-0.4,0.3-0.7,0.4-1.1c0.1-0.4,0.4-0.8,0.6-1.3c0-0.1,0.9-2.2,1.3-3.1c0.6-1.3,1.1-2.8,2-4
		c0.2-0.3,0.3-0.6,0.5-0.9c0.3-0.6,0.7-1.3,1.2-1.8c0.7-1,1.5-2,2.2-3c1.1-1.4,2.4-2.7,3.9-3.7c0.9-0.6,1.8-1.3,2.7-1.9
		c1.1-0.7,2.2-1.2,3.3-1.7c1.8-0.7,3.7-1.3,5.7-1.6c1.5-0.3,3-0.4,4.5-0.5c1.3,0,2.5,0,3.8,0.2c0.5,0,1,0,1.4,0.1
		c0.3,0.1,0.7,0.1,1,0.2c0.6,0.1,1.2,0.3,1.8,0.4C-71.7-1187.6-70.4-1186.7-69.2-1186.1z M-73.3-1189.7c0.2,0.3,0.4,0.7,0.7,1
		c0,0.1,0,0.2,0,0.3c-0.1,0-0.2,0-0.3,0c-0.6-0.1-1.3-0.3-1.9-0.4c-0.7-0.2-1.4-0.3-2.1-0.3c-0.6,0-1.2-0.1-1.8-0.2
		c0-0.4,0.2-0.7,0.4-0.9c0.4-0.4,0.8-0.7,1.3-0.9c0.4-0.2,0.9-0.2,1.3-0.1c0.2,0.1,0.3,0.1,0.5,0.1
		C-74.5-1190.8-73.8-1190.3-73.3-1189.7L-73.3-1189.7z M-74.9-1194.1c0.6,0.8,1,1.6,1.2,2.6c0,0.2,0,0.5-0.1,0.7
		c-0.9-0.5-1.8-0.8-2.8-0.9c-0.2-0.8-0.2-1.7,0-2.5c0.1-0.2,0.2-0.4,0.3-0.5c0.1-0.1,0.3-0.2,0.5-0.1
		C-75.5-1194.6-75.1-1194.4-74.9-1194.1L-74.9-1194.1z M-45.6-1196c0.5,0.5,1,0.9,1.4,1.4c1.1,1.2,2.2,2.5,3,3.9
		c0.6,0.9,1,1.9,1.5,2.9c0.4,0.8,0.7,1.6,1,2.5c0.3,1,0.5,2.1,0.8,3.1c0.2,0.9,0.3,1.8,0.3,2.7c0,0.3,0,0.5-0.1,0.8
		c-0.3,0-0.4-0.2-0.5-0.4c-1.5-1.5-3.3-2.6-5.3-3.4c-1.5-0.5-3-0.8-4.6-0.8c-0.4,0-0.8,0.1-1.2,0.2c-0.7,0.2-1.5,0.2-2.2,0.1
		c-0.9-0.1-1.8-0.2-2.6-0.4c-0.9-0.2-1.8-0.6-2.7-1.1c-0.6-0.4-1.3-0.7-2-0.8c-0.6-0.1-1.2-0.2-1.8-0.4s-1.3-0.3-2-0.5
		c-0.7-0.3-1.5-0.7-2.1-1.1c-0.6-0.4-1.1-1-1.6-1.6c-0.5-0.6-0.9-1.2-1.3-1.8c-0.7-1.2-1.7-2.2-2.9-2.8c-0.1,0-0.2-0.1-0.4-0.2
		c0.1-0.1,0.2-0.1,0.4-0.2c0.9-0.3,1.8-0.6,2.7-0.9c0.3-0.1,0.6-0.1,0.8,0.1c1,0.5,1.8,1.1,2.6,1.8c1.2,1.1,2.1,2.3,2.8,3.8
		c0.2,0.5,0.5,1,0.7,1.5c0,0.1,0.1,0.1,0.1,0.2c0.1,0,0.2,0.1,0.2,0.1s0.1-0.2,0.1-0.2c-0.2-0.4-0.3-0.7-0.5-1c-0.5-1-1.1-2-1.7-2.9
		c-0.8-1-1.8-2-2.9-2.8c-0.3-0.2-0.6-0.4-0.9-0.5c-0.1-0.1-0.2-0.1-0.4-0.2c0.1-0.1,0.2-0.2,0.3-0.2c0.7-0.3,1.4-0.4,2.1-0.5
		c0.7-0.1,1.3-0.2,2-0.3c0.5-0.1,1,0.1,1.4,0.4c1.3,0.9,2.4,2,3.2,3.3c1,1.4,1.7,2.8,2.3,4.4c0.1,0.4,0.3,0.8,0.5,1.1
		c0,0.1,0.2,0.1,0.3,0.3c0-0.2,0-0.3-0.1-0.5c-0.4-0.8-0.7-1.7-1.1-2.5c-0.4-1-0.9-1.9-1.5-2.7c-0.5-0.6-0.9-1.3-1.4-1.9
		c-0.6-0.6-1.2-1.2-1.9-1.7c-0.1-0.1-0.1-0.1-0.2-0.2c0.2-0.1,0.3-0.1,0.5-0.1c1.1,0,2.2,0.2,3.3,0.4c0.5,0.1,0.9,0.2,1.4,0.3
		c1.3,0.2,2.2,1,3,2c0.6,0.9,1.1,1.8,1.5,2.7c0.7,1.4,1.2,2.9,1.5,4.4c0,0,0.1,0.1,0.1,0.1c0.2,0,0.3-0.1,0.2-0.3
		c-0.1-0.5-0.2-1-0.4-1.5c-0.4-1.1-0.8-2.3-1.3-3.4c-0.5-1.1-1.1-2.1-1.9-3.1c0-0.1-0.1-0.1-0.1-0.2c0.2,0,0.5,0,0.7,0.2
		c0.4,0.2,0.7,0.4,1.1,0.5c0.5,0.3,1.1,0.5,1.6,0.8c0.8,0.4,1.6,0.9,2.3,1.4c0.1,0.1,0.2,0.2,0.3,0.4c0.9,1.4,1.6,3,2,4.6
		c0.1,0.6,0.4,1.2,0.5,1.7c0,0,0.1,0,0.1,0.1c0.2-0.2,0.1-0.4,0-0.6c-0.3-0.9-0.6-1.8-0.8-2.6c-0.2-0.8-0.6-1.6-1-2.3
		c-0.1-0.1-0.1-0.2-0.1-0.3c0.3,0,0.4,0.1,0.6,0.3c0.8,0.8,1.6,1.5,2.4,2.3c0.4,0.3,0.7,0.7,1,1c0.4,0.5,0.7,1.1,0.8,1.7
		c0.1,0.8,0.2,1.5,0.4,2.3c0,0.1,0,0.2,0.1,0.3c0,0,0.1,0.1,0.2,0.1c0.1,0,0.1,0,0.1-0.1c0-0.1,0-0.1,0-0.2
		c-0.1-0.6-0.1-1.1-0.2-1.7c0-0.2,0-0.3,0-0.5c0.2,0.1,0.3,0.2,0.3,0.4c0.7,1,1.3,2.2,1.7,3.4c0.1,0.2,0.1,0.2,0.4,0.3
		c0.1-0.3,0-0.5-0.1-0.7c-0.3-0.7-0.6-1.3-0.8-2c0-0.1-0.7-1.2-1.1-1.9c0.2,0.1,0.3,0.1,0.5,0.2c0.2,0.2,0.4,0.3,0.6,0.5
		c0.1,0,0.2,0,0.3,0c0.1-0.1,0.1-0.2,0-0.3c0,0-0.1-0.1-0.1-0.1c-0.4-0.3-0.9-0.6-1.3-0.9c-0.5-0.3-0.9-0.6-1.2-1
		c-0.2-0.2-0.4-0.5-0.7-0.7l-3.2-3c0-0.1-0.1-0.1-0.1-0.2c0.1,0,0.2,0,0.4,0c0.8,0.2,1.6,0.4,2.3,0.8c0.4,0.2,0.8,0.4,1.3,0.5
		c0.1,0,0.2,0,0.4-0.1c-0.2-0.1-0.3-0.2-0.3-0.2c-0.5-0.2-1.1-0.5-1.6-0.7c-0.9-0.4-1.9-0.7-2.8-0.8c-0.3,0-0.6-0.1-0.8-0.3
		c-0.4-0.3-0.9-0.6-1.3-0.9c-0.8-0.4-1.7-0.8-2.6-1.2c-0.5-0.2-1-0.5-1.5-0.7c-0.3-0.1-0.6-0.2-1-0.4c0.1-0.1,0.3-0.2,0.4-0.2
		c0.8-0.2,1.6-0.3,2.4-0.3c1-0.1,1.9,0,2.9,0.2c0.2,0,0.4,0,0.3-0.3c-0.7-0.2-1.5-0.3-2.3-0.3c-0.7,0-1.4,0-2,0.1
		c-0.6,0-1.2,0.2-1.7,0.5c-0.4,0.2-0.9,0.2-1.3,0.1c-1-0.3-2.1-0.5-3.2-0.8c-0.5-0.1-1.1-0.1-1.7-0.1c-0.2,0-0.5,0-0.6-0.2
		c0.5-0.4,1-0.7,1.6-0.9c1.5-0.7,3-1.1,4.6-1.2c0.2,0,0.4,0,0.6-0.1c0.1,0,0.1-0.1,0.2-0.2c-0.1-0.1-0.1-0.1-0.2-0.1
		c-1.2,0-2.4,0.2-3.5,0.6c-0.3,0.1-0.6,0.2-1,0.3c-0.9,0.3-1.7,0.7-2.5,1.3c-0.4,0.3-0.8,0.4-1.3,0.5c-1.3,0.1-2.7,0.3-4,0.4
		c0,0,0,0-0.1,0c1.4-1,2.9-1.9,4.5-2.6c0.2-0.1,0.4-0.1,0.4-0.4c-0.2,0-0.4,0.1-0.6,0.1c-0.4,0.1-0.9,0.3-1.3,0.5
		c-1.3,0.7-2.6,1.5-3.7,2.5c-0.4,0.3-0.8,0.6-1.3,0.8c-0.2,0.1-0.4,0.1-0.6,0.2c-0.3,0.1-0.5,0.2-0.8,0.2c-0.2,0.1-0.5,0.2-0.7,0.2
		c0.1-0.1,0.2-0.3,0.4-0.4c0.6-0.5,1.3-1,1.9-1.5c0.8-0.6,1.7-1.2,2.6-1.7c0.9-0.5,1.8-0.8,2.8-1.1c0.7-0.2,1.4-0.5,2.1-0.7
		c0.5-0.1,0.9-0.2,1.4-0.2c0.8-0.2,1.6-0.3,2.4-0.3c1.7,0,3.4,0.3,5,0.9C-49.2-1198.9-47.2-1197.6-45.6-1196L-45.6-1196z"/>
	<path id="Path_41_" class="st5" d="M-84.2-1126.4c-0.1-0.1-0.2-0.1-0.4,0c-1.2,0.6-2.3,1.2-3.5,1.8c-0.9,0.5-1.8,0.9-2.7,1.2
		c-1.1,0.3-2.3,0.6-3.4,0.9c-0.6,0.2-1.3,0.3-1.9,0.4c-0.1,0-0.2,0.1-0.4,0.3c1,0,1.9-0.2,2.8-0.4c3.3-0.7,6.3-2.1,9.2-3.9
		C-84.5-1126.2-84.3-1126.3-84.2-1126.4z"/>
	<path id="Path_42_" class="st5" d="M-79.7-1127.2c-0.9,0.6-1.8,1.1-2.7,1.7c-1.1,0.7-2.2,1.3-3.5,1.8c-1.4,0.5-2.9,1-4.4,1.5
		c-0.2,0.1-0.4,0.1-0.6,0.2c-0.1,0-0.1,0.2-0.2,0.3c0.2,0,0.3,0,0.5,0c1.1-0.3,2.2-0.7,3.3-1.1c1.4-0.4,2.7-1,4-1.7
		c1.2-0.7,2.3-1.4,3.5-2.2c0.2-0.1,0.4-0.3,0.5-0.5c0-0.1-0.1-0.1-0.2-0.1C-79.6-1127.3-79.7-1127.3-79.7-1127.2z"/>
	<path id="Path_43_" class="st5" d="M-93.8-1123.6c1.1-0.5,2.2-1.1,3.3-1.8c0.5-0.3,0.9-0.7,1.2-1.2c-0.1,0.1-0.3,0.1-0.4,0.2
		c-0.4,0.3-0.8,0.5-1.2,0.8c-0.4,0.2-0.7,0.4-1.1,0.6c-1.3,0.8-2.8,1.4-4.3,1.8c-1.1,0.3-2.3,0.5-3.5,0.5c-0.1,0-0.2,0-0.3,0.1
		c-0.1,0-0.1,0.1-0.1,0.2c0,0.1,0.1,0.1,0.2,0.2c0,0,0.1,0,0.1,0c1.2-0.1,2.4-0.3,3.6-0.6C-95.4-1123.1-94.6-1123.3-93.8-1123.6
		L-93.8-1123.6z"/>
	<path id="Path_44_" class="st5" d="M-68.6-1178.5c0,0.1,0,1.6,0,2.3c0,0.7-0.1,1.4-0.1,2.2c0,1.6-0.2,3.1-0.6,4.6
		c-0.3,1-0.6,2.1-0.8,3.1c-0.1,0.3-0.1,0.6,0,0.9c0.1-0.3,0.2-0.4,0.2-0.5c0.3-1,0.6-2,0.8-3c0.4-1.4,0.6-2.8,0.7-4.2
		c0-1,0.1-1.9,0.1-2.9c0-0.7-0.1-1.5-0.1-2.2C-68.3-1178.4-68.3-1178.5-68.6-1178.5z"/>
	<path id="Path_45_" class="st5" d="M-66.6-1174.9c0,2.3-0.2,4.6-0.7,6.8c-0.2,1.2-0.5,2.4-1,3.5c0,0.1-0.2,0.3,0,0.4
		c0,0,0.1,0,0.1,0c0.1-0.1,0.1-0.2,0.2-0.2c0.5-1.4,0.9-2.9,1.2-4.4c0.2-1.3,0.4-2.7,0.5-4c0.1-1.1,0.1-2.2-0.1-3.2
		c0-0.3-0.1-0.6-0.4-0.8c0,0.1,0,0.3,0,0.4C-66.7-1176-66.6-1175.4-66.6-1174.9z"/>
	<path id="Path_46_" class="st5" d="M-64.8-1172.7c0,1.3-0.1,2.6-0.4,3.8c-0.2,1-0.5,2.1-0.7,3.1c-0.2,0.7-0.4,1.3-0.6,1.9
		c0,0.1-0.1,0.3,0.2,0.4c0.3-0.5,0.5-1.1,0.6-1.7c0.5-1.8,0.9-3.6,1.2-5.4c0.2-1.3,0.1-2.6-0.1-3.9c0-0.1-0.1-0.2-0.1-0.2
		c-0.1,0.1-0.2,0.3-0.1,0.5C-64.9-1173.7-64.8-1173.2-64.8-1172.7z"/>
	<path id="Path_47_" class="st5" d="M-70.8-1168.6c0.2-0.5,0.3-1,0.4-1.5s0.2-1.1,0.3-1.7c0.2-1.1,0.3-2.1,0.3-3.2
		c0.1-1.1,0-2.3-0.2-3.4c0-0.4-0.2-0.7-0.5-1c0,0.2,0,0.4,0,0.5c0.1,0.4,0.2,0.7,0.2,1.1c0.1,1.5,0.1,3,0,4.5
		c-0.1,1.5-0.4,3-0.7,4.4c0,0.2-0.1,0.3-0.1,0.5C-70.9-1168.4-70.8-1168.5-70.8-1168.6z"/>
	<path id="Path_48_" class="st5" d="M-95-1124.9c0.2-0.1,0.4-0.2,0.7-0.3c0.3-0.1,0.5-0.3,0.6-0.5c-0.1,0-0.2-0.1-0.2,0
		c-0.4,0.2-0.9,0.4-1.3,0.6c-1.9,0.8-4,1.4-6.1,1.6c-0.3,0-0.6,0.1-0.9,0.2c-0.1,0-0.1,0.1-0.3,0.2c0.9,0,1.9-0.1,2.8-0.2
		C-98.1-1123.7-96.5-1124.2-95-1124.9L-95-1124.9z"/>
	<path id="Path_49_" class="st5" d="M-72.2-1170c0.2-0.7,0.4-1.5,0.6-2.2c0.1-1,0.2-1.9,0.2-2.9c0.1-0.8,0.1-1.7,0.1-2.5
		c0-0.4-0.1-0.8-0.1-1.1c0-0.1-0.1-0.1-0.2-0.3c0,0.2,0,0.4,0,0.6c0.1,0.4,0.1,0.7,0.1,1.1c-0.1,1.1-0.2,2.1-0.2,3.2
		c0,1.1-0.2,2.2-0.4,3.3c-0.1,0.3-0.2,0.6-0.3,0.8c0,0.1,0,0.2,0.1,0.4C-72.3-1169.9-72.2-1169.9-72.2-1170z"/>
	<path id="Path_50_" class="st5" d="M-98.9-1126.5c-0.1,0-0.3,0-0.4,0c-0.8,0.2-1.7,0.5-2.5,0.8c-0.8,0.3-1.7,0.5-2.5,0.6
		c-0.5,0-0.9,0.1-1.4,0.1c-0.2,0-0.2,0.2-0.1,0.3c2.4-0.1,4.7-0.8,6.9-1.7L-98.9-1126.5z"/>
	<path id="Path_51_" class="st5" d="M-100.8-1124.3c0.8-0.2,1.6-0.5,2.4-0.7c0.5-0.1,0.9-0.4,1.2-0.9c-0.1,0-0.3,0.1-0.4,0.1
		c-0.2,0.1-0.5,0.2-0.7,0.3c-1.2,0.4-2.4,0.7-3.6,1c-0.5,0.1-1,0.1-1.5,0.2c-0.2,0-0.3,0.1-0.2,0.3
		C-102.6-1123.9-101.7-1124-100.8-1124.3L-100.8-1124.3z"/>
	<path id="Path_52_" class="st5" d="M-63.3-1171.7c0.1,1.8-0.2,3.7-0.8,5.4c-0.1,0.3-0.2,0.6-0.2,0.9c0,0.1,0.1,0.2,0.3,0.2
		c0.1-0.2,0.1-0.4,0.2-0.7c0.3-0.8,0.5-1.6,0.6-2.5c0.1-0.4,0.1-0.8,0.2-1.1c0.1-0.8,0.1-1.6,0-2.4c0-0.1-0.1-0.2-0.3-0.2
		C-63.3-1171.9-63.3-1171.8-63.3-1171.7z"/>
	<path id="Path_53_" class="st5" d="M-73-1177.1c0-0.5-0.1-1-0.2-1.4c0-0.1-0.1-0.1-0.1-0.2c0,0.3,0,0.7,0,1c0,1,0,2-0.1,3
		c-0.1,0.7-0.2,1.4-0.3,2.1c0,0.2-0.2,0.4,0.1,0.7c0.2-0.7,0.4-1.3,0.5-2C-73-1174.9-73-1176-73-1177.1z"/>
	<path id="Path_54_" class="st5" d="M-103.2-1126.4c0.4-0.1,0.8-0.3,1.2-0.4c0.1,0,0.3-0.1,0.2-0.3c-0.1,0-0.2,0-0.3,0.1
		c-0.5,0.1-0.9,0.3-1.4,0.4c-1,0.3-2.1,0.6-3.2,0.5c-0.2,0-0.4,0-0.6,0c-0.1,0-0.2,0.1-0.3,0.2c0.5,0.2,1,0.2,1.5,0.2
		C-105.2-1125.8-104.2-1126-103.2-1126.4L-103.2-1126.4z"/>
	<path id="Path_55_" class="st5" d="M-61.9-1170.1c0,0.6,0,1.1,0,1.7c-0.1,0.9-0.3,1.8-0.5,2.6c0,0.2-0.1,0.3-0.2,0.6
		c0.2-0.1,0.3-0.1,0.3-0.2c0.1-0.2,0.1-0.4,0.2-0.5c0.1-0.8,0.3-1.5,0.4-2.3c0.1-0.8,0.1-1.7-0.1-2.5h-0.2
		C-61.9-1170.4-61.9-1170.2-61.9-1170.1z"/>
	<path id="Path_56_" class="st5" d="M-104.2-1127.8c-0.2-0.2-0.4,0-0.5,0c-0.6,0.2-1.2,0.3-1.8,0.4c-0.9,0-1.7,0.2-2.6,0.1
		c-0.1,0-0.1,0.1-0.2,0.2C-108-1126.6-105-1127.1-104.2-1127.8z"/>
	<path id="Path_57_" class="st5" d="M-74.5-1176.9c0-0.5-0.1-1-0.4-1.4c0,0-0.1,0-0.2-0.1c0,0.2,0,0.4,0.1,0.6
		c0.1,0.4,0.2,0.9,0.1,1.3c0,0.2,0,0.4,0,0.6c0,0.6-0.1,1.2-0.1,1.9c0,0.1,0,0.2,0.1,0.3c0.2-0.2,0.3-0.6,0.3-0.9
		C-74.6-1175.4-74.6-1176.2-74.5-1176.9z"/>
	<path id="Path_58_" class="st5" d="M-106.1-1128.6l-1.5,0.4c-0.5,0.1-1,0-1.5,0.2C-108-1127.7-106.5-1128-106.1-1128.6z"/>
	<path id="Path_59_" class="st5" d="M-57.2-1189.7c-0.9-1.7-2.1-3.3-3.5-4.8c-0.3-0.3-0.6-0.5-1-0.6c0.1,0.2,0.1,0.3,0.2,0.3
		c0.6,0.5,1.1,1,1.6,1.6c1.2,1.3,2.1,2.7,2.8,4.3c0.1,0.1,0.2,0.3,0.3,0.4l0.2-0.1C-56.9-1189-57-1189.4-57.2-1189.7z"/>
	<path id="Path_60_" class="st5" d="M-57.5-1194.3c-0.2-0.3-0.4-0.5-0.7-0.7c0,0-0.1-0.1-0.1-0.1c-0.1,0-0.1,0-0.1,0.1
		c0.1,0.1,0.2,0.3,0.3,0.4c0.3,0.4,0.6,0.7,0.8,1.1c0.4,0.6,0.8,1.2,1.2,1.7c0.4,0.5,0.7,1,0.9,1.5l0.6,1.2c0.1,0.2,0.2,0.4,0.5,0.5
		c0-0.1,0-0.2,0-0.3c-0.4-0.8-0.8-1.7-1.3-2.5C-56.1-1192.4-56.8-1193.3-57.5-1194.3z"/>
	<path id="Path_61_" class="st5" d="M-64.1-1194.5c-0.1-0.1-0.2-0.1-0.3-0.2l-0.1,0.1c0,0,0,0.1,0.1,0.1l0.4,0.4
		c1.1,1,2,2.1,2.8,3.3c0.5,0.7,0.9,1.4,1.3,2.2c0.1,0.1,0.2,0.3,0.4,0.4c0-0.1,0-0.3,0-0.4c-0.2-0.4-0.4-0.8-0.6-1.2
		C-61.3-1191.6-62.5-1193.3-64.1-1194.5z"/>
	<path id="Path_62_" class="st5" d="M-62.3-1194.4c-0.1-0.1-0.3-0.2-0.5-0.3c0.1,0.2,0.2,0.4,0.3,0.6c0.4,0.4,0.8,0.9,1.2,1.3
		s0.7,1,1.1,1.5c0.3,0.5,0.6,1,0.9,1.6c0.1,0.3,0.2,0.5,0.4,0.8c0,0.1,0.2,0.1,0.4,0.2c-0.3-0.6-0.5-1-0.7-1.5
		c-0.5-1-1.1-1.9-1.8-2.7C-61.4-1193.4-61.8-1193.9-62.3-1194.4L-62.3-1194.4z"/>
	<path id="Path_63_" class="st5" d="M-51.1-1188.3c0-0.1,0-0.2-0.1-0.3c-0.7-1.6-1.5-3.1-2.4-4.5c-0.2-0.5-0.6-0.8-1-1.2
		c0,0.1,0,0.1,0,0.2c1.3,1.9,2.2,4,3.3,6C-51.2-1188.2-51.1-1188.2-51.1-1188.3z"/>
	<path id="Path_64_" class="st5" d="M-55.7-1194.2c-0.1-0.1-0.2-0.2-0.3-0.2c0,0.1,0,0.3,0.1,0.4c0.4,0.7,0.9,1.4,1.3,2.1
		c0.6,1,1.1,2.1,1.6,3.2c0.1,0.1,0.1,0.3,0.3,0.3c0.2-0.1,0.1-0.2,0-0.4c-0.4-0.9-0.8-1.7-1.3-2.6
		C-54.4-1192.4-55-1193.3-55.7-1194.2L-55.7-1194.2z"/>
	<path id="Path_65_" class="st5" d="M-60.9-1198.2c-0.6,0.2-1.1,0.7-1.5,1.2c0.1,0,0.3-0.1,0.4-0.1c0.2-0.1,0.3-0.3,0.5-0.4
		c1.1-0.7,2.3-1.2,3.6-1.6c0.2,0,0.4-0.1,0.6-0.2c0.1-0.1,0.2-0.1,0.2-0.2C-58.6-1199.5-59.8-1198.8-60.9-1198.2z"/>
	<path id="Path_66_" class="st5" d="M-50.7-1192.7c0,0.1,0,0.2,0,0.3c0.1,0.2,0.2,0.3,0.3,0.5c0.6,1,1.1,2,1.5,3.1
		c0.2,0.6,0.4,1.2,0.6,1.8c0.1,0.2,0.2,0.2,0.4,0.1c-0.5-1.9-1.2-3.7-2.3-5.3C-50.4-1192.5-50.4-1192.7-50.7-1192.7z"/>
	<path id="Path_67_" class="st5" d="M-63.2-1190.1c0.1,0.1,0.2,0.3,0.4,0.4l0.2-0.1c0-0.1-0.1-0.2-0.2-0.4c-0.6-0.8-1-1.6-1.7-2.3
		c-0.6-0.6-1.3-1.1-2-1.6c-0.1,0-0.1,0-0.2-0.1c0,0.2,0.1,0.4,0.3,0.5c0.6,0.3,1.1,0.8,1.6,1.3
		C-64.2-1191.6-63.7-1190.9-63.2-1190.1z"/>
	<path id="Path_68_" class="st5" d="M-51.6-1198.3c0.1,0,0.2,0,0.3-0.1c0,0,0-0.1,0-0.2c-0.2-0.1-0.5-0.1-0.7-0.1
		c-1,0-2,0.2-2.9,0.5c-0.7,0.2-1.4,0.5-2.1,0.9c-0.1,0.1-0.1,0.2-0.2,0.4c0.2,0,0.3-0.1,0.5-0.1
		C-55.2-1197.8-53.4-1198.3-51.6-1198.3z"/>
	<path id="Path_69_" class="st5" d="M-66.4-1192.8c-0.2-0.1-0.3-0.3-0.4-0.4c-0.1-0.1-0.2-0.2-0.4-0.2c-0.1-0.1-0.2-0.1-0.3,0.1
		c0.4,0.4,0.9,0.7,1.3,1.1c0.4,0.4,0.8,0.9,1.2,1.3c0.4,0.5,0.7,0.9,1,1.4c0.3-0.1,0.2-0.3,0.1-0.4
		C-64.6-1190.9-65.3-1192-66.4-1192.8z"/>
	<path id="Path_70_" class="st5" d="M-55-1196.6c0,0-0.1,0.1-0.1,0.2c0.1,0,0.1,0.1,0.1,0.1c0.1,0,0.3,0,0.4-0.1
		c1.4-0.5,2.8-0.7,4.3-0.6c0.1,0,0.3,0,0.4-0.1c0,0,0.1-0.1,0.2-0.2c-0.3,0-0.6,0-0.8,0C-52-1197.5-53.6-1197.2-55-1196.6z"/>
	<path id="Path_71_" class="st5" d="M-45.8-1187.2c-0.3-1.1-0.8-2.2-1.2-3.3c-0.1-0.2-0.3-0.4-0.5-0.5c0,0.3,0.2,0.5,0.3,0.8
		c0.5,1.3,1.1,2.5,1.3,3.8c0,0.1,0.1,0.1,0.2,0.2C-45.6-1186.5-45.6-1186.9-45.8-1187.2L-45.8-1187.2z"/>
	<path id="Path_72_" class="st5" d="M-47-1187.5c-0.4-1.2-0.9-2.4-1.4-3.5c-0.1-0.2-0.2-0.4-0.4-0.5c0,0-0.1,0-0.2,0
		c0,0.2,0.1,0.5,0.2,0.7c0.2,0.5,0.4,0.9,0.6,1.4c0.3,0.7,0.5,1.4,0.8,2.1c0,0.1,0.1,0.1,0.3,0.3C-47-1187.4-47-1187.5-47-1187.5z"
		/>
	<path id="Path_73_" class="st5" d="M-43-1185.2c-0.2-1.2-0.6-2.3-1.1-3.3c0-0.1-0.1-0.2-0.2-0.2c-0.1,0-0.2,0.1-0.2,0.1
		c0,0.1,0,0.1,0,0.2c0.6,1.3,1.1,2.6,1.2,4c0,0.1,0.1,0.2,0.2,0.3C-42.9-1184.4-42.9-1184.8-43-1185.2z"/>
	<path id="Path_74_" class="st5" d="M-46.4-1194.6c-0.2-0.2-0.2-0.2-0.3-0.2c-1.2-0.2-2.4-0.2-3.6-0.2c-0.1,0-0.2,0.1-0.3,0.1
		c0.1,0.1,0.1,0.2,0.1,0.2c1.2,0.1,2.3,0.1,3.5,0.2C-46.8-1194.5-46.6-1194.5-46.4-1194.6L-46.4-1194.6z"/>
	<path id="Path_75_" class="st5" d="M-48.5-1193.7c1.2,0,2.4,0.1,3.6,0.2c0.1,0,0.3,0,0.4,0c0,0,0,0,0.1,0c0,0,0,0,0-0.1
		C-45.4-1194-47.6-1194.1-48.5-1193.7z"/>
	<path id="Path_76_" class="st5" d="M-46.7-1193c-0.1,0-0.3,0-0.4,0.1c-0.1,0.1-0.2,0.1-0.3,0.2c0.5,0,0.8,0.1,1.1,0.1
		s0.7,0.1,1,0.2c0.3,0.1,0.7,0.2,1,0.2c0.3,0.1,0.6,0.4,1,0.2c-0.1-0.1-0.1-0.2-0.2-0.2C-44.6-1192.7-45.6-1193-46.7-1193
		L-46.7-1193z"/>
	<path id="Path_77_" class="st5" d="M-42.6-1186.9c-0.2,0-0.2,0.2-0.2,0.3c0.1,0.3,0.2,0.7,0.3,1c0.1,0.6,0.3,1.3,0.4,1.9
		c0,0.2,0,0.3,0.3,0.3C-41.8-1184.5-42.1-1185.7-42.6-1186.9L-42.6-1186.9z"/>
	<path id="Path_78_" class="st5" d="M-43-1189.7c0.1,0.2,0.1,0.3,0.2,0.3c0.5,0.2,1,0.4,1.5,0.6c0.1,0,0.2-0.1,0.2-0.1
		c0.1-0.1,0-0.2-0.1-0.2C-41.7-1189.4-42.4-1189.6-43-1189.7z"/>
	<path id="Path_79_" class="st5" d="M-41.8-1188.1c0.4,0.3,0.8,0.5,1.2,0.6c0,0,0.1,0,0.1-0.1c0,0,0-0.2,0-0.2
		c-0.4-0.2-0.8-0.4-1.2-0.5C-41.7-1188.2-41.7-1188.1-41.8-1188.1z"/>
	<path id="Path_80_" class="st5" d="M-39.9-1183c-0.2,0.2-0.2,0.2-0.2,0.3c0,0.2-0.1,0.5,0.3,0.8
		C-39.8-1182.3-39.7-1182.6-39.9-1183z"/>
	<path id="Path_81_" class="st5" d="M-39.1-1184.1c0.1,0,0.2,0.1,0.3-0.1l-0.6-0.6C-39.5-1184.5-39.3-1184.3-39.1-1184.1
		L-39.1-1184.1z"/>
	<path id="Shape_3_" class="st6" d="M-48.5-1198.6c-0.5-0.3-1-0.6-1.6-0.8c-0.6-0.3-1.3-0.6-1.9-0.8c-1-0.4-2-0.6-3.1-0.7
		c-1.1-0.2-2.3-0.2-3.5-0.1c-0.9,0.1-1.8,0.3-2.7,0.4c-0.5,0.1-0.9,0.2-1.3,0.3c-1,0.4-2.1,0.9-3.1,1.4c-1.5,0.8-2.9,1.7-4.2,2.8
		c-0.4,0.3-0.9,0.7-1.3,1.1c-0.6,0.5-1.3,0.8-2,0.8c-0.8,0.1-1.6-0.1-2.2-0.8c-0.2-0.2-0.5-0.4-0.8-0.5c-0.4-0.2-0.8,0-1,0.3
		c-0.1,0.2-0.2,0.3-0.3,0.5c-0.1,0.4-0.2,0.9-0.2,1.4c0,0.3,0,0.7,0,1c0,0.3-0.1,0.6-0.4,0.7c-0.9,0.3-1.6,1-1.9,1.9
		c0,0.1-0.1,0.1-0.1,0.2c-1.7,0.1-3.4,0.1-5.1,0.3c-0.9,0.1-1.7,0.3-2.6,0.5c-0.6,0.2-1.1,0.3-1.7,0.5c-0.8,0.2-1.6,0.5-2.4,0.8
		c-1.5,0.6-2.9,1.4-4.2,2.3c-1.3,1-2.7,1.9-3.9,2.9c-1,1.1-2,2.2-2.9,3.4c-1,1.2-1.9,2.5-2.7,3.9c-1,1.8-1.9,3.6-2.7,5.5l-1.1,2.5
		c-0.4,0.9-0.8,1.9-1.1,2.8c-0.2,0.7-0.4,1.4-0.6,2.2c-0.3,1.1-0.6,2.3-0.8,3.5c-0.1,0.8-0.3,1.6-0.4,2.4c-0.2,1.3-0.5,2.7-0.7,4
		c-0.1,0.5-0.1,1.1-0.2,1.6c-0.3,1.9-0.8,3.8-1.3,5.6c-0.3,1.2-0.7,2.5-1.2,3.7c-0.1,0.2-0.2,0.5-0.2,0.7c-0.4,1.5-0.5,3.1-0.4,4.7
		c0.1,1,0.3,2.1,0.7,3c0.2,0.4,0.3,0.9,0.5,1.3c0.3,1,0.8,2,1.5,2.8c0.1,0.1,0.2,0.3,0.3,0.5c0.4,0.6,0.8,1.2,1.3,1.7
		c1.6,1.7,3.5,3.1,5.6,4.1c1.2,0.6,2.5,1,3.9,1.4c1.4,0.4,2.8,0.6,4.2,0.8c1.7,0.2,3.5,0.3,5.2,0.3c0.3,0,0.6,0,0.9-0.1
		c1.1-0.1,2.2-0.3,3.3-0.5c0.1,0,0.3-0.1,0.4-0.1c0.9-0.3,1.8-0.5,2.6-0.8s1.8-0.7,2.7-1c0.7-0.3,1.3-0.7,2-1
		c2.1-0.9,4.1-2.1,5.9-3.5c1-0.7,1.9-1.4,2.8-2.1c0.7-0.5,1.3-1,1.9-1.5c1.2-1.1,2.2-2.3,3.4-3.4c0.6-0.7,1.3-1.4,1.9-2.1
		c0.7-0.7,1.3-1.5,1.8-2.4c0.8-1.3,1.7-2.6,2.5-3.9c0.8-1.3,1.5-2.6,2.1-4c0.7-1.6,1.2-3.2,1.7-4.9c0.4-1.5,0.8-2.9,1-4.4
		c0.1-0.5,0.2-1,0.2-1.5c0-0.5,0-1,0.1-1.4c0.1-1.1,0.2-2.3,0.2-3.4c0-0.2,0-0.5,0-0.7c0.1-1.1,0-2.3-0.2-3.4
		c-0.3-1.7-0.7-3.5-1.2-5.1c-0.1-0.3-0.2-0.6-0.3-1c-0.3-0.8-0.7-1.5-1.1-2.3c-0.5-1.2-1.2-2.3-1.9-3.3c-0.4-0.5-0.7-1.1-1.1-1.6
		c-0.3-0.5-0.7-1-1.1-1.4c-0.4-0.5-0.8-0.9-1.3-1.4c-0.2-0.2-0.4-0.4-0.6-0.6c-1.1-1.1-2.3-2-3.6-2.9c-0.1-0.1-0.3-0.2-0.4-0.3
		c-0.6-0.3-1.1-0.7-1.7-1c-0.6-0.3-1.2-0.7-1.8-1.1c-0.2-0.1-0.4-0.3-0.5-0.6c-0.3-0.7-0.7-1.3-1.1-1.8c-0.1-0.2-0.2-0.4-0.2-0.6
		c0-0.4-0.1-0.7-0.2-1.1c-0.1-0.4-0.2-0.9-0.3-1.3c0.5-0.1,1-0.1,1.4-0.3c0.3-0.1,0.7-0.1,1,0c0.6,0.1,1.2,0.5,1.6,1.1
		c0.6,0.8,1.2,1.7,1.7,2.6c0.7,1.2,1.6,2.2,2.8,3c1.6,1.1,3.4,1.8,5.3,2.1c0.8,0.1,1.6,0.3,2.4,0.6c0.4,0.2,0.7,0.4,1.1,0.6
		c1.2,0.7,2.5,1.1,3.9,1.1c0.2,0,0.5,0,0.7,0c1.2,0.1,3.4-0.4,4.7-0.3c1.1,0.1,2.1,0.3,3.1,0.7c0.9,0.3,1.7,0.7,2.6,1.2
		c0.9,0.5,1.7,1.1,2.5,1.8c0.3,0.3,0.6,0.6,0.9,0.8c0.1,0.1,0.2,0.1,0.4,0.1c0.1,0,0.2-0.2,0.2-0.3c0-0.6,0-1.2,0-1.7
		c-0.1-1.7-0.4-3.4-1-5c-0.3-1.1-0.7-2.2-1.3-3.2c0-0.1-0.1-0.2-0.1-0.3c-0.4-1.1-1-2.1-1.6-3c-0.9-1.5-2-2.8-3.3-4
		c-0.3-0.2-0.5-0.5-0.7-0.7C-46.7-1197.2-47.6-1198-48.5-1198.6z M-69.8-1186.3c1.2,0.7,2.2,1.4,3.3,2.3c0.8,0.6,1.4,1.3,2.1,1.9
		c0.2,0.2,0.5,0.5,0.7,0.8c0.8,0.8,1.5,1.7,2.2,2.6c0.9,1.4,2.9,5.7,3.2,6.3c0.6,1.4,1,2.9,1.3,4.4c0.1,0.9,0.3,1.8,0.4,2.7
		c0.3,2.3,0.2,4.7-0.2,7c-0.3,1.6-0.5,3.2-0.7,4.7c-0.3,1.5-0.7,3.1-1.3,4.5c-0.3,0.7-0.6,1.4-0.9,2.1c-0.2,0.6-0.5,1.1-0.8,1.7
		c-0.3,0.6-1.8,3.2-2.2,3.8c-1,1.9-2.2,3.6-3.6,5.2c-0.2,0.2-0.4,0.4-0.6,0.7c0,0-2.3,2.7-2.9,3c-0.2,0.2-0.4,0.3-0.6,0.5
		c-0.4,0.3-0.7,0.7-1.1,1c-1.1,0.9-2.2,1.9-3.4,2.7c-2.3,1.6-4.7,3-7.2,4.2c-0.7,0.3-1.4,0.6-2.1,0.9c-1.3,0.5-2.5,0.9-3.9,1.2
		l-3.5,0.7c-0.4,0.1-0.7,0.2-1.1,0.2c-0.5,0.1-1,0.1-1.5,0.1c-1.9,0.1-3.8-0.1-5.6-0.5c-1.8-0.3-3.5-0.8-5.2-1.4
		c-1.6-0.7-3.1-1.5-4.5-2.4c-1.1-0.7-2-1.6-2.7-2.7c-0.6-0.8-1.1-1.6-1.7-2.3c-0.3-0.4-0.5-0.8-0.7-1.3c-0.6-1.3-1-2.7-1.2-4.1
		c-0.1-1.3-0.1-2.6,0.2-3.9c0.2-0.9,0.5-1.8,0.8-2.7c0.4-1.1,0.7-2.3,1-3.5c0.1-0.7,0.4-1.4,0.6-2.2c0.2-1,0.4-1.9,0.6-2.9
		c0.2-1.1,0.3-2.2,0.4-3.2c0.2-1.4,0.5-2.8,0.7-4.1c0.4-1.7,0.8-3.4,1.2-5.1c0.1-0.5,0.3-0.9,0.5-1.4c0.1-0.4,0.3-0.7,0.4-1.1
		c0.1-0.4,0.4-0.8,0.5-1.3c0-0.1,0.9-2.2,1.3-3.1c0.6-1.3,1.1-2.8,2-4c0.2-0.3,0.3-0.6,0.5-0.9c0.3-0.6,0.7-1.3,1.2-1.8
		c0.7-1,1.5-2,2.2-3c1.1-1.4,2.4-2.7,3.9-3.7c0.9-0.6,1.8-1.3,2.7-1.9c1.1-0.7,2.2-1.2,3.3-1.7c1.8-0.7,3.7-1.3,5.7-1.6
		c1.5-0.3,3-0.4,4.5-0.5c1.3,0,2.5,0,3.8,0.2c0.5,0.1,1,0,1.4,0.1c0.3,0.1,0.7,0.1,1,0.2c0.6,0.1,1.2,0.3,1.8,0.4
		C-72.3-1187.8-71.1-1187-69.8-1186.3z M-74-1189.9c0.2,0.3,0.5,0.7,0.7,1c0,0.1,0,0.2,0,0.3c-0.1,0-0.2,0-0.3,0
		c-0.6-0.1-1.3-0.3-1.9-0.4c-0.7-0.2-1.4-0.3-2.1-0.3c-0.6,0-1.2-0.1-1.8-0.2c0-0.4,0.2-0.7,0.4-0.9c0.4-0.4,0.8-0.7,1.3-0.9
		c0.4-0.2,0.9-0.2,1.3-0.1c0.2,0.1,0.3,0.1,0.5,0.1C-75.2-1191-74.5-1190.6-74-1189.9L-74-1189.9z M-75.6-1194.3
		c0.6,0.8,1,1.6,1.2,2.6c0,0.2,0,0.5-0.1,0.7c-0.9-0.5-1.8-0.8-2.8-0.9c-0.2-0.8-0.2-1.7,0-2.5c0.1-0.2,0.2-0.4,0.3-0.5
		c0.1-0.1,0.3-0.2,0.5-0.1C-76.1-1194.9-75.8-1194.6-75.6-1194.3L-75.6-1194.3z M-46.3-1196.3c0.5,0.5,1,0.9,1.5,1.4
		c1.1,1.2,2.2,2.5,3,3.9c0.6,0.9,1,1.9,1.5,2.9c0.4,0.8,0.7,1.6,1,2.5c0.3,1,0.5,2.1,0.8,3.1c0.2,0.9,0.3,1.8,0.3,2.7
		c0,0.3,0,0.5-0.1,0.8c-0.3,0-0.4-0.2-0.5-0.4c-1.5-1.4-3.3-2.6-5.3-3.3c-1.5-0.5-3-0.8-4.6-0.8c-0.4,0-0.8,0.1-1.2,0.2
		c-0.7,0.2-1.5,0.2-2.2,0.1c-0.9-0.1-1.8-0.2-2.6-0.4c-0.9-0.2-1.8-0.6-2.6-1.1c-0.6-0.4-1.3-0.7-2-0.8c-0.6-0.1-1.2-0.2-1.8-0.4
		c-0.6-0.1-1.3-0.3-2-0.5c-0.7-0.3-1.5-0.7-2.1-1.1c-0.6-0.4-1.1-1-1.6-1.6c-0.5-0.6-0.9-1.2-1.2-1.8c-0.7-1.2-1.7-2.2-2.9-2.8
		c-0.1-0.1-0.2-0.1-0.4-0.2c0.1-0.1,0.2-0.1,0.3-0.2c0.9-0.3,1.8-0.6,2.7-0.9c0.3-0.1,0.6-0.1,0.8,0.1c0.9,0.5,1.8,1.1,2.6,1.8
		c1.2,1.1,2.1,2.3,2.8,3.8c0.2,0.5,0.5,1,0.7,1.5c0,0.1,0.1,0.1,0.1,0.2c0.1,0,0.2,0.1,0.2,0.1s0.1-0.2,0.1-0.2
		c-0.2-0.4-0.3-0.7-0.5-1.1c-0.5-1-1.1-2-1.8-2.9c-0.8-1-1.8-2-2.8-2.8c-0.3-0.2-0.6-0.4-0.9-0.5c-0.1-0.1-0.2-0.1-0.4-0.2
		c0.1-0.1,0.2-0.2,0.3-0.2c0.7-0.3,1.4-0.4,2.1-0.5c0.7-0.1,1.3-0.2,2-0.3c0.5-0.1,1,0.1,1.4,0.4c1.3,0.9,2.4,2,3.2,3.3
		c1,1.4,1.7,2.8,2.3,4.4c0.1,0.4,0.3,0.8,0.5,1.1c0,0.1,0.2,0.1,0.3,0.3c0-0.2,0-0.3-0.1-0.5c-0.3-0.8-0.7-1.7-1.1-2.5
		c-0.4-1-0.9-1.9-1.5-2.7c-0.5-0.6-0.9-1.3-1.4-1.9c-0.6-0.6-1.2-1.2-1.9-1.7c-0.1,0-0.1-0.1-0.2-0.2c0.2-0.1,0.3-0.1,0.5-0.1
		c1.1,0,2.2,0.2,3.3,0.4c0.5,0.1,0.9,0.2,1.4,0.3c1.3,0.2,2.2,1,3,2c0.6,0.9,1.1,1.8,1.5,2.7c0.7,1.4,1.2,2.9,1.5,4.4
		c0,0,0.1,0.1,0.1,0.1c0.2,0,0.3-0.1,0.2-0.2c-0.1-0.5-0.2-1-0.4-1.5c-0.4-1.1-0.8-2.3-1.3-3.4c-0.5-1.1-1.1-2.1-1.9-3.1
		c0-0.1-0.1-0.1-0.1-0.2c0.2,0,0.5,0,0.7,0.2c0.4,0.2,0.7,0.4,1.1,0.5c0.5,0.3,1.1,0.5,1.6,0.8c0.8,0.4,1.6,0.9,2.3,1.4
		c0.1,0.1,0.2,0.2,0.3,0.4c0.9,1.4,1.6,3,2,4.6c0.2,0.6,0.4,1.2,0.5,1.7c0,0,0.1,0.1,0.1,0.1c0.2-0.2,0.1-0.4,0-0.6
		c-0.3-0.9-0.5-1.8-0.8-2.6c-0.2-0.8-0.6-1.6-1-2.3c-0.1-0.1-0.1-0.2-0.1-0.3c0.3-0.1,0.4,0.1,0.6,0.3c0.8,0.8,1.6,1.5,2.4,2.3
		c0.3,0.3,0.7,0.7,1,1c0.4,0.5,0.7,1.1,0.8,1.7c0.1,0.8,0.2,1.5,0.4,2.3c0,0.1,0,0.2,0.1,0.3c0,0,0.1,0.1,0.2,0.1s0.1-0.1,0.1-0.1
		c0-0.1,0-0.1,0-0.2c-0.1-0.6-0.1-1.1-0.2-1.7c0-0.2,0-0.3,0-0.5c0.2,0.1,0.2,0.2,0.3,0.4c0.7,1,1.3,2.2,1.7,3.4
		c0.1,0.2,0.1,0.2,0.4,0.3c0.1-0.3,0-0.5-0.1-0.7c-0.3-0.7-0.6-1.3-0.8-2c0-0.1-0.7-1.2-1.1-1.9c0.2,0.1,0.3,0.1,0.5,0.2
		c0.2,0.2,0.4,0.3,0.6,0.5c0.1,0,0.2,0,0.3,0c0.1-0.1,0.1-0.2,0-0.3l-0.1-0.1c-0.4-0.3-0.9-0.6-1.3-0.9c-0.5-0.3-0.9-0.6-1.2-1
		c-0.2-0.2-0.4-0.5-0.7-0.7l-3.2-3c0-0.1-0.1-0.1-0.1-0.2c0.1,0,0.2,0,0.4,0c0.8,0.2,1.6,0.5,2.3,0.8c0.4,0.2,0.8,0.4,1.3,0.5
		c0.1,0,0.2,0,0.4-0.1c-0.1-0.1-0.2-0.1-0.3-0.2l-1.6-0.7c-0.9-0.4-1.9-0.7-2.8-0.8c-0.3,0-0.6-0.1-0.8-0.3
		c-0.4-0.3-0.9-0.6-1.3-0.9c-0.8-0.4-1.7-0.8-2.6-1.2c-0.5-0.2-1-0.5-1.5-0.7c-0.3-0.1-0.6-0.2-1-0.4c0.1-0.1,0.3-0.2,0.4-0.2
		c0.8-0.2,1.6-0.3,2.4-0.3c1-0.1,1.9,0,2.9,0.2c0.2,0,0.3,0,0.3-0.3c-0.7-0.2-1.5-0.3-2.3-0.3c-0.7,0-1.3,0-2,0.1
		c-0.6,0-1.2,0.2-1.7,0.5c-0.4,0.2-0.9,0.2-1.3,0.1c-1-0.3-2.1-0.6-3.2-0.8c-0.5-0.1-1.1-0.1-1.7-0.1c-0.2,0-0.5,0-0.6-0.2
		c0.5-0.4,1-0.7,1.6-0.9c1.5-0.7,3-1.1,4.6-1.2c0.2,0,0.4,0,0.6-0.1c0.1,0,0.1-0.1,0.2-0.2c-0.1-0.1-0.1-0.1-0.2-0.1
		c-1.2,0-2.4,0.2-3.6,0.6c-0.3,0.1-0.6,0.2-1,0.3c-0.9,0.3-1.7,0.7-2.5,1.3c-0.4,0.3-0.8,0.4-1.3,0.5c-1.3,0.1-2.7,0.3-4,0.4
		c0,0,0,0-0.1,0c1.4-1,2.9-1.9,4.5-2.6c0.2-0.1,0.4-0.1,0.4-0.4c-0.2,0-0.4,0.1-0.6,0.1c-0.4,0.1-0.9,0.3-1.3,0.5
		c-1.3,0.7-2.6,1.5-3.7,2.5c-0.4,0.3-0.8,0.6-1.3,0.8c-0.2,0.1-0.4,0.1-0.6,0.2c-0.2,0.1-0.5,0.2-0.8,0.2c-0.2,0.1-0.5,0.2-0.7,0.2
		c0.1-0.1,0.2-0.3,0.4-0.4c0.6-0.5,1.3-1,1.9-1.5c0.8-0.6,1.7-1.2,2.6-1.6c0.9-0.5,1.8-0.8,2.8-1.1c0.7-0.2,1.4-0.5,2.1-0.7
		c0.5-0.1,0.9-0.2,1.4-0.2c2.5-0.5,5-0.3,7.4,0.6C-49.9-1199.1-47.9-1197.9-46.3-1196.3z"/>
	<path id="Path_82_" class="st6" d="M-84.9-1126.6c-0.1-0.1-0.3-0.1-0.4,0c-1.2,0.6-2.3,1.2-3.5,1.8c-0.9,0.5-1.8,0.9-2.7,1.2
		c-1.1,0.3-2.3,0.6-3.4,0.9c-0.6,0.2-1.3,0.3-1.9,0.4c-0.1,0-0.2,0.1-0.4,0.3c1,0,1.9-0.2,2.8-0.4c3.3-0.7,6.3-2.2,9.2-3.9
		C-85.1-1126.4-85-1126.5-84.9-1126.6L-84.9-1126.6z"/>
	<path id="Path_83_" class="st6" d="M-80.4-1127.4c-0.9,0.6-1.8,1.1-2.6,1.7c-1.1,0.7-2.2,1.3-3.5,1.8c-1.4,0.5-2.9,1-4.4,1.5
		c-0.2,0.1-0.4,0.1-0.6,0.2c-0.1,0-0.1,0.2-0.2,0.3c0.2,0,0.3,0,0.5,0c1.1-0.4,2.2-0.7,3.3-1.1c1.4-0.4,2.7-1,4-1.7
		c1.2-0.7,2.3-1.4,3.5-2.2c0.2-0.1,0.4-0.3,0.5-0.5c0-0.1-0.1-0.1-0.2-0.1S-80.3-1127.5-80.4-1127.4L-80.4-1127.4z"/>
	<path id="Path_84_" class="st6" d="M-94.4-1123.9c1.1-0.5,2.2-1.1,3.3-1.8c0.5-0.3,0.9-0.7,1.2-1.2c-0.1,0.1-0.3,0.1-0.4,0.2
		c-0.4,0.3-0.8,0.5-1.2,0.8c-0.4,0.2-0.7,0.4-1.1,0.6c-1.4,0.8-2.8,1.4-4.3,1.8c-1.1,0.3-2.3,0.5-3.5,0.5c-0.1,0-0.2,0-0.3,0.1
		c-0.1,0-0.1,0.1-0.1,0.2c0,0.1,0.1,0.1,0.2,0.2c0,0,0.1,0,0.1,0c1.2-0.1,2.4-0.3,3.6-0.6C-96-1123.3-95.2-1123.6-94.4-1123.9
		L-94.4-1123.9z"/>
	<path id="Path_85_" class="st6" d="M-69.2-1178.7c0,0.1,0,1.6,0,2.3c0,0.7-0.1,1.4-0.1,2.2c0,1.6-0.3,3.1-0.6,4.6
		c-0.3,1-0.5,2-0.8,3.1c-0.1,0.3-0.1,0.6,0,0.9c0.1-0.3,0.2-0.4,0.2-0.5c0.3-1,0.6-2,0.8-3c0.4-1.4,0.6-2.8,0.7-4.2
		c0-1,0.1-1.9,0.1-2.9c0-0.7-0.1-1.5-0.1-2.2C-69-1178.6-69-1178.8-69.2-1178.7z"/>
	<path id="Path_86_" class="st6" d="M-67.2-1175.1c0,2.3-0.2,4.6-0.7,6.8c-0.2,1.2-0.6,2.4-1,3.5c0,0.1-0.2,0.3,0,0.4
		c0,0,0.1,0,0.1,0c0.1-0.1,0.1-0.2,0.2-0.2c0.5-1.4,0.9-2.9,1.2-4.4c0.2-1.3,0.4-2.7,0.4-4c0.1-1.1,0.1-2.2-0.1-3.2
		c0-0.3-0.1-0.6-0.4-0.8c0,0.1,0,0.3,0,0.4C-67.3-1176.2-67.2-1175.7-67.2-1175.1z"/>
	<path id="Path_87_" class="st6" d="M-65.5-1172.9c0,1.3-0.1,2.6-0.4,3.8c-0.2,1-0.5,2.1-0.7,3.1c-0.2,0.7-0.4,1.3-0.6,1.9
		c0,0.1-0.1,0.3,0.2,0.4c0.3-0.5,0.5-1.1,0.6-1.7c0.5-1.8,0.9-3.6,1.2-5.4c0.2-1.3,0.1-2.6-0.1-3.9c0-0.1,0-0.2-0.1-0.2
		c-0.1,0.1-0.2,0.3-0.2,0.5C-65.5-1174-65.5-1173.4-65.5-1172.9z"/>
	<path id="Path_88_" class="st6" d="M-71.4-1168.8c0.1-0.5,0.3-1,0.4-1.5c0.1-0.5,0.2-1.1,0.3-1.7c0.2-1.1,0.3-2.1,0.3-3.2
		c0.1-1.1,0-2.3-0.2-3.4c0-0.4-0.2-0.7-0.5-1c0,0.2,0,0.4,0,0.5c0.1,0.4,0.2,0.7,0.2,1.1c0.1,1.5,0.1,3,0,4.5
		c-0.1,1.5-0.4,3-0.7,4.4c0,0.2-0.1,0.3-0.1,0.5C-71.5-1168.7-71.5-1168.7-71.4-1168.8z"/>
	<path id="Path_89_" class="st6" d="M-95.6-1125.1c0.2-0.1,0.4-0.2,0.7-0.3c0.3-0.1,0.5-0.3,0.6-0.5c-0.1,0-0.2-0.1-0.2,0
		c-0.4,0.2-0.9,0.4-1.3,0.6c-1.9,0.8-4,1.4-6.1,1.6c-0.3,0-0.6,0.1-0.9,0.1c-0.1,0-0.1,0.1-0.3,0.2c0.9,0,1.9-0.1,2.8-0.2
		C-98.8-1123.9-97.2-1124.5-95.6-1125.1L-95.6-1125.1z"/>
	<path id="Path_90_" class="st6" d="M-72.8-1170.2c0.2-0.7,0.4-1.5,0.5-2.2c0.1-1,0.2-1.9,0.2-2.9c0.1-0.8,0.1-1.7,0.1-2.5
		c0-0.4,0-0.8-0.1-1.1c0-0.1-0.1-0.1-0.2-0.3c0,0.2,0,0.4,0,0.6c0.1,0.4,0.1,0.7,0.1,1.1c-0.1,1.1-0.2,2.1-0.2,3.2
		c0,1.1-0.2,2.2-0.4,3.3c-0.1,0.3-0.2,0.5-0.3,0.8c0,0.1,0,0.3,0.1,0.4C-73-1170.1-72.9-1170.2-72.8-1170.2z"/>
	<path id="Path_91_" class="st6" d="M-99.6-1126.8c-0.1,0-0.3,0-0.4,0c-0.8,0.2-1.7,0.5-2.5,0.8c-0.8,0.3-1.7,0.5-2.5,0.6
		c-0.5,0-0.9,0.1-1.4,0.1c-0.2,0-0.2,0.2-0.1,0.3c2.4-0.1,4.6-0.8,6.9-1.7V-1126.8z"/>
	<path id="Path_92_" class="st6" d="M-101.4-1124.5c0.8-0.2,1.6-0.5,2.4-0.7c0.5-0.1,0.9-0.4,1.2-0.8c-0.1,0-0.3,0.1-0.4,0.1
		c-0.2,0.1-0.5,0.2-0.7,0.3c-1.2,0.4-2.4,0.7-3.6,1c-0.5,0.1-1,0.1-1.5,0.2c-0.2,0-0.3,0.1-0.2,0.3
		C-103.3-1124.1-102.3-1124.2-101.4-1124.5L-101.4-1124.5z"/>
	<path id="Path_93_" class="st6" d="M-63.9-1171.9c0.1,1.8-0.2,3.7-0.8,5.4c-0.1,0.3-0.2,0.6-0.2,0.9c0,0.1,0.1,0.2,0.3,0.2
		c0.1-0.2,0.1-0.4,0.2-0.7c0.3-0.8,0.5-1.6,0.6-2.4c0.1-0.4,0.1-0.8,0.2-1.1c0.1-0.8,0.1-1.6,0-2.4c0-0.1-0.1-0.2-0.2-0.2
		C-63.9-1172.1-63.9-1172-63.9-1171.9z"/>
	<path id="Path_94_" class="st6" d="M-73.6-1177.3c0-0.5-0.1-1-0.2-1.4c0-0.1-0.1-0.1-0.1-0.2c0,0.3,0,0.7,0,1c0,1,0,2-0.1,3
		c-0.1,0.7-0.2,1.4-0.3,2.1c0,0.2-0.2,0.4,0.1,0.7c0.2-0.7,0.4-1.3,0.5-2C-73.7-1175.1-73.6-1176.2-73.6-1177.3z"/>
	<path id="Path_95_" class="st6" d="M-103.9-1126.6c0.4-0.1,0.8-0.3,1.2-0.4c0.1,0,0.3-0.1,0.2-0.3c-0.1,0-0.2,0-0.3,0.1
		c-0.5,0.1-0.9,0.3-1.4,0.4c-1,0.3-2.1,0.5-3.2,0.5c-0.2,0-0.4,0-0.7,0c-0.1,0-0.2,0.1-0.3,0.2c0.5,0.2,1,0.2,1.5,0.2
		C-105.9-1126-104.8-1126.3-103.9-1126.6z"/>
	<path id="Path_96_" class="st6" d="M-62.6-1170.3c0,0.6,0,1.1,0,1.7c-0.1,0.9-0.3,1.8-0.5,2.6c0,0.2-0.1,0.4-0.1,0.6
		c0.2-0.1,0.3-0.1,0.3-0.2c0.1-0.2,0.1-0.4,0.2-0.5c0.2-0.8,0.3-1.5,0.4-2.3c0.1-0.8,0.1-1.7-0.1-2.5h-0.2L-62.6-1170.3z"/>
	<path id="Path_97_" class="st6" d="M-104.9-1128c-0.2-0.2-0.4,0-0.5,0c-0.6,0.2-1.2,0.3-1.8,0.4c-0.9,0-1.7,0.3-2.6,0.1
		c-0.1,0-0.1,0.1-0.2,0.2C-108.7-1126.9-105.7-1127.3-104.9-1128z"/>
	<path id="Path_98_" class="st6" d="M-75.2-1177.2c0-0.5-0.1-1-0.4-1.4c0,0-0.1,0-0.2-0.1c0,0.2,0,0.4,0.1,0.6
		c0.1,0.4,0.2,0.9,0.1,1.3c0,0.2,0,0.4,0,0.6c0,0.6-0.1,1.2-0.1,1.9c0,0.1,0,0.2,0.1,0.3c0.2-0.2,0.3-0.6,0.3-0.9
		C-75.3-1175.6-75.2-1176.4-75.2-1177.2z"/>
	<path id="Path_99_" class="st6" d="M-106.8-1128.9l-1.5,0.4c-0.5,0.1-1,0-1.5,0.2C-108.7-1128-107.2-1128.3-106.8-1128.9z"/>
	<path id="Path_100_" class="st6" d="M-57.8-1190c-0.9-1.7-2.1-3.3-3.5-4.8c-0.3-0.3-0.6-0.5-1-0.6c0.1,0.2,0.1,0.3,0.2,0.3
		c0.6,0.5,1.1,1,1.6,1.6c1.2,1.3,2.1,2.7,2.8,4.3c0.1,0.1,0.2,0.3,0.3,0.4l0.2-0.1C-57.5-1189.3-57.7-1189.6-57.8-1190z"/>
	<path id="Path_101_" class="st6" d="M-58.2-1194.5c-0.2-0.3-0.4-0.5-0.7-0.7c0,0-0.1-0.1-0.1-0.1c-0.1,0-0.1,0-0.1,0.1
		c0.1,0.1,0.2,0.3,0.3,0.4c0.3,0.4,0.6,0.7,0.8,1.1c0.4,0.6,0.8,1.2,1.2,1.7c0.4,0.5,0.7,1,0.9,1.5l0.6,1.2c0.1,0.2,0.2,0.4,0.5,0.5
		c0-0.1,0-0.2,0-0.3c-0.4-0.8-0.8-1.7-1.3-2.5C-56.8-1192.6-57.5-1193.6-58.2-1194.5z"/>
	<path id="Path_102_" class="st6" d="M-64.8-1194.7c-0.1-0.1-0.2-0.1-0.3-0.2l-0.1,0.1c0,0,0,0.1,0.1,0.1c0.1,0.1,0.3,0.3,0.4,0.4
		c1.1,1,2,2.1,2.8,3.3c0.5,0.7,0.9,1.4,1.3,2.2c0.1,0.1,0.2,0.3,0.4,0.4c0-0.1,0-0.3,0-0.4c-0.2-0.4-0.4-0.8-0.6-1.2
		C-61.9-1191.8-63.1-1193.5-64.8-1194.7z"/>
	<path id="Path_103_" class="st6" d="M-63-1194.6c-0.1-0.1-0.3-0.2-0.5-0.3c0.1,0.2,0.2,0.4,0.3,0.6c0.4,0.4,0.8,0.9,1.2,1.3
		c0.4,0.5,0.7,1,1.1,1.5c0.3,0.5,0.6,1,0.9,1.6c0.1,0.3,0.2,0.5,0.4,0.8c0,0.1,0.2,0.1,0.4,0.2c-0.3-0.6-0.5-1-0.7-1.5
		c-0.5-1-1.1-1.9-1.8-2.7C-62.1-1193.6-62.5-1194.1-63-1194.6L-63-1194.6z"/>
	<path id="Path_104_" class="st6" d="M-51.7-1188.5c0-0.1,0-0.2-0.1-0.3c-0.7-1.6-1.5-3.1-2.4-4.6c-0.2-0.5-0.6-0.8-1-1.2
		c0,0.1-0.1,0.1,0,0.2c1.3,1.9,2.2,4,3.3,6C-51.8-1188.4-51.7-1188.5-51.7-1188.5z"/>
	<path id="Path_105_" class="st6" d="M-56.3-1194.4c-0.1-0.1-0.2-0.2-0.3-0.2c0,0.1,0,0.3,0.1,0.4c0.4,0.7,0.9,1.4,1.3,2.1
		c0.6,1,1.1,2.1,1.6,3.2c0.1,0.1,0.1,0.3,0.3,0.3c0.2-0.1,0.1-0.2,0-0.4c-0.4-0.9-0.8-1.7-1.3-2.6
		C-55-1192.6-55.6-1193.6-56.3-1194.4L-56.3-1194.4z"/>
	<path id="Path_106_" class="st6" d="M-61.6-1198.4c-0.6,0.2-1.1,0.7-1.5,1.2c0.1,0,0.3-0.1,0.4-0.1c0.2-0.1,0.3-0.3,0.5-0.4
		c1.1-0.7,2.3-1.2,3.6-1.6c0.2,0,0.4-0.1,0.6-0.2c0.1,0,0.2-0.1,0.2-0.2C-59.2-1199.7-60.4-1199.1-61.6-1198.4z"/>
	<path id="Path_107_" class="st6" d="M-51.4-1192.9c0,0.1,0,0.2,0,0.3c0.1,0.2,0.2,0.3,0.3,0.5c0.6,1,1.1,2,1.4,3.1
		c0.2,0.6,0.4,1.2,0.6,1.8c0.1,0.2,0.2,0.2,0.4,0.1c-0.5-1.9-1.2-3.7-2.3-5.3C-51-1192.7-51.1-1192.9-51.4-1192.9z"/>
	<path id="Path_108_" class="st6" d="M-63.8-1190.3c0.1,0.1,0.2,0.3,0.4,0.4l0.2-0.1c0-0.1-0.1-0.2-0.1-0.4
		c-0.6-0.8-1.1-1.6-1.7-2.3c-0.6-0.6-1.3-1.2-2-1.6c-0.1,0-0.1-0.1-0.2-0.1c0,0.2,0.1,0.4,0.3,0.5c0.6,0.3,1.1,0.8,1.6,1.3
		C-64.9-1191.9-64.3-1191.1-63.8-1190.3z"/>
	<path id="Path_109_" class="st6" d="M-52.3-1198.6c0.1,0,0.2,0,0.3-0.1c0,0,0-0.1,0-0.2c-0.2-0.1-0.5-0.1-0.7-0.1
		c-1,0-2,0.2-2.9,0.5c-0.7,0.2-1.4,0.5-2.1,0.9c-0.1,0-0.1,0.2-0.2,0.4c0.2,0,0.3-0.1,0.5-0.1C-55.8-1198-54.1-1198.5-52.3-1198.6
		L-52.3-1198.6z"/>
	<path id="Path_110_" class="st6" d="M-67.1-1193c-0.2-0.1-0.3-0.3-0.4-0.4c-0.1-0.1-0.2-0.2-0.4-0.2c-0.1,0-0.1-0.1-0.2,0
		c-0.1,0-0.1,0.1-0.1,0.1c0.4,0.4,0.9,0.7,1.3,1.1c0.4,0.4,0.8,0.9,1.2,1.3s0.7,0.9,1,1.4c0.3-0.1,0.2-0.3,0.1-0.4
		C-65.3-1191.2-66-1192.3-67.1-1193z"/>
	<path id="Path_111_" class="st6" d="M-55.7-1196.8c0,0-0.1,0.1-0.1,0.2c0.1,0,0.1,0.1,0.1,0.1c0.1,0,0.3,0,0.4-0.1
		c1.4-0.5,2.8-0.7,4.3-0.6c0.1,0,0.3,0,0.4-0.1c0.1,0,0.1-0.1,0.2-0.3c-0.3,0-0.6,0-0.8,0C-52.7-1197.7-54.3-1197.4-55.7-1196.8z"/>
	<path id="Path_112_" class="st6" d="M-46.4-1187.5c-0.3-1.1-0.8-2.2-1.3-3.3c-0.1-0.2-0.3-0.4-0.5-0.5c0.1,0.3,0.2,0.5,0.3,0.8
		c0.5,1.3,1.1,2.5,1.3,3.8c0,0.1,0.1,0.1,0.2,0.2C-46.3-1186.8-46.3-1187.1-46.4-1187.5L-46.4-1187.5z"/>
	<path id="Path_113_" class="st6" d="M-47.7-1187.8c-0.5-1.2-0.9-2.4-1.4-3.5c-0.1-0.2-0.2-0.4-0.4-0.5c0,0-0.1,0-0.2,0
		c0,0.2,0.1,0.5,0.2,0.7c0.2,0.5,0.4,0.9,0.6,1.4c0.3,0.7,0.6,1.4,0.8,2.1c0,0.1,0.1,0.1,0.3,0.3
		C-47.7-1187.6-47.6-1187.7-47.7-1187.8z"/>
	<path id="Path_114_" class="st6" d="M-43.7-1185.4c-0.2-1.2-0.6-2.3-1.1-3.3c0-0.1-0.1-0.2-0.2-0.2c-0.1,0-0.2,0.1-0.2,0.1
		c0,0.1,0,0.1,0,0.2c0.6,1.3,1.1,2.6,1.2,4c0,0.1,0.1,0.1,0.2,0.3C-43.6-1184.6-43.6-1185-43.7-1185.4L-43.7-1185.4z"/>
	<path id="Path_115_" class="st6" d="M-47.1-1194.8c-0.2-0.1-0.2-0.2-0.3-0.2c-1.2-0.2-2.4-0.2-3.6-0.2c-0.1,0-0.2,0.1-0.3,0.1
		c0.1,0.1,0.1,0.1,0.1,0.1c1.2,0.1,2.3,0.1,3.5,0.2C-47.5-1194.8-47.3-1194.8-47.1-1194.8L-47.1-1194.8z"/>
	<path id="Path_116_" class="st6" d="M-49.2-1193.9c1.2,0,2.4,0.1,3.6,0.2c0.1,0,0.3,0,0.4,0c0,0,0,0,0,0c0,0,0,0,0-0.1
		C-46.1-1194.2-48.2-1194.3-49.2-1193.9z"/>
	<path id="Path_117_" class="st6" d="M-47.4-1193.2c-0.1,0-0.3,0-0.4,0.1c-0.1,0.1-0.2,0.1-0.3,0.2c0.5,0,0.8,0.1,1.1,0.1
		c0.3,0,0.7,0.1,1,0.2c0.3,0.1,0.7,0.2,1,0.2c0.3,0.1,0.6,0.4,1,0.2c-0.1-0.1-0.1-0.2-0.2-0.2C-45.2-1193-46.3-1193.2-47.4-1193.2z"
		/>
	<path id="Path_118_" class="st6" d="M-43.2-1187.1c-0.2,0-0.2,0.2-0.2,0.3c0.1,0.3,0.2,0.7,0.3,1c0.1,0.6,0.3,1.3,0.4,1.9
		c0,0.2,0,0.3,0.3,0.3C-42.5-1184.8-42.7-1186-43.2-1187.1z"/>
	<path id="Path_119_" class="st6" d="M-43.7-1189.9c0.1,0.2,0.1,0.3,0.2,0.3c0.5,0.2,1,0.4,1.5,0.6c0.1,0,0.2-0.1,0.2-0.1
		c0.1-0.1,0-0.2-0.1-0.2C-42.4-1189.6-43-1189.8-43.7-1189.9L-43.7-1189.9z"/>
	<path id="Path_120_" class="st6" d="M-42.4-1188.3c0.4,0.3,0.8,0.5,1.2,0.6c0,0,0.1,0,0.1-0.1s0-0.2,0-0.2
		c-0.4-0.2-0.8-0.4-1.2-0.5C-42.4-1188.4-42.4-1188.3-42.4-1188.3z"/>
	<path id="Path_121_" class="st6" d="M-40.5-1183.2c-0.2,0.2-0.2,0.2-0.2,0.3c0,0.2-0.1,0.5,0.3,0.8
		C-40.4-1182.5-40.4-1182.8-40.5-1183.2z"/>
	<path id="Path_122_" class="st6" d="M-39.8-1184.3c0.1,0,0.2,0.1,0.3-0.1l-0.6-0.6C-40.1-1184.8-40-1184.5-39.8-1184.3z"/>
</g>
</svg>
